<?xml version="1.0" encoding="utf-8"?>
<!-- Generator: Adobe Illustrator 24.2.0, SVG Export Plug-In . SVG Version: 6.00 Build 0)  -->
<svg version="1.1" id="Layer_1" xmlns="http://www.w3.org/2000/svg" xmlns:xlink="http://www.w3.org/1999/xlink" x="0px" y="0px"
	 viewBox="0 0 90.3 109.1" style="enable-background:new 0 0 90.3 109.1;" xml:space="preserve">
<style type="text/css">
	.st0{fill:#EE4C2C;}
	.st1{fill:#4285F4;}
</style>
<g>
	<path class="st0" d="M77,31.7l-8.1,8.1c13.3,13.3,13.3,34.7,0,47.8c-13.3,13.3-34.7,13.3-47.8,0c-13.3-13.3-13.3-34.7,0-47.8l0,0
		l21.1-21.1l3-3l0,0V-0.2L13.4,31.6c-17.7,17.7-17.7,46.3,0,64s46.3,17.7,63.7,0C94.7,77.9,94.7,49.5,77,31.7z"/>
	
		<ellipse transform="matrix(1.850904e-02 -0.9998 0.9998 1.850904e-02 36.0732 84.5472)" class="st0" cx="61.1" cy="23.9" rx="5.9" ry="5.9"/>
</g>
<g>
	<path class="st1" d="M62.5,78.8c-0.6,0.3-1.3,0.6-1.9,0.9c-0.2-0.3-0.4-0.6-0.6-0.8c-0.5-0.8-1-1.5-1.5-2.3
		c-0.5-0.7-0.9-1.4-1.4-2.1c-0.5-0.8-1-1.5-1.5-2.3c-0.4-0.7-0.9-1.3-1.3-2c-0.3-0.4-0.5-0.8-0.8-1.2c0,0-0.1-0.1-0.2-0.1
		c-0.5,0.1-1,0.3-1.4,0.4c-0.3,0.1-0.6,0.1-1,0.1c-0.3,0-0.6,0.1-0.9,0.1c-0.5,0.1-1,0.1-1.5,0.2c-0.5,0-1,0.1-1.4,0.1
		c-1.1,0-2.2,0-3.3,0c-0.7,0-1.4-0.1-2.1-0.2c-0.5,0-1-0.1-1.5-0.1c-0.4,0-0.7-0.1-1.1-0.2c-0.3,0-0.6-0.1-0.9-0.1
		c-0.3-0.1-0.6-0.1-0.9-0.2c-0.2,0-0.5-0.1-0.7-0.1c0,0-0.1,0-0.1,0C36,68.6,36,68.6,35.7,69c-0.5,0.7-0.9,1.3-1.4,2
		c-0.5,0.6-0.9,1.3-1.4,1.9c-0.4,0.6-0.9,1.3-1.3,1.9c-0.5,0.7-0.9,1.3-1.4,2c-0.4,0.6-0.9,1.3-1.3,1.9c0,0-0.1,0.1-0.1,0.1
		c-0.6-0.3-1.1-0.6-1.7-0.8c-0.1-0.1-0.1-0.1,0-0.2c0.3-0.6,0.7-1.2,1-1.9c0.7-1.3,1.4-2.6,2-3.9c0.6-1.1,1.2-2.2,1.7-3.2
		c0.5-0.9,1-1.9,1.5-2.8c0.1-0.2-0.1-0.4-0.1-0.5c-0.4-0.7-0.6-1.3-0.8-2c-0.3-0.8-0.3-1.7-0.3-2.6c0-0.3,0.1-0.6,0.1-0.9
		c-0.1,0-0.1,0-0.2,0c-0.8,0-1.5,0.2-2.2,0.7c-0.7,0.5-1.3,1.2-1.9,1.9c-0.6,0.8-1.2,1.6-2,2.3c-0.6,0.5-1.3,1-2,1.4
		c-0.7,0.4-1.5,0.6-2.3,0.5c-0.2,0-0.3-0.1-0.4-0.3c-0.1-0.2,0.1-0.3,0.2-0.4c0.3-0.2,0.7-0.4,1-0.6c0.3-0.2,0.6-0.5,0.8-0.8
		c0.7-1,1.2-2.1,1.7-3.2c0.4-0.9,0.8-1.8,1.4-2.6c0.5-0.8,1.2-1.4,2.1-1.8c0.7-0.3,1.4-0.4,2.1-0.3c0.6,0.1,1.1,0.2,1.7,0.4
		c0.4,0.2,0.7,0.4,1.1,0.6c0.1,0.1,0.2,0.1,0.4,0c0.5-0.5,1.1-1,1.8-1.2c0.4-0.2,0.8-0.3,1.3-0.4c0.5-0.1,1-0.2,1.5-0.2
		c0.7-0.1,1.5-0.1,2.2,0c0.7,0.1,1.4,0.1,2.1,0.1c0.7,0.1,1.5,0.1,2.2,0.2c0.5,0,1.1,0,1.6-0.1c0.5-0.1,1-0.1,1.4-0.2
		c0.7-0.2,1.2-0.6,1.7-1.1c0.6-0.7,1-1.5,1.4-2.3c0.4-1,0.8-2.1,1.3-3.1c0.5-1.1,1-2.2,1.7-3.3c0.7-1,1.4-1.9,2.3-2.7
		c0.6-0.5,1.2-0.9,1.9-1.1c0.7-0.3,1.5-0.4,2.3-0.4c0.1,0,0.2-0.1,0.3-0.2c0.6-0.7,1.2-1.3,1.8-2c0,0,0.1,0,0.1,0
		c0.1,0.4,0.2,0.7,0.3,1.1c0.4-0.3,0.7-0.6,1-0.9c0,0.1,0,0.2,0,0.2c0,0.8,0,1.5,0,2.3c0,0.1,0.1,0.2,0.1,0.3c1.5,1.5,3,3,4.5,4.6
		c0.2,0.2,0.5,0.5,0.7,0.7c0.1,0.1,0.1,0.2,0.1,0.4c0,0.7-0.1,1.4-0.1,2.1c0,0.3-0.2,0.3-0.4,0.4c-0.7,0.3-1.4,0.5-2.1,0.8
		c-0.1,0-0.2,0.1-0.3,0.1c-0.2,0.1-0.4,0-0.5-0.2c-0.1-0.2-0.2-0.4-0.3-0.5c-0.1-0.3-0.4-0.4-0.7-0.4c-0.2-0.1-0.5-0.1-0.8-0.1
		c-0.3,0-0.6,0.1-0.9,0.2c-0.6,0.1-1.1,0.3-1.7,0.2c-0.4,0-0.8-0.2-1.2-0.6c0,0.1,0,0.2,0,0.3c-0.1,1.2-0.1,2.3-0.2,3.5
		c0,0.9-0.1,1.8-0.1,2.7c-0.1,0.9-0.1,1.8-0.2,2.6c0,0.2,0,0.4,0,0.7c-0.1,0.6-0.1,1.2-0.2,1.9c-0.2,1-0.5,2-1,2.8
		c-0.4,0.7-0.9,1.3-1.4,1.9c-0.1,0.1-0.1,0.2-0.1,0.4c0.6,1.1,1.1,2.3,1.7,3.5c0.7,1.4,1.4,2.7,2,4.1c0.5,1,1,2,1.5,3.1
		C62.1,78.1,62.3,78.5,62.5,78.8z"/>
	<path class="st1" d="M22.6,79.2c0.2-0.3,0.4-0.6,0.6-0.9c0.2-0.2,0.3-0.4,0.5-0.6c0.1-0.1,0.1-0.1,0.2,0c0.9,0.6,1.8,1.2,2.7,1.7
		c0.9,0.5,1.8,1.1,2.7,1.5c0.8,0.4,1.6,0.7,2.4,1.1c0.5,0.2,1.1,0.4,1.6,0.6c0.5,0.2,1.1,0.3,1.6,0.4c0.5,0.1,1,0.3,1.5,0.4
		c0.5,0.1,1,0.2,1.4,0.2c0.3,0.1,0.7,0.1,1,0.2c0.4,0.1,0.7,0.1,1.1,0.1c2.6,0.2,5.2,0.3,7.8,0.2c0.8,0,1.6-0.1,2.4-0.2
		c0.5,0,1-0.1,1.4-0.1c0.4,0,0.7-0.1,1.1-0.2c0.2,0,0.5-0.1,0.7-0.1c0.6-0.1,1.2-0.2,1.8-0.3c0.5-0.1,0.9-0.2,1.4-0.4
		c0.6-0.2,1.2-0.3,1.7-0.6c0.6-0.2,1.3-0.5,1.9-0.8c0.7-0.3,1.5-0.7,2.2-1.1c0.9-0.5,1.8-1,2.6-1.5c0.4-0.2,0.8-0.5,1.1-0.7
		c0,0,0.1,0,0.2,0c0.4,0.5,0.7,1,1.1,1.5c0,0,0,0.2,0,0.2c-1,0.7-2,1.4-3.1,2.1c-1,0.6-2,1.2-3.1,1.7c-0.8,0.4-1.6,0.7-2.4,1.1
		c-0.6,0.2-1.2,0.5-1.8,0.7c-0.5,0.2-0.9,0.3-1.4,0.5c-0.4,0.1-0.8,0.3-1.2,0.4c-0.5,0.1-1,0.2-1.4,0.3c-0.4,0.1-0.8,0.2-1.2,0.3
		c-0.2,0.1-0.4,0.1-0.6,0.1c-0.8,0.1-1.7,0.2-2.5,0.3c-1.1,0.2-2.2,0.2-3.3,0.2c-0.7,0-1.5-0.1-2.2-0.1c-0.5,0-1-0.1-1.5-0.1
		c-0.4,0-0.7-0.1-1.1-0.2c-0.3,0-0.6-0.1-0.8-0.1c-0.3-0.1-0.6-0.1-0.9-0.2c-0.4-0.1-0.7-0.2-1.1-0.2c-0.3-0.1-0.7-0.2-1-0.2
		c-0.3-0.1-0.6-0.2-0.9-0.3c-0.4-0.1-0.8-0.2-1.2-0.4c-0.3-0.1-0.7-0.2-1-0.3c-0.4-0.2-0.8-0.3-1.2-0.5c-0.6-0.2-1.2-0.5-1.8-0.8
		c-0.7-0.4-1.5-0.7-2.2-1.1c-0.9-0.5-1.8-1-2.7-1.6c-0.7-0.4-1.3-0.9-1.9-1.3c-0.4-0.3-0.7-0.6-1.1-0.9
		C22.6,79.3,22.6,79.2,22.6,79.2z"/>
</g>
</svg>
