<?xml version="1.0" encoding="utf-8"?>
<!-- Generator: Adobe Illustrator 24.2.0, SVG Export Plug-In . SVG Version: 6.00 Build 0)  -->
<svg version="1.1" id="Layer_1" xmlns="http://www.w3.org/2000/svg" xmlns:xlink="http://www.w3.org/1999/xlink" x="0px" y="0px"
	 viewBox="0 0 543.7 121.7" enable-background="new 0 0 543.7 121.7" xml:space="preserve">
<g>
	<path fill="#EE4C2C" d="M62.5,27.4L55.9,34c10.8,10.8,10.8,28.2,0,38.8c-10.8,10.8-28.2,10.8-38.8,0C6.3,62,6.3,44.6,17.1,34l0,0
		l17.1-17.1l2.4-2.4l0,0V1.6L10.8,27.4c-14.4,14.4-14.4,37.6,0,52s37.6,14.4,51.7,0C76.9,64.9,76.9,41.8,62.5,27.4z"/>
	<circle fill="#EE4C2C" cx="49.6" cy="21" r="4.8"/>
</g>
<g enable-background="new    ">
	<path fill="#FFFFFF" d="M101.1,8.3h65.3V16h-28.5v73.2h-8.3V16h-28.5V8.3z"/>
	<path fill="#FFFFFF" d="M156.3,29.9l8-1.7v12.7c2-4,4.5-7.1,7.5-9.4s6.3-3.4,10.1-3.4c3.8,0,7.3,0.9,10.4,2.7l-2.1,7.5
		c-2.8-1.7-5.8-2.6-9-2.6c-6.6,0-12.3,5.1-16.8,15.3v38.1h-8V29.9z"/>
	<path fill="#FFFFFF" d="M195.6,36.9c5.6-5.8,12.5-8.7,20.9-8.7c8.4,0,15.2,2.8,20.6,8.5c5.2,5.8,7.9,13.3,7.9,22.7
		c0,9.3-2.8,16.9-8.3,22.7c-5.5,5.9-12.5,8.8-20.8,8.8s-15.2-2.8-20.6-8.6c-5.4-5.7-8.1-13.2-8.1-22.6
		C187.3,50.4,190.1,42.8,195.6,36.9z M201.1,76.9c3.9,4.5,8.9,6.7,15.2,6.7c6.3,0,11.3-2.2,15.1-6.7c3.8-4.5,5.7-10.2,5.7-17.3
		c0-7.3-1.9-13.1-5.8-17.6c-3.9-4.4-8.9-6.6-15.2-6.6c-6.3,0-11.3,2.2-15.1,6.7s-5.8,10.2-5.8,17.3
		C195.3,66.7,197.3,72.5,201.1,76.9z"/>
	<path fill="#FFFFFF" d="M247.6,107.7c1.6-3.2,2.5-8,2.5-14.3v-0.1v-0.1v-0.1v-0.1v-0.1V93v-0.1v-0.1v-0.1v-0.1v-0.1v-0.1v-0.1v-0.1
		v-0.1v-0.1v-0.1v-0.1v-0.1v-0.1V92V92v-0.1v-0.1v-0.1v-0.1v-0.1v-0.1v-0.1v-0.1v-0.1v-0.1v-0.1v-0.1v-0.1v-0.1V91V91v-0.1v-0.1
		v-0.1v-0.1v-0.1v-0.1v-0.1v-0.1v-0.1v-0.1v-0.1v-0.1v-0.1v-0.1V90V90v-0.1v-0.1v-0.1v-0.1v-0.1v-0.1v-0.1v-0.1v-0.1v-0.1v-0.1v-0.1
		v-0.1v-0.1V89v-0.1v-0.1v-0.1v-0.1v-0.1v-0.1v-0.1v-0.1v-0.1v-0.1v-0.1v-0.1v-0.1v-0.1v-0.1V88v-0.1v-0.1v-0.1v-0.1v-0.1v-0.1v-0.1
		v-0.1v-0.1v-0.1v-0.1v-0.1v-0.1v-0.1v-0.1V87v-0.1v-0.1v-0.1v-0.1v-0.1v-0.1v-0.1v-0.1v-0.1v-0.1v-0.1v-0.1v-0.1v-0.1V86V86v-0.1
		v-0.1v-0.1v-0.1v-0.1v-0.1v-0.1v-0.1v-0.1v-0.1v-0.1v-0.1v-0.1v-0.1V85V85v-0.1v-0.1v-0.1v-0.1v-0.1v-0.1v-0.1v-0.1v-0.1v-0.1v-0.1
		v-0.1v-0.1v-0.1V84V84v-0.1v-0.1v-0.1v-0.1v-0.1v-0.1v-0.1v-0.1v-0.1v-0.1v-0.1v-0.1v-0.1v-0.1V83v-0.1v-0.1v-0.1v-0.1v-0.1v-0.1
		v-0.1v-0.1v-0.1v-0.1v-0.1v-0.1v-0.1v-0.1V82v-0.1v-0.1v-0.1v-0.1v-0.1v-0.1v-0.1v-0.1v-0.1v-0.1v-0.1v-0.1v-0.1v-0.1V81v-0.1v-0.1
		v-0.1v-0.1v-0.1v-0.1v-0.1v-0.1v-0.1v-0.1v-0.1v-0.1v-0.1V80V80v-0.1v-0.1v-0.1v-0.1v-0.1v-0.1v-0.1v-0.1v-0.1v-0.1v-0.1v-0.1V79
		V79v-0.1v-0.1v-0.1v-0.1v-0.1v-0.1v-0.1v-0.1v-0.1v-0.1v-0.1v-0.1V78v-0.1v-0.1v-0.1v-0.1v-0.1v-0.1v-0.1v-0.1v-0.1v-0.1v-0.1v-0.1
		v-0.1v-0.1v-0.1v-0.1v-0.1v-0.1v-0.1v-0.1v-0.1v-0.1v-0.1v-0.1v-0.1V76V76v-0.1v-0.1v-0.1v-0.1v-0.1v-0.1v-0.1v-0.1v-0.1v-0.1v-0.1
		V75V75v-0.1v-0.1v-0.1v-0.1v-0.1v-0.1v-0.1v-0.1v-0.1v-0.1v-0.1V74v-0.1v-0.1v-0.1v-0.1v-0.1v-0.1v-0.1v-0.1v-0.1v-0.1v-0.1V73V73
		v-0.1v-0.1v-0.1v-0.1v-0.1v-0.1v-0.1v-0.1v-0.1v-0.1v-0.1v-0.1v-0.1v-0.1v-0.1v-0.1v-0.1v-0.1v-0.1v-0.1v-0.1v-0.1v-0.1v-0.1v-0.1
		v-0.1v-0.1v-0.1v-0.1v-0.1v-0.1v-0.1v-0.1v-0.1V70v-0.1v-0.1v-0.1v-0.1v-0.1v-0.1v-0.1v-0.1v-0.1v-0.1v-0.1V69v-0.1v-0.1v-0.1v-0.1
		v-0.1v-0.1v-0.1v-0.1v-0.1v-0.1V68V68v-0.1v-0.1v-0.1v-0.1v-0.1v-0.1v-0.1v-0.1v-0.1v-0.1v-0.1v-0.1v-0.1v-0.1v-0.1v-0.1v-0.1v-0.1
		v-0.1v-0.1v-0.1V66v-0.1v-0.1v-0.1v-0.1v-0.1v-0.1v-0.1v-0.1v-0.1V65V65v-0.1v-0.1v-0.1v-0.1v-0.1v-0.1v-0.1v-0.1v-0.1V64V64v-0.1
		v-0.1v-0.1v-0.1v-0.1v-0.1v-0.1v-0.1v-0.1V63V63v-0.1v-0.1v-0.1v-0.1v-0.1v-0.1v-0.1v-0.1v-0.1V62v-0.1v-0.1v-0.1v-0.1v-0.1v-0.1
		v-0.1v-0.1v-0.1v-0.1v-0.1v-0.1v-0.1v-0.1v-0.1v-0.1v-0.1v-0.1v-0.1v-0.1V60v-0.1v-0.1v-0.1v-0.1v-0.1v-0.1v-0.1v-0.1v-0.1V59v-0.1
		v-0.1v-0.1v-0.1v-0.1v-0.1v-0.1v-0.1v-0.1V58V58v-0.1v-0.1v-0.1v-0.1v-0.1v-0.1v-0.1v-0.1v-0.1V57v-0.1v-0.1v-0.1v-0.1v-0.1v-0.1
		v-0.1v-0.1v-0.1v-0.1v-0.1v-0.1v-0.1v-0.1v-0.1v-0.1v-0.1v-0.1v-0.1v-0.1v-0.1v-0.1v-0.1v-0.1v-0.1v-0.1v-0.1v-0.1V54v-0.1v-0.1
		v-0.1v-0.1v-0.1v-0.1v-0.1v-0.1v-0.1V53v-0.1v-0.1v-0.1v-0.1v-0.1v-0.1v-0.1v-0.1v-0.1V52v-0.1v-0.1v-0.1v-0.1v-0.1v-0.1v-0.1v-0.1
		v-0.1v-0.1v-0.1v-0.1v-0.1v-0.1v-0.1v-0.1v-0.1v-0.1V50v-0.1v-0.1v-0.1v-0.1v-0.1v-0.1v-0.1v-0.1V49v-0.1v-0.1v-0.1v-0.1v-0.1v-0.1
		v-0.1v-0.1v-0.1V48v-0.1v-0.1v-0.1v-0.1v-0.1v-0.1v-0.1v-0.1V47v-0.1v-0.1v-0.1v-0.1v-0.1v-0.1v-0.1v-0.1v-0.1V46v-0.1v-0.1v-0.1
		v-0.1v-0.1v-0.1v-0.1v-0.1v-0.1v-0.1v-0.1v-0.1v-0.1v-0.1v-0.1v-0.1v-0.1V44v-0.1v-0.1v-0.1v-0.1v-0.1v-0.1v-0.1v-0.1V43v-0.1v-0.1
		v-0.1v-0.1v-0.1v-0.1v-0.1v-0.1V42v-0.1v-0.1v-0.1v-0.1v-0.1v-0.1v-0.1v-0.1V41v-0.1v-0.1v-0.1v-0.1v-0.1v-0.1v-0.1v-0.1v-0.1v-0.1
		v-0.1v-0.1v-0.1v-0.1v-0.1v-0.1v-0.1v-0.1v-0.1v-0.1v-0.1v-0.1v-0.1v-0.1v-0.1V38v-0.1v-0.1v-0.1v-0.1v-0.1v-0.1v-0.1v-0.1V37v-0.1
		v-0.1v-0.1v-0.1v-0.1v-0.1v-0.1V36v-0.1v-0.1v-0.1v-0.1v-0.1v-0.1v-0.1v-0.1V35v-0.1v-0.1v-0.1v-0.1v-0.1v-0.1v-0.1v-0.1v-0.1v-0.1
		v-0.1v-0.1v-0.1v-0.1v-0.1v-0.1V33v-0.1v-0.1v-0.1v-0.1v-0.1v-0.1v-0.1V32v-0.1v-0.1v-0.1v-0.1v-0.1v-0.1v-0.1V31V31v-0.1v-0.1
		v-0.1v-0.1v-0.6l8-1.7v0.1v0.1v0.1v0.1v0.1v0.1v0.1v0.1v0.1v0.1v0.1v0.1V29v0.1v0.1v0.1v0.1v0.1v0.1v0.1v0.1v0.1v0.1v0.1v0.1v0.1
		v0.1V30V30v0.1v0.1v0.1v0.1v0.1v0.1v0.1v0.1v0.1v0.1v0.1v0.1v0.1v0.1V31V31v0.1v0.1v0.1v0.1v0.1v0.1v0.1v0.1v0.1v0.1v0.1v0.1v0.1
		v0.1V32V32v0.1v0.1v0.1v0.1v0.1v0.1v0.1v0.1v0.1v0.1v0.1v0.1v0.1v0.1V33v0.1v0.1v0.1v0.1v0.1v0.1v0.1v0.1v0.1v0.1v0.1v0.1v0.1v0.1
		v0.1V34v0.1v0.1v0.1v0.1v0.1v0.1v0.1v0.1v0.1v0.1v0.1v0.1v0.1v0.1v0.1V35v0.1v0.1v0.1v0.1v0.1v0.1v0.1v0.1v0.1v0.1v0.1v0.1v0.1v0.1
		V36V36v0.1v0.1v0.1v0.1v0.1v0.1v0.1v0.1v0.1v0.1v0.1v0.1v0.1v0.1V37V37v0.1v0.1v0.1v0.1v0.1v0.1v0.1v0.1v0.1v0.1v0.1v0.1v0.1v0.1
		V38V38v0.1v0.1v0.1v0.1v0.1v0.1v0.1v0.1v0.1v0.1v0.1v0.1v0.1V39v0.1v0.1v0.1v0.1v0.1v0.1v0.1v0.1v0.1v0.1v0.1v0.1v0.1v0.1v0.1V40
		v0.1v0.1v0.1v0.1v0.1v0.1v0.1v0.1v0.1v0.1v0.1v0.1v0.1V41v0.1v0.1v0.1v0.1v0.1v0.1v0.1v0.1v0.1v0.1v0.1v0.1v0.1V42V42v0.1v0.1v0.1
		v0.1v0.1v0.1v0.1v0.1v0.1v0.1v0.1v0.1V43V43v0.1v0.1v0.1v0.1v0.1v0.1v0.1v0.1v0.1v0.1v0.1v0.1V44v0.1v0.1v0.1v0.1v0.1v0.1v0.1v0.1
		v0.1v0.1v0.1v0.1V45v0.1v0.1v0.1v0.1v0.1v0.1v0.1v0.1v0.1v0.1v0.1v0.1V46v0.1v0.1v0.1v0.1v0.1v0.1v0.1v0.1v0.1v0.1v0.1V47V47v0.1
		v0.1v0.1v0.1v0.1v0.1v0.1v0.1v0.1v0.1v0.1V48V48v0.1v0.1v0.1v0.1v0.1v0.1v0.1v0.1v0.1v0.1v0.1V49v0.1v0.1v0.1v0.1v0.1v0.1v0.1v0.1
		v0.1v0.1v0.1V50v0.1v0.1v0.1v0.1v0.1v0.1v0.1v0.1v0.1v0.1v0.1V51v0.1v0.1v0.1v0.1v0.1v0.1v0.1v0.1v0.1v0.1V52v0.1v0.1v0.1v0.1v0.1
		v0.1v0.1v0.1v0.1v0.1v0.1V53v0.1v0.1v0.1v0.1v0.1v0.1v0.1v0.1v0.1v0.1V54V54v0.1v0.1v0.1v0.1v0.1v0.1v0.1v0.1v0.1V55v0.1v0.1v0.1
		v0.1v0.1v0.1v0.1v0.1v0.1v0.1v0.1v0.1v0.1v0.1v0.1v0.1v0.1v0.1v0.1v0.1v0.1V57v0.1v0.1v0.1v0.1v0.1v0.1v0.1v0.1v0.1v0.1V58v0.1v0.1
		v0.1v0.1v0.1v0.1v0.1v0.1v0.1v0.1V59v0.1v0.1v0.1v0.1v0.1v0.1v0.1v0.1v0.1v0.1v0.1v0.1v0.1v0.1v0.1v0.1v0.1v0.1v0.1v0.1V61v0.1v0.1
		v0.1v0.1v0.1v0.1v0.1v0.1v0.1v0.1v0.1v0.1v0.1v0.1v0.1v0.1v0.1v0.1v0.1V63V63v0.1v0.1v0.1v0.1v0.1v0.1v0.1v0.1v0.1V64v0.1v0.1v0.1
		v0.1v0.1v0.1v0.1v0.1v0.1V65v0.1v0.1v0.1v0.1v0.1v0.1v0.1v0.1v0.1V66v0.1v0.1v0.1v0.1v0.1v0.1v0.1v0.1v0.1V67v0.1v0.1v0.1v0.1v0.1
		v0.1v0.1v0.1V68V68v0.1v0.1v0.1v0.1v0.1v0.1v0.1v0.1V69v0.1v0.1v0.1v0.1v0.1v0.1v0.1v0.1v0.1V70v0.1v0.1v0.1v0.1v0.1v0.1v0.1v0.1
		v0.1v0.1v0.1v0.1v0.1v0.1v0.1v0.1v0.1v0.1V72v0.1v0.1v0.1v0.1v0.1v0.1v0.1v0.1V73v0.1v0.1v0.1v0.1v0.1v0.1v0.1v0.1v0.1V74v0.1v0.1
		v0.1v0.1v0.1v0.1v0.1v0.1V75v0.1v0.1v0.1v0.1v0.1v0.1v0.1v0.1V76v0.1v0.1v0.1v0.1v0.1v0.1v0.1v0.1V77v0.1v0.1v0.1v0.1v0.1v0.1v0.1
		v0.1v0.1v0.1v0.1v0.1v0.1v0.1v0.1v0.1v0.1V79v0.1v0.1v0.1v0.1v0.1v0.1v0.1v0.1V80v0.1v0.1v0.1v0.1v0.1v0.1v0.1v0.1V81v0.1v0.1v0.1
		v0.1v0.1v0.1v0.1v0.1v0.1v0.1v0.1v0.1v0.1v0.1v0.1v0.1v0.1v0.1v0.1v0.1v0.1v0.1v0.1v0.1v0.1V84v0.1v0.1v0.1v0.1v0.1v0.1v0.1V85V85
		v0.1v0.1v0.1v0.1v0.1v0.1v0.1V86v0.1v0.1v0.1v0.1v0.1v0.1v0.1v0.1v0.1v0.1v0.1v0.1v0.1v0.1v0.1v0.1v0.1v0.1v0.1v0.1v0.1v0.1v0.1
		v0.1V89v0.1v0.1v0.1v0.1v0.1v0.1v0.1V90v0.1v0.1v0.1v0.1v0.1v0.1v0.1V91v0.1v0.1v0.1v0.1v0.1v0.1v0.1V92v0.1v0.1v0.1v0.1v0.1v0.1
		v0.6c0,7.6-1.1,13.5-3.2,17.7c-2.1,4.2-5.7,7.8-10.8,10.5l-5.4-5.7C243,113.7,245.9,110.9,247.6,107.7z M250.1,6.3
		c0.9-1.1,2.3-1.6,4-1.6c1.7,0,3.1,0.6,4,1.6c0.9,1.1,1.4,2.5,1.4,4c0,1.6-0.4,3-1.4,4.2c-0.9,1.2-2.3,1.8-4,1.8c-1.7,0-3-0.6-4-1.8
		c-0.9-1.1-1.5-2.5-1.5-4.2C248.7,8.8,249.2,7.4,250.1,6.3z"/>
	<path fill="#FFFFFF" d="M297.7,53.3v-3.5c0-4.7-1.1-8.3-3.4-10.6c-2.2-2.3-5.8-3.5-10.6-3.5c-3.1,0-6.4,0.7-10,2.1
		c-3.6,1.4-6.7,3.1-9.4,5.1l-1.8-7.5c2.8-2,6.3-3.7,10.4-5.1c4-1.4,7.9-2.1,11.6-2.1c7,0,12.3,1.7,15.9,5.1s5.4,8.8,5.3,16.1v28.5
		c0,2.3,0.4,3.9,1.1,4.7c0.7,0.8,2.2,1.2,4.5,1.2c0.1,0,0.3,0,0.3,0l-0.5,6.6c-0.6,0.1-1.1,0.1-1.7,0.1c-6.6,0-10.4-2.8-11.3-8.5
		h-0.4c-2.1,2.6-4.7,4.7-7.7,6.4s-6.3,2.5-9.6,2.5c-5.4,0-9.9-1.6-13.5-4.7s-5.3-7-5.3-11.8C261.7,61.8,273.7,54.7,297.7,53.3z
		 M273.5,81c2.3,1.9,5.2,2.8,8.7,2.8c3,0,5.8-0.8,8.5-2.2c2.7-1.5,5-3.3,7-5.6V58.8c-10,1.1-17.1,2.8-21.2,5.2
		c-4.2,2.3-6.3,5.5-6.3,9.5C270.1,76.6,271.2,79.1,273.5,81z"/>
	<path fill="#FFFFFF" d="M313.6,29.9l8-1.7v9.7c3-3,6.4-5.4,10.1-7.1c3.6-1.7,7-2.6,10.2-2.6c5.9,0,10.6,1.8,13.9,5.3
		c3.4,3.6,5,8.6,5,15v40.7h-8V50.9c0-5.2-1.1-9-3.2-11.4c-2.2-2.4-5.4-3.6-9.9-3.6c-3.1,0-6.3,0.8-9.4,2.3c-3.2,1.5-6,3.5-8.6,6.1
		v45h-8V29.9z"/>
	<path fill="#FFFFFF" d="M362.8,83.1l48.1-67.3h-46.6V8.3h57v6.2l-48.1,67.2h47.9v7.5h-58.3V83.1z"/>
	<path fill="#FFFFFF" d="M428.2,36.9c5.6-5.8,12.5-8.7,20.9-8.7c8.4,0,15.2,2.8,20.5,8.5c5.2,5.8,7.9,13.3,7.9,22.7
		c0,9.3-2.8,16.9-8.3,22.7c-5.5,5.9-12.5,8.8-20.8,8.8s-15.2-2.8-20.5-8.6c-5.4-5.7-8.1-13.2-8.1-22.6
		C419.9,50.4,422.7,42.8,428.2,36.9z M433.7,76.9c3.9,4.5,8.9,6.7,15.2,6.7s11.3-2.2,15.1-6.7c3.8-4.5,5.7-10.2,5.7-17.3
		c0-7.3-1.9-13.1-5.8-17.6c-3.9-4.4-8.9-6.6-15.2-6.6s-11.3,2.2-15.1,6.7s-5.8,10.2-5.8,17.3C427.9,66.7,429.9,72.5,433.7,76.9z"/>
	<path fill="#FFFFFF" d="M487,36.9c5.6-5.8,12.5-8.7,20.9-8.7c8.4,0,15.2,2.8,20.5,8.5c5.2,5.8,7.9,13.3,7.9,22.7
		c0,9.3-2.8,16.9-8.3,22.7c-5.5,5.9-12.5,8.8-20.8,8.8s-15.2-2.8-20.5-8.6c-5.4-5.7-8.1-13.2-8.1-22.6
		C478.7,50.4,481.4,42.8,487,36.9z M492.5,76.9c3.9,4.5,8.9,6.7,15.2,6.7s11.3-2.2,15.1-6.7c3.8-4.5,5.7-10.2,5.7-17.3
		c0-7.3-1.9-13.1-5.8-17.6c-3.9-4.4-8.9-6.6-15.2-6.6s-11.3,2.2-15.1,6.7s-5.8,10.2-5.8,17.3C486.7,66.7,488.7,72.5,492.5,76.9z"/>
</g>
<g>
	<path fill="#4285F4" d="M50.7,65.6c-0.5,0.2-1,0.5-1.6,0.7c-0.2-0.2-0.3-0.4-0.5-0.7c-0.4-0.6-0.8-1.3-1.3-1.9
		c-0.4-0.6-0.7-1.1-1.1-1.7c-0.4-0.6-0.8-1.2-1.2-1.9c-0.4-0.5-0.7-1.1-1.1-1.6c-0.2-0.3-0.4-0.7-0.7-1l-0.1-0.1
		c-0.4,0.1-0.8,0.2-1.2,0.3c-0.3,0.1-0.5,0.1-0.8,0.1c-0.2,0-0.5,0.1-0.7,0.1c-0.4,0-0.8,0.1-1.2,0.1s-0.8,0-1.2,0
		c-0.9,0-1.8,0-2.7,0c-0.6,0-1.1-0.1-1.7-0.1c-0.4,0-0.8-0.1-1.2-0.1c-0.3,0-0.6-0.1-0.9-0.1c-0.2,0-0.5-0.1-0.7-0.1
		s-0.5-0.1-0.7-0.1s-0.4-0.1-0.6-0.1h-0.1c-0.4-0.1-0.4-0.1-0.6,0.3c-0.4,0.6-0.8,1.1-1.2,1.6c-0.4,0.5-0.7,1-1.1,1.6
		c-0.4,0.5-0.7,1-1.1,1.5s-0.8,1.1-1.1,1.6c-0.4,0.5-0.7,1-1.1,1.5l-0.1,0.1c-0.5-0.2-0.9-0.5-1.4-0.7c-0.1,0-0.1-0.1,0-0.2
		c0.3-0.5,0.5-1,0.8-1.5c0.6-1,1.1-2.1,1.7-3.1c0.5-0.9,0.9-1.7,1.4-2.6c0.4-0.8,0.8-1.5,1.2-2.3c0.1-0.2,0-0.3-0.1-0.4
		c-0.3-0.5-0.5-1.1-0.7-1.7c-0.2-0.7-0.3-1.4-0.2-2.1c0-0.2,0.1-0.5,0.1-0.7c-0.1,0-0.1,0-0.2,0c-0.7,0-1.2,0.2-1.8,0.6
		c-0.6,0.4-1.1,1-1.5,1.6c-0.5,0.6-1,1.3-1.6,1.8c-0.5,0.4-1,0.8-1.6,1.1s-1.2,0.5-1.8,0.4c-0.1,0-0.3-0.1-0.3-0.2
		c-0.1-0.1,0-0.3,0.2-0.3c0.3-0.2,0.5-0.3,0.8-0.5c0.2-0.2,0.4-0.4,0.6-0.7c0.6-0.8,1-1.7,1.4-2.6c0.3-0.7,0.7-1.4,1.1-2.1
		c0.4-0.6,1-1.1,1.7-1.4c0.5-0.2,1.1-0.3,1.7-0.2c0.5,0.1,0.9,0.2,1.3,0.4c0.3,0.1,0.6,0.3,0.9,0.5c0.1,0.1,0.2,0.1,0.3,0
		c0.4-0.4,0.9-0.8,1.4-1c0.3-0.1,0.7-0.2,1-0.3c0.4-0.1,0.8-0.1,1.2-0.2c0.6-0.1,1.2-0.1,1.8,0c0.6,0,1.1,0.1,1.7,0.1
		c0.6,0,1.2,0.1,1.8,0.1c0.4,0,0.9,0,1.3,0c0.4,0,0.8-0.1,1.2-0.2c0.5-0.2,1-0.5,1.4-0.9c0.5-0.6,0.8-1.2,1.1-1.9
		c0.4-0.8,0.7-1.7,1-2.5c0.4-0.9,0.8-1.8,1.3-2.7c0.5-0.8,1.1-1.6,1.8-2.2c0.5-0.4,1-0.7,1.6-0.9s1.2-0.3,1.8-0.3
		c0.1,0,0.2-0.1,0.2-0.2c0.5-0.5,0.9-1.1,1.4-1.6c0,0,0,0,0.1,0c0.1,0.3,0.2,0.6,0.3,0.9c0.3-0.3,0.6-0.5,0.8-0.7c0,0.1,0,0.1,0,0.2
		c0,0.6,0,1.3,0,1.9c0,0.1,0,0.2,0.1,0.2c1.2,1.2,2.4,2.5,3.6,3.7c0.2,0.2,0.4,0.4,0.6,0.6c0.1,0.1,0.1,0.2,0.1,0.3
		c0,0.6,0,1.1-0.1,1.7c0,0.2-0.2,0.3-0.3,0.3c-0.6,0.2-1.1,0.4-1.7,0.7c-0.1,0-0.2,0.1-0.3,0.1c-0.2,0.1-0.3,0-0.4-0.2
		c-0.1-0.1-0.2-0.3-0.2-0.4c-0.1-0.2-0.3-0.3-0.6-0.4c-0.2-0.1-0.4-0.1-0.6-0.1c-0.3,0-0.5,0.1-0.8,0.1c-0.4,0.1-0.9,0.2-1.3,0.2
		c-0.3,0-0.7-0.2-0.9-0.4c0,0.1,0,0.2,0,0.2c0,0.9-0.1,1.9-0.1,2.8c0,0.7-0.1,1.5-0.1,2.2s-0.1,1.4-0.1,2.1c0,0.2,0,0.4,0,0.5
		c0,0.5-0.1,1-0.2,1.5c-0.1,0.8-0.4,1.6-0.8,2.3c-0.3,0.5-0.8,1-1.2,1.5c0,0.2,0,0.3,0,0.4c0.5,0.9,0.9,1.9,1.4,2.8
		c0.5,1.1,1.1,2.2,1.6,3.3c0.4,0.8,0.8,1.7,1.2,2.5C50.4,65.1,50.5,65.4,50.7,65.6z"/>
	<path fill="#4285F4" d="M18.3,66c0.2-0.2,0.3-0.5,0.5-0.7c0.1-0.2,0.3-0.3,0.4-0.5c0.1-0.1,0.1-0.1,0.2,0c0.7,0.5,1.5,0.9,2.2,1.4
		c0.7,0.4,1.5,0.9,2.2,1.2c0.6,0.3,1.3,0.6,2,0.9c0.4,0.2,0.9,0.3,1.3,0.5c0.4,0.1,0.9,0.3,1.3,0.4s0.8,0.2,1.3,0.3
		c0.4,0.1,0.8,0.1,1.2,0.2c0.3,0,0.6,0.1,0.8,0.1c0.3,0,0.6,0.1,0.9,0.1c2.1,0.2,4.2,0.2,6.3,0.2c0.7,0,1.3-0.1,2-0.1
		c0.4,0,0.8-0.1,1.2-0.1c0.3,0,0.6-0.1,0.9-0.1c0.2,0,0.4-0.1,0.6-0.1c0.5-0.1,1-0.2,1.4-0.3c0.4-0.1,0.7-0.2,1.1-0.3
		c0.5-0.1,0.9-0.3,1.4-0.4c0.5-0.2,1-0.4,1.5-0.6c0.6-0.3,1.2-0.6,1.8-0.9c0.7-0.4,1.4-0.8,2.1-1.2c0.3-0.2,0.6-0.4,0.9-0.6h0.1
		c0.3,0.4,0.6,0.8,0.9,1.2c0,0,0,0.1,0,0.2c-0.8,0.6-1.7,1.2-2.5,1.7s-1.7,1-2.5,1.4c-0.6,0.3-1.3,0.6-2,0.9
		c-0.5,0.2-0.9,0.4-1.4,0.6c-0.4,0.1-0.8,0.3-1.1,0.4s-0.7,0.2-1,0.3c-0.4,0.1-0.8,0.2-1.2,0.3c-0.3,0.1-0.6,0.2-1,0.2
		c-0.2,0-0.3,0.1-0.5,0.1c-0.7,0.1-1.3,0.2-2,0.3c-0.9,0.1-1.8,0.2-2.7,0.2c-0.6,0-1.2-0.1-1.8-0.1c-0.4,0-0.8-0.1-1.2-0.1
		c-0.3,0-0.6-0.1-0.9-0.1c-0.2,0-0.4-0.1-0.7-0.1c-0.2,0-0.5-0.1-0.7-0.1c-0.3-0.1-0.6-0.1-0.9-0.2s-0.6-0.1-0.8-0.2
		c-0.3-0.1-0.5-0.1-0.8-0.2s-0.7-0.2-1-0.3c-0.3-0.1-0.5-0.2-0.8-0.3c-0.3-0.1-0.7-0.2-1-0.4c-0.5-0.2-1-0.4-1.5-0.6
		c-0.6-0.3-1.2-0.6-1.8-0.9c-0.7-0.4-1.4-0.8-2.2-1.3c-0.5-0.3-1-0.7-1.5-1.1C19,66.5,18.7,66.3,18.3,66C18.4,66,18.3,66,18.3,66z"
		/>
</g>
</svg>
