<?xml version="1.0" encoding="utf-8"?>
<!-- Generator: Adobe Illustrator 24.2.0, SVG Export Plug-In . SVG Version: 6.00 Build 0)  -->
<svg version="1.1" id="Layer_1" xmlns="http://www.w3.org/2000/svg" xmlns:xlink="http://www.w3.org/1999/xlink" x="0px" y="0px"
	 viewBox="0 0 494.3 121.7" enable-background="new 0 0 494.3 121.7" xml:space="preserve">
<g>
	<path fill="#EE4C2C" d="M62.5,27.4L55.9,34c10.8,10.8,10.8,28.2,0,38.8c-10.8,10.8-28.2,10.8-38.8,0C6.3,62,6.3,44.6,17.1,34l0,0
		l17.1-17.1l2.4-2.4l0,0V1.6L10.8,27.4c-14.4,14.4-14.4,37.6,0,52s37.6,14.4,51.7,0C76.9,64.9,76.9,41.8,62.5,27.4z"/>
	<circle fill="#EE4C2C" cx="49.6" cy="21" r="4.8"/>
</g>
<g enable-background="new    ">
	<path d="M59.1,8.3h65.3V16H95.9v73.2h-8.3V16H59.1C59.1,16,59.1,8.3,59.1,8.3z"/>
	<path d="M114.3,29.9l8-1.7v12.7c2-4,4.5-7.1,7.5-9.4s6.3-3.4,10.1-3.4s7.3,0.9,10.4,2.7l-2.1,7.5c-2.8-1.7-5.8-2.6-9-2.6
		c-6.6,0-12.3,5.1-16.8,15.3v38.1h-8V29.9H114.3z"/>
	<path d="M153.6,36.9c5.6-5.8,12.5-8.7,20.9-8.7s15.2,2.8,20.6,8.5c5.2,5.8,7.9,13.3,7.9,22.7c0,9.3-2.8,16.9-8.3,22.7
		c-5.5,5.9-12.5,8.8-20.8,8.8s-15.2-2.8-20.6-8.6c-5.4-5.7-8.1-13.2-8.1-22.6C145.3,50.4,148.1,42.8,153.6,36.9z M159.1,76.9
		c3.9,4.5,8.9,6.7,15.2,6.7s11.3-2.2,15.1-6.7s5.7-10.2,5.7-17.3c0-7.3-1.9-13.1-5.8-17.6c-3.9-4.4-8.9-6.6-15.2-6.6
		s-11.3,2.2-15.1,6.7s-5.8,10.2-5.8,17.3C153.3,66.7,155.3,72.5,159.1,76.9z"/>
	<path d="M208.1,30l8-1.7v64.9c0,7.6-1.1,13.5-3.2,17.7c-2.1,4.2-5.7,7.8-10.8,10.5l-5.4-5.7c4.3-2,7.2-4.8,8.9-8
		c1.6-3.2,2.5-8,2.5-14.3 M208.1,6.3c0.9-1.1,2.3-1.6,4-1.6s3.1,0.6,4,1.6c0.9,1.1,1.4,2.5,1.4,4c0,1.6-0.4,3-1.4,4.2
		c-0.9,1.2-2.3,1.8-4,1.8s-3-0.6-4-1.8c-0.9-1.1-1.5-2.5-1.5-4.2C206.7,8.8,207.2,7.4,208.1,6.3z"/>
	<path d="M255.7,53.3v-3.5c0-4.7-1.1-8.3-3.4-10.6c-2.2-2.3-5.8-3.5-10.6-3.5c-3.1,0-6.4,0.7-10,2.1c-3.6,1.4-6.7,3.1-9.4,5.1
		l-1.8-7.5c2.8-2,6.3-3.7,10.4-5.1c4-1.4,7.9-2.1,11.6-2.1c7,0,12.3,1.7,15.9,5.1s5.4,8.8,5.3,16.1v28.5c0,2.3,0.4,3.9,1.1,4.7
		c0.7,0.8,2.2,1.2,4.5,1.2c0.1,0,0.3,0,0.3,0l-0.5,6.6c-0.6,0.1-1.1,0.1-1.7,0.1c-6.6,0-10.4-2.8-11.3-8.5h-0.4
		c-2.1,2.6-4.7,4.7-7.7,6.4s-6.3,2.5-9.6,2.5c-5.4,0-9.9-1.6-13.5-4.7s-5.3-7-5.3-11.8C219.7,61.8,231.7,54.7,255.7,53.3z M231.5,81
		c2.3,1.9,5.2,2.8,8.7,2.8c3,0,5.8-0.8,8.5-2.2c2.7-1.5,5-3.3,7-5.6V58.8c-10,1.1-17.1,2.8-21.2,5.2c-4.2,2.3-6.3,5.5-6.3,9.5
		C228.1,76.6,229.2,79.1,231.5,81z"/>
	<path d="M271.6,29.9l8-1.7v9.7c3-3,6.4-5.4,10.1-7.1c3.6-1.7,7-2.6,10.2-2.6c5.9,0,10.6,1.8,13.9,5.3c3.4,3.6,5,8.6,5,15v40.7h-8
		V50.9c0-5.2-1.1-9-3.2-11.4c-2.2-2.4-5.4-3.6-9.9-3.6c-3.1,0-6.3,0.8-9.4,2.3c-3.2,1.5-6,3.5-8.6,6.1v45h-8V29.9H271.6z"/>
	<path d="M320.8,83.1l48.1-67.3h-46.6V8.3h57v6.2l-48.1,67.2h47.9v7.5h-58.3V83.1z"/>
	<path d="M386.2,36.9c5.6-5.8,12.5-8.7,20.9-8.7s15.2,2.8,20.5,8.5c5.2,5.8,7.9,13.3,7.9,22.7c0,9.3-2.8,16.9-8.3,22.7
		c-5.5,5.9-12.5,8.8-20.8,8.8s-15.2-2.8-20.5-8.6c-5.4-5.7-8.1-13.2-8.1-22.6C377.9,50.4,380.7,42.8,386.2,36.9z M391.7,76.9
		c3.9,4.5,8.9,6.7,15.2,6.7s11.3-2.2,15.1-6.7c3.8-4.5,5.7-10.2,5.7-17.3c0-7.3-1.9-13.1-5.8-17.6c-3.9-4.4-8.9-6.6-15.2-6.6
		s-11.3,2.2-15.1,6.7s-5.8,10.2-5.8,17.3C385.9,66.7,387.9,72.5,391.7,76.9z"/>
	<path d="M445,36.9c5.6-5.8,12.5-8.7,20.9-8.7s15.2,2.8,20.5,8.5c5.2,5.8,7.9,13.3,7.9,22.7c0,9.3-2.8,16.9-8.3,22.7
		c-5.5,5.9-12.5,8.8-20.8,8.8s-15.2-2.8-20.5-8.6c-5.4-5.7-8.1-13.2-8.1-22.6C436.7,50.4,439.4,42.8,445,36.9z M450.5,76.9
		c3.9,4.5,8.9,6.7,15.2,6.7c6.3,0,11.3-2.2,15.1-6.7s5.7-10.2,5.7-17.3c0-7.3-1.9-13.1-5.8-17.6c-3.9-4.4-8.9-6.6-15.2-6.6
		s-11.3,2.2-15.1,6.7s-5.8,10.2-5.8,17.3C444.7,66.7,446.7,72.5,450.5,76.9z"/>
</g>
<g>
	<path d="M50.66,65.66c-0.52,0.24-1.03,0.47-1.56,0.71c-0.15-0.22-0.3-0.45-0.45-0.67c-0.42-0.63-0.84-1.26-1.26-1.89
		c-0.37-0.56-0.73-1.12-1.1-1.68c-0.41-0.62-0.84-1.24-1.25-1.87c-0.36-0.53-0.71-1.07-1.05-1.61c-0.22-0.34-0.44-0.68-0.67-1.01
		c-0.03-0.03-0.1-0.06-0.15-0.06c-0.39,0.1-0.78,0.21-1.17,0.3c-0.25,0.06-0.52,0.08-0.78,0.1c-0.24,0.03-0.5,0.06-0.74,0.08
		c-0.41,0.05-0.82,0.1-1.23,0.13c-0.39,0.03-0.78,0.04-1.17,0.04c-0.89,0-1.79,0.01-2.69-0.01c-0.56-0.01-1.12-0.09-1.68-0.14
		c-0.4-0.03-0.8-0.06-1.19-0.11c-0.29-0.03-0.58-0.09-0.87-0.14c-0.24-0.03-0.47-0.07-0.71-0.11c-0.24-0.04-0.49-0.09-0.73-0.14
		c-0.19-0.03-0.37-0.08-0.56-0.11c-0.03-0.01-0.06,0-0.08-0.01c-0.39-0.08-0.38-0.08-0.61,0.26c-0.38,0.55-0.77,1.08-1.15,1.63
		c-0.37,0.52-0.74,1.05-1.11,1.57c-0.36,0.52-0.73,1.03-1.09,1.54c-0.38,0.54-0.76,1.09-1.15,1.63c-0.36,0.52-0.73,1.03-1.09,1.54
		c-0.03,0.03-0.06,0.06-0.11,0.1c-0.46-0.23-0.92-0.45-1.38-0.68c-0.09-0.04-0.07-0.11-0.03-0.19c0.27-0.5,0.54-1.01,0.8-1.51
		c0.55-1.04,1.1-2.09,1.66-3.13c0.47-0.87,0.94-1.75,1.4-2.62c0.41-0.76,0.8-1.53,1.22-2.28c0.11-0.2-0.04-0.31-0.11-0.43
		c-0.29-0.53-0.49-1.08-0.67-1.66c-0.22-0.68-0.27-1.38-0.23-2.1c0.01-0.24,0.08-0.48,0.12-0.75c-0.06-0.01-0.11-0.03-0.17-0.03
		c-0.66-0.03-1.23,0.2-1.75,0.58c-0.6,0.43-1.07,1-1.52,1.58c-0.5,0.64-0.97,1.31-1.61,1.85c-0.51,0.43-1.05,0.81-1.65,1.1
		c-0.59,0.29-1.19,0.48-1.85,0.38c-0.13-0.02-0.27-0.12-0.34-0.22c-0.08-0.14,0.04-0.27,0.16-0.34c0.26-0.17,0.54-0.31,0.78-0.51
		s0.45-0.42,0.64-0.66c0.59-0.78,0.98-1.68,1.38-2.56c0.32-0.72,0.67-1.43,1.12-2.07c0.43-0.62,0.98-1.13,1.68-1.44
		c0.54-0.24,1.12-0.32,1.73-0.22c0.47,0.07,0.92,0.16,1.35,0.36c0.3,0.14,0.59,0.31,0.87,0.48c0.12,0.08,0.18,0.08,0.29-0.02
		c0.43-0.4,0.88-0.78,1.43-0.99c0.33-0.13,0.67-0.24,1.02-0.31c0.41-0.09,0.82-0.13,1.23-0.19c0.59-0.08,1.18-0.06,1.77-0.01
		c0.55,0.05,1.11,0.08,1.67,0.12c0.61,0.05,1.22,0.12,1.82,0.15c0.43,0.02,0.86-0.01,1.29-0.05c0.4-0.04,0.8-0.09,1.17-0.2
		c0.53-0.16,0.99-0.48,1.36-0.89c0.5-0.56,0.85-1.2,1.13-1.87c0.36-0.83,0.68-1.68,1.02-2.52c0.38-0.92,0.79-1.82,1.34-2.66
		c0.53-0.81,1.11-1.57,1.85-2.19c0.47-0.39,0.99-0.7,1.56-0.91c0.6-0.22,1.22-0.33,1.85-0.34c0.08,0,0.17-0.09,0.24-0.16
		c0.48-0.53,0.95-1.08,1.43-1.61c0.02,0.01,0.04,0.01,0.06,0.01c0.08,0.29,0.17,0.57,0.27,0.89c0.29-0.26,0.55-0.48,0.84-0.73
		c0.01,0.08,0.01,0.15,0.01,0.2c-0.01,0.63-0.03,1.26-0.03,1.89c0,0.07,0.04,0.16,0.09,0.21c1.22,1.24,2.43,2.47,3.65,3.7
		c0.19,0.19,0.38,0.37,0.56,0.57c0.07,0.08,0.12,0.2,0.12,0.31c-0.01,0.56-0.05,1.12-0.08,1.67c-0.01,0.21-0.2,0.26-0.34,0.31
		c-0.56,0.22-1.12,0.44-1.68,0.66c-0.08,0.03-0.17,0.07-0.26,0.1c-0.19,0.06-0.34,0.01-0.43-0.17c-0.08-0.15-0.16-0.29-0.24-0.44
		c-0.12-0.22-0.34-0.29-0.55-0.36c-0.2-0.06-0.41-0.1-0.61-0.1c-0.26,0.01-0.51,0.08-0.76,0.13c-0.45,0.09-0.89,0.24-1.35,0.2
		c-0.34-0.03-0.66-0.15-0.94-0.45c-0.01,0.1-0.01,0.15-0.01,0.21c-0.04,0.94-0.09,1.89-0.13,2.84c-0.03,0.74-0.07,1.49-0.11,2.23
		c-0.04,0.71-0.09,1.43-0.13,2.14c-0.01,0.18-0.02,0.36-0.03,0.54c-0.05,0.5-0.08,1.01-0.17,1.5c-0.14,0.82-0.41,1.6-0.85,2.31
		c-0.34,0.54-0.76,1.04-1.16,1.55c-0.09,0.12-0.12,0.19-0.04,0.34c0.47,0.93,0.92,1.87,1.38,2.81c0.54,1.1,1.1,2.21,1.65,3.31
		c0.41,0.83,0.82,1.66,1.23,2.49C50.39,65.12,50.52,65.38,50.66,65.66z"/>
	<path d="M18.27,65.98c0.17-0.24,0.35-0.48,0.52-0.71c0.13-0.17,0.26-0.34,0.39-0.51c0.06-0.08,0.09-0.08,0.18-0.03
		c0.73,0.47,1.45,0.94,2.2,1.38c0.72,0.43,1.45,0.85,2.2,1.23c0.64,0.33,1.31,0.6,1.96,0.88c0.42,0.18,0.85,0.34,1.29,0.48
		c0.43,0.14,0.86,0.25,1.29,0.36c0.42,0.11,0.84,0.22,1.26,0.31c0.38,0.08,0.78,0.13,1.16,0.2c0.28,0.05,0.56,0.09,0.84,0.13
		c0.29,0.04,0.59,0.08,0.88,0.11c2.1,0.2,4.21,0.21,6.32,0.16c0.66-0.01,1.32-0.09,1.98-0.15c0.38-0.03,0.78-0.06,1.16-0.1
		c0.31-0.03,0.61-0.09,0.91-0.14c0.2-0.03,0.38-0.06,0.58-0.1c0.48-0.09,0.96-0.17,1.45-0.27c0.38-0.08,0.74-0.2,1.11-0.31
		c0.48-0.14,0.95-0.28,1.41-0.45c0.52-0.2,1.03-0.41,1.54-0.64c0.59-0.27,1.18-0.55,1.75-0.87c0.72-0.4,1.43-0.82,2.13-1.24
		c0.31-0.19,0.61-0.38,0.93-0.57c0.03-0.02,0.12,0,0.14,0.03c0.31,0.4,0.61,0.8,0.9,1.21c0.02,0.03,0.01,0.13-0.02,0.15
		c-0.83,0.57-1.66,1.17-2.51,1.7c-0.82,0.5-1.66,0.97-2.52,1.41c-0.64,0.33-1.31,0.59-1.96,0.88c-0.47,0.2-0.94,0.39-1.43,0.57
		c-0.38,0.14-0.76,0.25-1.15,0.37c-0.34,0.1-0.66,0.22-1.01,0.31c-0.38,0.1-0.78,0.19-1.16,0.28c-0.32,0.08-0.64,0.15-0.96,0.22
		c-0.17,0.04-0.35,0.08-0.52,0.1c-0.67,0.1-1.34,0.18-2.01,0.28c-0.9,0.13-1.8,0.18-2.71,0.18c-0.6,0-1.21-0.06-1.81-0.1
		c-0.39-0.03-0.79-0.06-1.18-0.1c-0.3-0.03-0.59-0.1-0.89-0.15c-0.22-0.03-0.45-0.06-0.67-0.1c-0.24-0.04-0.49-0.1-0.73-0.15
		c-0.31-0.06-0.61-0.13-0.92-0.19c-0.28-0.06-0.56-0.13-0.84-0.2c-0.26-0.07-0.51-0.14-0.76-0.22c-0.33-0.1-0.66-0.2-0.99-0.31
		c-0.27-0.09-0.54-0.18-0.81-0.28c-0.34-0.13-0.68-0.24-1.01-0.38c-0.5-0.2-0.99-0.41-1.47-0.64c-0.61-0.29-1.21-0.58-1.79-0.9
		c-0.73-0.41-1.45-0.83-2.16-1.28c-0.53-0.34-1.04-0.71-1.55-1.08c-0.31-0.22-0.61-0.46-0.92-0.69
		C18.32,66.03,18.3,66.01,18.27,65.98z"/>
</g>
</svg>
