<?xml version="1.0" encoding="utf-8"?>
<!-- Generator: Adobe Illustrator 24.2.0, SVG Export Plug-In . SVG Version: 6.00 Build 0)  -->
<svg version="1.1" id="图层_1" xmlns="http://www.w3.org/2000/svg" xmlns:xlink="http://www.w3.org/1999/xlink" x="0px" y="0px"
	 viewBox="0 0 199.7 40.2" style="enable-background:new 0 0 199.7 40.2;" xml:space="preserve">
<style type="text/css">
	.st0{fill:none;stroke:#17D400;stroke-miterlimit:10;}
	.st1{fill:#17D400;stroke:#17D400;stroke-miterlimit:10;}
	.st2{fill:none;stroke:#DC3545;stroke-miterlimit:10;}
	.st3{fill:#DC3545;stroke:#DC3545;stroke-miterlimit:10;}
	.st4{fill-rule:evenodd;clip-rule:evenodd;}
	.st5{fill-rule:evenodd;clip-rule:evenodd;fill:#FFFFFF;}
	.st6{fill:#EE4C2C;}
</style>
<g>
	<path d="M42.99,2.25h14.6v1.7h-6.4v16.4h-1.8V3.95h-6.4V2.25z"/>
	<path d="M59.29,7.05l1.8-0.4v2.9c0.4-0.9,1-1.6,1.7-2.1s1.4-0.8,2.3-0.8c0.8,0,1.6,0.2,2.3,0.6l-0.5,1.7c-0.6-0.4-1.3-0.6-2-0.6
		c-1.5,0-2.8,1.1-3.8,3.4v8.5h-1.8C59.29,20.35,59.29,7.05,59.29,7.05z"/>
	<path d="M70.59,8.65c1.3-1.3,2.8-1.9,4.7-1.9c1.9,0,3.4,0.6,4.6,1.9s1.8,3,1.8,5.1s-0.6,3.8-1.9,5.1c-1.2,1.3-2.8,2-4.7,2
		s-3.4-0.6-4.6-1.9s-1.8-3-1.8-5.1C68.69,11.65,69.29,9.95,70.59,8.65z M71.79,17.55c0.9,1,2,1.5,3.4,1.5s2.5-0.5,3.4-1.5
		c0.8-1,1.3-2.3,1.3-3.9s-0.4-2.9-1.3-3.9s-2-1.5-3.4-1.5s-2.5,0.5-3.4,1.5s-1.3,2.3-1.3,3.9C70.49,15.35,70.89,16.65,71.79,17.55z"
		/>
	<path d="M85.49,7.05l1.8-0.4v14.7c0,1.7-0.2,3-0.7,4s-1.3,1.7-2.4,2.4l-1.2-1.3c1-0.6,1.6-1.2,2-2c0.4-0.7,0.6-1.8,0.6-3.2
		 M85.49,1.75c0.2-0.2,0.5-0.4,0.9-0.4s0.7,0.1,0.9,0.4c0.2,0.2,0.3,0.5,0.3,0.9s-0.1,0.7-0.3,0.9c-0.2,0.3-0.5,0.5-0.9,0.5
		s-0.7-0.1-0.9-0.4c-0.2-0.3-0.3-0.6-0.3-0.9S85.29,2.05,85.49,1.75z"/>
	<path d="M98.89,12.35v-0.8c0-1.1-0.3-1.9-0.8-2.4s-1.3-0.8-2.4-0.8c-0.7,0-1.4,0.2-2.2,0.5s-1.5,0.7-2.1,1.1l-0.4-1.7
		c0.6-0.4,1.4-0.8,2.3-1.1c0.9-0.3,1.8-0.5,2.6-0.5c1.6,0,2.8,0.4,3.6,1.2s1.2,2,1.2,3.6v6.4c0,0.5,0.1,0.9,0.3,1.1
		c0.2,0.2,0.5,0.3,1,0.3h0.1l-0.1,1.5c-0.1,0-0.3,0-0.4,0c-1.5,0-2.3-0.6-2.5-1.9h-0.1c-0.5,0.6-1.1,1.1-1.7,1.4s-1.4,0.5-2.2,0.5
		c-1.2,0-2.2-0.4-3-1c-0.8-0.7-1.2-1.6-1.2-2.6C90.79,14.15,93.49,12.65,98.89,12.35z M93.49,18.55c0.5,0.4,1.2,0.6,1.9,0.6
		c0.7,0,1.3-0.2,1.9-0.5s1.1-0.7,1.6-1.3v-3.9c-2.2,0.3-3.8,0.6-4.8,1.2c-0.9,0.5-1.4,1.2-1.4,2.1
		C92.69,17.55,92.99,18.05,93.49,18.55z"/>
	<path d="M105.19,7.05l1.8-0.4v2.2c0.7-0.7,1.4-1.2,2.3-1.6c0.8-0.4,1.6-0.6,2.3-0.6c1.3,0,2.4,0.4,3.1,1.2c0.8,0.8,1.1,1.9,1.1,3.4
		v9.1h-1.8v-8.6c0-1.2-0.2-2-0.7-2.6c-0.5-0.5-1.2-0.8-2.2-0.8c-0.7,0-1.4,0.2-2.1,0.5s-1.3,0.8-1.9,1.4v10.1h-1.8V7.05H105.19z"/>
	<path d="M118.83,18.95l10.8-15.1h-10.4v-1.6h12.7v1.4l-10.8,15h10.8v1.7h-13.1L118.83,18.95L118.83,18.95z"/>
	<path d="M136.74,8.65c1.3-1.3,2.8-1.9,4.7-1.9s3.4,0.6,4.6,1.9c1.2,1.3,1.8,3,1.8,5.1s-0.6,3.8-1.9,5.1c-1.2,1.3-2.8,2-4.7,2
		s-3.4-0.6-4.6-1.9c-1.2-1.3-1.8-3-1.8-5.1C134.84,11.65,135.54,9.95,136.74,8.65z M137.94,17.55c0.9,1,2,1.5,3.4,1.5
		s2.5-0.5,3.4-1.5s1.3-2.3,1.3-3.9s-0.4-2.9-1.3-3.9c-0.9-1-2-1.5-3.4-1.5s-2.5,0.5-3.4,1.5s-1.3,2.3-1.3,3.9
		C136.64,15.35,137.14,16.65,137.94,17.55z"/>
	<path d="M152.19,8.65c1.3-1.3,2.8-1.9,4.7-1.9s3.4,0.6,4.6,1.9c1.2,1.3,1.8,3,1.8,5.1s-0.6,3.8-1.9,5.1c-1.2,1.3-2.8,2-4.7,2
		s-3.4-0.6-4.6-1.9c-1.2-1.3-1.8-3-1.8-5.1C150.29,11.65,150.89,9.95,152.19,8.65z M153.39,17.55c0.9,1,2,1.5,3.4,1.5
		s2.5-0.5,3.4-1.5s1.3-2.3,1.3-3.9s-0.4-2.9-1.3-3.9c-0.9-1-2-1.5-3.4-1.5s-2.5,0.5-3.4,1.5s-1.3,2.3-1.3,3.9
		C152.09,15.35,152.59,16.65,153.39,17.55z"/>
</g>
<g id="pred_T_1_">
	<rect x="42.43" y="1.71" class="st0" width="15.84" height="19.24"/>
	<rect x="42.43" y="20.95" class="st1" width="7.73" height="4.32"/>
</g>
<g id="pred_r_1_">
	<rect x="58.27" y="6.15" class="st0" width="9.62" height="14.79"/>
	<rect x="58.27" y="20.94" class="st1" width="7.55" height="4.23"/>
</g>
<g id="pred_o_5_">
	<rect x="67.89" y="6.15" class="st0" width="14.4" height="15.27"/>
	<rect x="67.89" y="21.42" class="st1" width="7.6" height="4.35"/>
</g>
<g id="pred_j_1_">
	<rect x="82.29" y="0.85" class="st0" width="7.6" height="27.4"/>
	<rect x="82.29" y="28.25" class="st1" width="7.6" height="4.3"/>
</g>
<g id="pred_a_1_">
	<rect x="89.89" y="6.15" class="st0" width="13.6" height="15.1"/>
	<rect x="89.89" y="21.25" class="st1" width="7.9" height="4.2"/>
</g>
<g id="pred_n_1_">
	<rect x="104.54" y="6.15" class="st2" width="12.71" height="15.1"/>
	<rect x="104.54" y="21.25" class="st3" width="6.95" height="4.2"/>
</g>
<g id="pred_Z_1_">
	<rect x="118.3" y="1.65" class="st0" width="14.8" height="19.6"/>
	<rect x="118.3" y="21.25" class="st1" width="7.45" height="4.2"/>
</g>
<g id="pred_o_4_">
	<rect x="134.14" y="6.25" class="st2" width="14.4" height="15.12"/>
	<rect x="134.14" y="21.37" class="st3" width="7.6" height="4.23"/>
</g>
<g id="pred_o_3_">
	<rect x="149.59" y="6.25" class="st0" width="14.4" height="15.12"/>
	<rect x="149.59" y="21.37" class="st1" width="7.6" height="4.23"/>
</g>
<g>
	<rect x="144.84" y="17.67" class="st4" width="3.2" height="3.2"/>
	<path class="st5" d="M144.84,17.67v3.2h0.6v-3.2H144.84z M146.14,17.67v3.2h0.6v-3.2H146.14z M147.44,17.67v3.2h0.6v-3.2H147.44z
		 M144.84,17.67h3.2v0.6h-3.2V17.67z M144.84,18.97h3.2v0.6h-3.2V18.97z M144.84,20.27h3.2v0.6h-3.2V20.27z"/>
</g>
<g>
	<rect x="113.55" y="17.55" class="st4" width="3.2" height="3.2"/>
	<path class="st5" d="M113.55,17.55v3.2h0.6v-3.2H113.55z M114.85,17.55v3.2h0.6v-3.2H114.85z M116.15,17.55v3.2h0.6v-3.2H116.15z
		 M113.55,17.55h3.2v0.6h-3.2V17.55z M113.55,18.85h3.2v0.6h-3.2V18.85z M113.55,20.15h3.2v0.6h-3.2V20.15z"/>
</g>
<g>
	<path class="st6" d="M34.06,6.83l-1.59,1.59c2.54,2.54,2.54,6.56,0,9.11s-6.56,2.54-9.11,0c-2.54-2.54-2.54-6.56,0-9.11l0,0
		l4.02-4.02l0.53-0.53l0,0V0.8l-6.03,6.03c-3.39,3.39-3.39,8.68,0,12.07s8.68,3.39,12.07,0C37.35,15.62,37.35,10.22,34.06,6.83z"/>
	<circle class="st6" cx="30.99" cy="5.35" r="1.16"/>
</g>
<g>
	<path d="M31.26,15.86c-0.12,0.06-0.24,0.11-0.37,0.16c-0.04-0.05-0.07-0.11-0.11-0.16c-0.1-0.15-0.19-0.29-0.29-0.44
		c-0.09-0.13-0.17-0.27-0.26-0.39c-0.09-0.14-0.19-0.29-0.29-0.44c-0.09-0.12-0.16-0.25-0.25-0.38c-0.05-0.08-0.1-0.16-0.16-0.24
		c-0.01-0.01-0.02-0.01-0.04-0.01c-0.09,0.02-0.18,0.05-0.27,0.07c-0.06,0.01-0.12,0.02-0.18,0.02c-0.06,0.01-0.11,0.01-0.17,0.02
		c-0.09,0.01-0.19,0.02-0.29,0.03s-0.18,0.01-0.27,0.01c-0.21,0-0.42,0-0.63,0c-0.13,0-0.27-0.02-0.39-0.04
		c-0.09-0.01-0.19-0.01-0.28-0.03c-0.07-0.01-0.14-0.02-0.21-0.04c-0.06,0-0.11,0-0.16-0.02c-0.06-0.01-0.11-0.02-0.17-0.04
		c-0.04-0.01-0.09-0.02-0.13-0.03c-0.01,0-0.01,0-0.02,0c-0.09-0.02-0.09-0.02-0.14,0.06c-0.09,0.13-0.18,0.25-0.27,0.38
		c-0.09,0.12-0.17,0.24-0.26,0.37s-0.17,0.24-0.26,0.37s-0.18,0.26-0.27,0.38s-0.17,0.24-0.26,0.37c-0.01,0.01-0.01,0.01-0.03,0.02
		c-0.11-0.06-0.21-0.11-0.32-0.16c-0.02-0.01-0.01-0.03-0.01-0.04c0.06-0.11,0.13-0.24,0.19-0.35c0.13-0.24,0.26-0.49,0.39-0.73
		c0.11-0.21,0.22-0.41,0.33-0.62c0.09-0.18,0.19-0.36,0.29-0.54c0.03-0.05-0.01-0.07-0.03-0.1c-0.06-0.12-0.11-0.25-0.16-0.39
		c-0.05-0.16-0.06-0.32-0.06-0.49c0-0.06,0.02-0.11,0.03-0.17c-0.01,0-0.03-0.01-0.04-0.01c-0.15-0.01-0.29,0.05-0.41,0.14
		c-0.14,0.1-0.25,0.24-0.36,0.37c-0.11,0.15-0.23,0.31-0.38,0.44c-0.12,0.1-0.24,0.19-0.39,0.26c-0.14,0.06-0.28,0.11-0.44,0.09
		c-0.03-0.01-0.06-0.03-0.08-0.05c-0.02-0.04,0.01-0.06,0.04-0.08c0.06-0.04,0.13-0.07,0.18-0.12c0.05-0.05,0.11-0.1,0.15-0.16
		c0.14-0.19,0.23-0.39,0.32-0.6c0.08-0.17,0.16-0.34,0.27-0.49c0.1-0.14,0.23-0.27,0.39-0.34c0.13-0.06,0.27-0.08,0.41-0.05
		c0.11,0.01,0.21,0.04,0.32,0.09c0.07,0.04,0.14,0.07,0.21,0.11c0.03,0.02,0.04,0.02,0.07-0.01c0.1-0.09,0.21-0.18,0.34-0.23
		c0.08-0.03,0.16-0.06,0.24-0.07c0.09-0.02,0.19-0.03,0.29-0.04c0.14-0.02,0.28-0.01,0.42,0c0.13,0.01,0.26,0.02,0.39,0.03
		c0.14,0.01,0.29,0.03,0.43,0.04c0.1,0.01,0.2,0,0.3-0.01c0.09-0.01,0.19-0.02,0.27-0.05c0.12-0.04,0.23-0.11,0.32-0.21
		c0.11-0.13,0.2-0.28,0.27-0.44c0.09-0.19,0.16-0.39,0.24-0.59c0.09-0.21,0.19-0.43,0.32-0.62c0.12-0.19,0.26-0.37,0.44-0.52
		c0.11-0.09,0.23-0.16,0.37-0.21c0.14-0.05,0.29-0.08,0.44-0.08c0.02,0,0.04-0.02,0.06-0.04c0.11-0.12,0.22-0.25,0.34-0.38
		c0.01,0,0.01,0,0.01,0c0.02,0.06,0.04,0.14,0.06,0.21c0.07-0.06,0.13-0.11,0.19-0.17c0,0.02,0,0.04,0,0.05
		c0,0.15-0.01,0.29-0.01,0.44c0,0.01,0.01,0.04,0.02,0.05c0.29,0.29,0.57,0.58,0.85,0.87c0.04,0.04,0.09,0.09,0.13,0.14
		c0.01,0.02,0.03,0.05,0.03,0.07c0,0.13-0.01,0.27-0.02,0.39c0,0.05-0.04,0.06-0.08,0.07c-0.13,0.05-0.27,0.1-0.39,0.15
		c-0.02,0.01-0.04,0.01-0.06,0.02c-0.04,0.01-0.08,0-0.1-0.04s-0.04-0.07-0.06-0.1c-0.03-0.05-0.08-0.07-0.13-0.09
		c-0.04-0.01-0.09-0.02-0.14-0.02c-0.06,0-0.12,0.02-0.18,0.03c-0.11,0.02-0.21,0.06-0.32,0.04c-0.08-0.01-0.16-0.04-0.22-0.11
		c0,0.02,0,0.04,0,0.05c-0.01,0.22-0.02,0.44-0.03,0.67c-0.01,0.17-0.01,0.35-0.03,0.52c-0.01,0.16-0.02,0.34-0.03,0.5
		c0,0.04-0.01,0.09-0.01,0.13c-0.01,0.11-0.02,0.24-0.04,0.35c-0.04,0.19-0.09,0.37-0.2,0.54c-0.08,0.13-0.18,0.24-0.27,0.37
		c-0.02,0.03-0.03,0.04-0.01,0.08c0.11,0.21,0.21,0.44,0.32,0.66c0.13,0.26,0.26,0.52,0.39,0.77c0.09,0.19,0.19,0.39,0.29,0.59
		C31.19,15.74,31.22,15.79,31.26,15.86z"/>
	<path d="M23.66,15.94c0.04-0.06,0.08-0.11,0.12-0.16c0.03-0.04,0.06-0.08,0.09-0.12c0.01-0.02,0.02-0.02,0.04-0.01
		c0.17,0.11,0.34,0.22,0.52,0.32c0.17,0.1,0.34,0.2,0.52,0.29c0.15,0.08,0.31,0.14,0.46,0.21c0.1,0.04,0.2,0.08,0.3,0.11
		c0.1,0.04,0.2,0.06,0.3,0.09c0.1,0.03,0.19,0.05,0.29,0.07c0.09,0.02,0.18,0.03,0.27,0.04c0.06,0.01,0.13,0.02,0.19,0.03
		c0.07,0.01,0.14,0.02,0.21,0.03c0.49,0.05,0.99,0.05,1.48,0.04c0.16,0,0.31-0.02,0.47-0.04c0.09-0.01,0.18-0.01,0.27-0.02
		c0.07-0.01,0.14-0.02,0.21-0.04c0.04-0.01,0.09-0.01,0.14-0.02c0.11-0.02,0.23-0.04,0.34-0.06c0.09-0.02,0.17-0.05,0.26-0.07
		c0.11-0.04,0.22-0.06,0.33-0.11c0.12-0.04,0.24-0.09,0.37-0.15c0.14-0.06,0.28-0.13,0.41-0.2c0.17-0.09,0.34-0.19,0.5-0.29
		c0.07-0.04,0.14-0.09,0.21-0.14c0.01-0.01,0.03,0,0.04,0.01c0.07,0.09,0.14,0.19,0.21,0.29c0.01,0.01,0,0.03-0.01,0.04
		c-0.19,0.14-0.39,0.27-0.59,0.4c-0.19,0.11-0.39,0.23-0.59,0.33c-0.15,0.08-0.31,0.14-0.46,0.21c-0.11,0.05-0.22,0.09-0.34,0.14
		c-0.09,0.04-0.18,0.06-0.27,0.09c-0.08,0.02-0.16,0.05-0.24,0.07c-0.09,0.02-0.18,0.04-0.27,0.06c-0.08,0.02-0.15,0.04-0.22,0.05
		c-0.04,0.01-0.08,0.02-0.12,0.02c-0.16,0.02-0.32,0.04-0.47,0.06c-0.21,0.03-0.42,0.04-0.64,0.04c-0.14,0-0.29-0.01-0.42-0.02
		c-0.09-0.01-0.19-0.01-0.28-0.02c-0.07-0.01-0.14-0.02-0.21-0.04c-0.05-0.01-0.11-0.01-0.16-0.02c-0.06-0.01-0.11-0.02-0.17-0.04
		c-0.07-0.01-0.14-0.03-0.21-0.04c-0.06-0.01-0.13-0.03-0.19-0.05c-0.06-0.01-0.12-0.04-0.18-0.05c-0.08-0.02-0.15-0.05-0.23-0.07
		c-0.06-0.02-0.13-0.04-0.19-0.06c-0.08-0.03-0.16-0.06-0.24-0.09c-0.11-0.05-0.23-0.09-0.34-0.15c-0.14-0.06-0.29-0.14-0.42-0.21
		c-0.17-0.09-0.34-0.19-0.51-0.3c-0.12-0.08-0.24-0.16-0.37-0.25c-0.07-0.05-0.14-0.11-0.21-0.16
		C23.67,15.95,23.67,15.95,23.66,15.94z"/>
</g>
<g>
	<path d="M43.11,21.84l0.1-0.02v1.14h-0.1V21.84z"/>
	<path d="M43.5,22.29c0.07-0.08,0.15-0.11,0.26-0.11c0.08,0,0.15,0.03,0.2,0.08s0.08,0.12,0.08,0.2c0,0.04-0.01,0.08-0.02,0.12
		h-0.51v0.01c0,0.09,0.03,0.16,0.08,0.21c0.05,0.06,0.11,0.08,0.19,0.08c0.08,0,0.16-0.02,0.22-0.06l0.02,0.09
		c-0.07,0.04-0.15,0.06-0.24,0.06c-0.11,0-0.2-0.04-0.26-0.11c-0.07-0.07-0.1-0.17-0.1-0.28C43.4,22.46,43.43,22.37,43.5,22.29z
		 M43.93,22.5c0,0,0-0.02,0-0.03c0-0.06-0.02-0.11-0.05-0.14c-0.03-0.04-0.08-0.05-0.14-0.05c-0.07,0-0.12,0.02-0.16,0.07
		c-0.04,0.04-0.07,0.1-0.08,0.17L43.93,22.5z"/>
	<path d="M44.14,22.22l0.11-0.03v-0.17h0.1v0.18h0.25v0.09h-0.25l-0.01,0.45v0.01c0,0.09,0.04,0.13,0.11,0.13
		c0.04,0,0.09-0.01,0.15-0.04l0.02,0.09c-0.06,0.03-0.11,0.04-0.17,0.04c-0.07,0-0.12-0.02-0.16-0.06
		c-0.03-0.04-0.05-0.09-0.05-0.16c0-0.01,0-0.01,0-0.02l0.01-0.45l-0.12-0.01L44.14,22.22z"/>
	<path d="M44.69,22.22l0.11-0.03v-0.17h0.1v0.18h0.25v0.09H44.9l-0.01,0.45v0.01c0,0.09,0.04,0.13,0.11,0.13
		c0.04,0,0.09-0.01,0.15-0.04l0.02,0.09c-0.06,0.03-0.11,0.04-0.17,0.04c-0.07,0-0.12-0.02-0.16-0.06
		c-0.03-0.04-0.05-0.09-0.05-0.16c0-0.01,0-0.01,0-0.02l0.01-0.45l-0.12-0.01L44.69,22.22z"/>
	<path d="M45.38,22.29c0.07-0.08,0.15-0.11,0.26-0.11c0.08,0,0.15,0.03,0.2,0.08s0.08,0.12,0.08,0.2c0,0.04-0.01,0.08-0.02,0.12
		h-0.51v0.01c0,0.09,0.03,0.16,0.08,0.21c0.05,0.06,0.11,0.08,0.19,0.08c0.08,0,0.16-0.02,0.22-0.06l0.02,0.09
		c-0.07,0.04-0.15,0.06-0.24,0.06c-0.11,0-0.2-0.04-0.26-0.11c-0.07-0.07-0.1-0.17-0.1-0.28C45.27,22.46,45.31,22.37,45.38,22.29z
		 M45.81,22.5c0,0,0-0.02,0-0.03c0-0.06-0.02-0.11-0.05-0.14c-0.03-0.04-0.08-0.05-0.14-0.05c-0.07,0-0.12,0.02-0.16,0.07
		c-0.04,0.04-0.07,0.1-0.08,0.17L45.81,22.5z"/>
	<path d="M46.11,22.2l0.1-0.02v0.16c0.03-0.05,0.06-0.09,0.1-0.12s0.08-0.04,0.13-0.04s0.09,0.01,0.13,0.03l-0.03,0.1
		c-0.04-0.02-0.07-0.03-0.12-0.03c-0.08,0-0.16,0.07-0.21,0.2v0.49h-0.1C46.11,22.97,46.11,22.2,46.11,22.2z"/>
	<path d="M46.68,22.3c0.02-0.02,0.04-0.02,0.06-0.02s0.04,0.01,0.06,0.02c0.02,0.02,0.02,0.04,0.02,0.06c0,0.02-0.01,0.04-0.02,0.06
		c-0.02,0.02-0.04,0.03-0.06,0.03s-0.04-0.01-0.06-0.03s-0.02-0.04-0.02-0.06S46.67,22.32,46.68,22.3z M46.68,22.83
		c0.02-0.02,0.04-0.02,0.06-0.02s0.04,0.01,0.06,0.02c0.02,0.02,0.02,0.04,0.02,0.06s-0.01,0.04-0.02,0.06
		c-0.02,0.02-0.04,0.03-0.06,0.03s-0.04-0.01-0.06-0.03s-0.02-0.04-0.02-0.06S46.67,22.85,46.68,22.83z"/>
	<path d="M47.31,21.92h0.83v0.1h-0.36v0.94h-0.11v-0.94h-0.36V21.92z"/>
	<path d="M43.16,24.29c0.07-0.08,0.16-0.11,0.27-0.11c0.09,0,0.17,0.02,0.24,0.06l-0.03,0.09c-0.06-0.04-0.13-0.06-0.21-0.06
		c-0.08,0-0.15,0.03-0.19,0.08c-0.05,0.06-0.07,0.13-0.07,0.22s0.02,0.17,0.07,0.22s0.11,0.08,0.19,0.08c0.08,0,0.15-0.02,0.21-0.06
		l0.02,0.09c-0.07,0.04-0.15,0.06-0.24,0.06c-0.11,0-0.2-0.04-0.27-0.11s-0.1-0.17-0.1-0.29C43.06,24.46,43.09,24.36,43.16,24.29z"
		/>
	<path d="M43.91,24.29c0.07-0.07,0.16-0.11,0.27-0.11s0.19,0.04,0.26,0.11s0.1,0.17,0.1,0.29s-0.04,0.22-0.11,0.29
		c-0.07,0.08-0.16,0.11-0.27,0.11s-0.19-0.04-0.26-0.11s-0.1-0.17-0.1-0.29C43.8,24.46,43.84,24.36,43.91,24.29z M43.98,24.8
		c0.05,0.06,0.11,0.09,0.19,0.09s0.14-0.03,0.19-0.09s0.07-0.13,0.07-0.22s-0.02-0.17-0.07-0.22c-0.05-0.06-0.11-0.08-0.19-0.08
		s-0.14,0.03-0.19,0.09s-0.07,0.13-0.07,0.22C43.9,24.67,43.93,24.74,43.98,24.8z"/>
	<path d="M44.74,24.2l0.1-0.02v0.12c0.04-0.04,0.08-0.07,0.13-0.09s0.09-0.03,0.13-0.03c0.08,0,0.13,0.02,0.18,0.07
		c0.04,0.05,0.06,0.11,0.06,0.19v0.52h-0.1v-0.49c0-0.07-0.01-0.11-0.04-0.15c-0.03-0.03-0.07-0.05-0.13-0.05
		c-0.04,0-0.08,0.01-0.12,0.03s-0.08,0.04-0.11,0.08v0.58h-0.1C44.74,24.96,44.74,24.2,44.74,24.2z"/>
	<path d="M45.49,24.22l0.11-0.03v-0.12c0-0.18,0.08-0.27,0.23-0.27c0.05,0,0.09,0.01,0.14,0.03c0,0,0,0.01-0.01,0.02
		c0,0.01-0.01,0.03-0.01,0.05c0,0.02-0.01,0.02-0.01,0.02c-0.04-0.02-0.08-0.03-0.12-0.03c-0.04,0-0.07,0.01-0.09,0.04
		S45.7,24,45.7,24.06v0.13h0.24v0.09H45.7v0.66h-0.1v-0.66l-0.12-0.01L45.49,24.22z"/>
	<path d="M46.07,24.3c0.02-0.02,0.04-0.02,0.06-0.02s0.04,0.01,0.06,0.02c0.02,0.02,0.02,0.04,0.02,0.06c0,0.02-0.01,0.04-0.02,0.06
		c-0.02,0.02-0.04,0.03-0.06,0.03s-0.04-0.01-0.06-0.03s-0.02-0.04-0.02-0.06S46.06,24.32,46.07,24.3z M46.07,24.83
		c0.02-0.02,0.04-0.02,0.06-0.02s0.04,0.01,0.06,0.02c0.02,0.02,0.02,0.04,0.02,0.06s-0.01,0.04-0.02,0.06
		c-0.02,0.02-0.04,0.03-0.06,0.03s-0.04-0.01-0.06-0.03s-0.02-0.04-0.02-0.06S46.06,24.85,46.07,24.83z"/>
	<path d="M46.76,24.83c0.02-0.02,0.04-0.02,0.06-0.02s0.04,0.01,0.06,0.02c0.02,0.02,0.02,0.04,0.02,0.06s-0.01,0.04-0.02,0.06
		c-0.02,0.02-0.04,0.03-0.06,0.03s-0.04-0.01-0.06-0.03s-0.02-0.04-0.02-0.06S46.75,24.85,46.76,24.83z"/>
	<path d="M47.14,23.99c0.06-0.06,0.14-0.09,0.24-0.09c0.07,0,0.14,0.02,0.19,0.06s0.09,0.09,0.12,0.15s0.04,0.13,0.04,0.21
		c0,0.06-0.01,0.11-0.02,0.17c-0.01,0.05-0.04,0.11-0.07,0.16s-0.07,0.1-0.11,0.15c-0.04,0.04-0.1,0.08-0.16,0.12
		c-0.06,0.03-0.13,0.06-0.21,0.08l-0.02-0.09c0.14-0.03,0.25-0.09,0.33-0.17s0.14-0.18,0.16-0.29l0,0
		c-0.04,0.03-0.08,0.06-0.13,0.08s-0.1,0.03-0.15,0.03c-0.05,0-0.1-0.01-0.15-0.04s-0.08-0.06-0.11-0.11
		c-0.03-0.05-0.04-0.1-0.04-0.17C47.04,24.14,47.08,24.06,47.14,23.99z M47.21,24.39c0.04,0.04,0.09,0.06,0.16,0.06
		c0.1,0,0.19-0.04,0.26-0.11c0-0.02,0-0.03,0-0.05c0-0.08-0.02-0.16-0.07-0.22c-0.04-0.06-0.11-0.09-0.18-0.09s-0.13,0.02-0.17,0.07
		c-0.04,0.05-0.06,0.1-0.06,0.18C47.14,24.3,47.16,24.36,47.21,24.39z"/>
	<path d="M48.11,24.43c-0.03-0.01-0.06-0.03-0.08-0.04s-0.04-0.03-0.06-0.05s-0.04-0.04-0.05-0.07c-0.01-0.03-0.02-0.05-0.02-0.08
		c0-0.09,0.03-0.16,0.09-0.21s0.14-0.08,0.23-0.08s0.17,0.02,0.23,0.08s0.08,0.12,0.08,0.2c0,0.1-0.07,0.19-0.2,0.26
		c0.03,0.01,0.06,0.03,0.08,0.04s0.05,0.03,0.07,0.05c0.02,0.02,0.04,0.04,0.05,0.07c0.01,0.03,0.02,0.05,0.02,0.08
		c0,0.04-0.01,0.08-0.02,0.11c-0.01,0.03-0.04,0.07-0.06,0.09c-0.03,0.03-0.06,0.05-0.11,0.06c-0.04,0.02-0.09,0.02-0.14,0.02
		c-0.11,0-0.2-0.03-0.25-0.08c-0.06-0.05-0.08-0.12-0.08-0.2C47.89,24.59,47.96,24.5,48.11,24.43z M48.05,24.83
		c0.04,0.04,0.1,0.05,0.18,0.05s0.13-0.02,0.17-0.05c0.04-0.03,0.06-0.08,0.06-0.14c0-0.03-0.01-0.06-0.02-0.08
		c-0.01-0.02-0.04-0.05-0.06-0.07c-0.03-0.02-0.06-0.03-0.08-0.05c-0.03-0.01-0.06-0.03-0.1-0.04c-0.06,0.02-0.11,0.05-0.14,0.09
		S48,24.62,48,24.67C47.99,24.75,48.01,24.8,48.05,24.83z M48.27,24.4c0.05-0.02,0.09-0.05,0.12-0.09s0.05-0.08,0.05-0.13
		c0-0.06-0.02-0.11-0.06-0.14s-0.09-0.05-0.16-0.05s-0.12,0.02-0.16,0.05C48.02,24.08,48,24.12,48,24.17
		C48.01,24.27,48.1,24.35,48.27,24.4z"/>
</g>
<g>
	<path d="M59.15,21.84l0.1-0.02v1.14h-0.1V21.84z"/>
	<path d="M59.54,22.29c0.07-0.08,0.15-0.11,0.26-0.11c0.08,0,0.15,0.03,0.2,0.08s0.08,0.12,0.08,0.2c0,0.04-0.01,0.08-0.02,0.12
		h-0.51v0.01c0,0.09,0.03,0.16,0.08,0.21c0.05,0.06,0.11,0.08,0.19,0.08c0.08,0,0.16-0.02,0.22-0.06l0.02,0.09
		c-0.07,0.04-0.15,0.06-0.24,0.06c-0.11,0-0.2-0.04-0.26-0.11c-0.07-0.07-0.1-0.17-0.1-0.28C59.44,22.46,59.47,22.37,59.54,22.29z
		 M59.97,22.5c0,0,0-0.02,0-0.03c0-0.06-0.02-0.11-0.05-0.14c-0.03-0.04-0.08-0.05-0.14-0.05c-0.07,0-0.12,0.02-0.16,0.07
		c-0.04,0.04-0.07,0.1-0.08,0.17L59.97,22.5z"/>
	<path d="M60.18,22.22l0.11-0.03v-0.17h0.1v0.18h0.25v0.09h-0.25l-0.01,0.45v0.01c0,0.09,0.04,0.13,0.11,0.13
		c0.04,0,0.09-0.01,0.15-0.04l0.02,0.09c-0.06,0.03-0.11,0.04-0.17,0.04c-0.07,0-0.12-0.02-0.16-0.06
		c-0.03-0.04-0.05-0.09-0.05-0.16c0-0.01,0-0.01,0-0.02l0.01-0.45l-0.12-0.01L60.18,22.22z"/>
	<path d="M60.73,22.22l0.11-0.03v-0.17h0.1v0.18h0.25v0.09h-0.25l-0.01,0.45v0.01c0,0.09,0.04,0.13,0.11,0.13
		c0.04,0,0.09-0.01,0.15-0.04l0.02,0.09c-0.06,0.03-0.11,0.04-0.17,0.04c-0.07,0-0.12-0.02-0.16-0.06
		c-0.03-0.04-0.05-0.09-0.05-0.16c0-0.01,0-0.01,0-0.02l0.01-0.45l-0.12-0.01L60.73,22.22z"/>
	<path d="M61.42,22.29c0.07-0.08,0.15-0.11,0.26-0.11c0.08,0,0.15,0.03,0.2,0.08s0.08,0.12,0.08,0.2c0,0.04-0.01,0.08-0.02,0.12
		h-0.51v0.01c0,0.09,0.03,0.16,0.08,0.21c0.05,0.06,0.11,0.08,0.19,0.08c0.08,0,0.16-0.02,0.22-0.06l0.02,0.09
		c-0.07,0.04-0.15,0.06-0.24,0.06c-0.11,0-0.2-0.04-0.26-0.11c-0.07-0.07-0.1-0.17-0.1-0.28C61.31,22.46,61.35,22.37,61.42,22.29z
		 M61.85,22.5c0,0,0-0.02,0-0.03c0-0.06-0.02-0.11-0.05-0.14c-0.03-0.04-0.08-0.05-0.14-0.05c-0.07,0-0.12,0.02-0.16,0.07
		c-0.04,0.04-0.07,0.1-0.08,0.17L61.85,22.5z"/>
	<path d="M62.15,22.2l0.1-0.02v0.16c0.03-0.05,0.06-0.09,0.1-0.12s0.08-0.04,0.13-0.04s0.09,0.01,0.13,0.03l-0.03,0.1
		c-0.04-0.02-0.07-0.03-0.12-0.03c-0.08,0-0.16,0.07-0.21,0.2v0.49h-0.1C62.15,22.97,62.15,22.2,62.15,22.2z"/>
	<path d="M62.72,22.3c0.02-0.02,0.04-0.02,0.06-0.02s0.04,0.01,0.06,0.02c0.02,0.02,0.02,0.04,0.02,0.06c0,0.02-0.01,0.04-0.02,0.06
		c-0.02,0.02-0.04,0.03-0.06,0.03s-0.04-0.01-0.06-0.03s-0.02-0.04-0.02-0.06S62.71,22.32,62.72,22.3z M62.72,22.83
		c0.02-0.02,0.04-0.02,0.06-0.02s0.04,0.01,0.06,0.02c0.02,0.02,0.02,0.04,0.02,0.06s-0.01,0.04-0.02,0.06
		c-0.02,0.02-0.04,0.03-0.06,0.03s-0.04-0.01-0.06-0.03s-0.02-0.04-0.02-0.06S62.71,22.85,62.72,22.83z"/>
	<path d="M63.43,22.2l0.1-0.02v0.16c0.03-0.05,0.06-0.09,0.1-0.12s0.08-0.04,0.13-0.04s0.09,0.01,0.13,0.03l-0.03,0.1
		c-0.04-0.02-0.07-0.03-0.12-0.03c-0.08,0-0.16,0.07-0.21,0.2v0.49h-0.1C63.43,22.97,63.43,22.2,63.43,22.2z"/>
	<path d="M59.2,24.29c0.07-0.08,0.16-0.11,0.27-0.11c0.09,0,0.17,0.02,0.24,0.06l-0.03,0.09c-0.06-0.04-0.13-0.06-0.21-0.06
		c-0.08,0-0.15,0.03-0.19,0.08c-0.05,0.06-0.07,0.13-0.07,0.22s0.02,0.17,0.07,0.22s0.11,0.08,0.19,0.08c0.08,0,0.15-0.02,0.21-0.06
		l0.02,0.09c-0.07,0.04-0.15,0.06-0.24,0.06c-0.11,0-0.2-0.04-0.27-0.11s-0.1-0.17-0.1-0.29C59.1,24.46,59.13,24.36,59.2,24.29z"/>
	<path d="M59.95,24.29c0.07-0.07,0.16-0.11,0.27-0.11s0.19,0.04,0.26,0.11s0.1,0.17,0.1,0.29s-0.04,0.22-0.11,0.29
		c-0.07,0.08-0.16,0.11-0.27,0.11s-0.19-0.04-0.26-0.11s-0.1-0.17-0.1-0.29C59.84,24.46,59.88,24.36,59.95,24.29z M60.02,24.8
		c0.05,0.06,0.11,0.09,0.19,0.09s0.14-0.03,0.19-0.09s0.07-0.13,0.07-0.22s-0.02-0.17-0.07-0.22c-0.05-0.06-0.11-0.08-0.19-0.08
		s-0.14,0.03-0.19,0.09s-0.07,0.13-0.07,0.22C59.94,24.67,59.97,24.74,60.02,24.8z"/>
	<path d="M60.78,24.2l0.1-0.02v0.12c0.04-0.04,0.08-0.07,0.13-0.09s0.09-0.03,0.13-0.03c0.08,0,0.13,0.02,0.18,0.07
		c0.04,0.05,0.06,0.11,0.06,0.19v0.52h-0.1v-0.49c0-0.07-0.01-0.11-0.04-0.15c-0.03-0.03-0.07-0.05-0.13-0.05
		c-0.04,0-0.08,0.01-0.12,0.03s-0.08,0.04-0.11,0.08v0.58h-0.1C60.78,24.96,60.78,24.2,60.78,24.2z"/>
	<path d="M61.53,24.22l0.11-0.03v-0.12c0-0.18,0.08-0.27,0.23-0.27c0.05,0,0.09,0.01,0.14,0.03c0,0,0,0.01-0.01,0.02
		c0,0.01-0.01,0.03-0.01,0.05c0,0.02-0.01,0.02-0.01,0.02c-0.04-0.02-0.08-0.03-0.12-0.03c-0.04,0-0.07,0.01-0.09,0.04
		s-0.03,0.07-0.03,0.13v0.13h0.24v0.09h-0.23v0.66h-0.1v-0.66l-0.12-0.01L61.53,24.22z"/>
	<path d="M62.11,24.3c0.02-0.02,0.04-0.02,0.06-0.02s0.04,0.01,0.06,0.02c0.02,0.02,0.02,0.04,0.02,0.06c0,0.02-0.01,0.04-0.02,0.06
		c-0.02,0.02-0.04,0.03-0.06,0.03s-0.04-0.01-0.06-0.03s-0.02-0.04-0.02-0.06S62.1,24.32,62.11,24.3z M62.11,24.83
		c0.02-0.02,0.04-0.02,0.06-0.02s0.04,0.01,0.06,0.02c0.02,0.02,0.02,0.04,0.02,0.06s-0.01,0.04-0.02,0.06
		c-0.02,0.02-0.04,0.03-0.06,0.03s-0.04-0.01-0.06-0.03s-0.02-0.04-0.02-0.06S62.1,24.85,62.11,24.83z"/>
	<path d="M62.8,24.83c0.02-0.02,0.04-0.02,0.06-0.02s0.04,0.01,0.06,0.02c0.02,0.02,0.02,0.04,0.02,0.06s-0.01,0.04-0.02,0.06
		c-0.02,0.02-0.04,0.03-0.06,0.03s-0.04-0.01-0.06-0.03s-0.02-0.04-0.02-0.06S62.79,24.85,62.8,24.83z"/>
	<path d="M63.18,23.99c0.06-0.06,0.14-0.09,0.24-0.09c0.07,0,0.14,0.02,0.19,0.06s0.09,0.09,0.12,0.15s0.04,0.13,0.04,0.21
		c0,0.06-0.01,0.11-0.02,0.17c-0.01,0.05-0.04,0.11-0.07,0.16s-0.07,0.1-0.11,0.15c-0.04,0.04-0.1,0.08-0.16,0.12
		c-0.06,0.03-0.13,0.06-0.21,0.08l-0.02-0.09c0.14-0.03,0.25-0.09,0.33-0.17s0.14-0.18,0.16-0.29l0,0
		c-0.04,0.03-0.08,0.06-0.13,0.08s-0.1,0.03-0.15,0.03c-0.05,0-0.1-0.01-0.15-0.04s-0.08-0.06-0.11-0.11
		c-0.03-0.05-0.04-0.1-0.04-0.17C63.08,24.14,63.12,24.06,63.18,23.99z M63.25,24.39c0.04,0.04,0.09,0.06,0.16,0.06
		c0.1,0,0.19-0.04,0.26-0.11c0-0.02,0-0.03,0-0.05c0-0.08-0.02-0.16-0.07-0.22c-0.04-0.06-0.11-0.09-0.18-0.09s-0.13,0.02-0.17,0.07
		c-0.04,0.05-0.06,0.1-0.06,0.18C63.18,24.3,63.2,24.36,63.25,24.39z"/>
	<path d="M63.97,24.82c0.08,0.04,0.16,0.07,0.25,0.07c0.07,0,0.13-0.02,0.18-0.06c0.05-0.04,0.07-0.09,0.07-0.15
		s-0.02-0.1-0.07-0.14s-0.11-0.05-0.18-0.05c-0.04,0-0.09,0-0.14,0.01v-0.09c0.12-0.03,0.21-0.07,0.27-0.11s0.09-0.09,0.09-0.15
		c0-0.05-0.02-0.09-0.06-0.12s-0.09-0.04-0.15-0.04c-0.04,0-0.09,0.01-0.13,0.03c-0.05,0.02-0.09,0.04-0.12,0.07L63.94,24
		c0.04-0.03,0.08-0.06,0.14-0.08c0.05-0.02,0.1-0.03,0.16-0.03c0.09,0,0.17,0.02,0.22,0.07c0.06,0.05,0.08,0.11,0.08,0.18
		c0,0.12-0.09,0.21-0.27,0.26c0.1,0,0.17,0.02,0.23,0.07c0.05,0.05,0.08,0.11,0.08,0.18c0,0.09-0.03,0.17-0.1,0.23
		s-0.16,0.08-0.26,0.08c-0.05,0-0.1-0.01-0.15-0.02s-0.09-0.03-0.13-0.05L63.97,24.82z"/>
</g>
<g>
	<path d="M68.01,21.84l0.1-0.02v1.14h-0.1V21.84z"/>
	<path d="M68.4,22.29c0.07-0.08,0.15-0.11,0.26-0.11c0.08,0,0.15,0.03,0.2,0.08c0.05,0.05,0.08,0.12,0.08,0.2
		c0,0.04-0.01,0.08-0.02,0.12h-0.51v0.01c0,0.09,0.03,0.16,0.08,0.21c0.05,0.06,0.11,0.08,0.19,0.08s0.16-0.02,0.22-0.06l0.02,0.09
		c-0.07,0.04-0.15,0.06-0.24,0.06c-0.11,0-0.2-0.04-0.26-0.11c-0.07-0.07-0.1-0.17-0.1-0.28C68.3,22.46,68.33,22.37,68.4,22.29z
		 M68.83,22.5c0,0,0-0.02,0-0.03c0-0.06-0.02-0.11-0.05-0.14c-0.03-0.04-0.08-0.05-0.14-0.05c-0.07,0-0.12,0.02-0.16,0.07
		c-0.04,0.04-0.07,0.1-0.08,0.17L68.83,22.5z"/>
	<path d="M69.04,22.22l0.11-0.03v-0.17h0.1v0.18h0.25v0.09h-0.25l-0.01,0.45v0.01c0,0.09,0.04,0.13,0.11,0.13
		c0.04,0,0.09-0.01,0.15-0.04l0.02,0.09c-0.06,0.03-0.11,0.04-0.17,0.04c-0.07,0-0.12-0.02-0.16-0.06
		c-0.03-0.04-0.05-0.09-0.05-0.16c0-0.01,0-0.01,0-0.02l0.01-0.45l-0.12-0.01L69.04,22.22z"/>
	<path d="M69.59,22.22l0.11-0.03v-0.17h0.1v0.18h0.25v0.09H69.8l-0.01,0.45v0.01c0,0.09,0.04,0.13,0.11,0.13
		c0.04,0,0.09-0.01,0.15-0.04l0.02,0.09c-0.06,0.03-0.11,0.04-0.17,0.04c-0.07,0-0.12-0.02-0.16-0.06
		c-0.03-0.04-0.05-0.09-0.05-0.16c0-0.01,0-0.01,0-0.02l0.01-0.45l-0.12-0.01L69.59,22.22z"/>
	<path d="M70.28,22.29c0.07-0.08,0.15-0.11,0.26-0.11c0.08,0,0.15,0.03,0.2,0.08c0.05,0.05,0.08,0.12,0.08,0.2
		c0,0.04-0.01,0.08-0.02,0.12h-0.51v0.01c0,0.09,0.03,0.16,0.08,0.21c0.05,0.06,0.11,0.08,0.19,0.08s0.16-0.02,0.22-0.06l0.02,0.09
		c-0.07,0.04-0.15,0.06-0.24,0.06c-0.11,0-0.2-0.04-0.26-0.11c-0.07-0.07-0.1-0.17-0.1-0.28C70.17,22.46,70.21,22.37,70.28,22.29z
		 M70.71,22.5c0,0,0-0.02,0-0.03c0-0.06-0.02-0.11-0.05-0.14c-0.03-0.04-0.08-0.05-0.14-0.05c-0.07,0-0.12,0.02-0.16,0.07
		c-0.04,0.04-0.07,0.1-0.08,0.17L70.71,22.5z"/>
	<path d="M71.01,22.2l0.1-0.02v0.16c0.03-0.05,0.06-0.09,0.1-0.12s0.08-0.04,0.13-0.04c0.05,0,0.09,0.01,0.13,0.03l-0.03,0.1
		c-0.04-0.02-0.07-0.03-0.12-0.03c-0.08,0-0.16,0.07-0.21,0.2v0.49h-0.1C71.01,22.97,71.01,22.2,71.01,22.2z"/>
	<path d="M71.58,22.3c0.02-0.02,0.04-0.02,0.06-0.02s0.04,0.01,0.06,0.02c0.02,0.02,0.02,0.04,0.02,0.06c0,0.02-0.01,0.04-0.02,0.06
		c-0.02,0.02-0.04,0.03-0.06,0.03s-0.04-0.01-0.06-0.03s-0.02-0.04-0.02-0.06C71.56,22.34,71.56,22.32,71.58,22.3z M71.58,22.83
		c0.02-0.02,0.04-0.02,0.06-0.02s0.04,0.01,0.06,0.02c0.02,0.02,0.02,0.04,0.02,0.06s-0.01,0.04-0.02,0.06
		c-0.02,0.02-0.04,0.03-0.06,0.03s-0.04-0.01-0.06-0.03s-0.02-0.04-0.02-0.06S71.56,22.85,71.58,22.83z"/>
	<path d="M72.35,22.29c0.07-0.07,0.16-0.11,0.27-0.11c0.11,0,0.19,0.04,0.26,0.11s0.1,0.17,0.1,0.29s-0.04,0.22-0.11,0.29
		c-0.07,0.08-0.16,0.11-0.27,0.11c-0.11,0-0.19-0.04-0.26-0.11s-0.1-0.17-0.1-0.29C72.24,22.46,72.28,22.36,72.35,22.29z
		 M72.42,22.8c0.05,0.06,0.11,0.09,0.19,0.09s0.14-0.03,0.19-0.09s0.07-0.13,0.07-0.22s-0.02-0.17-0.07-0.22
		c-0.05-0.06-0.11-0.08-0.19-0.08s-0.14,0.03-0.19,0.09s-0.07,0.13-0.07,0.22C72.35,22.67,72.37,22.74,72.42,22.8z"/>
	<path d="M68.06,24.29c0.07-0.08,0.16-0.11,0.27-0.11c0.09,0,0.17,0.02,0.24,0.06l-0.03,0.09c-0.06-0.04-0.13-0.06-0.21-0.06
		s-0.15,0.03-0.19,0.08c-0.05,0.06-0.07,0.13-0.07,0.22s0.02,0.17,0.07,0.22s0.11,0.08,0.19,0.08s0.15-0.02,0.21-0.06l0.02,0.09
		c-0.07,0.04-0.15,0.06-0.24,0.06c-0.11,0-0.2-0.04-0.27-0.11s-0.1-0.17-0.1-0.29C67.96,24.46,67.99,24.36,68.06,24.29z"/>
	<path d="M68.81,24.29c0.07-0.07,0.16-0.11,0.27-0.11c0.11,0,0.19,0.04,0.26,0.11s0.1,0.17,0.1,0.29s-0.04,0.22-0.11,0.29
		c-0.07,0.08-0.16,0.11-0.27,0.11c-0.11,0-0.19-0.04-0.26-0.11s-0.1-0.17-0.1-0.29C68.7,24.46,68.74,24.36,68.81,24.29z M68.88,24.8
		c0.05,0.06,0.11,0.09,0.19,0.09s0.14-0.03,0.19-0.09s0.07-0.13,0.07-0.22s-0.02-0.17-0.07-0.22c-0.05-0.06-0.11-0.08-0.19-0.08
		s-0.14,0.03-0.19,0.09s-0.07,0.13-0.07,0.22C68.8,24.67,68.83,24.74,68.88,24.8z"/>
	<path d="M69.64,24.2l0.1-0.02v0.12c0.04-0.04,0.08-0.07,0.13-0.09c0.05-0.02,0.09-0.03,0.13-0.03c0.08,0,0.13,0.02,0.18,0.07
		c0.04,0.05,0.06,0.11,0.06,0.19v0.52h-0.1v-0.49c0-0.07-0.01-0.11-0.04-0.15c-0.03-0.03-0.07-0.05-0.13-0.05
		c-0.04,0-0.08,0.01-0.12,0.03s-0.08,0.04-0.11,0.08v0.58h-0.1C69.64,24.96,69.64,24.2,69.64,24.2z"/>
	<path d="M70.39,24.22l0.11-0.03v-0.12c0-0.18,0.08-0.27,0.23-0.27c0.05,0,0.09,0.01,0.14,0.03c0,0,0,0.01-0.01,0.02
		c0,0.01-0.01,0.03-0.01,0.05c0,0.02-0.01,0.02-0.01,0.02c-0.04-0.02-0.08-0.03-0.12-0.03s-0.07,0.01-0.09,0.04S70.6,24,70.6,24.06
		v0.13h0.24v0.09H70.6v0.66h-0.1v-0.66l-0.12-0.01L70.39,24.22z"/>
	<path d="M70.97,24.3c0.02-0.02,0.04-0.02,0.06-0.02s0.04,0.01,0.06,0.02c0.02,0.02,0.02,0.04,0.02,0.06c0,0.02-0.01,0.04-0.02,0.06
		c-0.02,0.02-0.04,0.03-0.06,0.03s-0.04-0.01-0.06-0.03s-0.02-0.04-0.02-0.06C70.95,24.34,70.96,24.32,70.97,24.3z M70.97,24.83
		c0.02-0.02,0.04-0.02,0.06-0.02s0.04,0.01,0.06,0.02c0.02,0.02,0.02,0.04,0.02,0.06s-0.01,0.04-0.02,0.06
		c-0.02,0.02-0.04,0.03-0.06,0.03s-0.04-0.01-0.06-0.03s-0.02-0.04-0.02-0.06S70.96,24.85,70.97,24.83z"/>
	<path d="M71.66,24.83c0.02-0.02,0.04-0.02,0.06-0.02s0.04,0.01,0.06,0.02c0.02,0.02,0.02,0.04,0.02,0.06s-0.01,0.04-0.02,0.06
		c-0.02,0.02-0.04,0.03-0.06,0.03s-0.04-0.01-0.06-0.03s-0.02-0.04-0.02-0.06S71.65,24.85,71.66,24.83z"/>
	<path d="M72.18,24.43c-0.03-0.01-0.06-0.03-0.08-0.04s-0.04-0.03-0.06-0.05S72,24.3,71.99,24.27c-0.01-0.03-0.02-0.05-0.02-0.08
		c0-0.09,0.03-0.16,0.09-0.21s0.14-0.08,0.23-0.08s0.17,0.02,0.23,0.08s0.08,0.12,0.08,0.2c0,0.1-0.07,0.19-0.2,0.26
		c0.03,0.01,0.06,0.03,0.08,0.04s0.05,0.03,0.07,0.05c0.02,0.02,0.04,0.04,0.05,0.07c0.01,0.03,0.02,0.05,0.02,0.08
		c0,0.04-0.01,0.08-0.02,0.11c-0.01,0.03-0.04,0.07-0.06,0.09c-0.03,0.03-0.06,0.05-0.11,0.06c-0.04,0.02-0.09,0.02-0.14,0.02
		c-0.11,0-0.2-0.03-0.25-0.08c-0.06-0.05-0.08-0.12-0.08-0.2C71.95,24.59,72.03,24.5,72.18,24.43z M72.12,24.83
		c0.04,0.04,0.1,0.05,0.18,0.05s0.13-0.02,0.17-0.05c0.04-0.03,0.06-0.08,0.06-0.14c0-0.03-0.01-0.06-0.02-0.08
		c-0.01-0.02-0.04-0.05-0.06-0.07c-0.03-0.02-0.06-0.03-0.08-0.05c-0.03-0.01-0.06-0.03-0.1-0.04c-0.06,0.02-0.11,0.05-0.14,0.09
		s-0.06,0.08-0.06,0.13C72.06,24.75,72.08,24.8,72.12,24.83z M72.34,24.4c0.05-0.02,0.09-0.05,0.12-0.09
		c0.03-0.04,0.05-0.08,0.05-0.13c0-0.06-0.02-0.11-0.06-0.14s-0.09-0.05-0.16-0.05c-0.07,0-0.12,0.02-0.16,0.05
		c-0.04,0.04-0.06,0.08-0.06,0.13C72.07,24.27,72.16,24.35,72.34,24.4z"/>
	<path d="M72.91,24.74c0.05-0.04,0.08-0.08,0.11-0.1c0.02-0.02,0.05-0.05,0.09-0.09c0.03-0.03,0.06-0.06,0.08-0.08
		c0.02-0.02,0.04-0.04,0.06-0.07s0.04-0.05,0.04-0.07c0.01-0.02,0.02-0.04,0.02-0.06c0.01-0.02,0.01-0.04,0.01-0.07
		c0-0.06-0.02-0.11-0.06-0.15c-0.04-0.04-0.09-0.06-0.16-0.06c-0.04,0-0.09,0.01-0.13,0.03c-0.05,0.02-0.08,0.05-0.12,0.08
		l-0.04-0.09c0.04-0.04,0.08-0.06,0.13-0.09c0.05-0.02,0.11-0.04,0.17-0.04c0.09,0,0.17,0.03,0.23,0.08s0.09,0.13,0.09,0.22
		c0,0.03,0,0.06-0.01,0.08s-0.02,0.05-0.04,0.08c-0.02,0.03-0.04,0.06-0.05,0.08c-0.02,0.02-0.05,0.05-0.08,0.09
		c-0.04,0.04-0.07,0.07-0.1,0.1s-0.07,0.07-0.13,0.12c-0.05,0.04-0.08,0.08-0.11,0.1h0.54v0.09H72.8l-0.01-0.1
		C72.82,24.82,72.86,24.79,72.91,24.74z"/>
</g>
<g>
	<path d="M82.41,29.08l0.1-0.02v1.14h-0.1V29.08z"/>
	<path d="M82.8,29.53c0.07-0.08,0.15-0.11,0.26-0.11c0.08,0,0.15,0.03,0.2,0.08c0.05,0.05,0.08,0.12,0.08,0.2
		c0,0.04-0.01,0.08-0.02,0.12h-0.51v0.01c0,0.09,0.03,0.16,0.08,0.21c0.05,0.06,0.11,0.08,0.19,0.08s0.16-0.02,0.22-0.06l0.02,0.09
		c-0.07,0.04-0.15,0.06-0.24,0.06c-0.11,0-0.2-0.04-0.26-0.11c-0.07-0.07-0.1-0.17-0.1-0.28C82.7,29.71,82.73,29.61,82.8,29.53z
		 M83.23,29.74c0,0,0-0.02,0-0.03c0-0.06-0.02-0.11-0.05-0.14c-0.03-0.04-0.08-0.05-0.14-0.05c-0.07,0-0.12,0.02-0.16,0.07
		c-0.04,0.04-0.07,0.1-0.08,0.17L83.23,29.74z"/>
	<path d="M83.44,29.47l0.11-0.03v-0.17h0.1v0.18h0.25v0.09h-0.25l-0.01,0.45V30c0,0.09,0.04,0.13,0.11,0.13
		c0.04,0,0.09-0.01,0.15-0.04l0.02,0.09c-0.06,0.03-0.11,0.04-0.17,0.04c-0.07,0-0.12-0.02-0.16-0.06
		c-0.03-0.04-0.05-0.09-0.05-0.16c0-0.01,0-0.01,0-0.02l0.01-0.45l-0.12-0.01L83.44,29.47z"/>
	<path d="M83.99,29.47l0.11-0.03v-0.17h0.1v0.18h0.25v0.09H84.2l-0.01,0.45V30c0,0.09,0.04,0.13,0.11,0.13
		c0.04,0,0.09-0.01,0.15-0.04l0.02,0.09c-0.06,0.03-0.11,0.04-0.17,0.04c-0.07,0-0.12-0.02-0.16-0.06
		c-0.03-0.04-0.05-0.09-0.05-0.16c0-0.01,0-0.01,0-0.02l0.01-0.45l-0.12-0.01L83.99,29.47z"/>
	<path d="M84.68,29.53c0.07-0.08,0.15-0.11,0.26-0.11c0.08,0,0.15,0.03,0.2,0.08c0.05,0.05,0.08,0.12,0.08,0.2
		c0,0.04-0.01,0.08-0.02,0.12h-0.51v0.01c0,0.09,0.03,0.16,0.08,0.21c0.05,0.06,0.11,0.08,0.19,0.08s0.16-0.02,0.22-0.06l0.02,0.09
		c-0.07,0.04-0.15,0.06-0.24,0.06c-0.11,0-0.2-0.04-0.26-0.11c-0.07-0.07-0.1-0.17-0.1-0.28C84.57,29.71,84.61,29.61,84.68,29.53z
		 M85.11,29.74c0,0,0-0.02,0-0.03c0-0.06-0.02-0.11-0.05-0.14c-0.03-0.04-0.08-0.05-0.14-0.05c-0.07,0-0.12,0.02-0.16,0.07
		c-0.04,0.04-0.07,0.1-0.08,0.17L85.11,29.74z"/>
	<path d="M85.41,29.44l0.1-0.02v0.16c0.03-0.05,0.06-0.09,0.1-0.12s0.08-0.04,0.13-0.04c0.05,0,0.09,0.01,0.13,0.03l-0.03,0.1
		c-0.04-0.02-0.07-0.03-0.12-0.03c-0.08,0-0.16,0.07-0.21,0.2v0.49h-0.1C85.41,30.21,85.41,29.44,85.41,29.44z"/>
	<path d="M85.98,29.55c0.02-0.02,0.04-0.02,0.06-0.02s0.04,0.01,0.06,0.02c0.02,0.02,0.02,0.04,0.02,0.06
		c0,0.02-0.01,0.04-0.02,0.06c-0.02,0.02-0.04,0.03-0.06,0.03s-0.04-0.01-0.06-0.03s-0.02-0.04-0.02-0.06
		C85.96,29.59,85.96,29.57,85.98,29.55z M85.98,30.08c0.02-0.02,0.04-0.02,0.06-0.02s0.04,0.01,0.06,0.02
		c0.02,0.02,0.02,0.04,0.02,0.06s-0.01,0.04-0.02,0.06c-0.02,0.02-0.04,0.03-0.06,0.03S86,30.21,85.98,30.2
		c-0.02-0.02-0.02-0.04-0.02-0.06S85.96,30.09,85.98,30.08z"/>
	<path d="M82.46,31.53c0.07-0.08,0.16-0.11,0.27-0.11c0.09,0,0.17,0.02,0.24,0.06l-0.03,0.09c-0.06-0.04-0.13-0.06-0.21-0.06
		s-0.15,0.03-0.19,0.08c-0.05,0.06-0.07,0.13-0.07,0.22s0.02,0.17,0.07,0.22s0.11,0.08,0.19,0.08s0.15-0.02,0.21-0.06l0.02,0.09
		c-0.07,0.04-0.15,0.06-0.24,0.06c-0.11,0-0.2-0.04-0.27-0.11s-0.1-0.17-0.1-0.29C82.36,31.7,82.39,31.61,82.46,31.53z"/>
	<path d="M83.21,31.53c0.07-0.07,0.16-0.11,0.27-0.11c0.11,0,0.19,0.04,0.26,0.11s0.1,0.17,0.1,0.29s-0.04,0.22-0.11,0.29
		c-0.07,0.08-0.16,0.11-0.27,0.11c-0.11,0-0.19-0.04-0.26-0.11s-0.1-0.17-0.1-0.29C83.1,31.7,83.14,31.61,83.21,31.53z M83.28,32.04
		c0.05,0.06,0.11,0.09,0.19,0.09s0.14-0.03,0.19-0.09c0.05-0.06,0.07-0.13,0.07-0.22s-0.02-0.17-0.07-0.22
		c-0.05-0.06-0.11-0.08-0.19-0.08s-0.14,0.03-0.19,0.09s-0.07,0.13-0.07,0.22C83.2,31.91,83.23,31.99,83.28,32.04z"/>
	<path d="M84.04,31.44l0.1-0.02v0.12c0.04-0.04,0.08-0.07,0.13-0.09c0.05-0.02,0.09-0.03,0.13-0.03c0.08,0,0.13,0.02,0.18,0.07
		c0.04,0.05,0.06,0.11,0.06,0.19v0.52h-0.1v-0.49c0-0.07-0.01-0.11-0.04-0.15c-0.03-0.03-0.07-0.05-0.13-0.05
		c-0.04,0-0.08,0.01-0.12,0.03s-0.08,0.04-0.11,0.08v0.58h-0.1C84.04,32.2,84.04,31.44,84.04,31.44z"/>
	<path d="M84.79,31.47l0.11-0.03v-0.12c0-0.18,0.08-0.27,0.23-0.27c0.05,0,0.09,0.01,0.14,0.03c0,0,0,0.01-0.01,0.02
		c0,0.01-0.01,0.03-0.01,0.05c0,0.02-0.01,0.02-0.01,0.02c-0.04-0.02-0.08-0.03-0.12-0.03s-0.07,0.01-0.09,0.04S85,31.26,85,31.32
		v0.13h0.24v0.09H85v0.66h-0.1v-0.66l-0.12-0.01L84.79,31.47z"/>
	<path d="M85.37,31.55c0.02-0.02,0.04-0.02,0.06-0.02s0.04,0.01,0.06,0.02c0.02,0.02,0.02,0.04,0.02,0.06
		c0,0.02-0.01,0.04-0.02,0.06c-0.02,0.02-0.04,0.03-0.06,0.03s-0.04-0.01-0.06-0.03s-0.02-0.04-0.02-0.06
		C85.35,31.59,85.36,31.57,85.37,31.55z M85.37,32.08c0.02-0.02,0.04-0.02,0.06-0.02s0.04,0.01,0.06,0.02
		c0.02,0.02,0.02,0.04,0.02,0.06s-0.01,0.04-0.02,0.06c-0.02,0.02-0.04,0.03-0.06,0.03s-0.04-0.01-0.06-0.03s-0.02-0.04-0.02-0.06
		S85.36,32.09,85.37,32.08z"/>
	<path d="M86.06,32.08c0.02-0.02,0.04-0.02,0.06-0.02s0.04,0.01,0.06,0.02c0.02,0.02,0.02,0.04,0.02,0.06s-0.01,0.04-0.02,0.06
		c-0.02,0.02-0.04,0.03-0.06,0.03s-0.04-0.01-0.06-0.03s-0.02-0.04-0.02-0.06S86.05,32.09,86.06,32.08z"/>
	<path d="M86.58,31.67c-0.03-0.01-0.06-0.03-0.08-0.04s-0.04-0.03-0.06-0.05s-0.04-0.04-0.05-0.07c-0.01-0.03-0.02-0.05-0.02-0.08
		c0-0.09,0.03-0.16,0.09-0.21s0.14-0.08,0.23-0.08s0.17,0.02,0.23,0.08S87,31.34,87,31.42c0,0.1-0.07,0.19-0.2,0.26
		c0.03,0.01,0.06,0.03,0.08,0.04s0.05,0.03,0.07,0.05c0.02,0.02,0.04,0.04,0.05,0.07c0.01,0.03,0.02,0.05,0.02,0.08
		c0,0.04-0.01,0.08-0.02,0.11c-0.01,0.03-0.04,0.07-0.06,0.09c-0.03,0.03-0.06,0.05-0.11,0.06c-0.04,0.02-0.09,0.02-0.14,0.02
		c-0.11,0-0.2-0.03-0.25-0.08c-0.06-0.05-0.08-0.12-0.08-0.2C86.35,31.83,86.43,31.74,86.58,31.67z M86.52,32.08
		c0.04,0.04,0.1,0.05,0.18,0.05s0.13-0.02,0.17-0.05s0.06-0.08,0.06-0.14c0-0.03-0.01-0.06-0.02-0.08
		c-0.01-0.02-0.04-0.05-0.06-0.07c-0.03-0.02-0.06-0.03-0.08-0.05c-0.03-0.01-0.06-0.03-0.1-0.04c-0.06,0.02-0.11,0.05-0.14,0.09
		s-0.06,0.08-0.06,0.13C86.46,31.99,86.48,32.04,86.52,32.08z M86.74,31.64c0.05-0.02,0.09-0.05,0.12-0.09
		c0.03-0.04,0.05-0.08,0.05-0.13c0-0.06-0.02-0.11-0.06-0.14s-0.09-0.05-0.16-0.05c-0.07,0-0.12,0.02-0.16,0.05
		c-0.04,0.04-0.06,0.08-0.06,0.13C86.47,31.52,86.56,31.59,86.74,31.64z"/>
	<path d="M87.18,31.17h0.65l0.02,0.08L87.4,32.2h-0.1l0.45-0.94h-0.56L87.18,31.17z"/>
</g>
<g>
	<path d="M90.15,21.94l0.1-0.02v1.14h-0.1V21.94z"/>
	<path d="M90.55,22.39c0.07-0.08,0.15-0.11,0.26-0.11c0.08,0,0.15,0.03,0.2,0.08c0.05,0.05,0.08,0.12,0.08,0.2
		c0,0.04-0.01,0.08-0.02,0.12h-0.51v0.01c0,0.09,0.03,0.16,0.08,0.21c0.05,0.06,0.11,0.08,0.19,0.08s0.16-0.02,0.22-0.06l0.02,0.09
		c-0.07,0.04-0.15,0.06-0.24,0.06c-0.11,0-0.2-0.04-0.26-0.11c-0.07-0.07-0.1-0.17-0.1-0.28C90.44,22.56,90.48,22.47,90.55,22.39z
		 M90.98,22.6c0,0,0-0.02,0-0.03c0-0.06-0.02-0.11-0.05-0.14c-0.03-0.04-0.08-0.05-0.14-0.05c-0.07,0-0.12,0.02-0.16,0.07
		c-0.04,0.04-0.07,0.1-0.08,0.17L90.98,22.6z"/>
	<path d="M91.18,22.32l0.11-0.03v-0.17h0.1v0.18h0.25v0.09h-0.25l-0.01,0.45v0.01c0,0.09,0.04,0.13,0.11,0.13
		c0.04,0,0.09-0.01,0.15-0.04l0.02,0.09c-0.06,0.03-0.11,0.04-0.17,0.04c-0.07,0-0.12-0.02-0.16-0.06
		c-0.03-0.04-0.05-0.09-0.05-0.16c0-0.01,0-0.01,0-0.02l0.01-0.45l-0.12-0.01L91.18,22.32z"/>
	<path d="M91.73,22.32l0.11-0.03v-0.17h0.1v0.18h0.25v0.09h-0.25l-0.01,0.45v0.01c0,0.09,0.04,0.13,0.11,0.13
		c0.04,0,0.09-0.01,0.15-0.04l0.02,0.09c-0.06,0.03-0.11,0.04-0.17,0.04c-0.07,0-0.12-0.02-0.16-0.06
		c-0.03-0.04-0.05-0.09-0.05-0.16c0-0.01,0-0.01,0-0.02l0.01-0.45l-0.12-0.01L91.73,22.32z"/>
	<path d="M92.42,22.39c0.07-0.08,0.15-0.11,0.26-0.11c0.08,0,0.15,0.03,0.2,0.08c0.05,0.05,0.08,0.12,0.08,0.2
		c0,0.04-0.01,0.08-0.02,0.12h-0.51v0.01c0,0.09,0.03,0.16,0.08,0.21c0.05,0.06,0.11,0.08,0.19,0.08s0.16-0.02,0.22-0.06l0.02,0.09
		c-0.07,0.04-0.15,0.06-0.24,0.06c-0.11,0-0.2-0.04-0.26-0.11c-0.07-0.07-0.1-0.17-0.1-0.28C92.32,22.56,92.35,22.47,92.42,22.39z
		 M92.85,22.6c0,0,0-0.02,0-0.03c0-0.06-0.02-0.11-0.05-0.14c-0.03-0.04-0.08-0.05-0.14-0.05c-0.07,0-0.12,0.02-0.16,0.07
		c-0.04,0.04-0.07,0.1-0.08,0.17L92.85,22.6z"/>
	<path d="M93.15,22.3l0.1-0.02v0.16c0.03-0.05,0.06-0.09,0.1-0.12s0.08-0.04,0.13-0.04c0.05,0,0.09,0.01,0.13,0.03l-0.03,0.1
		c-0.04-0.02-0.07-0.03-0.12-0.03c-0.08,0-0.16,0.07-0.21,0.2v0.49h-0.1C93.15,23.07,93.15,22.3,93.15,22.3z"/>
	<path d="M93.72,22.41c0.02-0.02,0.04-0.02,0.06-0.02s0.04,0.01,0.06,0.02c0.02,0.02,0.02,0.04,0.02,0.06
		c0,0.02-0.01,0.04-0.02,0.06c-0.02,0.02-0.04,0.03-0.06,0.03s-0.04-0.01-0.06-0.03s-0.02-0.04-0.02-0.06
		C93.7,22.44,93.71,22.42,93.72,22.41z M93.72,22.93c0.02-0.02,0.04-0.02,0.06-0.02s0.04,0.01,0.06,0.02
		c0.02,0.02,0.02,0.04,0.02,0.06s-0.01,0.04-0.02,0.06c-0.02,0.02-0.04,0.03-0.06,0.03s-0.04-0.01-0.06-0.03s-0.02-0.04-0.02-0.06
		S93.71,22.95,93.72,22.93z"/>
	<path d="M94.83,22.6v-0.04c0-0.06-0.01-0.11-0.04-0.14s-0.07-0.04-0.14-0.04c-0.04,0-0.08,0.01-0.13,0.03
		c-0.05,0.02-0.09,0.04-0.12,0.06l-0.02-0.1c0.04-0.02,0.08-0.05,0.13-0.06c0.05-0.02,0.1-0.03,0.15-0.03c0.09,0,0.16,0.02,0.2,0.07
		c0.05,0.04,0.07,0.11,0.07,0.21v0.37c0,0.03,0,0.05,0.01,0.06S94.97,23,95,23l0,0l-0.01,0.08c-0.01,0-0.01,0-0.02,0
		c-0.08,0-0.13-0.04-0.14-0.11l0,0c-0.03,0.03-0.06,0.06-0.1,0.08s-0.08,0.03-0.12,0.03c-0.07,0-0.13-0.02-0.17-0.06
		c-0.05-0.04-0.07-0.09-0.07-0.15C94.37,22.71,94.53,22.62,94.83,22.6z M94.52,22.95c0.03,0.02,0.07,0.04,0.11,0.04
		s0.07-0.01,0.11-0.03c0.03-0.02,0.06-0.04,0.09-0.07v-0.22c-0.13,0.01-0.22,0.04-0.27,0.07c-0.05,0.03-0.08,0.07-0.08,0.12
		C94.48,22.89,94.5,22.93,94.52,22.95z"/>
	<path d="M90.21,24.39c0.07-0.08,0.16-0.11,0.27-0.11c0.09,0,0.17,0.02,0.24,0.06l-0.03,0.09c-0.06-0.04-0.13-0.06-0.21-0.06
		s-0.15,0.03-0.19,0.08c-0.05,0.06-0.07,0.13-0.07,0.22s0.02,0.17,0.07,0.22s0.11,0.08,0.19,0.08s0.15-0.02,0.21-0.06L90.71,25
		c-0.07,0.04-0.15,0.06-0.24,0.06c-0.11,0-0.2-0.04-0.27-0.11s-0.1-0.17-0.1-0.29C90.1,24.56,90.14,24.46,90.21,24.39z"/>
	<path d="M90.95,24.39c0.07-0.07,0.16-0.11,0.27-0.11c0.11,0,0.19,0.04,0.26,0.11s0.1,0.17,0.1,0.29s-0.04,0.22-0.11,0.29
		c-0.07,0.08-0.16,0.11-0.27,0.11c-0.11,0-0.19-0.04-0.26-0.11s-0.1-0.17-0.1-0.29C90.85,24.56,90.88,24.46,90.95,24.39z
		 M91.02,24.9c0.05,0.06,0.11,0.09,0.19,0.09s0.14-0.03,0.19-0.09s0.07-0.13,0.07-0.22s-0.02-0.17-0.07-0.22
		c-0.05-0.06-0.11-0.08-0.19-0.08s-0.14,0.03-0.19,0.09s-0.07,0.13-0.07,0.22C90.95,24.77,90.97,24.84,91.02,24.9z"/>
	<path d="M91.78,24.3l0.1-0.02v0.12c0.04-0.04,0.08-0.07,0.13-0.09c0.05-0.02,0.09-0.03,0.13-0.03c0.08,0,0.13,0.02,0.18,0.07
		c0.04,0.05,0.06,0.11,0.06,0.19v0.52h-0.1v-0.49c0-0.07-0.01-0.11-0.04-0.15c-0.03-0.03-0.07-0.05-0.13-0.05
		c-0.04,0-0.08,0.01-0.12,0.03s-0.08,0.04-0.11,0.08v0.58h-0.1C91.78,25.06,91.78,24.3,91.78,24.3z"/>
	<path d="M92.53,24.32l0.11-0.03v-0.12c0-0.18,0.08-0.27,0.23-0.27c0.05,0,0.09,0.01,0.14,0.03c0,0,0,0.01-0.01,0.02
		c0,0.01-0.01,0.03-0.01,0.05c0,0.02-0.01,0.02-0.01,0.02C92.94,24.01,92.9,24,92.87,24c-0.04,0-0.07,0.01-0.09,0.04
		s-0.03,0.07-0.03,0.13v0.13h0.24v0.09h-0.23v0.66h-0.1v-0.66l-0.12-0.01L92.53,24.32z"/>
	<path d="M93.12,24.41c0.02-0.02,0.04-0.02,0.06-0.02s0.04,0.01,0.06,0.02c0.02,0.02,0.02,0.04,0.02,0.06
		c0,0.02-0.01,0.04-0.02,0.06c-0.02,0.02-0.04,0.03-0.06,0.03s-0.04-0.01-0.06-0.03s-0.02-0.04-0.02-0.06
		C93.09,24.44,93.1,24.42,93.12,24.41z M93.12,24.93c0.02-0.02,0.04-0.02,0.06-0.02s0.04,0.01,0.06,0.02
		c0.02,0.02,0.02,0.04,0.02,0.06s-0.01,0.04-0.02,0.06c-0.02,0.02-0.04,0.03-0.06,0.03s-0.04-0.01-0.06-0.03s-0.02-0.04-0.02-0.06
		S93.1,24.95,93.12,24.93z"/>
	<path d="M93.81,24.93c0.02-0.02,0.04-0.02,0.06-0.02s0.04,0.01,0.06,0.02c0.02,0.02,0.02,0.04,0.02,0.06s-0.01,0.04-0.02,0.06
		c-0.02,0.02-0.04,0.03-0.06,0.03s-0.04-0.01-0.06-0.03s-0.02-0.04-0.02-0.06S93.79,24.95,93.81,24.93z"/>
	<path d="M94.18,24.09c0.06-0.06,0.14-0.09,0.24-0.09c0.07,0,0.14,0.02,0.19,0.06s0.09,0.09,0.12,0.15
		c0.03,0.06,0.04,0.13,0.04,0.21c0,0.06-0.01,0.11-0.02,0.17c-0.01,0.05-0.04,0.11-0.07,0.16s-0.07,0.1-0.11,0.15
		c-0.04,0.04-0.1,0.08-0.16,0.12c-0.06,0.03-0.13,0.06-0.21,0.08l-0.02-0.09c0.14-0.03,0.25-0.09,0.33-0.17s0.14-0.18,0.16-0.29l0,0
		c-0.04,0.03-0.08,0.06-0.13,0.08c-0.05,0.02-0.1,0.03-0.15,0.03s-0.1-0.01-0.15-0.04s-0.08-0.06-0.11-0.11
		c-0.03-0.05-0.04-0.1-0.04-0.17C94.09,24.24,94.12,24.16,94.18,24.09z M94.25,24.5c0.04,0.04,0.09,0.06,0.16,0.06
		c0.1,0,0.19-0.04,0.26-0.11c0-0.02,0-0.03,0-0.05c0-0.08-0.02-0.16-0.07-0.22c-0.04-0.06-0.11-0.09-0.18-0.09s-0.13,0.02-0.17,0.07
		s-0.06,0.1-0.06,0.18C94.19,24.4,94.21,24.46,94.25,24.5z"/>
	<path d="M95.02,24.09c0.06-0.06,0.14-0.09,0.24-0.09c0.07,0,0.14,0.02,0.19,0.06s0.09,0.09,0.12,0.15
		c0.03,0.06,0.04,0.13,0.04,0.21c0,0.06-0.01,0.11-0.02,0.17c-0.01,0.05-0.04,0.11-0.07,0.16s-0.07,0.1-0.11,0.15
		c-0.04,0.04-0.1,0.08-0.16,0.12c-0.06,0.03-0.13,0.06-0.21,0.08l-0.02-0.09c0.14-0.03,0.25-0.09,0.33-0.17s0.14-0.18,0.16-0.29l0,0
		c-0.04,0.03-0.08,0.06-0.13,0.08c-0.05,0.02-0.1,0.03-0.15,0.03s-0.1-0.01-0.15-0.04s-0.08-0.06-0.11-0.11
		c-0.03-0.05-0.04-0.1-0.04-0.17C94.92,24.24,94.95,24.16,95.02,24.09z M95.08,24.5c0.04,0.04,0.09,0.06,0.16,0.06
		c0.1,0,0.19-0.04,0.26-0.11c0-0.02,0-0.03,0-0.05c0-0.08-0.02-0.16-0.07-0.22c-0.04-0.06-0.11-0.09-0.18-0.09s-0.13,0.02-0.17,0.07
		s-0.06,0.1-0.06,0.18C95.02,24.4,95.04,24.46,95.08,24.5z"/>
</g>
<g>
	<path d="M104.68,21.94l0.1-0.02v1.14h-0.1V21.94z"/>
	<path d="M105.07,22.39c0.07-0.08,0.15-0.11,0.26-0.11c0.08,0,0.15,0.03,0.2,0.08s0.08,0.12,0.08,0.2c0,0.04-0.01,0.08-0.02,0.12
		h-0.51v0.01c0,0.09,0.03,0.16,0.08,0.21c0.05,0.06,0.11,0.08,0.19,0.08s0.16-0.02,0.22-0.06l0.02,0.09
		c-0.07,0.04-0.15,0.06-0.24,0.06c-0.11,0-0.2-0.04-0.26-0.11s-0.1-0.17-0.1-0.28C104.97,22.56,105,22.46,105.07,22.39z
		 M105.5,22.59c0,0,0-0.02,0-0.03c0-0.06-0.02-0.11-0.05-0.14c-0.03-0.04-0.08-0.05-0.14-0.05c-0.07,0-0.12,0.02-0.16,0.07
		c-0.04,0.04-0.07,0.1-0.08,0.17L105.5,22.59z"/>
	<path d="M105.71,22.32l0.11-0.03v-0.17h0.1v0.18h0.25v0.09h-0.25l-0.01,0.45v0.01c0,0.09,0.04,0.13,0.11,0.13
		c0.04,0,0.09-0.01,0.15-0.04l0.02,0.09c-0.06,0.03-0.11,0.04-0.17,0.04c-0.07,0-0.12-0.02-0.16-0.06
		c-0.03-0.04-0.05-0.09-0.05-0.16c0-0.01,0-0.01,0-0.02l0.01-0.45l-0.12-0.01L105.71,22.32z"/>
	<path d="M106.26,22.32l0.11-0.03v-0.17h0.1v0.18h0.25v0.09h-0.25l-0.01,0.45v0.01c0,0.09,0.04,0.13,0.11,0.13
		c0.04,0,0.09-0.01,0.15-0.04l0.02,0.09c-0.06,0.03-0.11,0.04-0.17,0.04c-0.07,0-0.12-0.02-0.16-0.06
		c-0.03-0.04-0.05-0.09-0.05-0.16c0-0.01,0-0.01,0-0.02l0.01-0.45l-0.12-0.01L106.26,22.32z"/>
	<path d="M106.95,22.39c0.07-0.08,0.15-0.11,0.26-0.11c0.08,0,0.15,0.03,0.2,0.08s0.08,0.12,0.08,0.2c0,0.04-0.01,0.08-0.02,0.12
		h-0.51v0.01c0,0.09,0.03,0.16,0.08,0.21c0.05,0.06,0.11,0.08,0.19,0.08s0.16-0.02,0.22-0.06l0.02,0.09
		c-0.07,0.04-0.15,0.06-0.24,0.06c-0.11,0-0.2-0.04-0.26-0.11s-0.1-0.17-0.1-0.28C106.84,22.56,106.88,22.46,106.95,22.39z
		 M107.38,22.59c0,0,0-0.02,0-0.03c0-0.06-0.02-0.11-0.05-0.14c-0.03-0.04-0.08-0.05-0.14-0.05c-0.07,0-0.12,0.02-0.16,0.07
		c-0.04,0.04-0.07,0.1-0.08,0.17L107.38,22.59z"/>
	<path d="M107.68,22.3l0.1-0.02v0.16c0.03-0.05,0.06-0.09,0.09-0.12s0.08-0.04,0.13-0.04c0.05,0,0.09,0.01,0.13,0.03l-0.03,0.1
		c-0.04-0.02-0.08-0.03-0.12-0.03c-0.08,0-0.16,0.07-0.21,0.2v0.49h-0.1V22.3H107.68z"/>
	<path d="M108.25,22.4c0.02-0.02,0.04-0.02,0.06-0.02s0.04,0.01,0.06,0.02c0.02,0.02,0.02,0.04,0.02,0.06
		c0,0.02-0.01,0.04-0.02,0.06s-0.04,0.03-0.06,0.03s-0.04-0.01-0.06-0.03s-0.02-0.04-0.02-0.06S108.24,22.42,108.25,22.4z
		 M108.25,22.93c0.02-0.02,0.04-0.02,0.06-0.02s0.04,0.01,0.06,0.02c0.02,0.02,0.02,0.04,0.02,0.06s-0.01,0.04-0.02,0.06
		c-0.02,0.02-0.04,0.03-0.06,0.03s-0.04-0.01-0.06-0.03s-0.02-0.04-0.02-0.06S108.24,22.95,108.25,22.93z"/>
	<path d="M104.73,24.39c0.07-0.08,0.16-0.11,0.27-0.11c0.09,0,0.17,0.02,0.24,0.06l-0.03,0.09c-0.06-0.04-0.13-0.06-0.21-0.06
		s-0.15,0.03-0.19,0.08s-0.07,0.13-0.07,0.22s0.02,0.17,0.07,0.22c0.05,0.06,0.11,0.08,0.2,0.08c0.08,0,0.15-0.02,0.21-0.06
		l0.02,0.09c-0.07,0.04-0.15,0.06-0.24,0.06c-0.11,0-0.2-0.04-0.27-0.11s-0.1-0.17-0.1-0.29C104.63,24.56,104.66,24.46,104.73,24.39
		z"/>
	<path d="M105.48,24.38c0.07-0.07,0.16-0.11,0.27-0.11c0.11,0,0.2,0.04,0.26,0.11c0.07,0.07,0.1,0.17,0.1,0.29s-0.04,0.22-0.11,0.29
		c-0.07,0.08-0.16,0.11-0.27,0.11s-0.19-0.04-0.26-0.11s-0.1-0.17-0.1-0.29C105.37,24.56,105.41,24.46,105.48,24.38z M105.55,24.9
		c0.05,0.06,0.11,0.09,0.19,0.09s0.14-0.03,0.19-0.09s0.07-0.13,0.07-0.22s-0.02-0.17-0.07-0.22c-0.05-0.06-0.11-0.08-0.19-0.08
		s-0.14,0.03-0.19,0.09s-0.07,0.13-0.07,0.22C105.47,24.77,105.5,24.84,105.55,24.9z"/>
	<path d="M106.31,24.3l0.1-0.02v0.12c0.04-0.04,0.08-0.07,0.13-0.09c0.05-0.02,0.09-0.03,0.13-0.03c0.08,0,0.13,0.02,0.18,0.07
		c0.04,0.05,0.06,0.11,0.06,0.19v0.52h-0.1v-0.49c0-0.07-0.01-0.11-0.04-0.15c-0.03-0.03-0.07-0.05-0.13-0.05
		c-0.04,0-0.08,0.01-0.12,0.03s-0.08,0.04-0.11,0.08v0.58h-0.1C106.31,25.06,106.31,24.3,106.31,24.3z"/>
	<path d="M107.06,24.32l0.11-0.03v-0.12c0-0.18,0.08-0.27,0.23-0.27c0.05,0,0.09,0.01,0.14,0.03c0,0,0,0.01-0.01,0.02
		c0,0.01-0.01,0.03-0.01,0.05c0,0.02-0.01,0.02-0.01,0.02c-0.04-0.02-0.08-0.03-0.12-0.03s-0.08,0.01-0.09,0.04
		c-0.02,0.03-0.03,0.07-0.03,0.13v0.13h0.24v0.09h-0.23v0.66h-0.1v-0.66l-0.12-0.01L107.06,24.32z"/>
	<path d="M107.64,24.4c0.02-0.02,0.04-0.02,0.06-0.02s0.04,0.01,0.06,0.02c0.02,0.02,0.02,0.04,0.02,0.06
		c0,0.02-0.01,0.04-0.02,0.06s-0.04,0.03-0.06,0.03s-0.04-0.01-0.06-0.03s-0.02-0.04-0.02-0.06S107.63,24.42,107.64,24.4z
		 M107.64,24.93c0.02-0.02,0.04-0.02,0.06-0.02s0.04,0.01,0.06,0.02c0.02,0.02,0.02,0.04,0.02,0.06s-0.01,0.04-0.02,0.06
		c-0.02,0.02-0.04,0.03-0.06,0.03s-0.04-0.01-0.06-0.03s-0.02-0.04-0.02-0.06S107.63,24.95,107.64,24.93z"/>
</g>
<g>
	<path d="M118.51,21.94l0.1-0.02v1.14h-0.1V21.94z"/>
	<path d="M118.9,22.39c0.07-0.08,0.15-0.11,0.26-0.11c0.08,0,0.15,0.03,0.2,0.08s0.08,0.12,0.08,0.2c0,0.04-0.01,0.08-0.02,0.12
		h-0.51v0.01c0,0.09,0.03,0.16,0.08,0.21c0.05,0.06,0.11,0.08,0.19,0.08s0.16-0.02,0.22-0.06l0.02,0.09
		c-0.07,0.04-0.15,0.06-0.24,0.06c-0.11,0-0.2-0.04-0.26-0.11s-0.1-0.17-0.1-0.28C118.8,22.56,118.83,22.46,118.9,22.39z
		 M119.33,22.59c0,0,0-0.02,0-0.03c0-0.06-0.02-0.11-0.05-0.14c-0.03-0.04-0.08-0.05-0.14-0.05c-0.07,0-0.12,0.02-0.16,0.07
		c-0.04,0.04-0.07,0.1-0.08,0.17L119.33,22.59z"/>
	<path d="M119.54,22.32l0.11-0.03v-0.17h0.1v0.18H120v0.09h-0.25l-0.01,0.45v0.01c0,0.09,0.04,0.13,0.11,0.13
		c0.04,0,0.09-0.01,0.15-0.04l0.02,0.09c-0.06,0.03-0.11,0.04-0.17,0.04c-0.07,0-0.12-0.02-0.16-0.06
		c-0.03-0.04-0.05-0.09-0.05-0.16c0-0.01,0-0.01,0-0.02l0.01-0.45l-0.12-0.01L119.54,22.32z"/>
	<path d="M120.09,22.32l0.11-0.03v-0.17h0.1v0.18h0.25v0.09h-0.25l-0.01,0.45v0.01c0,0.09,0.04,0.13,0.11,0.13
		c0.04,0,0.09-0.01,0.15-0.04l0.02,0.09c-0.06,0.03-0.11,0.04-0.17,0.04c-0.07,0-0.12-0.02-0.16-0.06
		c-0.03-0.04-0.05-0.09-0.05-0.16c0-0.01,0-0.01,0-0.02l0.01-0.45l-0.12-0.01L120.09,22.32z"/>
	<path d="M120.78,22.39c0.07-0.08,0.15-0.11,0.26-0.11c0.08,0,0.15,0.03,0.2,0.08s0.08,0.12,0.08,0.2c0,0.04-0.01,0.08-0.02,0.12
		h-0.51v0.01c0,0.09,0.03,0.16,0.08,0.21c0.05,0.06,0.11,0.08,0.19,0.08s0.16-0.02,0.22-0.06l0.02,0.09
		c-0.07,0.04-0.15,0.06-0.24,0.06c-0.11,0-0.2-0.04-0.26-0.11s-0.1-0.17-0.1-0.28C120.67,22.56,120.71,22.46,120.78,22.39z
		 M121.21,22.59c0,0,0-0.02,0-0.03c0-0.06-0.02-0.11-0.05-0.14c-0.03-0.04-0.08-0.05-0.14-0.05c-0.07,0-0.12,0.02-0.16,0.07
		c-0.04,0.04-0.07,0.1-0.08,0.17L121.21,22.59z"/>
	<path d="M121.51,22.3l0.1-0.02v0.16c0.03-0.05,0.06-0.09,0.09-0.12s0.08-0.04,0.13-0.04c0.05,0,0.09,0.01,0.13,0.03l-0.03,0.1
		c-0.04-0.02-0.08-0.03-0.12-0.03c-0.08,0-0.16,0.07-0.21,0.2v0.49h-0.1V22.3H121.51z"/>
	<path d="M122.08,22.4c0.02-0.02,0.04-0.02,0.06-0.02s0.04,0.01,0.06,0.02c0.02,0.02,0.02,0.04,0.02,0.06
		c0,0.02-0.01,0.04-0.02,0.06s-0.04,0.03-0.06,0.03s-0.04-0.01-0.06-0.03s-0.02-0.04-0.02-0.06
		C122.06,22.44,122.06,22.42,122.08,22.4z M122.08,22.93c0.02-0.02,0.04-0.02,0.06-0.02s0.04,0.01,0.06,0.02
		c0.02,0.02,0.02,0.04,0.02,0.06s-0.01,0.04-0.02,0.06c-0.02,0.02-0.04,0.03-0.06,0.03s-0.04-0.01-0.06-0.03s-0.02-0.04-0.02-0.06
		S122.06,22.95,122.08,22.93z"/>
	<path d="M122.71,22.98l0.62-0.86h-0.6v-0.1h0.73v0.08l-0.62,0.86h0.61v0.1h-0.75L122.71,22.98L122.71,22.98z"/>
	<path d="M118.56,24.39c0.07-0.08,0.16-0.11,0.27-0.11c0.09,0,0.17,0.02,0.24,0.06l-0.03,0.09c-0.06-0.04-0.13-0.06-0.21-0.06
		s-0.15,0.03-0.19,0.08s-0.07,0.13-0.07,0.22s0.02,0.17,0.07,0.22c0.05,0.06,0.11,0.08,0.2,0.08c0.08,0,0.15-0.02,0.21-0.06
		l0.02,0.09c-0.07,0.04-0.15,0.06-0.24,0.06c-0.11,0-0.2-0.04-0.27-0.11s-0.1-0.17-0.1-0.29C118.46,24.56,118.49,24.46,118.56,24.39
		z"/>
	<path d="M119.31,24.38c0.07-0.07,0.16-0.11,0.27-0.11c0.11,0,0.2,0.04,0.26,0.11c0.07,0.07,0.1,0.17,0.1,0.29s-0.04,0.22-0.11,0.29
		c-0.07,0.08-0.16,0.11-0.27,0.11s-0.19-0.04-0.26-0.11s-0.1-0.17-0.1-0.29C119.2,24.56,119.24,24.46,119.31,24.38z M119.38,24.9
		c0.05,0.06,0.11,0.09,0.19,0.09s0.14-0.03,0.19-0.09s0.07-0.13,0.07-0.22s-0.02-0.17-0.07-0.22c-0.05-0.06-0.11-0.08-0.19-0.08
		s-0.14,0.03-0.19,0.09s-0.07,0.13-0.07,0.22C119.3,24.77,119.33,24.84,119.38,24.9z"/>
	<path d="M120.14,24.3l0.1-0.02v0.12c0.04-0.04,0.08-0.07,0.13-0.09c0.05-0.02,0.09-0.03,0.13-0.03c0.08,0,0.13,0.02,0.18,0.07
		c0.04,0.05,0.06,0.11,0.06,0.19v0.52h-0.1v-0.49c0-0.07-0.01-0.11-0.04-0.15c-0.03-0.03-0.07-0.05-0.13-0.05
		c-0.04,0-0.08,0.01-0.12,0.03s-0.08,0.04-0.11,0.08v0.58h-0.1C120.14,25.06,120.14,24.3,120.14,24.3z"/>
	<path d="M120.89,24.32l0.11-0.03v-0.12c0-0.18,0.08-0.27,0.23-0.27c0.05,0,0.09,0.01,0.14,0.03c0,0,0,0.01-0.01,0.02
		c0,0.01-0.01,0.03-0.01,0.05c0,0.02-0.01,0.02-0.01,0.02c-0.04-0.02-0.08-0.03-0.12-0.03s-0.08,0.01-0.09,0.04
		c-0.02,0.03-0.03,0.07-0.03,0.13v0.13h0.24v0.09h-0.23v0.66H121v-0.66l-0.12-0.01L120.89,24.32z"/>
	<path d="M121.47,24.4c0.02-0.02,0.04-0.02,0.06-0.02s0.04,0.01,0.06,0.02c0.02,0.02,0.02,0.04,0.02,0.06
		c0,0.02-0.01,0.04-0.02,0.06s-0.04,0.03-0.06,0.03s-0.04-0.01-0.06-0.03s-0.02-0.04-0.02-0.06
		C121.45,24.44,121.46,24.42,121.47,24.4z M121.47,24.93c0.02-0.02,0.04-0.02,0.06-0.02s0.04,0.01,0.06,0.02
		c0.02,0.02,0.02,0.04,0.02,0.06s-0.01,0.04-0.02,0.06c-0.02,0.02-0.04,0.03-0.06,0.03s-0.04-0.01-0.06-0.03s-0.02-0.04-0.02-0.06
		S121.46,24.95,121.47,24.93z"/>
	<path d="M122.16,24.93c0.02-0.02,0.04-0.02,0.06-0.02s0.04,0.01,0.06,0.02c0.02,0.02,0.02,0.04,0.02,0.06s-0.01,0.04-0.02,0.06
		c-0.02,0.02-0.04,0.03-0.06,0.03s-0.04-0.01-0.06-0.03s-0.02-0.04-0.02-0.06S122.15,24.95,122.16,24.93z"/>
	<path d="M122.54,24.09c0.06-0.06,0.14-0.09,0.24-0.09c0.07,0,0.14,0.02,0.19,0.06c0.05,0.04,0.09,0.09,0.12,0.15
		c0.03,0.06,0.04,0.13,0.04,0.21c0,0.06-0.01,0.11-0.02,0.17c-0.01,0.05-0.04,0.11-0.07,0.16s-0.07,0.1-0.11,0.15
		c-0.04,0.04-0.1,0.08-0.16,0.12s-0.13,0.06-0.21,0.08l-0.03-0.09c0.14-0.03,0.25-0.09,0.33-0.17s0.14-0.18,0.16-0.29l0,0
		c-0.04,0.03-0.08,0.06-0.13,0.08c-0.05,0.02-0.1,0.03-0.15,0.03s-0.1-0.01-0.15-0.04c-0.04-0.02-0.08-0.06-0.11-0.11
		c-0.03-0.05-0.04-0.1-0.04-0.17C122.44,24.24,122.47,24.16,122.54,24.09z M122.6,24.49c0.04,0.04,0.09,0.06,0.16,0.06
		c0.1,0,0.19-0.04,0.26-0.11c0-0.02,0-0.03,0-0.05c0-0.08-0.02-0.16-0.07-0.22c-0.04-0.06-0.11-0.09-0.18-0.09s-0.13,0.02-0.17,0.07
		s-0.06,0.1-0.06,0.18C122.54,24.4,122.56,24.46,122.6,24.49z"/>
	<path d="M123.33,24.91c0.08,0.05,0.16,0.07,0.25,0.07c0.08,0,0.14-0.02,0.18-0.06s0.07-0.1,0.07-0.17s-0.02-0.12-0.07-0.16
		c-0.05-0.04-0.11-0.06-0.19-0.06s-0.15,0.01-0.21,0.04l-0.03-0.03l0.07-0.52h0.5v0.1h-0.43l-0.05,0.34
		c0.05-0.01,0.1-0.02,0.14-0.02c0.1,0,0.19,0.03,0.25,0.08s0.1,0.13,0.1,0.23s-0.03,0.18-0.1,0.24s-0.15,0.09-0.26,0.09
		c-0.05,0-0.09-0.01-0.14-0.02s-0.09-0.03-0.12-0.05L123.33,24.91z"/>
</g>
<g>
	<path d="M134.26,21.94l0.1-0.02v1.14h-0.1V21.94z"/>
	<path d="M134.65,22.39c0.07-0.08,0.15-0.11,0.26-0.11c0.08,0,0.15,0.03,0.2,0.08s0.08,0.12,0.08,0.2c0,0.04-0.01,0.08-0.02,0.12
		h-0.51v0.01c0,0.09,0.03,0.16,0.08,0.21c0.05,0.06,0.11,0.08,0.19,0.08s0.16-0.02,0.22-0.06l0.02,0.09
		c-0.07,0.04-0.15,0.06-0.24,0.06c-0.11,0-0.2-0.04-0.26-0.11c-0.07-0.07-0.1-0.17-0.1-0.28C134.55,22.56,134.58,22.47,134.65,22.39
		z M135.08,22.6c0,0,0-0.02,0-0.03c0-0.06-0.02-0.11-0.05-0.14c-0.03-0.04-0.08-0.05-0.13-0.05c-0.07,0-0.12,0.02-0.16,0.07
		c-0.04,0.04-0.07,0.1-0.08,0.17L135.08,22.6z"/>
	<path d="M135.29,22.32l0.11-0.03v-0.17h0.1v0.18h0.25v0.09h-0.25l-0.01,0.45v0.01c0,0.09,0.04,0.13,0.11,0.13
		c0.04,0,0.09-0.01,0.15-0.04l0.02,0.09c-0.06,0.03-0.11,0.04-0.17,0.04c-0.07,0-0.13-0.02-0.16-0.06
		c-0.03-0.04-0.05-0.09-0.05-0.16c0-0.01,0-0.01,0-0.02l0.01-0.45l-0.12-0.01L135.29,22.32z"/>
	<path d="M135.84,22.32l0.11-0.03v-0.17h0.1v0.18h0.25v0.09h-0.25l-0.01,0.45v0.01c0,0.09,0.04,0.13,0.11,0.13
		c0.04,0,0.09-0.01,0.15-0.04l0.02,0.09c-0.06,0.03-0.11,0.04-0.17,0.04c-0.07,0-0.13-0.02-0.16-0.06
		c-0.03-0.04-0.05-0.09-0.05-0.16c0-0.01,0-0.01,0-0.02l0.01-0.45l-0.12-0.01L135.84,22.32z"/>
	<path d="M136.53,22.39c0.07-0.08,0.15-0.11,0.26-0.11c0.08,0,0.15,0.03,0.2,0.08s0.08,0.12,0.08,0.2c0,0.04-0.01,0.08-0.02,0.12
		h-0.51v0.01c0,0.09,0.03,0.16,0.08,0.21c0.05,0.06,0.11,0.08,0.19,0.08s0.16-0.02,0.22-0.06l0.02,0.09
		c-0.07,0.04-0.15,0.06-0.24,0.06c-0.11,0-0.2-0.04-0.26-0.11c-0.07-0.07-0.1-0.17-0.1-0.28C136.42,22.56,136.46,22.47,136.53,22.39
		z M136.96,22.6c0,0,0-0.02,0-0.03c0-0.06-0.02-0.11-0.05-0.14c-0.03-0.04-0.08-0.05-0.13-0.05c-0.07,0-0.12,0.02-0.16,0.07
		c-0.04,0.04-0.07,0.1-0.08,0.17L136.96,22.6z"/>
	<path d="M137.26,22.3l0.1-0.02v0.16c0.03-0.05,0.06-0.09,0.1-0.12s0.08-0.04,0.13-0.04s0.09,0.01,0.13,0.03l-0.03,0.1
		c-0.04-0.02-0.07-0.03-0.12-0.03c-0.08,0-0.16,0.07-0.21,0.2v0.49h-0.1L137.26,22.3L137.26,22.3z"/>
	<path d="M137.83,22.41c0.02-0.02,0.04-0.02,0.06-0.02s0.04,0.01,0.06,0.02c0.01,0.02,0.02,0.04,0.02,0.06
		c0,0.02-0.01,0.04-0.02,0.06c-0.02,0.02-0.04,0.03-0.06,0.03s-0.04-0.01-0.06-0.03s-0.02-0.04-0.02-0.06
		C137.81,22.44,137.81,22.42,137.83,22.41z M137.83,22.93c0.01-0.02,0.04-0.02,0.06-0.02s0.04,0.01,0.06,0.02
		c0.01,0.02,0.02,0.04,0.02,0.06s-0.01,0.04-0.02,0.06c-0.02,0.02-0.04,0.03-0.06,0.03s-0.04-0.01-0.06-0.03s-0.02-0.04-0.02-0.06
		S137.81,22.95,137.83,22.93z"/>
	<path d="M138.69,22.67l-0.24-0.37h0.11l0.19,0.29l0.19-0.29h0.11l-0.24,0.37l0.26,0.39h-0.12l-0.21-0.32l-0.2,0.32h-0.12
		L138.69,22.67z"/>
	<path d="M134.31,24.39c0.07-0.08,0.16-0.11,0.27-0.11c0.09,0,0.17,0.02,0.24,0.06l-0.03,0.09c-0.06-0.04-0.13-0.06-0.21-0.06
		s-0.15,0.03-0.19,0.08c-0.05,0.06-0.07,0.13-0.07,0.22s0.02,0.17,0.07,0.22c0.05,0.06,0.11,0.08,0.19,0.08s0.15-0.02,0.21-0.06
		l0.02,0.09c-0.07,0.04-0.15,0.06-0.24,0.06c-0.11,0-0.2-0.04-0.27-0.11s-0.1-0.17-0.1-0.29C134.21,24.56,134.24,24.46,134.31,24.39
		z"/>
	<path d="M135.06,24.39c0.07-0.07,0.16-0.11,0.27-0.11s0.19,0.04,0.26,0.11c0.07,0.07,0.1,0.17,0.1,0.29s-0.04,0.22-0.11,0.29
		c-0.07,0.08-0.16,0.11-0.27,0.11s-0.19-0.04-0.26-0.11c-0.07-0.07-0.1-0.17-0.1-0.29S134.99,24.46,135.06,24.39z M135.13,24.9
		c0.05,0.06,0.11,0.09,0.19,0.09s0.14-0.03,0.19-0.09s0.07-0.13,0.07-0.22s-0.02-0.17-0.07-0.22c-0.05-0.06-0.11-0.08-0.19-0.08
		s-0.14,0.03-0.19,0.09s-0.07,0.13-0.07,0.22C135.05,24.77,135.08,24.84,135.13,24.9z"/>
	<path d="M135.89,24.3l0.1-0.02v0.12c0.04-0.04,0.08-0.07,0.13-0.09s0.09-0.03,0.13-0.03c0.08,0,0.13,0.02,0.18,0.07
		c0.04,0.05,0.06,0.11,0.06,0.19v0.52h-0.1v-0.49c0-0.07-0.01-0.11-0.04-0.15c-0.03-0.03-0.07-0.05-0.13-0.05
		c-0.04,0-0.08,0.01-0.12,0.03s-0.08,0.04-0.11,0.08v0.58h-0.1V24.3z"/>
	<path d="M136.64,24.32l0.11-0.03v-0.12c0-0.18,0.08-0.27,0.23-0.27c0.04,0,0.09,0.01,0.14,0.03c0,0,0,0.01-0.01,0.02
		c0,0.01-0.01,0.03-0.01,0.05s-0.01,0.02-0.01,0.02c-0.04-0.02-0.08-0.03-0.12-0.03s-0.07,0.01-0.09,0.04s-0.03,0.07-0.03,0.13v0.13
		h0.24v0.09h-0.23v0.66h-0.1v-0.66l-0.12-0.01L136.64,24.32z"/>
	<path d="M137.22,24.41c0.02-0.02,0.04-0.02,0.06-0.02s0.04,0.01,0.06,0.02c0.01,0.02,0.02,0.04,0.02,0.06
		c0,0.02-0.01,0.04-0.02,0.06c-0.02,0.02-0.04,0.03-0.06,0.03s-0.04-0.01-0.06-0.03s-0.02-0.04-0.02-0.06
		C137.2,24.44,137.21,24.42,137.22,24.41z M137.22,24.93c0.01-0.02,0.04-0.02,0.06-0.02s0.04,0.01,0.06,0.02
		c0.01,0.02,0.02,0.04,0.02,0.06s-0.01,0.04-0.02,0.06c-0.02,0.02-0.04,0.03-0.06,0.03s-0.04-0.01-0.06-0.03s-0.02-0.04-0.02-0.06
		S137.21,24.95,137.22,24.93z"/>
	<path d="M137.91,24.93c0.01-0.02,0.04-0.02,0.06-0.02s0.04,0.01,0.06,0.02c0.01,0.02,0.02,0.04,0.02,0.06s-0.01,0.04-0.02,0.06
		c-0.02,0.02-0.04,0.03-0.06,0.03s-0.04-0.01-0.06-0.03s-0.02-0.04-0.02-0.06S137.9,24.95,137.91,24.93z"/>
	<path d="M138.29,24.09c0.06-0.06,0.14-0.09,0.24-0.09c0.07,0,0.14,0.02,0.19,0.06c0.05,0.04,0.09,0.09,0.12,0.15
		s0.04,0.13,0.04,0.21c0,0.06-0.01,0.11-0.02,0.17c-0.01,0.05-0.04,0.11-0.07,0.16c-0.03,0.05-0.07,0.1-0.11,0.15
		c-0.04,0.04-0.1,0.08-0.16,0.12c-0.06,0.03-0.13,0.06-0.21,0.08l-0.02-0.09c0.14-0.03,0.25-0.09,0.33-0.17s0.14-0.18,0.16-0.29l0,0
		c-0.04,0.03-0.08,0.06-0.13,0.08s-0.1,0.03-0.15,0.03c-0.05,0-0.1-0.01-0.15-0.04c-0.04-0.02-0.08-0.06-0.11-0.11
		c-0.03-0.05-0.04-0.1-0.04-0.17C138.19,24.24,138.23,24.16,138.29,24.09z M138.36,24.5c0.04,0.04,0.09,0.06,0.16,0.06
		c0.1,0,0.19-0.04,0.26-0.11c0-0.02,0-0.03,0-0.05c0-0.08-0.02-0.16-0.07-0.22c-0.04-0.06-0.11-0.09-0.18-0.09
		c-0.07,0-0.13,0.02-0.17,0.07s-0.06,0.1-0.06,0.18C138.29,24.4,138.31,24.46,138.36,24.5z"/>
	<path d="M139.12,24.09c0.06-0.06,0.14-0.09,0.24-0.09c0.07,0,0.14,0.02,0.19,0.06c0.05,0.04,0.09,0.09,0.12,0.15
		s0.04,0.13,0.04,0.21c0,0.06-0.01,0.11-0.02,0.17c-0.01,0.05-0.04,0.11-0.07,0.16c-0.03,0.05-0.07,0.1-0.11,0.15
		c-0.04,0.04-0.1,0.08-0.16,0.12c-0.06,0.03-0.13,0.06-0.21,0.08l-0.02-0.09c0.14-0.03,0.25-0.09,0.33-0.17s0.14-0.18,0.16-0.29l0,0
		c-0.04,0.03-0.08,0.06-0.13,0.08s-0.1,0.03-0.15,0.03c-0.05,0-0.1-0.01-0.15-0.04c-0.04-0.02-0.08-0.06-0.11-0.11
		c-0.03-0.05-0.04-0.1-0.04-0.17C139.03,24.24,139.06,24.16,139.12,24.09z M139.19,24.5c0.04,0.04,0.09,0.06,0.16,0.06
		c0.1,0,0.19-0.04,0.26-0.11c0-0.02,0-0.03,0-0.05c0-0.08-0.02-0.16-0.07-0.22c-0.04-0.06-0.11-0.09-0.18-0.09
		c-0.07,0-0.13,0.02-0.17,0.07s-0.06,0.1-0.06,0.18C139.13,24.4,139.15,24.46,139.19,24.5z"/>
</g>
<g>
	<path d="M149.71,21.94l0.1-0.02v1.14h-0.1V21.94z"/>
	<path d="M150.1,22.39c0.07-0.08,0.15-0.11,0.26-0.11c0.08,0,0.15,0.03,0.2,0.08s0.08,0.12,0.08,0.2c0,0.04-0.01,0.08-0.02,0.12
		h-0.51v0.01c0,0.09,0.03,0.16,0.08,0.21c0.05,0.06,0.11,0.08,0.19,0.08s0.16-0.02,0.22-0.06l0.02,0.09
		c-0.07,0.04-0.15,0.06-0.24,0.06c-0.11,0-0.2-0.04-0.26-0.11c-0.07-0.07-0.1-0.17-0.1-0.28C150,22.56,150.03,22.47,150.1,22.39z
		 M150.53,22.6c0,0,0-0.02,0-0.03c0-0.06-0.02-0.11-0.05-0.14c-0.03-0.04-0.08-0.05-0.13-0.05c-0.07,0-0.12,0.02-0.16,0.07
		c-0.04,0.04-0.07,0.1-0.08,0.17L150.53,22.6z"/>
	<path d="M150.74,22.32l0.11-0.03v-0.17h0.1v0.18h0.25v0.09h-0.25l-0.01,0.45v0.01c0,0.09,0.04,0.13,0.11,0.13
		c0.04,0,0.09-0.01,0.15-0.04l0.02,0.09c-0.06,0.03-0.11,0.04-0.17,0.04c-0.07,0-0.13-0.02-0.16-0.06
		c-0.03-0.04-0.05-0.09-0.05-0.16c0-0.01,0-0.01,0-0.02l0.01-0.45l-0.12-0.01L150.74,22.32z"/>
	<path d="M151.29,22.32l0.11-0.03v-0.17h0.1v0.18h0.25v0.09h-0.25l-0.01,0.45v0.01c0,0.09,0.04,0.13,0.11,0.13
		c0.04,0,0.09-0.01,0.15-0.04l0.02,0.09c-0.06,0.03-0.11,0.04-0.17,0.04c-0.07,0-0.13-0.02-0.16-0.06
		c-0.03-0.04-0.05-0.09-0.05-0.16c0-0.01,0-0.01,0-0.02l0.01-0.45l-0.12-0.01L151.29,22.32z"/>
	<path d="M151.98,22.39c0.07-0.08,0.15-0.11,0.26-0.11c0.08,0,0.15,0.03,0.2,0.08s0.08,0.12,0.08,0.2c0,0.04-0.01,0.08-0.02,0.12
		h-0.51v0.01c0,0.09,0.03,0.16,0.08,0.21c0.05,0.06,0.11,0.08,0.19,0.08s0.16-0.02,0.22-0.06l0.02,0.09
		c-0.07,0.04-0.15,0.06-0.24,0.06c-0.11,0-0.2-0.04-0.26-0.11c-0.07-0.07-0.1-0.17-0.1-0.28C151.87,22.56,151.91,22.47,151.98,22.39
		z M152.41,22.6c0,0,0-0.02,0-0.03c0-0.06-0.02-0.11-0.05-0.14c-0.03-0.04-0.08-0.05-0.13-0.05c-0.07,0-0.12,0.02-0.16,0.07
		c-0.04,0.04-0.07,0.1-0.08,0.17L152.41,22.6z"/>
	<path d="M152.71,22.3l0.1-0.02v0.16c0.03-0.05,0.06-0.09,0.1-0.12s0.08-0.04,0.13-0.04s0.09,0.01,0.13,0.03l-0.03,0.1
		c-0.04-0.02-0.07-0.03-0.12-0.03c-0.08,0-0.16,0.07-0.21,0.2v0.49h-0.1L152.71,22.3L152.71,22.3z"/>
	<path d="M153.28,22.41c0.02-0.02,0.04-0.02,0.06-0.02s0.04,0.01,0.06,0.02c0.01,0.02,0.02,0.04,0.02,0.06
		c0,0.02-0.01,0.04-0.02,0.06c-0.02,0.02-0.04,0.03-0.06,0.03s-0.04-0.01-0.06-0.03s-0.02-0.04-0.02-0.06
		C153.26,22.44,153.26,22.42,153.28,22.41z M153.28,22.93c0.01-0.02,0.04-0.02,0.06-0.02s0.04,0.01,0.06,0.02
		c0.01,0.02,0.02,0.04,0.02,0.06s-0.01,0.04-0.02,0.06c-0.02,0.02-0.04,0.03-0.06,0.03s-0.04-0.01-0.06-0.03s-0.02-0.04-0.02-0.06
		S153.26,22.95,153.28,22.93z"/>
	<path d="M154.05,22.39c0.07-0.07,0.16-0.11,0.27-0.11s0.19,0.04,0.26,0.11c0.07,0.07,0.1,0.17,0.1,0.29s-0.04,0.22-0.11,0.29
		c-0.07,0.08-0.16,0.11-0.27,0.11s-0.19-0.04-0.26-0.11c-0.07-0.07-0.1-0.17-0.1-0.29S153.98,22.46,154.05,22.39z M154.12,22.9
		c0.05,0.06,0.11,0.09,0.19,0.09s0.14-0.03,0.19-0.09s0.07-0.13,0.07-0.22s-0.02-0.17-0.07-0.22c-0.05-0.06-0.11-0.08-0.19-0.08
		s-0.14,0.03-0.19,0.09s-0.07,0.13-0.07,0.22C154.05,22.77,154.07,22.84,154.12,22.9z"/>
	<path d="M149.76,24.39c0.07-0.08,0.16-0.11,0.27-0.11c0.09,0,0.17,0.02,0.24,0.06l-0.03,0.09c-0.06-0.04-0.13-0.06-0.21-0.06
		s-0.15,0.03-0.19,0.08c-0.05,0.06-0.07,0.13-0.07,0.22s0.02,0.17,0.07,0.22c0.05,0.06,0.11,0.08,0.19,0.08s0.15-0.02,0.21-0.06
		l0.02,0.09c-0.07,0.04-0.15,0.06-0.24,0.06c-0.11,0-0.2-0.04-0.27-0.11s-0.1-0.17-0.1-0.29C149.66,24.56,149.69,24.46,149.76,24.39
		z"/>
	<path d="M150.51,24.39c0.07-0.07,0.16-0.11,0.27-0.11s0.19,0.04,0.26,0.11c0.07,0.07,0.1,0.17,0.1,0.29s-0.04,0.22-0.11,0.29
		c-0.07,0.08-0.16,0.11-0.27,0.11s-0.19-0.04-0.26-0.11c-0.07-0.07-0.1-0.17-0.1-0.29S150.44,24.46,150.51,24.39z M150.58,24.9
		c0.05,0.06,0.11,0.09,0.19,0.09s0.14-0.03,0.19-0.09s0.07-0.13,0.07-0.22s-0.02-0.17-0.07-0.22c-0.05-0.06-0.11-0.08-0.19-0.08
		s-0.14,0.03-0.19,0.09s-0.07,0.13-0.07,0.22C150.5,24.77,150.53,24.84,150.58,24.9z"/>
	<path d="M151.34,24.3l0.1-0.02v0.12c0.04-0.04,0.08-0.07,0.13-0.09s0.09-0.03,0.13-0.03c0.08,0,0.13,0.02,0.18,0.07
		c0.04,0.05,0.06,0.11,0.06,0.19v0.52h-0.1v-0.49c0-0.07-0.01-0.11-0.04-0.15c-0.03-0.03-0.07-0.05-0.13-0.05
		c-0.04,0-0.08,0.01-0.12,0.03s-0.08,0.04-0.11,0.08v0.58h-0.1V24.3z"/>
	<path d="M152.09,24.32l0.11-0.03v-0.12c0-0.18,0.08-0.27,0.23-0.27c0.04,0,0.09,0.01,0.14,0.03c0,0,0,0.01-0.01,0.02
		c0,0.01-0.01,0.03-0.01,0.05s-0.01,0.02-0.01,0.02c-0.04-0.02-0.08-0.03-0.12-0.03s-0.07,0.01-0.09,0.04s-0.03,0.07-0.03,0.13v0.13
		h0.24v0.09h-0.23v0.66h-0.1v-0.66l-0.12-0.01L152.09,24.32z"/>
	<path d="M152.67,24.41c0.02-0.02,0.04-0.02,0.06-0.02s0.04,0.01,0.06,0.02c0.01,0.02,0.02,0.04,0.02,0.06
		c0,0.02-0.01,0.04-0.02,0.06c-0.02,0.02-0.04,0.03-0.06,0.03s-0.04-0.01-0.06-0.03s-0.02-0.04-0.02-0.06
		C152.65,24.44,152.66,24.42,152.67,24.41z M152.67,24.93c0.01-0.02,0.04-0.02,0.06-0.02s0.04,0.01,0.06,0.02
		c0.01,0.02,0.02,0.04,0.02,0.06s-0.01,0.04-0.02,0.06c-0.02,0.02-0.04,0.03-0.06,0.03s-0.04-0.01-0.06-0.03s-0.02-0.04-0.02-0.06
		S152.66,24.95,152.67,24.93z"/>
	<path d="M153.36,24.93c0.01-0.02,0.04-0.02,0.06-0.02s0.04,0.01,0.06,0.02c0.01,0.02,0.02,0.04,0.02,0.06s-0.01,0.04-0.02,0.06
		c-0.02,0.02-0.04,0.03-0.06,0.03s-0.04-0.01-0.06-0.03s-0.02-0.04-0.02-0.06S153.35,24.95,153.36,24.93z"/>
	<path d="M153.74,24.09c0.06-0.06,0.14-0.09,0.24-0.09c0.07,0,0.14,0.02,0.19,0.06c0.05,0.04,0.09,0.09,0.12,0.15
		s0.04,0.13,0.04,0.21c0,0.06-0.01,0.11-0.02,0.17c-0.01,0.05-0.04,0.11-0.07,0.16c-0.03,0.05-0.07,0.1-0.11,0.15
		c-0.04,0.04-0.1,0.08-0.16,0.12c-0.06,0.03-0.13,0.06-0.21,0.08l-0.02-0.09c0.14-0.03,0.25-0.09,0.33-0.17s0.14-0.18,0.16-0.29l0,0
		c-0.04,0.03-0.08,0.06-0.13,0.08s-0.1,0.03-0.15,0.03c-0.05,0-0.1-0.01-0.15-0.04c-0.04-0.02-0.08-0.06-0.11-0.11
		c-0.03-0.05-0.04-0.1-0.04-0.17C153.64,24.24,153.68,24.16,153.74,24.09z M153.81,24.5c0.04,0.04,0.09,0.06,0.16,0.06
		c0.1,0,0.19-0.04,0.26-0.11c0-0.02,0-0.03,0-0.05c0-0.08-0.02-0.16-0.07-0.22c-0.04-0.06-0.11-0.09-0.18-0.09
		c-0.07,0-0.13,0.02-0.17,0.07s-0.06,0.1-0.06,0.18C153.74,24.4,153.76,24.46,153.81,24.5z"/>
	<path d="M154.53,24.92c0.08,0.04,0.16,0.07,0.25,0.07c0.07,0,0.13-0.02,0.18-0.06c0.05-0.04,0.07-0.09,0.07-0.15
		s-0.02-0.1-0.07-0.14c-0.04-0.04-0.11-0.05-0.18-0.05c-0.04,0-0.09,0-0.14,0.01v-0.09c0.12-0.03,0.21-0.07,0.27-0.11
		s0.09-0.09,0.09-0.15c0-0.05-0.02-0.09-0.06-0.12s-0.09-0.04-0.15-0.04c-0.04,0-0.09,0.01-0.13,0.03
		c-0.05,0.02-0.09,0.04-0.12,0.07l-0.04-0.09c0.04-0.03,0.08-0.06,0.14-0.08c0.05-0.02,0.1-0.03,0.16-0.03
		c0.09,0,0.17,0.02,0.22,0.07c0.06,0.05,0.08,0.11,0.08,0.18c0,0.12-0.09,0.21-0.27,0.26c0.1,0,0.17,0.02,0.23,0.07
		c0.05,0.05,0.08,0.11,0.08,0.18c0,0.09-0.04,0.17-0.1,0.23c-0.07,0.06-0.16,0.08-0.26,0.08c-0.05,0-0.1-0.01-0.15-0.02
		c-0.05-0.01-0.09-0.03-0.13-0.05L154.53,24.92z"/>
</g>
<g>
	<path d="M86.85,29.46l0.1-0.02v0.83c0,0.1-0.01,0.17-0.04,0.23c-0.03,0.05-0.07,0.1-0.14,0.13l-0.07-0.07
		c0.05-0.03,0.09-0.06,0.11-0.1c0.02-0.04,0.03-0.1,0.03-0.18 M86.85,29.16c0.01-0.01,0.03-0.02,0.05-0.02s0.04,0.01,0.05,0.02
		s0.02,0.03,0.02,0.05c0,0.02-0.01,0.04-0.02,0.05c-0.01,0.02-0.03,0.02-0.05,0.02s-0.04-0.01-0.05-0.02s-0.02-0.03-0.02-0.05
		S86.84,29.17,86.85,29.16z"/>
</g>
<g>
	<path d="M109.11,22.67l-0.25-0.37h0.11l0.19,0.29l0.19-0.29h0.11l-0.24,0.37l0.26,0.39h-0.12l-0.21-0.32l-0.2,0.32h-0.12
		L109.11,22.67z"/>
</g>
<g>
	<path d="M108.33,24.93c0.02-0.02,0.04-0.02,0.06-0.02s0.04,0.01,0.06,0.02c0.02,0.02,0.02,0.04,0.02,0.06s-0.01,0.04-0.02,0.06
		c-0.02,0.02-0.04,0.03-0.06,0.03s-0.04-0.01-0.06-0.03c-0.02-0.02-0.02-0.04-0.02-0.06S108.31,24.95,108.33,24.93z"/>
	<path d="M108.7,24.09c0.06-0.06,0.14-0.09,0.24-0.09c0.07,0,0.14,0.02,0.19,0.06s0.09,0.09,0.12,0.15
		c0.03,0.06,0.04,0.13,0.04,0.21c0,0.06-0.01,0.11-0.02,0.17c-0.01,0.05-0.04,0.11-0.07,0.16c-0.03,0.05-0.07,0.1-0.11,0.15
		c-0.04,0.04-0.1,0.08-0.16,0.12c-0.06,0.03-0.13,0.06-0.21,0.08l-0.03-0.09c0.14-0.03,0.25-0.09,0.33-0.17
		c0.08-0.08,0.14-0.18,0.16-0.29l0,0c-0.04,0.03-0.08,0.06-0.13,0.08c-0.05,0.02-0.1,0.03-0.15,0.03c-0.05,0-0.1-0.01-0.15-0.04
		c-0.04-0.02-0.08-0.06-0.11-0.11c-0.03-0.05-0.04-0.1-0.04-0.17C108.61,24.24,108.64,24.16,108.7,24.09z M108.77,24.49
		c0.04,0.04,0.09,0.06,0.16,0.06c0.1,0,0.19-0.04,0.26-0.11c0-0.02,0-0.03,0-0.05c0-0.08-0.02-0.16-0.07-0.22
		c-0.04-0.06-0.11-0.09-0.18-0.09c-0.07,0-0.13,0.02-0.17,0.07c-0.04,0.05-0.06,0.1-0.06,0.18
		C108.71,24.4,108.73,24.46,108.77,24.49z"/>
	<path d="M109.54,24.09c0.06-0.06,0.14-0.09,0.24-0.09c0.07,0,0.14,0.02,0.19,0.06s0.09,0.09,0.12,0.15
		c0.03,0.06,0.04,0.13,0.04,0.21c0,0.06-0.01,0.11-0.02,0.17c-0.01,0.05-0.04,0.11-0.07,0.16c-0.03,0.05-0.07,0.1-0.11,0.15
		c-0.04,0.04-0.1,0.08-0.16,0.12c-0.06,0.03-0.13,0.06-0.21,0.08l-0.03-0.09c0.14-0.03,0.25-0.09,0.33-0.17
		c0.08-0.08,0.14-0.18,0.16-0.29l0,0c-0.04,0.03-0.08,0.06-0.13,0.08c-0.05,0.02-0.1,0.03-0.15,0.03c-0.05,0-0.1-0.01-0.15-0.04
		c-0.04-0.02-0.08-0.06-0.11-0.11c-0.03-0.05-0.04-0.1-0.04-0.17C109.44,24.24,109.47,24.16,109.54,24.09z M109.61,24.49
		c0.04,0.04,0.09,0.06,0.16,0.06c0.1,0,0.19-0.04,0.26-0.11c0-0.02,0-0.03,0-0.05c0-0.08-0.02-0.16-0.07-0.22
		c-0.04-0.06-0.11-0.09-0.18-0.09c-0.07,0-0.13,0.02-0.17,0.07c-0.04,0.05-0.06,0.1-0.06,0.18
		C109.54,24.4,109.56,24.46,109.61,24.49z"/>
</g>
</svg>
