<?xml version="1.0" encoding="utf-8"?>
<!-- Generator: Adobe Illustrator 24.2.0, SVG Export Plug-In . SVG Version: 6.00 Build 0)  -->
<svg version="1.1" id="Layer_1" xmlns="http://www.w3.org/2000/svg" xmlns:xlink="http://www.w3.org/1999/xlink" x="0px" y="0px"
	 viewBox="0 0 189.77 40.2" enable-background="new 0 0 189.77 40.2" xml:space="preserve">
<g>
	<path fill="#EE4C2C" d="M40.8,9.3l-2.1,2.1c3.5,3.5,3.5,9.2,0,12.7s-9.2,3.5-12.7,0s-3.5-9.2,0-12.7l0,0l5.6-5.6L32.3,5l0,0V0.8
		l-8.5,8.5c-4.7,4.7-4.7,12.2,0,16.9s12.2,4.7,16.9,0C45.5,21.5,45.5,13.9,40.8,9.3z"/>
	<circle fill="#EE4C2C" cx="36.6" cy="7.1" r="1.6"/>
</g>
<g enable-background="new    ">
	<path d="M45.9,2.9h21.2v2.5h-9.2v23.7h-2.7V5.5H46V2.9H45.9z"/>
	<path d="M64.1,10l2.6-0.6v4.1c0.7-1.3,1.5-2.3,2.4-3s2.1-1.1,3.3-1.1c1.2,0,2.4,0.3,3.4,0.9L75,12.7c-0.9-0.6-1.9-0.8-2.9-0.8
		c-2.2,0-4,1.7-5.4,5v12.3h-2.6V10z"/>
	<path d="M77.1,12.2c1.8-1.9,4.1-2.8,6.8-2.8s4.9,0.9,6.7,2.8c1.7,1.9,2.6,4.3,2.6,7.4c0,3-0.9,5.5-2.7,7.4c-1.8,1.9-4,2.9-6.7,2.9
		S78.7,28.8,77,27s-2.6-4.3-2.6-7.3C74.4,16.6,75.3,14.1,77.1,12.2z M78.9,25.2c1.3,1.5,2.9,2.2,4.9,2.2s3.7-0.7,4.9-2.2
		c1.2-1.5,1.8-3.3,1.8-5.6c0-2.4-0.6-4.2-1.9-5.7c-1.3-1.4-2.9-2.2-4.9-2.2s-3.7,0.7-4.9,2.2S77,17.3,77,19.5
		C77,21.9,77.6,23.8,78.9,25.2z"/>
	<g>
		<path d="M95,30.6c0,2.1-0.3,3.6-0.8,4.6c-0.6,1-1.5,1.9-2.9,2.7l1.8,1.8c1.7-0.9,2.8-2,3.5-3.4s1-3.3,1-5.7V9.4L95,10V30.6z"/>
		<path d="M97.6,2.3c-0.3-0.3-0.8-0.5-1.3-0.5S95.3,2,95,2.3s-0.5,0.8-0.5,1.3s0.2,1,0.5,1.4s0.7,0.6,1.3,0.6s1-0.2,1.3-0.6
			s0.5-0.8,0.5-1.4C98,3.1,97.9,2.7,97.6,2.3z"/>
	</g>
	<path d="M110.7,17.6v-1.1c0-1.5-0.4-2.7-1.1-3.4s-1.9-1.1-3.4-1.1c-1,0-2.1,0.2-3.2,0.7s-2.2,1-3.1,1.6l-0.6-2.4
		c0.9-0.6,2-1.2,3.4-1.6c1.3-0.5,2.6-0.7,3.8-0.7c2.3,0,4,0.6,5.2,1.7s1.7,2.9,1.7,5.2v9.2c0,0.8,0.1,1.3,0.4,1.5
		c0.2,0.3,0.7,0.4,1.5,0.4h0.1l-0.2,2.1c-0.2,0-0.4,0-0.6,0c-2.2,0-3.4-0.9-3.7-2.7h-0.1c-0.7,0.8-1.5,1.5-2.5,2.1s-2,0.8-3.1,0.8
		c-1.8,0-3.2-0.5-4.4-1.5S99,26,99,24.4C99,20.3,102.9,18,110.7,17.6z M102.8,26.6c0.7,0.6,1.7,0.9,2.8,0.9c1,0,1.9-0.2,2.7-0.7
		s1.6-1.1,2.3-1.8v-5.6c-3.2,0.4-5.5,0.9-6.9,1.7c-1.4,0.8-2.1,1.8-2.1,3.1C101.7,25.1,102.1,25.9,102.8,26.6z"/>
	<path d="M116.1,10l2.6-0.6v3.2c1-1,2.1-1.8,3.3-2.3c1.2-0.6,2.3-0.8,3.3-0.8c1.9,0,3.4,0.6,4.5,1.7c1.1,1.2,1.6,2.8,1.6,4.9v13.2
		h-2.6V16.8c0-1.7-0.3-2.9-1-3.7s-1.8-1.2-3.2-1.2c-1,0-2,0.2-3.1,0.7s-1.9,1.1-2.8,2v14.6h-2.6V10z"/>
	<path d="M132.3,27.2l15.6-21.8h-15.1V2.9h18.5v2l-15.6,21.8h15.5v2.4h-18.9V27.2z"/>
	<path d="M153.8,12.2c1.8-1.9,4.1-2.8,6.8-2.8s4.9,0.9,6.7,2.8c1.7,1.9,2.6,4.3,2.6,7.4c0,3-0.9,5.5-2.7,7.4s-4,2.9-6.7,2.9
		s-4.9-0.9-6.7-2.8c-1.7-1.8-2.6-4.3-2.6-7.3C151.1,16.6,152,14.1,153.8,12.2z M155.6,25.2c1.3,1.5,2.9,2.2,4.9,2.2s3.7-0.7,4.9-2.2
		s1.8-3.3,1.8-5.6c0-2.4-0.6-4.2-1.9-5.7c-1.3-1.4-2.9-2.2-4.9-2.2s-3.7,0.7-4.9,2.2s-1.9,3.3-1.9,5.6
		C153.7,21.9,154.3,23.8,155.6,25.2z"/>
	<path d="M173.1,12.2c1.8-1.9,4.1-2.8,6.8-2.8s4.9,0.9,6.7,2.8c1.7,1.9,2.6,4.3,2.6,7.4c0,3-0.9,5.5-2.7,7.4s-4,2.9-6.7,2.9
		s-4.9-0.9-6.7-2.8c-1.7-1.8-2.6-4.3-2.6-7.3C170.4,16.6,171.3,14.1,173.1,12.2z M174.9,25.2c1.3,1.5,2.9,2.2,4.9,2.2
		s3.7-0.7,4.9-2.2s1.8-3.3,1.8-5.6c0-2.4-0.6-4.2-1.9-5.7c-1.3-1.4-2.9-2.2-4.9-2.2s-3.7,0.7-4.9,2.2s-1.9,3.3-1.9,5.6
		C173,21.9,173.6,23.8,174.9,25.2z"/>
</g>
<g>
	<path d="M36.99,21.76c-0.17,0.08-0.34,0.15-0.51,0.23c-0.05-0.07-0.1-0.15-0.15-0.22c-0.14-0.21-0.27-0.41-0.41-0.62
		c-0.12-0.18-0.24-0.37-0.36-0.55c-0.13-0.2-0.27-0.41-0.41-0.61c-0.12-0.17-0.23-0.35-0.35-0.53c-0.07-0.11-0.14-0.22-0.22-0.33
		c-0.01-0.01-0.03-0.02-0.05-0.02c-0.13,0.03-0.25,0.07-0.38,0.1c-0.08,0.02-0.17,0.03-0.25,0.03c-0.08,0.01-0.16,0.02-0.24,0.03
		c-0.13,0.02-0.27,0.03-0.4,0.04c-0.13,0.01-0.25,0.01-0.38,0.01c-0.29,0-0.59,0-0.88,0c-0.18,0-0.37-0.03-0.55-0.05
		c-0.13-0.01-0.26-0.02-0.39-0.04c-0.1-0.01-0.19-0.03-0.29-0.05c-0.08-0.01-0.15-0.02-0.23-0.04c-0.08-0.01-0.16-0.03-0.24-0.05
		c-0.06-0.01-0.12-0.03-0.18-0.04c-0.01,0-0.02,0-0.03,0c-0.13-0.03-0.12-0.03-0.2,0.08c-0.12,0.18-0.25,0.35-0.38,0.53
		c-0.12,0.17-0.24,0.34-0.36,0.51c-0.12,0.17-0.24,0.34-0.36,0.51c-0.13,0.18-0.25,0.36-0.37,0.53c-0.12,0.17-0.24,0.34-0.36,0.51
		c-0.01,0.01-0.02,0.02-0.04,0.03c-0.15-0.08-0.3-0.15-0.45-0.22c-0.03-0.01-0.02-0.04-0.01-0.06c0.09-0.16,0.18-0.33,0.26-0.49
		c0.18-0.34,0.36-0.68,0.54-1.02c0.15-0.29,0.31-0.57,0.46-0.86c0.13-0.25,0.26-0.5,0.4-0.75c0.04-0.07-0.01-0.1-0.04-0.14
		c-0.09-0.17-0.16-0.35-0.22-0.54c-0.07-0.22-0.09-0.45-0.08-0.69c0-0.08,0.03-0.16,0.04-0.24c-0.02,0-0.04-0.01-0.05-0.01
		c-0.21-0.01-0.4,0.07-0.57,0.19c-0.2,0.14-0.35,0.33-0.5,0.52c-0.16,0.21-0.32,0.43-0.53,0.61c-0.17,0.14-0.34,0.27-0.54,0.36
		c-0.19,0.09-0.39,0.16-0.61,0.12c-0.04-0.01-0.09-0.04-0.11-0.07c-0.03-0.05,0.01-0.09,0.05-0.11c0.08-0.06,0.18-0.1,0.25-0.17
		s0.15-0.14,0.21-0.22c0.19-0.26,0.32-0.55,0.45-0.84c0.11-0.24,0.22-0.47,0.37-0.68c0.14-0.2,0.32-0.37,0.55-0.47
		c0.18-0.08,0.37-0.11,0.57-0.07c0.15,0.02,0.3,0.05,0.44,0.12c0.1,0.05,0.19,0.1,0.29,0.16c0.04,0.03,0.06,0.03,0.1-0.01
		c0.14-0.13,0.29-0.25,0.47-0.32c0.11-0.04,0.22-0.08,0.33-0.1c0.13-0.03,0.27-0.04,0.4-0.06c0.19-0.03,0.39-0.02,0.58,0
		c0.18,0.02,0.36,0.03,0.55,0.04c0.2,0.02,0.4,0.04,0.6,0.05c0.14,0.01,0.28,0,0.42-0.02c0.13-0.01,0.26-0.03,0.38-0.07
		c0.17-0.05,0.32-0.16,0.44-0.29c0.16-0.18,0.28-0.39,0.37-0.61c0.12-0.27,0.22-0.55,0.33-0.83c0.12-0.3,0.26-0.6,0.44-0.87
		c0.17-0.27,0.36-0.51,0.61-0.72c0.15-0.13,0.32-0.23,0.51-0.3c0.2-0.07,0.4-0.11,0.61-0.11c0.03,0,0.06-0.03,0.08-0.05
		c0.16-0.17,0.31-0.35,0.47-0.53c0.01,0,0.01,0,0.02,0c0.03,0.09,0.05,0.19,0.09,0.29c0.1-0.08,0.18-0.16,0.27-0.24
		c0,0.03,0,0.05,0,0.07c0,0.21-0.01,0.41-0.01,0.62c0,0.02,0.01,0.05,0.03,0.07c0.4,0.4,0.8,0.81,1.19,1.21
		c0.06,0.06,0.13,0.12,0.18,0.19c0.02,0.03,0.04,0.07,0.04,0.1c0,0.18-0.02,0.37-0.03,0.55c0,0.07-0.06,0.08-0.11,0.1
		c-0.18,0.07-0.37,0.14-0.55,0.21c-0.03,0.01-0.05,0.02-0.08,0.03c-0.06,0.02-0.11,0-0.14-0.06c-0.03-0.05-0.05-0.1-0.08-0.14
		c-0.04-0.07-0.11-0.1-0.18-0.12c-0.06-0.02-0.13-0.03-0.2-0.03c-0.08,0-0.17,0.03-0.25,0.04c-0.15,0.03-0.29,0.08-0.44,0.06
		c-0.11-0.01-0.22-0.05-0.31-0.15c0,0.03,0,0.05,0,0.07c-0.01,0.31-0.03,0.62-0.04,0.93c-0.01,0.24-0.02,0.49-0.04,0.73
		c-0.01,0.23-0.03,0.47-0.04,0.7c0,0.06-0.01,0.12-0.01,0.18c-0.02,0.16-0.03,0.33-0.05,0.49c-0.05,0.27-0.13,0.52-0.28,0.75
		c-0.11,0.18-0.25,0.34-0.38,0.51c-0.03,0.04-0.04,0.06-0.01,0.11c0.15,0.3,0.3,0.61,0.45,0.92c0.18,0.36,0.36,0.72,0.54,1.08
		c0.13,0.27,0.27,0.54,0.4,0.82C36.9,21.59,36.94,21.67,36.99,21.76z"/>
	<path d="M26.39,21.87c0.06-0.08,0.11-0.16,0.17-0.23c0.04-0.06,0.08-0.11,0.13-0.17c0.02-0.03,0.03-0.03,0.06-0.01
		c0.24,0.15,0.48,0.31,0.72,0.45c0.24,0.14,0.48,0.28,0.72,0.4c0.21,0.11,0.43,0.2,0.64,0.29c0.14,0.06,0.28,0.11,0.42,0.16
		c0.14,0.05,0.28,0.08,0.42,0.12c0.14,0.04,0.27,0.07,0.41,0.1c0.13,0.03,0.25,0.04,0.38,0.06c0.09,0.02,0.18,0.03,0.27,0.04
		c0.1,0.01,0.19,0.03,0.29,0.04c0.69,0.07,1.38,0.07,2.07,0.05c0.22,0,0.43-0.03,0.65-0.05c0.13-0.01,0.25-0.02,0.38-0.03
		c0.1-0.01,0.2-0.03,0.3-0.05c0.06-0.01,0.13-0.02,0.19-0.03c0.16-0.03,0.32-0.05,0.47-0.09c0.12-0.03,0.24-0.07,0.36-0.1
		c0.16-0.05,0.31-0.09,0.46-0.15c0.17-0.06,0.34-0.13,0.51-0.21c0.19-0.09,0.39-0.18,0.57-0.28c0.24-0.13,0.47-0.27,0.7-0.41
		c0.1-0.06,0.2-0.13,0.3-0.19c0.01-0.01,0.04,0,0.05,0.01c0.1,0.13,0.2,0.26,0.29,0.4c0.01,0.01,0,0.04-0.01,0.05
		c-0.27,0.19-0.54,0.38-0.82,0.56c-0.27,0.16-0.54,0.32-0.82,0.46c-0.21,0.11-0.43,0.19-0.64,0.29c-0.15,0.07-0.31,0.13-0.47,0.19
		c-0.12,0.05-0.25,0.08-0.37,0.12c-0.11,0.03-0.22,0.07-0.33,0.1c-0.13,0.03-0.25,0.06-0.38,0.09c-0.11,0.03-0.21,0.05-0.31,0.07
		c-0.06,0.01-0.11,0.03-0.17,0.03c-0.22,0.03-0.44,0.06-0.66,0.09c-0.29,0.04-0.59,0.06-0.89,0.06c-0.2,0-0.4-0.02-0.59-0.03
		c-0.13-0.01-0.26-0.02-0.39-0.03c-0.1-0.01-0.19-0.03-0.29-0.05c-0.07-0.01-0.15-0.02-0.22-0.03c-0.08-0.01-0.16-0.03-0.24-0.05
		c-0.1-0.02-0.2-0.04-0.3-0.06c-0.09-0.02-0.18-0.04-0.27-0.07c-0.08-0.02-0.17-0.05-0.25-0.07c-0.11-0.03-0.21-0.07-0.32-0.1
		c-0.09-0.03-0.18-0.06-0.27-0.09c-0.11-0.04-0.22-0.08-0.33-0.12c-0.16-0.07-0.32-0.13-0.48-0.21c-0.2-0.09-0.4-0.19-0.59-0.29
		c-0.24-0.13-0.47-0.27-0.71-0.42c-0.17-0.11-0.34-0.23-0.51-0.35c-0.1-0.07-0.2-0.15-0.3-0.23C26.4,21.88,26.4,21.88,26.39,21.87z"
		/>
</g>
</svg>
