<?xml version="1.0" encoding="utf-8"?>
<!-- Generator: Adobe Illustrator 24.2.0, SVG Export Plug-In . SVG Version: 6.00 Build 0)  -->
<svg version="1.1" id="Layer_1" xmlns="http://www.w3.org/2000/svg" xmlns:xlink="http://www.w3.org/1999/xlink" x="0px" y="0px"
	 viewBox="0 0 90.3 109.1" enable-background="new 0 0 90.3 109.1" xml:space="preserve">
<g>
	<path fill="#EE4C2C" d="M77,31.7l-8.1,8.1c13.3,13.3,13.3,34.7,0,47.8c-13.3,13.3-34.7,13.3-47.8,0c-13.3-13.3-13.3-34.7,0-47.8
		l0,0l21.1-21.1l3-3l0,0V-0.2L13.4,31.6c-17.7,17.7-17.7,46.3,0,64s46.3,17.7,63.7,0C94.7,77.9,94.7,49.5,77,31.7z"/>
	<ellipse fill="#EE4C2C" cx="61.1" cy="23.9" rx="5.9" ry="5.9"/>
</g>
<g>
	<path fill="#FFFFFF" d="M62.45,78.81c-0.65,0.29-1.27,0.58-1.92,0.87c-0.19-0.28-0.37-0.55-0.56-0.83
		c-0.52-0.77-1.03-1.55-1.55-2.33c-0.46-0.69-0.9-1.38-1.36-2.07c-0.51-0.77-1.03-1.53-1.54-2.31c-0.44-0.65-0.87-1.32-1.3-1.98
		c-0.28-0.41-0.54-0.83-0.83-1.24c-0.03-0.04-0.13-0.08-0.18-0.07c-0.48,0.12-0.96,0.26-1.44,0.37c-0.31,0.07-0.64,0.09-0.96,0.13
		c-0.3,0.03-0.61,0.07-0.91,0.1c-0.51,0.06-1.01,0.13-1.51,0.16c-0.48,0.03-0.96,0.05-1.44,0.05c-1.1,0-2.2,0.01-3.31-0.02
		c-0.69-0.02-1.39-0.11-2.07-0.17c-0.49-0.04-0.98-0.08-1.47-0.14c-0.36-0.04-0.71-0.11-1.08-0.17c-0.29-0.04-0.58-0.09-0.87-0.14
		c-0.3-0.05-0.6-0.11-0.9-0.17c-0.23-0.04-0.46-0.09-0.69-0.14c-0.03-0.01-0.07,0-0.1-0.01c-0.48-0.1-0.46-0.09-0.75,0.32
		c-0.46,0.68-0.95,1.33-1.42,2.01c-0.46,0.65-0.91,1.29-1.37,1.94c-0.45,0.64-0.9,1.27-1.34,1.9c-0.47,0.67-0.94,1.34-1.41,2.01
		c-0.45,0.64-0.9,1.27-1.34,1.9c-0.03,0.04-0.08,0.08-0.14,0.13c-0.57-0.28-1.13-0.56-1.7-0.84c-0.11-0.05-0.09-0.14-0.03-0.23
		c0.34-0.62,0.66-1.24,0.99-1.86c0.68-1.28,1.36-2.57,2.04-3.86c0.58-1.08,1.15-2.15,1.73-3.23c0.5-0.94,0.99-1.88,1.5-2.81
		c0.14-0.25-0.05-0.38-0.14-0.53c-0.35-0.65-0.6-1.33-0.83-2.04c-0.27-0.84-0.33-1.7-0.28-2.58c0.02-0.3,0.09-0.59,0.15-0.92
		c-0.07-0.01-0.14-0.03-0.21-0.03c-0.81-0.03-1.51,0.25-2.16,0.71c-0.74,0.53-1.32,1.23-1.88,1.95c-0.62,0.79-1.2,1.62-1.98,2.28
		c-0.63,0.53-1.29,1-2.03,1.36c-0.72,0.35-1.47,0.59-2.28,0.46c-0.15-0.03-0.34-0.15-0.41-0.28c-0.1-0.17,0.05-0.33,0.2-0.42
		c0.32-0.22,0.66-0.39,0.96-0.63c0.29-0.24,0.55-0.52,0.78-0.82c0.73-0.96,1.2-2.07,1.7-3.16c0.4-0.89,0.83-1.76,1.39-2.56
		c0.53-0.77,1.2-1.39,2.07-1.77c0.67-0.29,1.39-0.4,2.13-0.28c0.58,0.09,1.14,0.2,1.66,0.45c0.37,0.17,0.73,0.38,1.08,0.59
		c0.15,0.09,0.22,0.09,0.36-0.03c0.53-0.49,1.08-0.96,1.76-1.22c0.4-0.15,0.83-0.29,1.26-0.39c0.5-0.11,1.01-0.15,1.51-0.23
		c0.73-0.1,1.45-0.08,2.19-0.01c0.68,0.06,1.37,0.09,2.06,0.15c0.75,0.06,1.5,0.15,2.25,0.18c0.53,0.03,1.06-0.01,1.58-0.06
		c0.49-0.05,0.98-0.11,1.45-0.25c0.65-0.2,1.21-0.59,1.67-1.1c0.61-0.69,1.04-1.48,1.39-2.31c0.44-1.02,0.83-2.07,1.26-3.11
		c0.46-1.14,0.97-2.25,1.65-3.28c0.65-1,1.37-1.94,2.28-2.7c0.58-0.48,1.21-0.86,1.93-1.12c0.74-0.27,1.5-0.4,2.28-0.41
		c0.1,0,0.22-0.11,0.29-0.2c0.59-0.65,1.17-1.33,1.76-1.99c0.03,0.01,0.05,0.02,0.08,0.02c0.1,0.35,0.21,0.7,0.33,1.1
		c0.36-0.32,0.68-0.59,1.03-0.9c0.01,0.1,0.02,0.18,0.02,0.25c-0.02,0.77-0.03,1.55-0.04,2.32c0,0.09,0.05,0.2,0.11,0.26
		c1.5,1.52,3,3.04,4.49,4.55c0.23,0.23,0.47,0.46,0.69,0.71c0.09,0.09,0.15,0.25,0.15,0.38c-0.02,0.69-0.06,1.38-0.09,2.06
		c-0.02,0.26-0.24,0.32-0.42,0.39c-0.69,0.28-1.39,0.54-2.07,0.81c-0.1,0.04-0.21,0.09-0.32,0.12c-0.23,0.08-0.41,0.01-0.53-0.22
		c-0.09-0.18-0.2-0.36-0.29-0.54c-0.15-0.28-0.41-0.36-0.68-0.45c-0.24-0.08-0.51-0.13-0.76-0.12c-0.32,0.02-0.63,0.09-0.94,0.16
		c-0.55,0.11-1.09,0.3-1.66,0.24c-0.42-0.04-0.82-0.19-1.16-0.55c-0.01,0.12-0.02,0.19-0.02,0.26c-0.05,1.16-0.11,2.33-0.16,3.49
		c-0.04,0.91-0.09,1.83-0.14,2.75c-0.05,0.88-0.11,1.76-0.16,2.63c-0.02,0.22-0.03,0.45-0.04,0.66c-0.06,0.62-0.1,1.24-0.21,1.85
		c-0.17,1.01-0.5,1.97-1.04,2.84c-0.42,0.67-0.94,1.28-1.43,1.91c-0.11,0.15-0.15,0.23-0.05,0.41c0.58,1.14,1.13,2.31,1.7,3.46
		c0.67,1.36,1.35,2.72,2.03,4.08c0.51,1.02,1.01,2.05,1.51,3.07C62.11,78.14,62.28,78.46,62.45,78.81z"/>
	<path fill="#FFFFFF" d="M22.55,79.2c0.22-0.3,0.43-0.59,0.64-0.87c0.15-0.22,0.32-0.42,0.48-0.63c0.07-0.09,0.11-0.1,0.22-0.03
		c0.9,0.58,1.79,1.15,2.71,1.7c0.89,0.53,1.79,1.05,2.71,1.51c0.78,0.4,1.61,0.74,2.42,1.08c0.52,0.22,1.05,0.42,1.58,0.59
		c0.53,0.17,1.06,0.31,1.59,0.45c0.52,0.14,1.03,0.28,1.55,0.38c0.47,0.09,0.96,0.16,1.43,0.24c0.34,0.06,0.69,0.11,1.03,0.16
		c0.36,0.05,0.72,0.1,1.08,0.14c2.59,0.25,5.19,0.26,7.79,0.2c0.82-0.02,1.63-0.11,2.44-0.18c0.47-0.03,0.96-0.07,1.43-0.12
		c0.38-0.04,0.75-0.11,1.12-0.17c0.24-0.04,0.47-0.08,0.71-0.12c0.59-0.11,1.19-0.21,1.78-0.34c0.46-0.1,0.91-0.25,1.37-0.39
		c0.59-0.17,1.17-0.34,1.74-0.55c0.65-0.24,1.27-0.5,1.9-0.79c0.73-0.34,1.45-0.68,2.16-1.07c0.89-0.49,1.76-1.02,2.63-1.53
		c0.39-0.23,0.76-0.47,1.14-0.71c0.04-0.03,0.15,0,0.17,0.03c0.38,0.49,0.75,0.99,1.11,1.49c0.03,0.04,0.01,0.16-0.03,0.19
		c-1.02,0.71-2.04,1.44-3.09,2.09c-1.01,0.62-2.04,1.2-3.1,1.74c-0.78,0.4-1.61,0.73-2.42,1.08c-0.58,0.25-1.16,0.48-1.76,0.7
		c-0.46,0.17-0.94,0.31-1.41,0.46c-0.41,0.13-0.82,0.27-1.24,0.38c-0.47,0.13-0.96,0.23-1.43,0.34c-0.4,0.09-0.78,0.19-1.18,0.28
		c-0.22,0.05-0.43,0.09-0.65,0.13c-0.83,0.12-1.65,0.22-2.48,0.34c-1.11,0.16-2.22,0.22-3.34,0.22c-0.74,0-1.49-0.07-2.23-0.12
		c-0.48-0.03-0.97-0.07-1.45-0.12c-0.37-0.04-0.73-0.12-1.1-0.18c-0.28-0.04-0.55-0.08-0.83-0.13c-0.3-0.05-0.6-0.12-0.9-0.18
		c-0.38-0.08-0.75-0.15-1.13-0.23c-0.34-0.08-0.69-0.16-1.03-0.25c-0.32-0.09-0.63-0.17-0.94-0.27c-0.4-0.12-0.81-0.25-1.21-0.38
		c-0.34-0.11-0.67-0.22-1-0.34c-0.42-0.15-0.84-0.3-1.25-0.46c-0.61-0.25-1.21-0.5-1.81-0.78c-0.75-0.35-1.49-0.71-2.2-1.11
		c-0.9-0.5-1.78-1.02-2.66-1.58c-0.65-0.41-1.28-0.88-1.91-1.33c-0.38-0.28-0.75-0.57-1.13-0.85C22.6,79.26,22.58,79.25,22.55,79.2z
		"/>
</g>
</svg>
