<?xml version="1.0" encoding="utf-8"?>
<!-- Generator: Adobe Illustrator 25.2.1, SVG Export Plug-In . SVG Version: 6.00 Build 0)  -->
<svg version="1.1" id="Layer_1" xmlns="http://www.w3.org/2000/svg" xmlns:xlink="http://www.w3.org/1999/xlink" x="0px" y="0px"
	 viewBox="0 0 494.3 121.7" style="enable-background:new 0 0 494.3 121.7;" xml:space="preserve">
<style type="text/css">
	.st0{fill:#EE4C2C;}
	.st1{enable-background:new    ;}
	.st2{fill:#FFFFFF;}
</style>
<g>
	<path class="st0" d="M62.5,27.4L55.9,34c10.8,10.8,10.8,28.2,0,38.8c-10.8,10.8-28.2,10.8-38.8,0C6.3,62,6.3,44.6,17.1,34l0,0
		l17.1-17.1l2.4-2.4l0,0V1.6L10.8,27.4c-14.4,14.4-14.4,37.6,0,52s37.6,14.4,51.7,0C76.9,64.9,76.9,41.8,62.5,27.4z"/>
	<circle class="st0" cx="49.6" cy="21" r="4.8"/>
</g>
<g class="st1">
	<path class="st2" d="M59.1,8.3h65.3V16H95.9v73.2h-8.3V16H59.1V8.3z"/>
	<path class="st2" d="M114.3,29.9l8-1.7v12.7c2-4,4.5-7.1,7.5-9.4s6.3-3.4,10.1-3.4s7.3,0.9,10.4,2.7l-2.1,7.5
		c-2.8-1.7-5.8-2.6-9-2.6c-6.6,0-12.3,5.1-16.8,15.3v38.1h-8L114.3,29.9L114.3,29.9z"/>
	<path class="st2" d="M153.6,36.9c5.6-5.8,12.5-8.7,20.9-8.7s15.2,2.8,20.6,8.5c5.2,5.8,7.9,13.3,7.9,22.7c0,9.3-2.8,16.9-8.3,22.7
		c-5.5,5.9-12.5,8.8-20.8,8.8s-15.2-2.8-20.6-8.6c-5.4-5.7-8.1-13.2-8.1-22.6C145.3,50.4,148.1,42.8,153.6,36.9z M159.1,76.9
		c3.9,4.5,8.9,6.7,15.2,6.7s11.3-2.2,15.1-6.7s5.7-10.2,5.7-17.3c0-7.3-1.9-13.1-5.8-17.6c-3.9-4.4-8.9-6.6-15.2-6.6
		s-11.3,2.2-15.1,6.7s-5.8,10.2-5.8,17.3C153.3,66.7,155.3,72.5,159.1,76.9z"/>
	<path class="st2" d="M208.1,30l8-1.7v64.9c0,7.6-1.1,13.5-3.2,17.7c-2.1,4.2-5.7,7.8-10.8,10.5l-5.4-5.7c4.3-2,7.2-4.8,8.9-8
		c1.6-3.2,2.5-8,2.5-14.3 M208.1,6.3c0.9-1.1,2.3-1.6,4-1.6s3.1,0.6,4,1.6c0.9,1.1,1.4,2.5,1.4,4c0,1.6-0.4,3-1.4,4.2
		c-0.9,1.2-2.3,1.8-4,1.8s-3-0.6-4-1.8c-0.9-1.1-1.5-2.5-1.5-4.2C206.7,8.8,207.2,7.4,208.1,6.3z"/>
	<path class="st2" d="M255.7,53.3v-3.5c0-4.7-1.1-8.3-3.4-10.6c-2.2-2.3-5.8-3.5-10.6-3.5c-3.1,0-6.4,0.7-10,2.1
		c-3.6,1.4-6.7,3.1-9.4,5.1l-1.8-7.5c2.8-2,6.3-3.7,10.4-5.1c4-1.4,7.9-2.1,11.6-2.1c7,0,12.3,1.7,15.9,5.1
		c3.6,3.4,5.4,8.8,5.3,16.1v28.5c0,2.3,0.4,3.9,1.1,4.7c0.7,0.8,2.2,1.2,4.5,1.2c0.1,0,0.3,0,0.3,0l-0.5,6.6
		c-0.6,0.1-1.1,0.1-1.7,0.1c-6.6,0-10.4-2.8-11.3-8.5h-0.4c-2.1,2.6-4.7,4.7-7.7,6.4s-6.3,2.5-9.6,2.5c-5.4,0-9.9-1.6-13.5-4.7
		s-5.3-7-5.3-11.8C219.7,61.8,231.7,54.7,255.7,53.3z M231.5,81c2.3,1.9,5.2,2.8,8.7,2.8c3,0,5.8-0.8,8.5-2.2c2.7-1.5,5-3.3,7-5.6
		V58.8c-10,1.1-17.1,2.8-21.2,5.2c-4.2,2.3-6.3,5.5-6.3,9.5C228.1,76.6,229.2,79.1,231.5,81z"/>
	<path class="st2" d="M271.6,29.9l8-1.7v9.7c3-3,6.4-5.4,10.1-7.1c3.6-1.7,7-2.6,10.2-2.6c5.9,0,10.6,1.8,13.9,5.3
		c3.4,3.6,5,8.6,5,15v40.7h-8V50.9c0-5.2-1.1-9-3.2-11.4c-2.2-2.4-5.4-3.6-9.9-3.6c-3.1,0-6.3,0.8-9.4,2.3c-3.2,1.5-6,3.5-8.6,6.1
		v45h-8V29.9H271.6z"/>
	<path class="st2" d="M320.8,83.1l48.1-67.3h-46.6V8.3h57v6.2l-48.1,67.2h47.9v7.5h-58.3V83.1z"/>
	<path class="st2" d="M386.2,36.9c5.6-5.8,12.5-8.7,20.9-8.7s15.2,2.8,20.5,8.5c5.2,5.8,7.9,13.3,7.9,22.7c0,9.3-2.8,16.9-8.3,22.7
		c-5.5,5.9-12.5,8.8-20.8,8.8s-15.2-2.8-20.5-8.6c-5.4-5.7-8.1-13.2-8.1-22.6C377.9,50.4,380.7,42.8,386.2,36.9z M391.7,76.9
		c3.9,4.5,8.9,6.7,15.2,6.7s11.3-2.2,15.1-6.7c3.8-4.5,5.7-10.2,5.7-17.3c0-7.3-1.9-13.1-5.8-17.6c-3.9-4.4-8.9-6.6-15.2-6.6
		s-11.3,2.2-15.1,6.7s-5.8,10.2-5.8,17.3C385.9,66.7,387.9,72.5,391.7,76.9z"/>
	<path class="st2" d="M445,36.9c5.6-5.8,12.5-8.7,20.9-8.7s15.2,2.8,20.5,8.5c5.2,5.8,7.9,13.3,7.9,22.7c0,9.3-2.8,16.9-8.3,22.7
		c-5.5,5.9-12.5,8.8-20.8,8.8s-15.2-2.8-20.5-8.6c-5.4-5.7-8.1-13.2-8.1-22.6C436.7,50.4,439.4,42.8,445,36.9z M450.5,76.9
		c3.9,4.5,8.9,6.7,15.2,6.7c6.3,0,11.3-2.2,15.1-6.7s5.7-10.2,5.7-17.3c0-7.3-1.9-13.1-5.8-17.6c-3.9-4.4-8.9-6.6-15.2-6.6
		s-11.3,2.2-15.1,6.7s-5.8,10.2-5.8,17.3C444.7,66.7,446.7,72.5,450.5,76.9z"/>
</g>
<g>
	<path class="st2" d="M50.7,65.7c-0.5,0.2-1,0.5-1.6,0.7c-0.2-0.2-0.3-0.4-0.5-0.7c-0.4-0.6-0.8-1.3-1.3-1.9
		c-0.4-0.6-0.7-1.1-1.1-1.7c-0.4-0.6-0.8-1.2-1.2-1.9c-0.4-0.5-0.7-1.1-1-1.6c-0.2-0.3-0.4-0.7-0.7-1c0,0-0.1-0.1-0.2-0.1
		c-0.4,0.1-0.8,0.2-1.2,0.3c-0.2,0.1-0.5,0.1-0.8,0.1c-0.2,0-0.5,0.1-0.7,0.1c-0.4,0-0.8,0.1-1.2,0.1c-0.4,0-0.8,0-1.2,0
		c-0.9,0-1.8,0-2.7,0c-0.6,0-1.1-0.1-1.7-0.1c-0.4,0-0.8-0.1-1.2-0.1c-0.3,0-0.6-0.1-0.9-0.1c-0.2,0-0.5-0.1-0.7-0.1
		s-0.5-0.1-0.7-0.1c-0.2,0-0.4-0.1-0.6-0.1c0,0-0.1,0-0.1,0c-0.4-0.1-0.4-0.1-0.6,0.3c-0.4,0.5-0.8,1.1-1.1,1.6
		c-0.4,0.5-0.7,1-1.1,1.6c-0.4,0.5-0.7,1-1.1,1.5c-0.4,0.5-0.8,1.1-1.1,1.6c-0.4,0.5-0.7,1-1.1,1.5c0,0-0.1,0.1-0.1,0.1
		c-0.5-0.2-0.9-0.4-1.4-0.7c-0.1,0-0.1-0.1,0-0.2c0.3-0.5,0.5-1,0.8-1.5c0.5-1,1.1-2.1,1.7-3.1c0.5-0.9,0.9-1.8,1.4-2.6
		c0.4-0.8,0.8-1.5,1.2-2.3c0.1-0.2,0-0.3-0.1-0.4c-0.3-0.5-0.5-1.1-0.7-1.7c-0.2-0.7-0.3-1.4-0.2-2.1c0-0.2,0.1-0.5,0.1-0.8
		c-0.1,0-0.1,0-0.2,0c-0.7,0-1.2,0.2-1.8,0.6c-0.6,0.4-1.1,1-1.5,1.6c-0.5,0.6-1,1.3-1.6,1.8c-0.5,0.4-1,0.8-1.6,1.1
		c-0.6,0.3-1.2,0.5-1.9,0.4c-0.1,0-0.3-0.1-0.3-0.2c-0.1-0.1,0-0.3,0.2-0.3c0.3-0.2,0.5-0.3,0.8-0.5s0.5-0.4,0.6-0.7
		c0.6-0.8,1-1.7,1.4-2.6c0.3-0.7,0.7-1.4,1.1-2.1c0.4-0.6,1-1.1,1.7-1.4c0.5-0.2,1.1-0.3,1.7-0.2c0.5,0.1,0.9,0.2,1.4,0.4
		c0.3,0.1,0.6,0.3,0.9,0.5c0.1,0.1,0.2,0.1,0.3,0c0.4-0.4,0.9-0.8,1.4-1c0.3-0.1,0.7-0.2,1-0.3c0.4-0.1,0.8-0.1,1.2-0.2
		c0.6-0.1,1.2-0.1,1.8,0c0.5,0,1.1,0.1,1.7,0.1c0.6,0,1.2,0.1,1.8,0.2c0.4,0,0.9,0,1.3,0c0.4,0,0.8-0.1,1.2-0.2
		c0.5-0.2,1-0.5,1.4-0.9c0.5-0.6,0.8-1.2,1.1-1.9c0.4-0.8,0.7-1.7,1-2.5c0.4-0.9,0.8-1.8,1.3-2.7c0.5-0.8,1.1-1.6,1.8-2.2
		c0.5-0.4,1-0.7,1.6-0.9c0.6-0.2,1.2-0.3,1.8-0.3c0.1,0,0.2-0.1,0.2-0.2c0.5-0.5,1-1.1,1.4-1.6c0,0,0,0,0.1,0
		c0.1,0.3,0.2,0.6,0.3,0.9c0.3-0.3,0.5-0.5,0.8-0.7c0,0.1,0,0.2,0,0.2c0,0.6,0,1.3,0,1.9c0,0.1,0,0.2,0.1,0.2
		c1.2,1.2,2.4,2.5,3.7,3.7c0.2,0.2,0.4,0.4,0.6,0.6c0.1,0.1,0.1,0.2,0.1,0.3c0,0.6,0,1.1-0.1,1.7c0,0.2-0.2,0.3-0.3,0.3
		c-0.6,0.2-1.1,0.4-1.7,0.7c-0.1,0-0.2,0.1-0.3,0.1c-0.2,0.1-0.3,0-0.4-0.2c-0.1-0.2-0.2-0.3-0.2-0.4c-0.1-0.2-0.3-0.3-0.5-0.4
		c-0.2-0.1-0.4-0.1-0.6-0.1c-0.3,0-0.5,0.1-0.8,0.1c-0.5,0.1-0.9,0.2-1.3,0.2c-0.3,0-0.7-0.2-0.9-0.5c0,0.1,0,0.2,0,0.2
		c0,0.9-0.1,1.9-0.1,2.8c0,0.7-0.1,1.5-0.1,2.2c0,0.7-0.1,1.4-0.1,2.1c0,0.2,0,0.4,0,0.5c0,0.5-0.1,1-0.2,1.5
		c-0.1,0.8-0.4,1.6-0.8,2.3c-0.3,0.5-0.8,1-1.2,1.5c-0.1,0.1-0.1,0.2,0,0.3c0.5,0.9,0.9,1.9,1.4,2.8c0.5,1.1,1.1,2.2,1.7,3.3
		c0.4,0.8,0.8,1.7,1.2,2.5C50.4,65.1,50.5,65.4,50.7,65.7z"/>
	<path class="st2" d="M18.3,66c0.2-0.2,0.4-0.5,0.5-0.7c0.1-0.2,0.3-0.3,0.4-0.5c0.1-0.1,0.1-0.1,0.2,0c0.7,0.5,1.5,0.9,2.2,1.4
		c0.7,0.4,1.5,0.8,2.2,1.2c0.6,0.3,1.3,0.6,2,0.9c0.4,0.2,0.9,0.3,1.3,0.5c0.4,0.1,0.9,0.2,1.3,0.4c0.4,0.1,0.8,0.2,1.3,0.3
		c0.4,0.1,0.8,0.1,1.2,0.2c0.3,0.1,0.6,0.1,0.8,0.1c0.3,0,0.6,0.1,0.9,0.1c2.1,0.2,4.2,0.2,6.3,0.2c0.7,0,1.3-0.1,2-0.2
		c0.4,0,0.8-0.1,1.2-0.1c0.3,0,0.6-0.1,0.9-0.1c0.2,0,0.4-0.1,0.6-0.1c0.5-0.1,1-0.2,1.5-0.3c0.4-0.1,0.7-0.2,1.1-0.3
		c0.5-0.1,1-0.3,1.4-0.4c0.5-0.2,1-0.4,1.5-0.6c0.6-0.3,1.2-0.6,1.8-0.9c0.7-0.4,1.4-0.8,2.1-1.2c0.3-0.2,0.6-0.4,0.9-0.6
		c0,0,0.1,0,0.1,0c0.3,0.4,0.6,0.8,0.9,1.2c0,0,0,0.1,0,0.2c-0.8,0.6-1.7,1.2-2.5,1.7c-0.8,0.5-1.7,1-2.5,1.4
		c-0.6,0.3-1.3,0.6-2,0.9c-0.5,0.2-0.9,0.4-1.4,0.6c-0.4,0.1-0.8,0.2-1.2,0.4c-0.3,0.1-0.7,0.2-1,0.3C43.8,71.9,43.4,72,43,72
		c-0.3,0.1-0.6,0.2-1,0.2c-0.2,0-0.3,0.1-0.5,0.1c-0.7,0.1-1.3,0.2-2,0.3c-0.9,0.1-1.8,0.2-2.7,0.2c-0.6,0-1.2-0.1-1.8-0.1
		c-0.4,0-0.8-0.1-1.2-0.1c-0.3,0-0.6-0.1-0.9-0.2c-0.2,0-0.5-0.1-0.7-0.1c-0.2,0-0.5-0.1-0.7-0.2c-0.3-0.1-0.6-0.1-0.9-0.2
		c-0.3-0.1-0.6-0.1-0.8-0.2c-0.3-0.1-0.5-0.1-0.8-0.2c-0.3-0.1-0.7-0.2-1-0.3c-0.3-0.1-0.5-0.2-0.8-0.3c-0.3-0.1-0.7-0.2-1-0.4
		c-0.5-0.2-1-0.4-1.5-0.6c-0.6-0.3-1.2-0.6-1.8-0.9c-0.7-0.4-1.5-0.8-2.2-1.3c-0.5-0.3-1-0.7-1.5-1.1C18.9,66.5,18.6,66.3,18.3,66
		C18.3,66,18.3,66,18.3,66z"/>
</g>
</svg>
