<?xml version="1.0" encoding="utf-8"?>
<!-- Generator: Adobe Illustrator 25.0.1, SVG Export Plug-In . SVG Version: 6.00 Build 0)  -->
<svg version="1.1" id="Layer_1" xmlns="http://www.w3.org/2000/svg" xmlns:xlink="http://www.w3.org/1999/xlink" x="0px" y="0px"
	 viewBox="0 0 199.7 40.2" style="enable-background:new 0 0 199.7 40.2;" xml:space="preserve">
<style type="text/css">
	.st0{fill:#EE4C2C;}
	.st1{display:none;enable-background:new    ;}
	.st2{display:inline;}
	.st3{display:none;}
	.st4{display:inline;fill:#4285F4;}
	.st5{fill:none;stroke:#17D400;stroke-miterlimit:10;}
	.st6{fill:#17D400;stroke:#17D400;stroke-miterlimit:10;}
	.st7{enable-background:new    ;}
	.st8{fill-rule:evenodd;clip-rule:evenodd;fill:#FFFFFF;}
	.st9{fill:none;stroke:#DC3545;stroke-miterlimit:10;}
	.st10{fill:#DC3545;stroke:#DC3545;stroke-miterlimit:10;}
</style>
<g>
	<path class="st0" d="M34.06,6.83l-1.59,1.59c2.54,2.54,2.54,6.56,0,9.11s-6.56,2.54-9.11,0c-2.54-2.54-2.54-6.56,0-9.11l0,0
		l4.02-4.02l0.53-0.53l0,0V0.8l-6.03,6.03c-3.39,3.39-3.39,8.68,0,12.07s8.68,3.39,12.07,0C37.35,15.62,37.35,10.22,34.06,6.83z"/>
	<circle class="st0" cx="30.99" cy="5.35" r="1.16"/>
</g>
<g class="st1">
	<path class="st2" d="M43,2.2h14.3v1.7h-6.2v16h-1.8V4h-6.2L43,2.2L43,2.2z"/>
	<path class="st2" d="M58.3,7l1.8-0.4v2.8c0.5-0.9,1-1.6,1.6-2c0.6-0.5,1.4-0.7,2.2-0.7s1.6,0.2,2.3,0.6l-0.5,1.6
		c-0.6-0.4-1.3-0.5-2-0.5c-1.5,0-2.7,1.1-3.7,3.4V20h-1.8V7H58.3z"/>
	<path class="st2" d="M69.1,8.5c1.2-1.3,2.8-1.9,4.6-1.9c1.8,0,3.3,0.6,4.5,1.9c1.1,1.3,1.8,2.9,1.8,5c0,2-0.6,3.7-1.8,5
		c-1.2,1.3-2.7,2-4.5,2s-3.4-0.7-4.6-2c-1.1-1.2-1.8-2.9-1.8-4.9C67.3,11.5,67.9,9.8,69.1,8.5z M70.3,17.3c0.9,1,2,1.5,3.3,1.5
		c1.4,0,2.5-0.5,3.3-1.5s1.2-2.2,1.2-3.8s-0.4-2.8-1.3-3.9c-0.9-0.9-2-1.5-3.3-1.5c-1.4,0-2.5,0.5-3.3,1.5S69,11.9,69,13.4
		C69,15.1,69.4,16.4,70.3,17.3z"/>
	<g class="st2">
		<path d="M83.2,20.9c0,1.4-0.2,2.4-0.5,3.1c-0.4,0.7-1,1.3-2,1.8l1.2,1.2c1.1-0.6,1.9-1.4,2.4-2.3s0.7-2.2,0.7-3.9V6.6L83.2,7V20.9
			z"/>
		<path d="M85,1.8c-0.2-0.2-0.5-0.3-0.9-0.3s-0.7,0.1-0.9,0.3s-0.3,0.5-0.3,0.9s0.1,0.7,0.3,0.9S83.7,4,84.1,4s0.7-0.1,0.9-0.4
			c0.2-0.3,0.3-0.5,0.3-0.9C85.2,2.4,85.2,2.1,85,1.8z"/>
	</g>
	<path class="st2" d="M95.8,12.2v-0.7c0-1-0.3-1.8-0.7-2.3c-0.5-0.5-1.3-0.7-2.3-0.7c-0.7,0-1.4,0.1-2.2,0.5s-1.5,0.7-2.1,1.1
		l-0.4-1.6c0.6-0.4,1.4-0.8,2.3-1.1c0.9-0.3,1.8-0.5,2.6-0.5c1.6,0,2.7,0.4,3.5,1.1s1.1,2,1.1,3.5v6.2c0,0.5,0.1,0.9,0.3,1
		c0.1,0.2,0.5,0.3,1,0.3H99l-0.1,1.4c-0.1,0-0.3,0-0.4,0c-1.5,0-2.3-0.6-2.5-1.8h-0.1c-0.5,0.5-1,1-1.7,1.4s-1.4,0.5-2.1,0.5
		c-1.2,0-2.2-0.3-3-1s-1.2-1.6-1.2-2.7C87.9,14,90.5,12.4,95.8,12.2z M90.5,18.2c0.5,0.4,1.1,0.6,1.9,0.6c0.7,0,1.3-0.1,1.8-0.5
		c0.5-0.3,1.1-0.7,1.6-1.2v-3.8c-2.2,0.3-3.7,0.6-4.7,1.1c-0.9,0.5-1.4,1.2-1.4,2.1C89.7,17.2,90,17.8,90.5,18.2z"/>
	<path class="st2" d="M101.5,7l1.8-0.4v2.2c0.7-0.7,1.4-1.2,2.2-1.6c0.8-0.4,1.6-0.5,2.2-0.5c1.3,0,2.3,0.4,3,1.1
		c0.7,0.8,1.1,1.9,1.1,3.3V20H110v-8.5c0-1.1-0.2-2-0.7-2.5s-1.2-0.8-2.2-0.8c-0.7,0-1.4,0.1-2.1,0.5c-0.7,0.3-1.3,0.7-1.9,1.4V20
		h-1.8V7H101.5z"/>
	<path class="st2" d="M116.4,18.6L127,3.9h-10.2V2.2h12.5v1.4l-10.5,14.7h10.5v1.6h-12.8v-1.3H116.4z"/>
	<path class="st2" d="M133,8.5c1.2-1.3,2.8-1.9,4.6-1.9s3.3,0.6,4.5,1.9c1.1,1.3,1.8,2.9,1.8,5c0,2-0.6,3.7-1.8,5s-2.7,2-4.5,2
		s-3.3-0.6-4.5-1.9c-1.1-1.2-1.8-2.9-1.8-4.9C131.1,11.5,131.7,9.8,133,8.5z M134.2,17.3c0.9,1,2,1.5,3.3,1.5s2.5-0.5,3.3-1.5
		s1.2-2.2,1.2-3.8s-0.4-2.8-1.3-3.9c-0.9-0.9-2-1.5-3.3-1.5c-1.4,0-2.5,0.5-3.3,1.5s-1.3,2.2-1.3,3.8
		C132.9,15.1,133.3,16.4,134.2,17.3z"/>
	<path class="st2" d="M148,8.5c1.2-1.3,2.8-1.9,4.6-1.9s3.3,0.6,4.5,1.9c1.1,1.3,1.8,2.9,1.8,5c0,2-0.6,3.7-1.8,5s-2.7,2-4.5,2
		s-3.3-0.6-4.5-1.9c-1.1-1.2-1.8-2.9-1.8-4.9C146.2,11.5,146.8,9.8,148,8.5z M149.2,17.3c0.9,1,2,1.5,3.3,1.5c1.4,0,2.5-0.5,3.3-1.5
		s1.2-2.2,1.2-3.8s-0.4-2.8-1.3-3.9c-0.9-0.9-2-1.5-3.3-1.5s-2.5,0.5-3.3,1.5s-1.3,2.2-1.3,3.8C147.9,15.1,148.3,16.4,149.2,17.3z"
		/>
</g>
<g class="st3">
	<path class="st4" d="M31.6,15c-0.1,0.1-0.2,0.1-0.3,0.1C31.2,15,31.2,15,31.2,15c-0.1-0.1-0.2-0.3-0.3-0.4
		c-0.1-0.1-0.1-0.3-0.3-0.3c-0.1-0.1-0.2-0.3-0.3-0.4c-0.1-0.1-0.1-0.2-0.2-0.3S30,13.5,30,13.4l0,0c-0.1,0-0.2,0.1-0.3,0.1
		c-0.1,0-0.1,0-0.2,0s-0.1,0-0.1,0c-0.1,0-0.2,0-0.3,0c-0.1,0-0.2,0-0.3,0c-0.2,0-0.4,0-0.6,0c-0.1,0-0.3,0-0.4,0s-0.2,0-0.3,0
		s-0.1,0-0.2,0s-0.1,0-0.1,0c-0.1,0-0.1,0-0.1,0c-0.1,0-0.1,0-0.1,0l0,0c-0.1,0-0.1,0-0.1,0.1c-0.1,0.1-0.2,0.3-0.3,0.3
		c-0.1,0.1-0.1,0.2-0.3,0.3c-0.1,0.1-0.1,0.2-0.3,0.3c-0.1,0.1-0.1,0.3-0.3,0.3c-0.1,0.1-0.1,0.2-0.3,0.3l0,0
		C25.3,15,25.2,15,25.1,15c0,0,0,0,0-0.1c0.1-0.1,0.1-0.2,0.2-0.3c0.1-0.2,0.3-0.5,0.3-0.7c0.1-0.2,0.2-0.4,0.3-0.6
		c0.1-0.1,0.2-0.3,0.3-0.5c0-0.1,0-0.1,0-0.1c-0.1-0.1-0.1-0.3-0.1-0.3C26,12.3,26,12.1,26,11.9c0-0.1,0-0.1,0-0.1s0,0-0.1,0
		s-0.3,0.1-0.4,0.1s-0.2,0.2-0.3,0.3c-0.1,0.1-0.2,0.3-0.3,0.4c-0.1,0.1-0.2,0.2-0.3,0.3C24.5,13,24.3,13,24.2,13c0,0-0.1,0-0.1-0.1
		c0,0,0-0.1,0.1-0.1c0.1-0.1,0.1-0.1,0.2-0.1c0.1-0.1,0.1-0.1,0.1-0.1c0.1-0.2,0.2-0.3,0.3-0.5c0.1-0.1,0.1-0.3,0.3-0.5
		c0.1-0.1,0.2-0.3,0.3-0.3c0.1-0.1,0.3-0.1,0.4-0.1s0.2,0.1,0.3,0.1s0.1,0.1,0.2,0.1h0.1c0.1-0.1,0.2-0.2,0.3-0.2
		c0.1,0,0.1-0.1,0.2-0.1s0.2,0,0.3-0.1c0.1,0,0.3,0,0.4,0s0.3,0,0.3,0c0.1,0,0.3,0,0.4,0s0.2,0,0.3,0c0.1,0,0.2,0,0.3-0.1
		c0.1-0.1,0.2-0.1,0.3-0.2c0.1-0.1,0.2-0.3,0.3-0.4c0.1-0.2,0.1-0.4,0.2-0.5c0.1-0.2,0.2-0.4,0.3-0.6c0.1-0.2,0.3-0.3,0.4-0.5
		c0.1-0.1,0.2-0.1,0.3-0.2c0.1-0.1,0.3-0.1,0.4-0.1c0,0,0.1,0,0.1-0.1C31.3,8.2,31.4,8,31.5,8l0,0c0,0.1,0.1,0.1,0.1,0.2
		c0.1-0.1,0.1-0.1,0.2-0.1c0,0,0,0,0,0.1s0,0.3,0,0.4v0.1c0.3,0.3,0.5,0.5,0.8,0.8c0.1,0.1,0.1,0.1,0.1,0.1v0.1c0,0.1,0,0.3,0,0.3
		c0,0.1-0.1,0.1-0.1,0.1c-0.1,0.1-0.3,0.1-0.4,0.1h-0.1c-0.1,0-0.1,0-0.1-0.1L31.9,10c0-0.1-0.1-0.1-0.1-0.1c-0.1,0-0.1,0-0.1,0
		c-0.1,0-0.1,0-0.1,0c-0.1,0-0.2,0.1-0.3,0.1c-0.1,0-0.1-0.1-0.2-0.1V10c0,0.2,0,0.4,0,0.6c0,0.1,0,0.3,0,0.5s0,0.3,0,0.5
		c0,0.1,0,0.1,0,0.1c0,0.1,0,0.2-0.1,0.3c0,0.2-0.1,0.3-0.2,0.5c-0.1,0.1-0.1,0.2-0.3,0.3v0.1c0.1,0.2,0.2,0.4,0.3,0.6
		c0.1,0.3,0.3,0.5,0.3,0.7C31.4,14.7,31.5,14.8,31.6,15C31.5,14.9,31.5,14.9,31.6,15z"/>
	<path class="st4" d="M24.4,15.1c0.1-0.1,0.1-0.1,0.1-0.1c0-0.1,0.1-0.1,0.1-0.1s0,0,0.1,0c0.1,0.1,0.3,0.2,0.5,0.3
		c0.1,0.1,0.3,0.2,0.5,0.3c0.1,0.1,0.3,0.1,0.4,0.2c0.1,0.1,0.2,0.1,0.3,0.1c0.1,0,0.2,0.1,0.3,0.1c0.1,0,0.2,0.1,0.3,0.1
		s0.2,0,0.3,0.1c0.1,0,0.1,0,0.2,0s0.1,0,0.2,0C28,16,28.5,16,28.9,16c0.1,0,0.3,0,0.4,0s0.2,0,0.3,0c0.1,0,0.1,0,0.2,0s0.1,0,0.1,0
		c0.1,0,0.2-0.1,0.3-0.1c0.1,0,0.1-0.1,0.3-0.1s0.2-0.1,0.3-0.1c0.1-0.1,0.2-0.1,0.3-0.1c0.1-0.1,0.3-0.1,0.4-0.2
		c0.1-0.1,0.3-0.2,0.5-0.3c0.1-0.1,0.1-0.1,0.2-0.1l0,0c0.1,0.1,0.1,0.2,0.2,0.3c0,0,0,0,0,0.1c-0.2,0.1-0.3,0.3-0.5,0.4
		c-0.2,0.1-0.3,0.2-0.5,0.3c-0.1,0.1-0.3,0.1-0.4,0.2s-0.2,0.1-0.3,0.1c-0.1,0-0.1,0.1-0.3,0.1c-0.1,0-0.1,0.1-0.2,0.1
		s-0.2,0.1-0.3,0.1c-0.1,0-0.1,0.1-0.2,0.1s-0.1,0-0.1,0c-0.1,0-0.3,0.1-0.5,0.1S28.7,17,28.5,17c-0.1,0-0.3,0-0.4,0s-0.2,0-0.3,0
		s-0.1,0-0.2,0s-0.1,0-0.1,0c-0.1,0-0.1,0-0.1,0c-0.1,0-0.1,0-0.2-0.1c-0.1,0-0.1,0-0.2-0.1c-0.1,0-0.1,0-0.1-0.1
		c-0.1,0-0.1-0.1-0.2-0.1s-0.1-0.1-0.2-0.1s-0.1-0.1-0.2-0.1c-0.1-0.1-0.2-0.1-0.3-0.1s-0.3-0.1-0.4-0.2s-0.3-0.2-0.5-0.3
		c-0.1-0.1-0.2-0.1-0.3-0.3C24.6,15.1,24.5,15.1,24.4,15.1L24.4,15.1z"/>
</g>
<g>
	<path d="M42.96,2.17h14.61v1.74H51.2V20.3h-1.85V3.92h-6.39V2.17z"/>
	<path d="M58.05,7.02l1.8-0.38v2.85c0.45-0.89,1-1.6,1.67-2.1s1.42-0.75,2.25-0.75c0.85,0,1.63,0.2,2.32,0.61l-0.47,1.69
		c-0.64-0.38-1.3-0.58-2.02-0.58c-1.49,0-2.75,1.15-3.75,3.43v8.52h-1.8V7.02z"/>
	<path d="M69.58,8.59c1.25-1.3,2.8-1.95,4.69-1.95c1.88,0,3.41,0.64,4.6,1.91c1.17,1.29,1.77,2.97,1.77,5.08
		c0,2.08-0.62,3.78-1.86,5.08c-1.23,1.32-2.79,1.97-4.66,1.97s-3.4-0.64-4.6-1.93c-1.2-1.27-1.81-2.96-1.81-5.07
		C67.72,11.61,68.34,9.91,69.58,8.59z M70.82,17.55c0.86,1.01,2,1.5,3.4,1.5c1.4,0,2.52-0.5,3.38-1.5c0.85-1.01,1.27-2.29,1.27-3.87
		c0-1.63-0.42-2.93-1.29-3.94c-0.86-0.99-2-1.49-3.4-1.49c-1.4,0-2.52,0.5-3.38,1.5s-1.29,2.29-1.29,3.87
		C69.51,15.26,69.95,16.56,70.82,17.55z"/>
	<path d="M83.96,24.43c0.37-0.72,0.55-1.78,0.55-3.2v-0.01v-0.01v-0.01v-0.01v-0.01v-0.01v-0.01v-0.01v-0.01v-0.01v-0.01v-0.01
		v-0.01v-0.01v-0.01v-0.01v-0.01v-0.01v-0.01v-0.01v-0.01v-0.01v-0.01v-0.01v-0.01v-0.01v-0.01v-0.01v-0.01v-0.01v-0.01v-0.01v-0.01
		v-0.01v-0.01v-0.01v-0.01V20.7v-0.01v-0.01v-0.01v-0.01v-0.01v-0.01V20.6v-0.01v-0.01v-0.01v-0.01v-0.01v-0.01V20.5v-0.01v-0.01
		v-0.01v-0.01v-0.01v-0.01V20.4v-0.01v-0.01v-0.01v-0.01v-0.01v-0.01V20.3v-0.01v-0.01v-0.01v-0.01v-0.01v-0.01V20.2v-0.01v-0.01
		v-0.01v-0.01v-0.01v-0.01V20.1v-0.01v-0.01v-0.01v-0.01v-0.01v-0.01V20v-0.01v-0.01v-0.01v-0.01v-0.01v-0.01V19.9v-0.01v-0.01
		v-0.01v-0.01v-0.01v-0.01V19.8v-0.01v-0.01v-0.01v-0.01v-0.01v-0.01v-0.01v-0.01v-0.01v-0.01v-0.01v-0.01v-0.01v-0.01v-0.01v-0.01
		v-0.01v-0.01v-0.01v-0.01v-0.01v-0.01v-0.01v-0.01v-0.01v-0.01v-0.01v-0.01v-0.01v-0.01v-0.01v-0.01v-0.01v-0.01v-0.01v-0.01v-0.01
		v-0.01v-0.01v-0.01v-0.01v-0.01V19.2v-0.01v-0.01v-0.01v-0.01v-0.01v-0.01V19.1v-0.01v-0.01v-0.01v-0.01v-0.01v-0.01V19v-0.01
		v-0.01v-0.01v-0.01v-0.01v-0.01V18.9v-0.01v-0.01v-0.01v-0.01v-0.01v-0.01V18.8v-0.01v-0.01v-0.01v-0.01v-0.01v-0.01v-0.03v-0.01
		v-0.01v-0.01v-0.01v-0.01V18.6v-0.01v-0.01v-0.01v-0.01v-0.01v-0.01V18.5v-0.01v-0.03v-0.01v-0.01v-0.01V18.4v-0.01v-0.01v-0.01
		v-0.01v-0.01v-0.01v-0.03v-0.01v-0.01v-0.01v-0.01v-0.01V18.2v-0.01v-0.03v-0.01v-0.01v-0.01v-0.01v-0.01v-0.01v-0.01v-0.03v-0.01
		v-0.01v-0.01v-0.01v-0.01v-0.01v-0.03v-0.01v-0.01v-0.01v-0.01v-0.01v-0.03v-0.01v-0.01v-0.01v-0.01v-0.01v-0.03v-0.01v-0.01v-0.01
		v-0.01v-0.03v-0.01v-0.01V17.6v-0.01v-0.03v-0.01v-0.01v-0.01V17.5v-0.03v-0.01v-0.01v-0.01v-0.01v-0.03v-0.01v-0.01v-0.01v-0.03
		V17.3v-0.01v-0.01v-0.01v-0.03v-0.01V17.2v-0.01v-0.03v-0.01v-0.01v-0.01v-0.03v-0.01v-0.01v-0.01v-0.03V17v-0.01v-0.01v-0.03
		v-0.01v-0.01V16.9v-0.03v-0.01v-0.01v-0.03V16.8v-0.01v-0.01v-0.03v-0.01v-0.01v-0.03v-0.01v-0.01v-0.01v-0.03V16.6v-0.01v-0.03
		v-0.01v-0.01V16.5v-0.01v-0.01v-0.01v-0.03v-0.01v-0.01v-0.03v-0.01v-0.01v-0.03v-0.01v-0.01v-0.03v-0.01v-0.01v-0.03v-0.01v-0.01
		v-0.03v-0.01v-0.01v-0.03v-0.01v-0.01v-0.03v-0.01v-0.01v-0.03v-0.01v-0.03v-0.01v-0.01v-0.03v-0.01v-0.01v-0.03v-0.01V15.8v-0.03
		v-0.01v-0.03v-0.01V15.7v-0.03v-0.01v-0.01v-0.03V15.6v-0.03v-0.01v-0.01v-0.03V15.5v-0.03v-0.01v-0.01v-0.03V15.4v-0.03v-0.01
		v-0.01v-0.03V15.3v-0.03v-0.01v-0.01v-0.03V15.2v-0.03v-0.01v-0.03v-0.01V15.1v-0.03v-0.01v-0.03v-0.01v-0.03v-0.01v-0.01v-0.03
		v-0.01v-0.03v-0.01v-0.03v-0.01v-0.03v-0.01v-0.01v-0.03v-0.01v-0.03v-0.01v-0.03v-0.01v-0.03v-0.01v-0.03v-0.01v-0.03v-0.01v-0.01
		v-0.03v-0.01v-0.03v-0.01v-0.03v-0.01v-0.03v-0.01v-0.03V14.3v-0.03v-0.01v-0.03v-0.01v-0.03v-0.01v-0.03v-0.01V14.1v-0.01v-0.03
		v-0.01v-0.03V14v-0.03v-0.01v-0.03v-0.01v-0.03v-0.01v-0.03v-0.01V13.8v-0.01v-0.03v-0.01v-0.03v-0.03v-0.01v-0.03v-0.01V13.6
		v-0.01v-0.03v-0.01v-0.03V13.5v-0.03v-0.01v-0.03V13.4v-0.01v-0.03v-0.01v-0.03V13.3v-0.03v-0.01v-0.03v-0.03v-0.01v-0.03v-0.01
		v-0.03v-0.01v-0.03v-0.01v-0.03v-0.03v-0.01v-0.03v-0.01v-0.03v-0.03v-0.01v-0.03v-0.01v-0.03v-0.01v-0.03v-0.03v-0.01V12.7v-0.01
		v-0.03v-0.03v-0.01v-0.03v-0.01v-0.03v-0.03V12.5v-0.03v-0.01v-0.03V12.4v-0.01v-0.03v-0.01v-0.03v-0.03v-0.01v-0.03v-0.03V12.2
		v-0.03v-0.01v-0.03V12.1v-0.01v-0.03v-0.03v-0.01v-0.03v-0.03v-0.01v-0.03V11.9v-0.03v-0.03v-0.01V11.8v-0.03v-0.01v-0.03v-0.03
		v-0.01v-0.03v-0.03v-0.01v-0.03v-0.03v-0.01v-0.03v-0.03v-0.01v-0.03v-0.03v-0.01v-0.03v-0.03v-0.01v-0.03v-0.03v-0.01v-0.03v-0.03
		V11.2v-0.03v-0.03v-0.01V11.1v-0.03v-0.01v-0.03V11v-0.03v-0.01v-0.03V10.9v-0.01v-0.03v-0.03v-0.01v-0.03v-0.03v-0.03v-0.01v-0.03
		v-0.03v-0.01v-0.03v-0.03v-0.03v-0.01v-0.03v-0.03v-0.01v-0.03v-0.03v-0.03v-0.01v-0.03v-0.03v-0.03v-0.01v-0.03v-0.03v-0.03v-0.01
		v-0.03v-0.03v-0.03v-0.01v-0.03v-0.03V9.99V9.98V9.95V9.92V9.89V9.88V9.85V9.82V9.79V9.78V9.75V9.72V9.69V9.68V9.65V9.62V9.59V9.58
		V9.55V9.52V9.5V9.47V9.45V9.42V9.4V9.37V9.34V9.33V9.3V9.27V9.24V9.21V9.2V9.17V9.14V9.11V9.08V9.07V9.04V9.01V8.99V8.96V8.94V8.92
		V8.89V8.86V8.83V8.82V8.79V8.76V8.73V8.7V8.67V8.66V8.63V8.6V8.58V8.55V8.52V8.5V8.48V8.45V8.42V8.39V8.36V8.35V8.32V8.29V8.26
		V8.24V8.21V8.18V8.16V8.14V8.11V8.08V8.05V8.02V7.99V7.98V7.95V7.92V7.9V7.87V7.84V7.81V7.78V7.77V7.74V7.71V7.68V7.65V7.63V7.6
		V7.57V7.54V7.53V7.5V7.47V7.44V7.41V7.39V7.36V7.33V7.3V7.27V7.26V7.23V7.2V7.17V7.15V7.02l1.78-0.38v0.01v0.01v0.01v0.01v0.01
		v0.01v0.01v0.01v0.01v0.01v0.01v0.01v0.01v0.01v0.01v0.01v0.01v0.01V6.9v0.01v0.01v0.01v0.01v0.01v0.01V7v0.01v0.01v0.01v0.01v0.01
		v0.01V7.1v0.01v0.01v0.01v0.01v0.01v0.01V7.2v0.01v0.01v0.01v0.01v0.01v0.01V7.3v0.01v0.01v0.01v0.01v0.01v0.01V7.4v0.01v0.01v0.01
		v0.01v0.01v0.01V7.5v0.01v0.01v0.01v0.01v0.01v0.01V7.6v0.01v0.01v0.01v0.01v0.01v0.01V7.7v0.01v0.01v0.01v0.01v0.01v0.01V7.8v0.01
		v0.01v0.01v0.01v0.01v0.01V7.9v0.01v0.01v0.01v0.01v0.01v0.01v0.01v0.01v0.01v0.01v0.01v0.01v0.01v0.01v0.01v0.01v0.01v0.01v0.01
		v0.01v0.01v0.01v0.01v0.01v0.01v0.01v0.01v0.01v0.01v0.01v0.01v0.01v0.01v0.01v0.01v0.01v0.01v0.01v0.01v0.01v0.01v0.01V8.5v0.01
		v0.01v0.01v0.01v0.01v0.01V8.6v0.01v0.01v0.01v0.01v0.01v0.01V8.7v0.01v0.01v0.01v0.01v0.01v0.01V8.8v0.01v0.01v0.01v0.01v0.01
		v0.01V8.9v0.01v0.01v0.01v0.03v0.01V9v0.01v0.01v0.01v0.01v0.01v0.01V9.1v0.01v0.01v0.01v0.01v0.01v0.01V9.2v0.01v0.01v0.01v0.01
		v0.01v0.01V9.3v0.03v0.01v0.01v0.01v0.01V9.4v0.01v0.01v0.01v0.01v0.01v0.01V9.5v0.03v0.01v0.01v0.01v0.01v0.01v0.01v0.01v0.01
		v0.03v0.01v0.01v0.01v0.01v0.01v0.01v0.01v0.03v0.01v0.01v0.01v0.01v0.01v0.01v0.03v0.01v0.01v0.01v0.01v0.01v0.01v0.03v0.01v0.01
		v0.01v0.01v0.01v0.03v0.01v0.01v0.01v0.01v0.01v0.03v0.01v0.01v0.01v0.01v0.03v0.01v0.01v0.01v0.01v0.03v0.01v0.01v0.01v0.01v0.03
		v0.01v0.01v0.01v0.03v0.01v0.01v0.01v0.01v0.03v0.01v0.01v0.01v0.03v0.01v0.01v0.01v0.03v0.01v0.01v0.01v0.03v0.01v0.01v0.01v0.03
		v0.01v0.01v0.01v0.03V11v0.01v0.01v0.03v0.01v0.01v0.03v0.01v0.01v0.01v0.03v0.01v0.01v0.03v0.01v0.01v0.01v0.03v0.01v0.01v0.03
		v0.01v0.01v0.03v0.01v0.01v0.03v0.01v0.01v0.01v0.03v0.01v0.01v0.03v0.01v0.01v0.03v0.01v0.01v0.03v0.01v0.01v0.03v0.01v0.03v0.01
		v0.01v0.03v0.01v0.01v0.03v0.01v0.01v0.03V12v0.01v0.03v0.01v0.03v0.01v0.01v0.03v0.01v0.01v0.03v0.01v0.03v0.01v0.01v0.03v0.01
		v0.01v0.03v0.01v0.03v0.01v0.01v0.03v0.01v0.03v0.01v0.01v0.03v0.01v0.03v0.01v0.03v0.01v0.01v0.03v0.01v0.03v0.01v0.03v0.01v0.01
		v0.03v0.01v0.03v0.01v0.03v0.01v0.01v0.03v0.01v0.03v0.01v0.03v0.01v0.03v0.01v0.01v0.03v0.01v0.03v0.01v0.03v0.01v0.03v0.01v0.03
		v0.01v0.03v0.01v0.03v0.01v0.01v0.03v0.01v0.03v0.01v0.03v0.01v0.03v0.01v0.03v0.01v0.03v0.01v0.03v0.01v0.03v0.01v0.03v0.01v0.03
		v0.01v0.03v0.01v0.03v0.01v0.03V14v0.03v0.01v0.03v0.03v0.01v0.03v0.01v0.03v0.01v0.03v0.01v0.03v0.01v0.03v0.01v0.03v0.01v0.03
		v0.03v0.01v0.03v0.01v0.03v0.01v0.03v0.01v0.03v0.03v0.01v0.03v0.01v0.03v0.01v0.03v0.03v0.01v0.03v0.01v0.03v0.01v0.03v0.03v0.01
		v0.03v0.01v0.03v0.01v0.03v0.03v0.01v0.03v0.01v0.03v0.03v0.01v0.03v0.01v0.03v0.03v0.01v0.03v0.01v0.03v0.03v0.01v0.03v0.03v0.01
		v0.03v0.01v0.03v0.03v0.01v0.03v0.03v0.01v0.03v0.01v0.03v0.03v0.01v0.03v0.03v0.01v0.03v0.03v0.01v0.03V16v0.03v0.03v0.01v0.03
		v0.03v0.01v0.03v0.03v0.01v0.03v0.03v0.01v0.03v0.03v0.01v0.03v0.03v0.01v0.03v0.03v0.01v0.03v0.03v0.01v0.03v0.03v0.03v0.01v0.03
		v0.03v0.01v0.03v0.03v0.01v0.03v0.03v0.01v0.03v0.03v0.03v0.01V17v0.03v0.01v0.03v0.03v0.03v0.01v0.03v0.03v0.01v0.03v0.03v0.03
		v0.01v0.03v0.03v0.03v0.01v0.03v0.03v0.01v0.03v0.03v0.03v0.01v0.03v0.03v0.03v0.01v0.03v0.03v0.03v0.01v0.03v0.03v0.03v0.01v0.03
		v0.03v0.03v0.03v0.01v0.03v0.03v0.03v0.01v0.03v0.03v0.03v0.03v0.01v0.03v0.03v0.03v0.01v0.03v0.03v0.03v0.03v0.01v0.03v0.03v0.03
		v0.03v0.01v0.03v0.03v0.03v0.03v0.03v0.01v0.03v0.03v0.03v0.03v0.01v0.03v0.03v0.03v0.03v0.03v0.01v0.03v0.03v0.03v0.03v0.03v0.01
		v0.03v0.03v0.03v0.03v0.03v0.03v0.01v0.03v0.03v0.03v0.03v0.03v0.03v0.03v0.01v0.03v0.03v0.03v0.03v0.03v0.03v0.03v0.01v0.03v0.03
		v0.03v0.03v0.03v0.03v0.03v0.03v0.03v0.01v0.03v0.03v0.03v0.03v0.03v0.03v0.03v0.03v0.03v0.03v0.03v0.03v0.03v0.01v0.03v0.03v0.03
		v0.03v0.03v0.03v0.03v0.03v0.03v0.03v0.03v0.03v0.03v0.03v0.03v0.03v0.03v0.03v0.03v0.03v0.03v0.03v0.03v0.14
		c0,1.7-0.24,3.02-0.71,3.96s-1.27,1.74-2.42,2.35l-1.22-1.27C82.91,25.78,83.57,25.16,83.96,24.43z M84.51,1.74
		c0.21-0.24,0.51-0.37,0.89-0.37c0.38,0,0.69,0.13,0.91,0.37c0.21,0.24,0.31,0.55,0.31,0.91c0,0.37-0.1,0.68-0.31,0.93
		c-0.21,0.27-0.52,0.4-0.91,0.4c-0.38,0-0.68-0.13-0.89-0.4c-0.21-0.25-0.33-0.57-0.33-0.93C84.18,2.29,84.29,1.98,84.51,1.74z"/>
	<path d="M97.88,12.27v-0.79c0-1.06-0.25-1.86-0.75-2.38s-1.29-0.78-2.38-0.78c-0.69,0-1.43,0.16-2.24,0.47s-1.5,0.69-2.11,1.13
		L90,8.24c0.64-0.44,1.4-0.82,2.32-1.13c0.91-0.31,1.77-0.47,2.61-0.47c1.57,0,2.76,0.38,3.57,1.15s1.2,1.97,1.19,3.61v6.39
		c0,0.52,0.08,0.88,0.25,1.06c0.16,0.18,0.5,0.27,1,0.27c0.03,0,0.06,0,0.07,0l-0.11,1.47c-0.13,0.01-0.25,0.01-0.38,0.01
		c-1.49,0-2.34-0.64-2.52-1.9h-0.08c-0.47,0.58-1.05,1.06-1.73,1.43s-1.4,0.55-2.15,0.55c-1.22,0-2.22-0.35-3.02-1.05
		c-0.79-0.69-1.19-1.57-1.19-2.63C89.83,14.15,92.52,12.58,97.88,12.27z M92.48,18.47c0.51,0.43,1.16,0.64,1.95,0.64
		c0.67,0,1.3-0.17,1.9-0.5c0.59-0.33,1.12-0.74,1.56-1.25v-3.88c-2.24,0.26-3.82,0.64-4.76,1.16c-0.95,0.52-1.42,1.23-1.42,2.14
		C91.71,17.48,91.97,18.05,92.48,18.47z"/>
	<path d="M104.17,7.02l1.8-0.38v2.18c0.68-0.68,1.43-1.22,2.25-1.6c0.81-0.38,1.57-0.58,2.28-0.58c1.33,0,2.37,0.4,3.12,1.19
		c0.75,0.81,1.12,1.93,1.12,3.37v9.1h-1.8v-8.58c0-1.16-0.24-2.01-0.71-2.56c-0.48-0.54-1.22-0.81-2.22-0.81
		c-0.69,0-1.4,0.17-2.11,0.51s-1.35,0.79-1.93,1.37V20.3h-1.8V7.02z"/>
	<path d="M117.92,18.94l10.76-15.08h-10.44V2.17H131v1.39l-10.76,15.05h10.73v1.68h-13.06V18.94z"/>
	<path d="M135.3,8.59c1.25-1.3,2.8-1.95,4.69-1.95c1.88,0,3.41,0.64,4.6,1.91c1.18,1.29,1.77,2.97,1.77,5.08
		c0,2.08-0.62,3.78-1.85,5.08c-1.23,1.32-2.79,1.97-4.66,1.97s-3.4-0.64-4.6-1.93c-1.2-1.27-1.81-2.96-1.81-5.07
		C133.43,11.61,134.06,9.91,135.3,8.59z M136.54,17.55c0.86,1.01,2,1.5,3.4,1.5c1.4,0,2.52-0.5,3.38-1.5
		c0.85-1.01,1.27-2.29,1.27-3.87c0-1.63-0.42-2.93-1.29-3.94c-0.86-0.99-2-1.49-3.4-1.49c-1.4,0-2.52,0.5-3.38,1.5
		s-1.29,2.29-1.29,3.87C135.23,15.26,135.67,16.56,136.54,17.55z"/>
	<path d="M151.19,8.59c1.25-1.3,2.8-1.95,4.69-1.95c1.88,0,3.41,0.64,4.6,1.91c1.17,1.29,1.77,2.97,1.77,5.08
		c0,2.08-0.62,3.78-1.86,5.08c-1.23,1.32-2.79,1.97-4.66,1.97s-3.4-0.64-4.6-1.93c-1.2-1.27-1.81-2.96-1.81-5.07
		C149.32,11.61,149.94,9.91,151.19,8.59z M152.42,17.55c0.86,1.01,2,1.5,3.4,1.5c1.4,0,2.52-0.5,3.38-1.5
		c0.85-1.01,1.27-2.29,1.27-3.87c0-1.63-0.42-2.93-1.29-3.94c-0.86-0.99-2-1.49-3.4-1.49c-1.4,0-2.52,0.5-3.38,1.5
		s-1.29,2.29-1.29,3.87C151.12,15.26,151.56,16.56,152.42,17.55z"/>
</g>
<g id="pred_T">
	<rect x="42.6" y="1.8" class="st5" width="15.2" height="18.87"/>
	<rect x="42.6" y="20.81" class="st6" width="7.6" height="4.2"/>
	<g class="st7">
		<path d="M43.2,22.56v-1.2h0.15v1.2H43.2z"/>
		<path d="M44.17,22.28l0.15,0.02c-0.02,0.09-0.07,0.16-0.13,0.21s-0.15,0.07-0.25,0.07c-0.13,0-0.23-0.04-0.3-0.12
			c-0.07-0.08-0.11-0.19-0.11-0.33c0-0.15,0.04-0.26,0.11-0.34c0.08-0.08,0.17-0.12,0.29-0.12c0.12,0,0.21,0.04,0.28,0.12
			c0.07,0.08,0.11,0.19,0.11,0.33c0,0.01,0,0.02,0,0.04h-0.65c0.01,0.1,0.03,0.17,0.08,0.22c0.05,0.05,0.11,0.08,0.18,0.08
			c0.05,0,0.1-0.01,0.14-0.04C44.12,22.39,44.15,22.34,44.17,22.28z M43.69,22.04h0.48c-0.01-0.07-0.03-0.13-0.06-0.16
			c-0.05-0.06-0.11-0.08-0.18-0.08c-0.07,0-0.12,0.02-0.17,0.07C43.72,21.91,43.69,21.96,43.69,22.04z"/>
		<path d="M44.83,22.43l0.02,0.13c-0.04,0.01-0.08,0.01-0.11,0.01c-0.05,0-0.09-0.01-0.12-0.03c-0.03-0.02-0.05-0.04-0.06-0.07
			c-0.01-0.03-0.02-0.09-0.02-0.17v-0.5h-0.11v-0.11h0.11v-0.21l0.15-0.09v0.3h0.15v0.11h-0.15v0.51c0,0.04,0,0.07,0.01,0.08
			s0.01,0.02,0.03,0.03s0.03,0.01,0.05,0.01C44.78,22.43,44.8,22.43,44.83,22.43z"/>
		<path d="M45.29,22.43l0.02,0.13c-0.04,0.01-0.08,0.01-0.11,0.01c-0.05,0-0.09-0.01-0.12-0.03c-0.03-0.02-0.05-0.04-0.06-0.07
			C45,22.45,45,22.39,45,22.3v-0.5h-0.11v-0.11H45v-0.21l0.15-0.09v0.3h0.15v0.11h-0.15v0.51c0,0.04,0,0.07,0.01,0.08
			s0.01,0.02,0.03,0.03s0.03,0.01,0.05,0.01C45.24,22.43,45.27,22.43,45.29,22.43z"/>
		<path d="M46.03,22.28l0.15,0.02c-0.02,0.09-0.07,0.16-0.13,0.21s-0.15,0.07-0.25,0.07c-0.13,0-0.23-0.04-0.3-0.12
			c-0.07-0.08-0.11-0.19-0.11-0.33c0-0.15,0.04-0.26,0.11-0.34c0.08-0.08,0.17-0.12,0.29-0.12c0.12,0,0.21,0.04,0.28,0.12
			c0.07,0.08,0.11,0.19,0.11,0.33c0,0.01,0,0.02,0,0.04h-0.65c0.01,0.1,0.03,0.17,0.08,0.22c0.05,0.05,0.11,0.08,0.18,0.08
			c0.05,0,0.1-0.01,0.14-0.04C45.98,22.39,46.01,22.34,46.03,22.28z M45.55,22.04h0.48c-0.01-0.07-0.03-0.13-0.06-0.16
			c-0.05-0.06-0.11-0.08-0.18-0.08c-0.07,0-0.12,0.02-0.17,0.07C45.58,21.91,45.55,21.96,45.55,22.04z"/>
		<path d="M46.37,22.56v-0.87h0.13v0.13c0.03-0.06,0.06-0.1,0.09-0.12c0.03-0.02,0.06-0.03,0.09-0.03c0.05,0,0.1,0.02,0.15,0.05
			l-0.05,0.14c-0.04-0.02-0.07-0.03-0.11-0.03c-0.03,0-0.06,0.01-0.09,0.03c-0.03,0.02-0.04,0.05-0.06,0.08
			c-0.02,0.05-0.02,0.11-0.02,0.17v0.45H46.37z"/>
		<path d="M46.97,21.86v-0.17h0.17v0.17H46.97z M46.97,22.56v-0.17h0.17v0.17H46.97z"/>
		<path d="M48.15,22.56V21.5h-0.4v-0.14h0.95v0.14h-0.4v1.06H48.15z"/>
	</g>
	<g class="st7">
		<path d="M43.77,24.24l0.15,0.02c-0.02,0.1-0.06,0.18-0.12,0.23c-0.06,0.06-0.15,0.08-0.24,0.08c-0.12,0-0.21-0.04-0.29-0.12
			c-0.07-0.08-0.11-0.19-0.11-0.33c0-0.09,0.02-0.18,0.05-0.25c0.03-0.07,0.08-0.12,0.14-0.16s0.13-0.05,0.21-0.05
			c0.09,0,0.17,0.02,0.23,0.07s0.1,0.12,0.12,0.2l-0.14,0.02c-0.01-0.06-0.04-0.1-0.07-0.13s-0.08-0.04-0.13-0.04
			c-0.07,0-0.13,0.03-0.18,0.08c-0.05,0.05-0.07,0.14-0.07,0.25c0,0.12,0.02,0.2,0.07,0.25s0.1,0.08,0.17,0.08
			c0.06,0,0.11-0.02,0.15-0.05C43.73,24.37,43.76,24.31,43.77,24.24z"/>
		<path d="M43.99,24.12c0-0.16,0.04-0.28,0.13-0.36c0.07-0.06,0.17-0.1,0.27-0.1c0.12,0,0.22,0.04,0.29,0.12s0.11,0.19,0.11,0.32
			c0,0.11-0.02,0.2-0.05,0.26c-0.03,0.06-0.08,0.11-0.15,0.15c-0.06,0.04-0.13,0.05-0.21,0.05c-0.12,0-0.22-0.04-0.29-0.12
			C44.02,24.38,43.99,24.27,43.99,24.12z M44.14,24.12c0,0.11,0.02,0.2,0.07,0.25c0.05,0.06,0.11,0.08,0.18,0.08
			c0.07,0,0.13-0.03,0.18-0.08s0.07-0.14,0.07-0.25c0-0.11-0.02-0.19-0.07-0.24c-0.05-0.06-0.11-0.08-0.18-0.08
			c-0.07,0-0.13,0.03-0.18,0.08C44.16,23.93,44.14,24.01,44.14,24.12z"/>
		<path d="M44.97,24.56v-0.87h0.13v0.12c0.06-0.09,0.16-0.14,0.28-0.14c0.05,0,0.1,0.01,0.14,0.03c0.04,0.02,0.08,0.04,0.1,0.07
			c0.02,0.03,0.04,0.07,0.05,0.11c0.01,0.03,0.01,0.08,0.01,0.14v0.53h-0.15v-0.53c0-0.06-0.01-0.1-0.02-0.13
			c-0.01-0.03-0.03-0.05-0.06-0.07c-0.03-0.02-0.06-0.03-0.1-0.03c-0.06,0-0.12,0.02-0.16,0.06c-0.05,0.04-0.07,0.12-0.07,0.23v0.47
			H44.97z"/>
		<path d="M45.94,24.56V23.8h-0.13v-0.11h0.13V23.6c0-0.06,0.01-0.1,0.02-0.13c0.01-0.04,0.04-0.07,0.07-0.09s0.09-0.04,0.15-0.04
			c0.04,0,0.09,0,0.14,0.01l-0.02,0.13c-0.03,0-0.06-0.01-0.09-0.01c-0.04,0-0.08,0.01-0.09,0.03c-0.02,0.02-0.03,0.05-0.03,0.11
			v0.08h0.17v0.11h-0.17v0.75H45.94z"/>
		<path d="M46.41,23.86v-0.17h0.17v0.17H46.41z M46.41,24.56v-0.17h0.17v0.17H46.41z"/>
		<path d="M47.34,24.56v-0.17h0.17v0.17H47.34z"/>
		<path d="M47.74,24.28l0.14-0.01c0.01,0.07,0.04,0.11,0.07,0.14s0.08,0.04,0.13,0.04c0.05,0,0.08-0.01,0.12-0.03
			c0.03-0.02,0.06-0.05,0.08-0.08c0.02-0.03,0.04-0.08,0.06-0.14c0.01-0.06,0.02-0.12,0.02-0.18c0-0.01,0-0.02,0-0.03
			c-0.03,0.05-0.07,0.08-0.12,0.11s-0.11,0.04-0.17,0.04c-0.1,0-0.18-0.04-0.25-0.11c-0.07-0.07-0.1-0.17-0.1-0.28
			c0-0.12,0.04-0.22,0.11-0.29c0.07-0.07,0.16-0.11,0.27-0.11c0.08,0,0.15,0.02,0.21,0.06s0.11,0.1,0.15,0.18
			c0.03,0.08,0.05,0.19,0.05,0.34c0,0.15-0.02,0.28-0.05,0.37s-0.08,0.16-0.15,0.21c-0.07,0.05-0.14,0.07-0.23,0.07
			c-0.09,0-0.17-0.03-0.23-0.08S47.76,24.38,47.74,24.28z M48.35,23.75c0-0.08-0.02-0.15-0.07-0.2c-0.04-0.05-0.1-0.08-0.16-0.08
			c-0.07,0-0.12,0.03-0.17,0.08c-0.05,0.05-0.07,0.12-0.07,0.21c0,0.08,0.02,0.14,0.07,0.19c0.05,0.05,0.1,0.07,0.17,0.07
			s0.12-0.02,0.17-0.07C48.33,23.9,48.35,23.84,48.35,23.75z"/>
		<path d="M48.88,23.91c-0.06-0.02-0.11-0.05-0.14-0.1c-0.03-0.04-0.04-0.09-0.04-0.15c0-0.09,0.03-0.16,0.09-0.22
			c0.06-0.06,0.15-0.09,0.25-0.09s0.19,0.03,0.25,0.09s0.1,0.13,0.1,0.22c0,0.06-0.01,0.1-0.04,0.15c-0.03,0.04-0.07,0.07-0.13,0.09
			c0.07,0.02,0.13,0.06,0.17,0.12c0.04,0.05,0.06,0.12,0.06,0.19c0,0.1-0.04,0.19-0.11,0.26c-0.07,0.07-0.17,0.1-0.29,0.1
			c-0.12,0-0.21-0.04-0.29-0.11c-0.07-0.07-0.11-0.16-0.11-0.26c0-0.08,0.02-0.14,0.06-0.2C48.75,23.96,48.81,23.93,48.88,23.91z
			 M48.8,24.21c0,0.04,0.01,0.08,0.03,0.12c0.02,0.04,0.05,0.07,0.09,0.09c0.04,0.02,0.08,0.03,0.13,0.03
			c0.07,0,0.13-0.02,0.17-0.07c0.05-0.05,0.07-0.1,0.07-0.17c0-0.07-0.02-0.13-0.07-0.18c-0.05-0.05-0.11-0.07-0.18-0.07
			c-0.07,0-0.13,0.02-0.17,0.07C48.83,24.09,48.8,24.14,48.8,24.21z M48.85,23.66c0,0.06,0.02,0.1,0.05,0.14
			c0.04,0.04,0.08,0.05,0.14,0.05c0.06,0,0.1-0.02,0.14-0.05c0.04-0.04,0.05-0.08,0.05-0.13c0-0.05-0.02-0.1-0.06-0.14
			c-0.04-0.04-0.08-0.05-0.14-0.05c-0.06,0-0.1,0.02-0.14,0.05S48.85,23.61,48.85,23.66z"/>
	</g>
</g>
<g id="pred_r">
	<rect x="57.8" y="6.1" class="st5" width="9.1" height="14.57"/>
	<rect x="57.8" y="20.67" class="st6" width="7.6" height="4.2"/>
	<g class="st7">
		<path d="M58.38,22.42v-1.2h0.15v1.2H58.38z"/>
		<path d="M59.35,22.14l0.15,0.02c-0.02,0.09-0.07,0.16-0.13,0.21c-0.07,0.05-0.15,0.07-0.25,0.07c-0.13,0-0.23-0.04-0.3-0.12
			s-0.11-0.19-0.11-0.33c0-0.15,0.04-0.26,0.11-0.34c0.08-0.08,0.17-0.12,0.29-0.12c0.12,0,0.21,0.04,0.28,0.12s0.11,0.19,0.11,0.33
			c0,0.01,0,0.02,0,0.04h-0.65c0.01,0.1,0.03,0.17,0.08,0.22s0.11,0.08,0.18,0.08c0.05,0,0.1-0.01,0.14-0.04
			C59.3,22.24,59.33,22.2,59.35,22.14z M58.87,21.9h0.48c-0.01-0.07-0.03-0.13-0.06-0.16c-0.05-0.06-0.11-0.08-0.18-0.08
			c-0.07,0-0.12,0.02-0.17,0.07C58.9,21.76,58.88,21.82,58.87,21.9z"/>
		<path d="M60.01,22.28l0.02,0.13c-0.04,0.01-0.08,0.01-0.11,0.01c-0.05,0-0.09-0.01-0.12-0.03c-0.03-0.02-0.05-0.04-0.06-0.07
			c-0.01-0.03-0.02-0.09-0.02-0.17v-0.5h-0.11v-0.11h0.11v-0.21l0.15-0.09v0.3h0.15v0.11h-0.15v0.51c0,0.04,0,0.07,0.01,0.08
			c0,0.01,0.01,0.02,0.03,0.03s0.03,0.01,0.05,0.01C59.96,22.29,59.98,22.29,60.01,22.28z"/>
		<path d="M60.48,22.28l0.02,0.13c-0.04,0.01-0.08,0.01-0.11,0.01c-0.05,0-0.09-0.01-0.12-0.03c-0.03-0.02-0.05-0.04-0.06-0.07
			c-0.01-0.03-0.02-0.09-0.02-0.17v-0.5h-0.11v-0.11h0.11v-0.21l0.15-0.09v0.3h0.15v0.11h-0.15v0.51c0,0.04,0,0.07,0.01,0.08
			c0.01,0.01,0.01,0.02,0.03,0.03s0.03,0.01,0.05,0.01C60.43,22.29,60.45,22.29,60.48,22.28z"/>
		<path d="M61.21,22.14l0.15,0.02c-0.02,0.09-0.07,0.16-0.13,0.21c-0.07,0.05-0.15,0.07-0.25,0.07c-0.13,0-0.23-0.04-0.3-0.12
			s-0.11-0.19-0.11-0.33c0-0.15,0.04-0.26,0.11-0.34c0.08-0.08,0.17-0.12,0.29-0.12c0.12,0,0.21,0.04,0.28,0.12s0.11,0.19,0.11,0.33
			c0,0.01,0,0.02,0,0.04h-0.65c0.01,0.1,0.03,0.17,0.08,0.22s0.11,0.08,0.18,0.08c0.05,0,0.1-0.01,0.14-0.04
			C61.16,22.24,61.19,22.2,61.21,22.14z M60.73,21.9h0.48c-0.01-0.07-0.03-0.13-0.06-0.16c-0.05-0.06-0.11-0.08-0.18-0.08
			c-0.07,0-0.12,0.02-0.17,0.07C60.76,21.76,60.74,21.82,60.73,21.9z"/>
		<path d="M61.55,22.42v-0.87h0.13v0.13c0.03-0.06,0.06-0.1,0.09-0.12c0.03-0.02,0.06-0.03,0.09-0.03c0.05,0,0.1,0.02,0.15,0.05
			l-0.05,0.14c-0.04-0.02-0.07-0.03-0.11-0.03c-0.03,0-0.06,0.01-0.09,0.03s-0.04,0.05-0.05,0.08c-0.02,0.05-0.02,0.11-0.02,0.17
			v0.45H61.55z"/>
		<path d="M62.15,21.71v-0.17h0.17v0.17H62.15z M62.15,22.42v-0.17h0.17v0.17H62.15z"/>
		<path d="M63.04,22.42v-0.87h0.13v0.13c0.03-0.06,0.07-0.1,0.09-0.12s0.06-0.03,0.09-0.03c0.05,0,0.1,0.02,0.15,0.05l-0.05,0.14
			c-0.04-0.02-0.07-0.03-0.11-0.03c-0.03,0-0.06,0.01-0.09,0.03c-0.03,0.02-0.04,0.05-0.06,0.08c-0.02,0.05-0.02,0.11-0.02,0.17
			v0.45H63.04z"/>
	</g>
	<g class="st7">
		<path d="M58.95,24.1l0.14,0.02c-0.02,0.1-0.06,0.18-0.12,0.23c-0.07,0.06-0.15,0.08-0.24,0.08c-0.12,0-0.21-0.04-0.29-0.12
			c-0.07-0.08-0.11-0.19-0.11-0.33c0-0.09,0.02-0.18,0.05-0.25c0.03-0.07,0.08-0.12,0.14-0.16s0.13-0.05,0.21-0.05
			c0.09,0,0.17,0.02,0.23,0.07c0.06,0.05,0.1,0.12,0.12,0.2l-0.14,0.02c-0.01-0.06-0.04-0.1-0.07-0.13
			c-0.03-0.03-0.08-0.04-0.12-0.04c-0.07,0-0.13,0.03-0.18,0.08c-0.05,0.05-0.07,0.14-0.07,0.25c0,0.12,0.02,0.2,0.07,0.25
			s0.1,0.08,0.17,0.08c0.06,0,0.11-0.02,0.15-0.05C58.92,24.22,58.94,24.17,58.95,24.1z"/>
		<path d="M59.17,23.98c0-0.16,0.04-0.28,0.13-0.36c0.08-0.06,0.17-0.1,0.27-0.1c0.12,0,0.22,0.04,0.29,0.12
			c0.08,0.08,0.11,0.19,0.11,0.32c0,0.11-0.02,0.2-0.05,0.26c-0.03,0.06-0.08,0.11-0.15,0.15c-0.06,0.04-0.13,0.05-0.21,0.05
			c-0.12,0-0.22-0.04-0.29-0.12C59.21,24.24,59.17,24.13,59.17,23.98z M59.32,23.98c0,0.11,0.02,0.2,0.07,0.25
			c0.05,0.06,0.11,0.08,0.18,0.08s0.13-0.03,0.18-0.08c0.05-0.06,0.07-0.14,0.07-0.25c0-0.11-0.02-0.19-0.07-0.24
			c-0.05-0.06-0.11-0.08-0.18-0.08c-0.07,0-0.13,0.03-0.18,0.08C59.34,23.79,59.32,23.87,59.32,23.98z"/>
		<path d="M60.16,24.42v-0.87h0.13v0.12c0.06-0.09,0.16-0.14,0.28-0.14c0.05,0,0.1,0.01,0.14,0.03c0.04,0.02,0.08,0.04,0.1,0.07
			c0.02,0.03,0.04,0.07,0.05,0.11c0,0.03,0.01,0.08,0.01,0.14v0.53h-0.15v-0.53c0-0.06-0.01-0.1-0.02-0.13
			c-0.01-0.03-0.03-0.05-0.06-0.07c-0.03-0.02-0.06-0.03-0.1-0.03c-0.06,0-0.12,0.02-0.16,0.06c-0.04,0.04-0.07,0.12-0.07,0.23v0.47
			H60.16z"/>
		<path d="M61.12,24.42v-0.75h-0.13v-0.11h0.13v-0.09c0-0.06,0.01-0.1,0.02-0.13c0.01-0.04,0.04-0.07,0.08-0.09
			c0.04-0.02,0.09-0.04,0.15-0.04c0.04,0,0.09,0,0.14,0.01l-0.02,0.13c-0.03,0-0.06-0.01-0.09-0.01c-0.04,0-0.08,0.01-0.09,0.03
			c-0.02,0.02-0.03,0.05-0.03,0.11v0.08h0.17v0.11h-0.17v0.75H61.12z"/>
		<path d="M61.59,23.71v-0.17h0.17v0.17H61.59z M61.59,24.42v-0.17h0.17v0.17H61.59z"/>
		<path d="M62.52,24.42v-0.17h0.17v0.17H62.52z"/>
		<path d="M62.93,24.14l0.14-0.01c0.01,0.07,0.04,0.11,0.07,0.14c0.03,0.03,0.08,0.04,0.13,0.04c0.04,0,0.08-0.01,0.12-0.03
			c0.03-0.02,0.06-0.05,0.08-0.08c0.02-0.03,0.04-0.08,0.06-0.14c0.01-0.06,0.02-0.12,0.02-0.18c0-0.01,0-0.02,0-0.03
			c-0.03,0.05-0.07,0.08-0.12,0.11s-0.11,0.04-0.17,0.04c-0.1,0-0.18-0.04-0.25-0.11c-0.07-0.07-0.1-0.17-0.1-0.28
			c0-0.12,0.04-0.22,0.11-0.29c0.07-0.07,0.16-0.11,0.27-0.11c0.08,0,0.15,0.02,0.21,0.06s0.11,0.1,0.15,0.18
			c0.03,0.08,0.05,0.19,0.05,0.34c0,0.15-0.02,0.28-0.05,0.37s-0.08,0.16-0.15,0.21c-0.07,0.05-0.14,0.07-0.23,0.07
			c-0.09,0-0.17-0.03-0.23-0.08S62.94,24.23,62.93,24.14z M63.53,23.61c0-0.08-0.02-0.15-0.07-0.2c-0.04-0.05-0.1-0.08-0.16-0.08
			c-0.07,0-0.12,0.03-0.17,0.08c-0.05,0.05-0.07,0.12-0.07,0.21c0,0.08,0.02,0.14,0.07,0.19c0.05,0.05,0.1,0.07,0.17,0.07
			c0.07,0,0.12-0.02,0.17-0.07C63.51,23.76,63.53,23.69,63.53,23.61z"/>
		<path d="M63.84,24.1l0.15-0.02c0.02,0.08,0.05,0.14,0.09,0.18c0.04,0.04,0.09,0.05,0.15,0.05c0.07,0,0.13-0.02,0.18-0.07
			s0.07-0.11,0.07-0.18c0-0.07-0.02-0.12-0.07-0.17s-0.1-0.07-0.17-0.07c-0.03,0-0.06,0.01-0.1,0.02l0.02-0.13c0.01,0,0.02,0,0.02,0
			c0.06,0,0.12-0.02,0.17-0.05c0.05-0.03,0.08-0.08,0.08-0.15c0-0.05-0.02-0.1-0.05-0.13c-0.04-0.04-0.08-0.05-0.14-0.05
			s-0.11,0.02-0.14,0.05s-0.06,0.09-0.07,0.16l-0.15-0.03c0.02-0.1,0.06-0.18,0.12-0.23c0.06-0.05,0.14-0.08,0.24-0.08
			c0.06,0,0.12,0.01,0.18,0.04c0.05,0.03,0.1,0.07,0.13,0.11c0.03,0.05,0.04,0.1,0.04,0.16c0,0.05-0.01,0.1-0.04,0.14
			c-0.03,0.04-0.07,0.08-0.12,0.1c0.07,0.02,0.12,0.05,0.17,0.1c0.04,0.05,0.06,0.12,0.06,0.19c0,0.11-0.04,0.19-0.11,0.27
			s-0.17,0.11-0.29,0.11c-0.1,0-0.19-0.03-0.26-0.09C63.89,24.28,63.85,24.2,63.84,24.1z"/>
	</g>
</g>
<g id="pred_o">
	<rect x="66.9" y="6.1" class="st5" width="14.4" height="15.12"/>
	<rect x="66.9" y="21.22" class="st6" width="7.6" height="4.2"/>
	<g class="st7">
		<path d="M67.48,22.96v-1.2h0.15v1.2H67.48z"/>
		<path d="M68.45,22.68l0.15,0.02c-0.02,0.09-0.07,0.16-0.13,0.21s-0.15,0.07-0.25,0.07c-0.13,0-0.23-0.04-0.3-0.12
			c-0.07-0.08-0.11-0.19-0.11-0.33c0-0.15,0.04-0.26,0.11-0.34c0.08-0.08,0.17-0.12,0.29-0.12c0.12,0,0.21,0.04,0.28,0.12
			c0.07,0.08,0.11,0.19,0.11,0.33c0,0.01,0,0.02,0,0.04h-0.65c0.01,0.1,0.03,0.17,0.08,0.22c0.05,0.05,0.11,0.08,0.18,0.08
			c0.05,0,0.1-0.01,0.14-0.04C68.4,22.79,68.43,22.74,68.45,22.68z M67.97,22.44h0.48c-0.01-0.07-0.03-0.13-0.06-0.16
			c-0.05-0.06-0.11-0.08-0.18-0.08c-0.07,0-0.12,0.02-0.17,0.07C68,22.31,67.97,22.37,67.97,22.44z"/>
		<path d="M69.11,22.83l0.02,0.13c-0.04,0.01-0.08,0.01-0.11,0.01c-0.05,0-0.09-0.01-0.12-0.03c-0.03-0.02-0.05-0.04-0.06-0.07
			c-0.01-0.03-0.02-0.09-0.02-0.17v-0.5h-0.11v-0.11h0.11v-0.21l0.15-0.09v0.3h0.15v0.11h-0.15v0.51c0,0.04,0,0.07,0.01,0.08
			s0.01,0.02,0.03,0.03s0.03,0.01,0.05,0.01C69.06,22.83,69.08,22.83,69.11,22.83z"/>
		<path d="M69.58,22.83l0.02,0.13c-0.04,0.01-0.08,0.01-0.11,0.01c-0.05,0-0.09-0.01-0.12-0.03c-0.03-0.02-0.05-0.04-0.06-0.07
			c-0.01-0.03-0.02-0.09-0.02-0.17v-0.5h-0.11v-0.11h0.11v-0.21l0.15-0.09v0.3h0.15v0.11h-0.15v0.51c0,0.04,0,0.07,0.01,0.08
			s0.01,0.02,0.03,0.03s0.03,0.01,0.05,0.01C69.53,22.83,69.55,22.83,69.58,22.83z"/>
		<path d="M70.31,22.68l0.15,0.02c-0.02,0.09-0.07,0.16-0.13,0.21s-0.15,0.07-0.25,0.07c-0.13,0-0.23-0.04-0.3-0.12
			c-0.07-0.08-0.11-0.19-0.11-0.33c0-0.15,0.04-0.26,0.11-0.34c0.08-0.08,0.17-0.12,0.29-0.12c0.12,0,0.21,0.04,0.28,0.12
			c0.07,0.08,0.11,0.19,0.11,0.33c0,0.01,0,0.02,0,0.04h-0.65c0.01,0.1,0.03,0.17,0.08,0.22c0.05,0.05,0.11,0.08,0.18,0.08
			c0.05,0,0.1-0.01,0.14-0.04C70.26,22.79,70.29,22.74,70.31,22.68z M69.83,22.44h0.48c-0.01-0.07-0.03-0.13-0.06-0.16
			c-0.05-0.06-0.11-0.08-0.18-0.08c-0.07,0-0.12,0.02-0.17,0.07C69.86,22.31,69.83,22.37,69.83,22.44z"/>
		<path d="M70.65,22.96v-0.87h0.13v0.13c0.03-0.06,0.06-0.1,0.09-0.12c0.03-0.02,0.06-0.03,0.09-0.03c0.05,0,0.1,0.02,0.15,0.05
			l-0.05,0.14c-0.04-0.02-0.07-0.03-0.11-0.03c-0.03,0-0.06,0.01-0.09,0.03c-0.03,0.02-0.04,0.05-0.06,0.08
			c-0.02,0.05-0.02,0.11-0.02,0.17v0.45H70.65z"/>
		<path d="M71.25,22.26v-0.17h0.17v0.17H71.25z M71.25,22.96v-0.17h0.17v0.17H71.25z"/>
		<path d="M72.08,22.53c0-0.16,0.04-0.28,0.13-0.36c0.07-0.06,0.17-0.1,0.27-0.1c0.12,0,0.22,0.04,0.29,0.12s0.11,0.19,0.11,0.32
			c0,0.11-0.02,0.2-0.05,0.26c-0.03,0.06-0.08,0.11-0.15,0.15c-0.06,0.04-0.13,0.05-0.21,0.05c-0.12,0-0.22-0.04-0.29-0.12
			C72.12,22.79,72.08,22.67,72.08,22.53z M72.23,22.53c0,0.11,0.02,0.2,0.07,0.25c0.05,0.06,0.11,0.08,0.18,0.08
			c0.07,0,0.13-0.03,0.18-0.08s0.07-0.14,0.07-0.25c0-0.11-0.02-0.19-0.07-0.24c-0.05-0.06-0.11-0.08-0.18-0.08
			c-0.07,0-0.13,0.03-0.18,0.08C72.26,22.33,72.23,22.42,72.23,22.53z"/>
	</g>
	<g class="st7">
		<path d="M68.05,24.64l0.15,0.02c-0.02,0.1-0.06,0.18-0.12,0.23c-0.06,0.06-0.15,0.08-0.24,0.08c-0.12,0-0.21-0.04-0.29-0.12
			c-0.07-0.08-0.11-0.19-0.11-0.33c0-0.09,0.02-0.18,0.05-0.25c0.03-0.07,0.08-0.12,0.14-0.16s0.13-0.05,0.21-0.05
			c0.09,0,0.17,0.02,0.23,0.07s0.1,0.12,0.12,0.2l-0.14,0.02c-0.01-0.06-0.04-0.1-0.07-0.13s-0.08-0.04-0.13-0.04
			c-0.07,0-0.13,0.03-0.18,0.08c-0.05,0.05-0.07,0.14-0.07,0.25c0,0.12,0.02,0.2,0.07,0.25s0.1,0.08,0.17,0.08
			c0.06,0,0.11-0.02,0.15-0.05C68.02,24.77,68.04,24.72,68.05,24.64z"/>
		<path d="M68.27,24.53c0-0.16,0.04-0.28,0.13-0.36c0.07-0.06,0.17-0.1,0.27-0.1c0.12,0,0.22,0.04,0.29,0.12s0.11,0.19,0.11,0.32
			c0,0.11-0.02,0.2-0.05,0.26c-0.03,0.06-0.08,0.11-0.15,0.15c-0.06,0.04-0.13,0.05-0.21,0.05c-0.12,0-0.22-0.04-0.29-0.12
			C68.31,24.79,68.27,24.67,68.27,24.53z M68.42,24.53c0,0.11,0.02,0.2,0.07,0.25c0.05,0.06,0.11,0.08,0.18,0.08
			c0.07,0,0.13-0.03,0.18-0.08s0.07-0.14,0.07-0.25c0-0.11-0.02-0.19-0.07-0.24c-0.05-0.06-0.11-0.08-0.18-0.08
			c-0.07,0-0.13,0.03-0.18,0.08C68.44,24.33,68.42,24.42,68.42,24.53z"/>
		<path d="M69.25,24.96v-0.87h0.13v0.12c0.06-0.09,0.16-0.14,0.28-0.14c0.05,0,0.1,0.01,0.14,0.03c0.04,0.02,0.08,0.04,0.1,0.07
			c0.02,0.03,0.04,0.07,0.05,0.11c0.01,0.03,0.01,0.08,0.01,0.14v0.53h-0.15v-0.53c0-0.06-0.01-0.1-0.02-0.13
			c-0.01-0.03-0.03-0.05-0.06-0.07c-0.03-0.02-0.06-0.03-0.1-0.03c-0.06,0-0.12,0.02-0.16,0.06c-0.05,0.04-0.07,0.12-0.07,0.23v0.47
			H69.25z"/>
		<path d="M70.22,24.96v-0.75h-0.13v-0.11h0.13V24c0-0.06,0.01-0.1,0.02-0.13c0.01-0.04,0.04-0.07,0.07-0.09s0.09-0.04,0.15-0.04
			c0.04,0,0.09,0,0.14,0.01l-0.02,0.13c-0.03,0-0.06-0.01-0.09-0.01c-0.04,0-0.08,0.01-0.09,0.03c-0.02,0.02-0.03,0.05-0.03,0.11
			v0.08h0.17v0.11h-0.17v0.75H70.22z"/>
		<path d="M70.69,24.26v-0.17h0.17v0.17H70.69z M70.69,24.96v-0.17h0.17v0.17H70.69z"/>
		<path d="M71.62,24.96v-0.17h0.17v0.17H71.62z"/>
		<path d="M72.23,24.31c-0.06-0.02-0.11-0.05-0.14-0.1c-0.03-0.04-0.04-0.09-0.04-0.15c0-0.09,0.03-0.16,0.09-0.22
			c0.06-0.06,0.15-0.09,0.25-0.09s0.19,0.03,0.25,0.09s0.1,0.13,0.1,0.22c0,0.06-0.01,0.1-0.04,0.15c-0.03,0.04-0.07,0.07-0.13,0.09
			c0.07,0.02,0.13,0.06,0.17,0.12c0.04,0.05,0.06,0.12,0.06,0.19c0,0.1-0.04,0.19-0.11,0.26c-0.07,0.07-0.17,0.1-0.29,0.1
			c-0.12,0-0.21-0.04-0.29-0.11C72.04,24.81,72,24.72,72,24.61c0-0.08,0.02-0.14,0.06-0.2C72.1,24.37,72.16,24.33,72.23,24.31z
			 M72.15,24.62c0,0.04,0.01,0.08,0.03,0.12c0.02,0.04,0.05,0.07,0.09,0.09c0.04,0.02,0.08,0.03,0.13,0.03
			c0.07,0,0.13-0.02,0.17-0.07c0.05-0.05,0.07-0.1,0.07-0.17c0-0.07-0.02-0.13-0.07-0.18c-0.05-0.05-0.11-0.07-0.18-0.07
			c-0.07,0-0.13,0.02-0.17,0.07C72.18,24.49,72.15,24.55,72.15,24.62z M72.2,24.06c0,0.06,0.02,0.1,0.05,0.14
			c0.04,0.04,0.08,0.05,0.14,0.05c0.06,0,0.1-0.02,0.14-0.05c0.04-0.04,0.05-0.08,0.05-0.13c0-0.05-0.02-0.1-0.06-0.14
			c-0.04-0.04-0.08-0.05-0.14-0.05c-0.06,0-0.1,0.02-0.14,0.05S72.2,24.01,72.2,24.06z"/>
		<path d="M73.71,24.82v0.14h-0.79c0-0.04,0-0.07,0.02-0.1c0.02-0.05,0.05-0.11,0.1-0.16c0.04-0.05,0.11-0.11,0.19-0.18
			c0.13-0.11,0.22-0.19,0.26-0.25c0.05-0.06,0.07-0.12,0.07-0.18c0-0.06-0.02-0.11-0.06-0.15s-0.1-0.06-0.16-0.06
			c-0.07,0-0.13,0.02-0.17,0.06c-0.04,0.04-0.06,0.1-0.06,0.18l-0.15-0.02c0.01-0.11,0.05-0.2,0.12-0.26
			c0.07-0.06,0.16-0.09,0.27-0.09c0.11,0,0.21,0.03,0.27,0.1c0.07,0.06,0.1,0.14,0.1,0.24c0,0.05-0.01,0.1-0.03,0.14
			c-0.02,0.05-0.05,0.1-0.1,0.15c-0.05,0.05-0.12,0.12-0.23,0.21c-0.09,0.07-0.15,0.12-0.17,0.15c-0.03,0.03-0.05,0.05-0.06,0.08
			H73.71z"/>
	</g>
</g>
<g id="pred_j">
	<rect x="81.3" y="0.84" class="st5" width="7.6" height="27.26"/>
	<rect x="81.3" y="28.1" class="st6" width="7.6" height="4.2"/>
	<g class="st7">
		<path d="M81.88,29.84v-1.2h0.15v1.2H81.88z"/>
		<path d="M82.85,29.56L83,29.58c-0.02,0.09-0.07,0.16-0.13,0.21c-0.06,0.05-0.15,0.07-0.25,0.07c-0.13,0-0.23-0.04-0.3-0.12
			c-0.07-0.08-0.11-0.19-0.11-0.33c0-0.15,0.04-0.26,0.11-0.34c0.08-0.08,0.17-0.12,0.29-0.12c0.12,0,0.21,0.04,0.29,0.12
			c0.07,0.08,0.11,0.19,0.11,0.33c0,0.01,0,0.02,0,0.04h-0.65c0,0.1,0.03,0.17,0.08,0.22c0.05,0.05,0.11,0.08,0.18,0.08
			c0.05,0,0.1-0.01,0.14-0.04C82.8,29.67,82.83,29.62,82.85,29.56z M82.37,29.32h0.49c-0.01-0.07-0.03-0.13-0.06-0.16
			c-0.05-0.06-0.11-0.08-0.18-0.08c-0.07,0-0.12,0.02-0.17,0.07C82.4,29.19,82.37,29.25,82.37,29.32z"/>
		<path d="M83.51,29.71l0.02,0.13c-0.04,0.01-0.08,0.01-0.11,0.01c-0.05,0-0.09-0.01-0.12-0.03c-0.03-0.02-0.05-0.04-0.06-0.07
			s-0.02-0.09-0.02-0.17v-0.5H83.1v-0.11h0.11v-0.21l0.15-0.09v0.3h0.15v0.11h-0.15v0.51c0,0.04,0,0.07,0.01,0.08
			c0.01,0.01,0.01,0.02,0.03,0.03c0.01,0.01,0.03,0.01,0.05,0.01C83.46,29.71,83.48,29.71,83.51,29.71z"/>
		<path d="M83.97,29.71l0.02,0.13c-0.04,0.01-0.08,0.01-0.11,0.01c-0.05,0-0.09-0.01-0.12-0.03s-0.05-0.04-0.06-0.07
			c-0.01-0.03-0.02-0.09-0.02-0.17v-0.5h-0.11v-0.11h0.11v-0.21l0.15-0.09v0.3h0.15v0.11h-0.15v0.51c0,0.04,0,0.07,0.01,0.08
			c0,0.01,0.01,0.02,0.03,0.03c0.01,0.01,0.03,0.01,0.05,0.01C83.92,29.71,83.95,29.71,83.97,29.71z"/>
		<path d="M84.71,29.56l0.15,0.02c-0.02,0.09-0.07,0.16-0.13,0.21c-0.06,0.05-0.15,0.07-0.25,0.07c-0.13,0-0.23-0.04-0.3-0.12
			c-0.07-0.08-0.11-0.19-0.11-0.33c0-0.15,0.04-0.26,0.11-0.34c0.08-0.08,0.17-0.12,0.29-0.12c0.12,0,0.21,0.04,0.29,0.12
			c0.07,0.08,0.11,0.19,0.11,0.33c0,0.01,0,0.02,0,0.04h-0.65c0,0.1,0.03,0.17,0.08,0.22c0.05,0.05,0.11,0.08,0.18,0.08
			c0.05,0,0.1-0.01,0.14-0.04C84.66,29.67,84.69,29.62,84.71,29.56z M84.23,29.32h0.49c-0.01-0.07-0.03-0.13-0.06-0.16
			c-0.05-0.06-0.11-0.08-0.18-0.08c-0.07,0-0.12,0.02-0.17,0.07C84.26,29.19,84.23,29.25,84.23,29.32z"/>
		<path d="M85.05,29.84v-0.87h0.13v0.13c0.03-0.06,0.07-0.1,0.09-0.12s0.06-0.03,0.09-0.03c0.05,0,0.1,0.02,0.15,0.05l-0.05,0.14
			c-0.04-0.02-0.07-0.03-0.11-0.03c-0.03,0-0.06,0.01-0.09,0.03c-0.03,0.02-0.04,0.05-0.06,0.08c-0.02,0.05-0.02,0.11-0.02,0.17
			v0.45H85.05z"/>
		<path d="M85.65,29.14v-0.17h0.17v0.17H85.65z M85.65,29.84v-0.17h0.17v0.17H85.65z"/>
		<path d="M86.35,30.18l0.03-0.12c0.03,0.01,0.05,0.01,0.07,0.01c0.03,0,0.05-0.01,0.07-0.03s0.02-0.07,0.02-0.15v-0.91h0.15v0.92
			c0,0.11-0.01,0.18-0.04,0.22c-0.04,0.05-0.09,0.08-0.18,0.08C86.42,30.19,86.38,30.19,86.35,30.18z M86.53,28.81v-0.17h0.15v0.17
			H86.53z"/>
	</g>
	<g class="st7">
		<path d="M82.45,31.52l0.15,0.02c-0.02,0.1-0.06,0.18-0.12,0.23c-0.06,0.06-0.14,0.08-0.24,0.08c-0.12,0-0.21-0.04-0.29-0.12
			c-0.07-0.08-0.11-0.19-0.11-0.33c0-0.09,0.02-0.18,0.05-0.25s0.08-0.12,0.14-0.16s0.13-0.05,0.21-0.05c0.09,0,0.17,0.02,0.23,0.07
			c0.06,0.05,0.1,0.12,0.12,0.2l-0.14,0.02c-0.01-0.06-0.04-0.1-0.07-0.13c-0.04-0.03-0.08-0.04-0.13-0.04
			c-0.07,0-0.13,0.03-0.18,0.08c-0.05,0.05-0.07,0.14-0.07,0.25s0.02,0.2,0.07,0.25s0.1,0.08,0.17,0.08c0.06,0,0.11-0.02,0.14-0.05
			S82.44,31.6,82.45,31.52z"/>
		<path d="M82.67,31.41c0-0.16,0.04-0.28,0.13-0.36c0.07-0.06,0.17-0.1,0.27-0.1c0.12,0,0.22,0.04,0.29,0.12
			c0.08,0.08,0.11,0.19,0.11,0.32c0,0.11-0.02,0.2-0.05,0.26c-0.03,0.06-0.08,0.11-0.15,0.15c-0.06,0.04-0.13,0.05-0.21,0.05
			c-0.12,0-0.22-0.04-0.29-0.12C82.7,31.67,82.67,31.55,82.67,31.41z M82.82,31.41c0,0.11,0.02,0.2,0.07,0.25s0.11,0.08,0.18,0.08
			c0.07,0,0.13-0.03,0.18-0.08c0.05-0.06,0.07-0.14,0.07-0.26c0-0.11-0.02-0.19-0.07-0.24c-0.05-0.06-0.11-0.08-0.18-0.08
			c-0.07,0-0.13,0.03-0.18,0.08S82.82,31.29,82.82,31.41z"/>
		<path d="M83.65,31.84v-0.87h0.13v0.12c0.06-0.1,0.16-0.14,0.28-0.14c0.05,0,0.1,0.01,0.14,0.03s0.08,0.04,0.1,0.07
			c0.02,0.03,0.04,0.07,0.04,0.11c0.01,0.03,0.01,0.07,0.01,0.14v0.53h-0.15v-0.53c0-0.06-0.01-0.11-0.02-0.13
			c-0.01-0.03-0.03-0.05-0.06-0.07c-0.03-0.02-0.06-0.03-0.1-0.03c-0.06,0-0.12,0.02-0.16,0.06c-0.05,0.04-0.07,0.12-0.07,0.22v0.47
			H83.65z"/>
		<path d="M84.62,31.84v-0.75h-0.13v-0.11h0.13v-0.09c0-0.06,0-0.1,0.02-0.13c0.01-0.04,0.04-0.07,0.07-0.09
			c0.04-0.02,0.09-0.04,0.15-0.04c0.04,0,0.09,0.01,0.14,0.02l-0.02,0.13c-0.03,0-0.06-0.01-0.09-0.01c-0.04,0-0.08,0.01-0.09,0.03
			s-0.03,0.05-0.03,0.11v0.08h0.17v0.11h-0.17v0.75H84.62z"/>
		<path d="M85.09,31.14v-0.17h0.17v0.17H85.09z M85.09,31.84v-0.17h0.17v0.17H85.09z"/>
		<path d="M86.02,31.84v-0.17h0.17v0.17H86.02z"/>
		<path d="M86.63,31.19c-0.06-0.02-0.11-0.05-0.14-0.1c-0.03-0.04-0.04-0.09-0.04-0.15c0-0.09,0.03-0.16,0.09-0.22
			c0.06-0.06,0.15-0.09,0.25-0.09s0.19,0.03,0.25,0.09c0.06,0.06,0.1,0.13,0.1,0.22c0,0.06-0.01,0.11-0.04,0.15
			c-0.03,0.04-0.07,0.07-0.13,0.09c0.07,0.03,0.13,0.06,0.17,0.12c0.04,0.05,0.06,0.12,0.06,0.19c0,0.1-0.04,0.19-0.11,0.26
			s-0.17,0.11-0.29,0.11s-0.21-0.04-0.29-0.11s-0.11-0.16-0.11-0.26c0-0.08,0.02-0.14,0.06-0.2C86.5,31.25,86.56,31.21,86.63,31.19z
			 M86.55,31.49c0,0.04,0.01,0.08,0.03,0.12c0.02,0.04,0.05,0.07,0.09,0.09s0.08,0.03,0.13,0.03c0.07,0,0.13-0.02,0.17-0.07
			s0.07-0.1,0.07-0.17c0-0.07-0.02-0.13-0.07-0.18c-0.05-0.05-0.11-0.07-0.18-0.07c-0.07,0-0.13,0.02-0.17,0.07
			C86.57,31.37,86.55,31.43,86.55,31.49z M86.6,30.94c0,0.06,0.02,0.1,0.05,0.14c0.04,0.04,0.08,0.05,0.14,0.05
			c0.06,0,0.1-0.02,0.14-0.05s0.05-0.08,0.05-0.13c0-0.05-0.02-0.1-0.06-0.14s-0.08-0.05-0.14-0.05s-0.1,0.02-0.14,0.05
			C86.62,30.85,86.6,30.89,86.6,30.94z"/>
		<path d="M87.34,30.8v-0.14h0.78v0.11c-0.08,0.08-0.15,0.19-0.23,0.32s-0.13,0.27-0.17,0.42c-0.03,0.1-0.05,0.21-0.06,0.33h-0.15
			c0-0.09,0.02-0.21,0.06-0.34c0.04-0.13,0.09-0.26,0.15-0.39c0.07-0.12,0.14-0.23,0.21-0.31H87.34z"/>
	</g>
</g>
<g id="pred_a">
	<rect x="89.44" y="6.1" class="st5" width="12.01" height="15.12"/>
	<rect x="89.44" y="21.45" class="st6" width="7.6" height="4.2"/>
	<g class="st7">
		<path d="M90.02,23.19v-1.2h0.15v1.2H90.02z"/>
		<path d="M90.99,22.91l0.15,0.02c-0.02,0.09-0.07,0.16-0.13,0.21s-0.15,0.07-0.25,0.07c-0.13,0-0.23-0.04-0.3-0.12
			c-0.07-0.08-0.11-0.19-0.11-0.33c0-0.15,0.04-0.26,0.11-0.34c0.08-0.08,0.17-0.12,0.29-0.12c0.12,0,0.21,0.04,0.28,0.12
			c0.07,0.08,0.11,0.19,0.11,0.33c0,0.01,0,0.02,0,0.04H90.5c0.01,0.1,0.03,0.17,0.08,0.22c0.05,0.05,0.11,0.08,0.18,0.08
			c0.05,0,0.1-0.01,0.14-0.04C90.94,23.02,90.97,22.97,90.99,22.91z M90.51,22.67h0.48c-0.01-0.07-0.03-0.13-0.06-0.16
			c-0.05-0.06-0.11-0.08-0.18-0.08c-0.07,0-0.12,0.02-0.17,0.07C90.54,22.54,90.51,22.6,90.51,22.67z"/>
		<path d="M91.65,23.06l0.02,0.13c-0.04,0.01-0.08,0.01-0.11,0.01c-0.05,0-0.09-0.01-0.12-0.03c-0.03-0.02-0.05-0.04-0.06-0.07
			c-0.01-0.03-0.02-0.09-0.02-0.17v-0.5h-0.11v-0.11h0.11v-0.21l0.15-0.09v0.3h0.15v0.11H91.5v0.51c0,0.04,0,0.07,0.01,0.08
			s0.01,0.02,0.03,0.03s0.03,0.01,0.05,0.01C91.6,23.06,91.62,23.06,91.65,23.06z"/>
		<path d="M92.11,23.06l0.02,0.13c-0.04,0.01-0.08,0.01-0.11,0.01c-0.05,0-0.09-0.01-0.12-0.03c-0.03-0.02-0.05-0.04-0.06-0.07
			c-0.01-0.03-0.02-0.09-0.02-0.17v-0.5h-0.11v-0.11h0.11v-0.21l0.15-0.09v0.3h0.15v0.11h-0.15v0.51c0,0.04,0,0.07,0.01,0.08
			s0.01,0.02,0.03,0.03s0.03,0.01,0.05,0.01C92.07,23.06,92.09,23.06,92.11,23.06z"/>
		<path d="M92.85,22.91L93,22.93c-0.02,0.09-0.07,0.16-0.13,0.21s-0.15,0.07-0.25,0.07c-0.13,0-0.23-0.04-0.3-0.12
			c-0.07-0.08-0.11-0.19-0.11-0.33c0-0.15,0.04-0.26,0.11-0.34c0.08-0.08,0.17-0.12,0.29-0.12c0.12,0,0.21,0.04,0.28,0.12
			c0.07,0.08,0.11,0.19,0.11,0.33c0,0.01,0,0.02,0,0.04h-0.65c0.01,0.1,0.03,0.17,0.08,0.22c0.05,0.05,0.11,0.08,0.18,0.08
			c0.05,0,0.1-0.01,0.14-0.04C92.8,23.02,92.83,22.97,92.85,22.91z M92.37,22.67h0.48c-0.01-0.07-0.03-0.13-0.06-0.16
			c-0.05-0.06-0.11-0.08-0.18-0.08c-0.07,0-0.12,0.02-0.17,0.07C92.4,22.54,92.37,22.6,92.37,22.67z"/>
		<path d="M93.19,23.19v-0.87h0.13v0.13c0.03-0.06,0.06-0.1,0.09-0.12c0.03-0.02,0.06-0.03,0.09-0.03c0.05,0,0.1,0.02,0.15,0.05
			l-0.05,0.14c-0.04-0.02-0.07-0.03-0.11-0.03c-0.03,0-0.06,0.01-0.09,0.03c-0.03,0.02-0.04,0.05-0.06,0.08
			c-0.02,0.05-0.02,0.11-0.02,0.17v0.45H93.19z"/>
		<path d="M93.79,22.49v-0.17h0.17v0.17H93.79z M93.79,23.19v-0.17h0.17v0.17H93.79z"/>
		<path d="M95.24,23.08c-0.05,0.05-0.11,0.08-0.16,0.1c-0.05,0.02-0.1,0.03-0.16,0.03c-0.1,0-0.17-0.02-0.22-0.07
			c-0.05-0.05-0.08-0.11-0.08-0.18c0-0.04,0.01-0.08,0.03-0.12c0.02-0.04,0.04-0.06,0.08-0.08c0.03-0.02,0.07-0.04,0.11-0.05
			c0.03-0.01,0.07-0.01,0.13-0.02c0.12-0.01,0.21-0.03,0.26-0.05c0-0.02,0-0.03,0-0.04c0-0.06-0.01-0.1-0.04-0.13
			c-0.04-0.03-0.09-0.05-0.17-0.05c-0.07,0-0.12,0.01-0.15,0.04c-0.03,0.02-0.06,0.07-0.07,0.13l-0.14-0.02
			c0.01-0.06,0.03-0.11,0.06-0.15s0.07-0.07,0.13-0.09s0.12-0.03,0.2-0.03c0.07,0,0.13,0.01,0.18,0.03c0.05,0.02,0.08,0.04,0.1,0.07
			c0.02,0.03,0.04,0.06,0.05,0.1c0,0.02,0.01,0.07,0.01,0.14v0.2c0,0.14,0,0.22,0.01,0.26s0.02,0.07,0.04,0.1h-0.15
			C95.26,23.16,95.25,23.12,95.24,23.08z M95.23,22.75c-0.05,0.02-0.13,0.04-0.24,0.06c-0.06,0.01-0.1,0.02-0.13,0.03
			s-0.04,0.03-0.06,0.05c-0.01,0.02-0.02,0.04-0.02,0.07c0,0.04,0.02,0.07,0.04,0.1c0.03,0.03,0.07,0.04,0.13,0.04
			c0.06,0,0.11-0.01,0.15-0.04c0.04-0.02,0.08-0.06,0.1-0.1c0.02-0.03,0.02-0.08,0.02-0.15V22.75z"/>
	</g>
	<g class="st7">
		<path d="M90.59,24.87l0.15,0.02c-0.02,0.1-0.06,0.18-0.12,0.23c-0.06,0.06-0.15,0.08-0.24,0.08c-0.12,0-0.21-0.04-0.29-0.12
			c-0.07-0.08-0.11-0.19-0.11-0.33c0-0.09,0.02-0.18,0.05-0.25c0.03-0.07,0.08-0.12,0.14-0.16s0.13-0.05,0.21-0.05
			c0.09,0,0.17,0.02,0.23,0.07s0.1,0.12,0.12,0.2l-0.14,0.02c-0.01-0.06-0.04-0.1-0.07-0.13s-0.08-0.04-0.13-0.04
			c-0.07,0-0.13,0.03-0.18,0.08c-0.05,0.05-0.07,0.14-0.07,0.25c0,0.12,0.02,0.2,0.07,0.25s0.1,0.08,0.17,0.08
			c0.06,0,0.11-0.02,0.15-0.05C90.56,25,90.58,24.95,90.59,24.87z"/>
		<path d="M90.81,24.76c0-0.16,0.04-0.28,0.13-0.36c0.07-0.06,0.17-0.1,0.27-0.1c0.12,0,0.22,0.04,0.29,0.12s0.11,0.19,0.11,0.32
			c0,0.11-0.02,0.2-0.05,0.26c-0.03,0.06-0.08,0.11-0.15,0.15c-0.06,0.04-0.13,0.05-0.21,0.05c-0.12,0-0.22-0.04-0.29-0.12
			C90.84,25.02,90.81,24.9,90.81,24.76z M90.96,24.76c0,0.11,0.02,0.2,0.07,0.25c0.05,0.06,0.11,0.08,0.18,0.08
			c0.07,0,0.13-0.03,0.18-0.08s0.07-0.14,0.07-0.25c0-0.11-0.02-0.19-0.07-0.24c-0.05-0.06-0.11-0.08-0.18-0.08
			c-0.07,0-0.13,0.03-0.18,0.08C90.98,24.56,90.96,24.65,90.96,24.76z"/>
		<path d="M91.79,25.19v-0.87h0.13v0.12c0.06-0.09,0.16-0.14,0.28-0.14c0.05,0,0.1,0.01,0.14,0.03c0.04,0.02,0.08,0.04,0.1,0.07
			c0.02,0.03,0.04,0.07,0.05,0.11c0.01,0.03,0.01,0.08,0.01,0.14v0.53h-0.15v-0.53c0-0.06-0.01-0.1-0.02-0.13
			c-0.01-0.03-0.03-0.05-0.06-0.07c-0.03-0.02-0.06-0.03-0.1-0.03c-0.06,0-0.12,0.02-0.16,0.06c-0.05,0.04-0.07,0.12-0.07,0.23v0.47
			H91.79z"/>
		<path d="M92.76,25.19v-0.75h-0.13v-0.11h0.13v-0.09c0-0.06,0.01-0.1,0.02-0.13c0.01-0.04,0.04-0.07,0.07-0.09s0.09-0.04,0.15-0.04
			c0.04,0,0.09,0,0.14,0.01l-0.02,0.13c-0.03,0-0.06-0.01-0.09-0.01c-0.04,0-0.08,0.01-0.09,0.03c-0.02,0.02-0.03,0.05-0.03,0.11
			v0.08h0.17v0.11h-0.17v0.75H92.76z"/>
		<path d="M93.23,24.49v-0.17h0.17v0.17H93.23z M93.23,25.19v-0.17h0.17v0.17H93.23z"/>
		<path d="M94.16,25.19v-0.17h0.17v0.17H94.16z"/>
		<path d="M94.57,24.91l0.14-0.01c0.01,0.07,0.04,0.11,0.07,0.14s0.08,0.04,0.13,0.04c0.05,0,0.08-0.01,0.12-0.03
			c0.03-0.02,0.06-0.05,0.08-0.08c0.02-0.03,0.04-0.08,0.06-0.14c0.01-0.06,0.02-0.12,0.02-0.18c0-0.01,0-0.02,0-0.03
			c-0.03,0.05-0.07,0.08-0.12,0.11s-0.11,0.04-0.17,0.04c-0.1,0-0.18-0.04-0.25-0.11c-0.07-0.07-0.1-0.17-0.1-0.28
			c0-0.12,0.04-0.22,0.11-0.29c0.07-0.07,0.16-0.11,0.27-0.11c0.08,0,0.15,0.02,0.21,0.06s0.11,0.1,0.15,0.18
			c0.03,0.08,0.05,0.19,0.05,0.34c0,0.15-0.02,0.28-0.05,0.37s-0.08,0.16-0.15,0.21c-0.07,0.05-0.14,0.07-0.23,0.07
			c-0.09,0-0.17-0.03-0.23-0.08S94.58,25.01,94.57,24.91z M95.17,24.38c0-0.08-0.02-0.15-0.07-0.2c-0.04-0.05-0.1-0.08-0.16-0.08
			c-0.07,0-0.12,0.03-0.17,0.08c-0.05,0.05-0.07,0.12-0.07,0.21c0,0.08,0.02,0.14,0.07,0.19c0.05,0.05,0.1,0.07,0.17,0.07
			s0.12-0.02,0.17-0.07C95.15,24.54,95.17,24.47,95.17,24.38z"/>
		<path d="M95.5,24.91l0.14-0.01c0.01,0.07,0.04,0.11,0.07,0.14s0.08,0.04,0.13,0.04c0.05,0,0.08-0.01,0.12-0.03
			c0.03-0.02,0.06-0.05,0.08-0.08c0.02-0.03,0.04-0.08,0.06-0.14c0.01-0.06,0.02-0.12,0.02-0.18c0-0.01,0-0.02,0-0.03
			c-0.03,0.05-0.07,0.08-0.12,0.11s-0.11,0.04-0.17,0.04c-0.1,0-0.18-0.04-0.25-0.11c-0.07-0.07-0.1-0.17-0.1-0.28
			c0-0.12,0.04-0.22,0.11-0.29c0.07-0.07,0.16-0.11,0.27-0.11c0.08,0,0.15,0.02,0.21,0.06s0.11,0.1,0.15,0.18
			c0.03,0.08,0.05,0.19,0.05,0.34c0,0.15-0.02,0.28-0.05,0.37s-0.08,0.16-0.15,0.21c-0.07,0.05-0.14,0.07-0.23,0.07
			c-0.09,0-0.17-0.03-0.23-0.08S95.51,25.01,95.5,24.91z M96.1,24.38c0-0.08-0.02-0.15-0.07-0.2c-0.04-0.05-0.1-0.08-0.16-0.08
			c-0.07,0-0.12,0.03-0.17,0.08c-0.05,0.05-0.07,0.12-0.07,0.21c0,0.08,0.02,0.14,0.07,0.19c0.05,0.05,0.1,0.07,0.17,0.07
			s0.12-0.02,0.17-0.07C96.08,24.54,96.1,24.47,96.1,24.38z"/>
	</g>
</g>
<g id="pred_n">
	<rect x="103.63" y="6.1" class="st5" width="11.64" height="14.71"/>
	<rect x="103.63" y="20.81" class="st6" width="7.6" height="4.2"/>
	<g class="st7">
		<path d="M104.21,22.56v-1.2h0.15v1.2H104.21z"/>
		<path d="M105.18,22.28l0.15,0.02c-0.02,0.09-0.07,0.16-0.13,0.21c-0.07,0.05-0.15,0.07-0.25,0.07c-0.13,0-0.23-0.04-0.3-0.12
			s-0.11-0.19-0.11-0.33c0-0.15,0.04-0.26,0.11-0.34c0.08-0.08,0.17-0.12,0.29-0.12c0.12,0,0.21,0.04,0.28,0.12s0.11,0.19,0.11,0.33
			c0,0.01,0,0.02,0,0.04h-0.65c0.01,0.1,0.03,0.17,0.08,0.22s0.11,0.08,0.18,0.08c0.05,0,0.1-0.01,0.14-0.04
			C105.13,22.39,105.16,22.34,105.18,22.28z M104.7,22.04h0.48c-0.01-0.07-0.03-0.13-0.06-0.16c-0.05-0.06-0.11-0.08-0.18-0.08
			c-0.07,0-0.12,0.02-0.17,0.07C104.73,21.91,104.7,21.96,104.7,22.04z"/>
		<path d="M105.84,22.43l0.02,0.13c-0.04,0.01-0.08,0.01-0.11,0.01c-0.05,0-0.09-0.01-0.12-0.03c-0.03-0.02-0.05-0.04-0.06-0.07
			c-0.01-0.03-0.02-0.09-0.02-0.17v-0.5h-0.11v-0.11h0.11v-0.21l0.15-0.09v0.3h0.15v0.11h-0.15v0.51c0,0.04,0,0.07,0.01,0.08
			c0,0.01,0.01,0.02,0.03,0.03s0.03,0.01,0.05,0.01C105.79,22.43,105.81,22.43,105.84,22.43z"/>
		<path d="M106.31,22.43l0.02,0.13c-0.04,0.01-0.08,0.01-0.11,0.01c-0.05,0-0.09-0.01-0.12-0.03c-0.03-0.02-0.05-0.04-0.06-0.07
			c-0.01-0.03-0.02-0.09-0.02-0.17v-0.5h-0.11v-0.11h0.11v-0.21l0.15-0.09v0.3h0.15v0.11h-0.15v0.51c0,0.04,0,0.07,0.01,0.08
			c0.01,0.01,0.01,0.02,0.03,0.03s0.03,0.01,0.05,0.01C106.26,22.43,106.28,22.43,106.31,22.43z"/>
		<path d="M107.04,22.28l0.15,0.02c-0.02,0.09-0.07,0.16-0.13,0.21c-0.07,0.05-0.15,0.07-0.25,0.07c-0.13,0-0.23-0.04-0.3-0.12
			s-0.11-0.19-0.11-0.33c0-0.15,0.04-0.26,0.11-0.34c0.08-0.08,0.17-0.12,0.29-0.12c0.12,0,0.21,0.04,0.28,0.12s0.11,0.19,0.11,0.33
			c0,0.01,0,0.02,0,0.04h-0.65c0.01,0.1,0.03,0.17,0.08,0.22s0.11,0.08,0.18,0.08c0.05,0,0.1-0.01,0.14-0.04
			C106.99,22.39,107.02,22.34,107.04,22.28z M106.56,22.04h0.48c-0.01-0.07-0.03-0.13-0.06-0.16c-0.05-0.06-0.11-0.08-0.18-0.08
			c-0.07,0-0.12,0.02-0.17,0.07C106.59,21.91,106.57,21.96,106.56,22.04z"/>
		<path d="M107.38,22.56v-0.87h0.13v0.13c0.03-0.06,0.06-0.1,0.09-0.12c0.03-0.02,0.06-0.03,0.09-0.03c0.05,0,0.1,0.02,0.15,0.05
			l-0.05,0.14c-0.04-0.02-0.07-0.03-0.11-0.03c-0.03,0-0.06,0.01-0.09,0.03s-0.04,0.05-0.05,0.08c-0.02,0.05-0.02,0.11-0.02,0.17
			v0.45H107.38z"/>
		<path d="M107.98,21.86v-0.17h0.17v0.17H107.98z M107.98,22.56v-0.17h0.17v0.17H107.98z"/>
		<path d="M109.43,22.45c-0.05,0.05-0.11,0.08-0.16,0.1c-0.05,0.02-0.1,0.03-0.16,0.03c-0.1,0-0.17-0.02-0.22-0.07
			c-0.05-0.05-0.08-0.11-0.08-0.18c0-0.04,0.01-0.08,0.03-0.12s0.04-0.06,0.08-0.08c0.03-0.02,0.07-0.04,0.11-0.05
			c0.03-0.01,0.07-0.01,0.13-0.02c0.12-0.01,0.21-0.03,0.26-0.05c0-0.02,0-0.03,0-0.04c0-0.06-0.01-0.1-0.04-0.13
			c-0.04-0.03-0.09-0.05-0.17-0.05c-0.07,0-0.12,0.01-0.15,0.04c-0.03,0.02-0.06,0.07-0.07,0.13l-0.14-0.02
			c0.01-0.06,0.04-0.11,0.06-0.15c0.03-0.04,0.07-0.07,0.13-0.09s0.12-0.03,0.2-0.03s0.13,0.01,0.18,0.03
			c0.05,0.02,0.08,0.04,0.1,0.07s0.04,0.06,0.05,0.1c0,0.02,0.01,0.07,0.01,0.14v0.2c0,0.14,0,0.22,0.01,0.26
			c0.01,0.04,0.02,0.07,0.04,0.1h-0.15C109.45,22.53,109.44,22.49,109.43,22.45z M109.42,22.12c-0.05,0.02-0.13,0.04-0.24,0.06
			c-0.06,0.01-0.1,0.02-0.13,0.03c-0.02,0.01-0.04,0.03-0.06,0.05c-0.01,0.02-0.02,0.04-0.02,0.07c0,0.04,0.01,0.07,0.04,0.1
			c0.03,0.03,0.07,0.04,0.13,0.04s0.11-0.01,0.15-0.04s0.08-0.06,0.1-0.1c0.02-0.03,0.02-0.08,0.02-0.15V22.12z"/>
	</g>
	<g class="st7">
		<path d="M104.78,24.24l0.14,0.02c-0.02,0.1-0.06,0.18-0.12,0.23c-0.07,0.06-0.15,0.08-0.24,0.08c-0.12,0-0.21-0.04-0.29-0.12
			c-0.07-0.08-0.11-0.19-0.11-0.33c0-0.09,0.02-0.18,0.05-0.25c0.03-0.07,0.08-0.12,0.14-0.16s0.13-0.05,0.21-0.05
			c0.09,0,0.17,0.02,0.23,0.07c0.06,0.05,0.1,0.12,0.12,0.2l-0.14,0.02c-0.01-0.06-0.04-0.1-0.07-0.13
			c-0.03-0.03-0.08-0.04-0.12-0.04c-0.07,0-0.13,0.03-0.18,0.08c-0.05,0.05-0.07,0.14-0.07,0.25c0,0.12,0.02,0.2,0.07,0.25
			s0.1,0.08,0.17,0.08c0.06,0,0.11-0.02,0.15-0.05C104.75,24.37,104.77,24.31,104.78,24.24z"/>
		<path d="M105,24.12c0-0.16,0.04-0.28,0.13-0.36c0.08-0.06,0.17-0.1,0.27-0.1c0.12,0,0.22,0.04,0.29,0.12
			c0.08,0.08,0.11,0.19,0.11,0.32c0,0.11-0.02,0.2-0.05,0.26c-0.03,0.06-0.08,0.11-0.15,0.15c-0.06,0.04-0.13,0.05-0.21,0.05
			c-0.12,0-0.22-0.04-0.29-0.12C105.04,24.38,105,24.27,105,24.12z M105.15,24.12c0,0.11,0.02,0.2,0.07,0.25
			c0.05,0.06,0.11,0.08,0.18,0.08s0.13-0.03,0.18-0.08c0.05-0.06,0.07-0.14,0.07-0.25c0-0.11-0.02-0.19-0.07-0.24
			c-0.05-0.06-0.11-0.08-0.18-0.08c-0.07,0-0.13,0.03-0.18,0.08C105.17,23.93,105.15,24.01,105.15,24.12z"/>
		<path d="M105.98,24.56v-0.87h0.13v0.12c0.06-0.09,0.16-0.14,0.28-0.14c0.05,0,0.1,0.01,0.14,0.03c0.04,0.02,0.08,0.04,0.1,0.07
			c0.02,0.03,0.04,0.07,0.05,0.11c0,0.03,0.01,0.08,0.01,0.14v0.53h-0.15v-0.53c0-0.06-0.01-0.1-0.02-0.13
			c-0.01-0.03-0.03-0.05-0.06-0.07c-0.03-0.02-0.06-0.03-0.1-0.03c-0.06,0-0.12,0.02-0.16,0.06c-0.04,0.04-0.07,0.12-0.07,0.23v0.47
			H105.98z"/>
		<path d="M106.95,24.56V23.8h-0.13v-0.11h0.13V23.6c0-0.06,0.01-0.1,0.02-0.13c0.01-0.04,0.04-0.07,0.08-0.09
			c0.04-0.02,0.09-0.04,0.15-0.04c0.04,0,0.09,0,0.14,0.01l-0.02,0.13c-0.03,0-0.06-0.01-0.09-0.01c-0.04,0-0.08,0.01-0.09,0.03
			c-0.02,0.02-0.03,0.05-0.03,0.11v0.08h0.17v0.11h-0.17v0.75H106.95z"/>
		<path d="M107.42,23.86v-0.17h0.17v0.17H107.42z M107.42,24.56v-0.17h0.17v0.17H107.42z"/>
		<path d="M108.35,24.56v-0.17h0.17v0.17H108.35z"/>
		<path d="M108.96,23.91c-0.06-0.02-0.11-0.05-0.14-0.1c-0.03-0.04-0.04-0.09-0.04-0.15c0-0.09,0.03-0.16,0.09-0.22
			s0.15-0.09,0.25-0.09s0.19,0.03,0.25,0.09c0.06,0.06,0.1,0.13,0.1,0.22c0,0.06-0.01,0.1-0.04,0.15s-0.07,0.07-0.13,0.09
			c0.07,0.02,0.13,0.06,0.17,0.12c0.04,0.05,0.06,0.12,0.06,0.19c0,0.1-0.04,0.19-0.11,0.26c-0.07,0.07-0.17,0.1-0.29,0.1
			c-0.12,0-0.21-0.04-0.29-0.11c-0.07-0.07-0.11-0.16-0.11-0.26c0-0.08,0.02-0.14,0.06-0.2C108.83,23.96,108.89,23.93,108.96,23.91z
			 M108.88,24.21c0,0.04,0.01,0.08,0.03,0.12c0.02,0.04,0.05,0.07,0.09,0.09c0.04,0.02,0.08,0.03,0.13,0.03
			c0.07,0,0.13-0.02,0.17-0.07c0.04-0.05,0.07-0.1,0.07-0.17c0-0.07-0.02-0.13-0.07-0.18c-0.05-0.05-0.11-0.07-0.18-0.07
			c-0.07,0-0.13,0.02-0.17,0.07S108.88,24.14,108.88,24.21z M108.93,23.66c0,0.06,0.02,0.1,0.05,0.14c0.04,0.04,0.08,0.05,0.14,0.05
			c0.06,0,0.1-0.02,0.14-0.05c0.04-0.04,0.05-0.08,0.05-0.13c0-0.05-0.02-0.1-0.06-0.14c-0.04-0.04-0.08-0.05-0.14-0.05
			c-0.06,0-0.1,0.02-0.14,0.05S108.93,23.61,108.93,23.66z"/>
	</g>
</g>
<g id="pred_Z">
	<rect x="117.71" y="1.8" class="st5" width="13.75" height="19.01"/>
	<rect x="117.71" y="21.09" class="st6" width="7.6" height="4.2"/>
	<g class="st7">
		<path d="M118.29,22.83v-1.2h0.15v1.2H118.29z"/>
		<path d="M119.26,22.56l0.15,0.02c-0.02,0.09-0.07,0.16-0.13,0.21c-0.06,0.05-0.15,0.07-0.25,0.07c-0.13,0-0.23-0.04-0.3-0.12
			c-0.07-0.08-0.11-0.19-0.11-0.33c0-0.15,0.04-0.26,0.11-0.34c0.08-0.08,0.17-0.12,0.29-0.12c0.12,0,0.21,0.04,0.29,0.12
			c0.07,0.08,0.11,0.19,0.11,0.33c0,0.01,0,0.02,0,0.04h-0.65c0,0.1,0.03,0.17,0.08,0.22c0.05,0.05,0.11,0.08,0.18,0.08
			c0.05,0,0.1-0.01,0.14-0.04S119.24,22.62,119.26,22.56z M118.77,22.32h0.49c-0.01-0.07-0.03-0.13-0.06-0.16
			c-0.05-0.06-0.11-0.08-0.18-0.08c-0.07,0-0.12,0.02-0.17,0.07C118.8,22.18,118.78,22.24,118.77,22.32z"/>
		<path d="M119.92,22.7l0.02,0.13c-0.04,0.01-0.08,0.01-0.11,0.01c-0.05,0-0.09-0.01-0.12-0.03c-0.03-0.02-0.05-0.04-0.06-0.07
			c-0.01-0.03-0.02-0.09-0.02-0.17v-0.5h-0.11v-0.11h0.11v-0.21l0.15-0.09v0.3h0.15v0.11h-0.15v0.51c0,0.04,0,0.07,0.01,0.08
			c0.01,0.01,0.01,0.02,0.03,0.03s0.03,0.01,0.05,0.01C119.87,22.71,119.89,22.71,119.92,22.7z"/>
		<path d="M120.38,22.7l0.02,0.13c-0.04,0.01-0.08,0.01-0.11,0.01c-0.05,0-0.09-0.01-0.12-0.03c-0.03-0.02-0.05-0.04-0.06-0.07
			c-0.01-0.03-0.02-0.09-0.02-0.17v-0.5h-0.11v-0.11h0.11v-0.21l0.15-0.09v0.3h0.15v0.11h-0.15v0.51c0,0.04,0,0.07,0.01,0.08
			c0,0.01,0.01,0.02,0.03,0.03s0.03,0.01,0.05,0.01C120.33,22.71,120.35,22.71,120.38,22.7z"/>
		<path d="M121.12,22.56l0.15,0.02c-0.02,0.09-0.07,0.16-0.13,0.21c-0.06,0.05-0.15,0.07-0.25,0.07c-0.13,0-0.23-0.04-0.3-0.12
			c-0.07-0.08-0.11-0.19-0.11-0.33c0-0.15,0.04-0.26,0.11-0.34c0.08-0.08,0.17-0.12,0.29-0.12c0.12,0,0.21,0.04,0.29,0.12
			c0.07,0.08,0.11,0.19,0.11,0.33c0,0.01,0,0.02,0,0.04h-0.65c0,0.1,0.03,0.17,0.08,0.22c0.05,0.05,0.11,0.08,0.18,0.08
			c0.05,0,0.1-0.01,0.14-0.04S121.1,22.62,121.12,22.56z M120.64,22.32h0.49c-0.01-0.07-0.03-0.13-0.06-0.16
			c-0.05-0.06-0.11-0.08-0.18-0.08c-0.07,0-0.12,0.02-0.17,0.07C120.67,22.18,120.64,22.24,120.64,22.32z"/>
		<path d="M121.46,22.83v-0.87h0.13v0.13c0.03-0.06,0.07-0.1,0.09-0.12s0.06-0.03,0.09-0.03c0.05,0,0.1,0.02,0.15,0.05l-0.05,0.14
			c-0.04-0.02-0.07-0.03-0.11-0.03c-0.03,0-0.06,0.01-0.09,0.03c-0.03,0.02-0.04,0.05-0.06,0.08c-0.02,0.05-0.02,0.11-0.02,0.17
			v0.45H121.46z"/>
		<path d="M122.05,22.13v-0.17h0.17v0.17H122.05z M122.05,22.83v-0.17h0.17v0.17H122.05z"/>
		<path d="M122.87,22.83v-0.15l0.61-0.77c0.04-0.05,0.08-0.1,0.12-0.14h-0.67v-0.14h0.86v0.14l-0.67,0.83l-0.07,0.08h0.76v0.14
			H122.87z"/>
	</g>
	<g class="st7">
		<path d="M118.86,24.52l0.15,0.02c-0.02,0.1-0.06,0.18-0.12,0.23c-0.06,0.06-0.14,0.08-0.24,0.08c-0.12,0-0.21-0.04-0.29-0.12
			c-0.07-0.08-0.11-0.19-0.11-0.33c0-0.09,0.02-0.18,0.05-0.25s0.08-0.12,0.14-0.16s0.13-0.05,0.21-0.05c0.09,0,0.17,0.02,0.23,0.07
			c0.06,0.05,0.1,0.12,0.12,0.2l-0.14,0.02c-0.01-0.06-0.04-0.1-0.07-0.13c-0.04-0.03-0.08-0.04-0.13-0.04
			c-0.07,0-0.13,0.03-0.18,0.08c-0.05,0.05-0.07,0.14-0.07,0.25c0,0.12,0.02,0.2,0.07,0.25s0.1,0.08,0.17,0.08
			c0.06,0,0.11-0.02,0.14-0.05C118.82,24.64,118.85,24.59,118.86,24.52z"/>
		<path d="M119.07,24.4c0-0.16,0.04-0.28,0.13-0.36c0.07-0.06,0.17-0.1,0.27-0.1c0.12,0,0.22,0.04,0.29,0.12
			c0.08,0.08,0.11,0.19,0.11,0.32c0,0.11-0.02,0.2-0.05,0.26c-0.03,0.06-0.08,0.11-0.15,0.15c-0.06,0.04-0.13,0.05-0.21,0.05
			c-0.12,0-0.22-0.04-0.29-0.12C119.11,24.66,119.07,24.55,119.07,24.4z M119.23,24.4c0,0.11,0.02,0.2,0.07,0.25
			c0.05,0.06,0.11,0.08,0.18,0.08c0.07,0,0.13-0.03,0.18-0.08c0.05-0.06,0.07-0.14,0.07-0.25c0-0.11-0.02-0.19-0.07-0.24
			c-0.05-0.06-0.11-0.08-0.18-0.08c-0.07,0-0.13,0.03-0.18,0.08S119.23,24.29,119.23,24.4z"/>
		<path d="M120.06,24.83v-0.87h0.13v0.12c0.06-0.09,0.16-0.14,0.28-0.14c0.05,0,0.1,0.01,0.14,0.03c0.04,0.02,0.08,0.04,0.1,0.07
			c0.02,0.03,0.04,0.07,0.04,0.11c0.01,0.03,0.01,0.08,0.01,0.14v0.53h-0.15v-0.53c0-0.06-0.01-0.1-0.02-0.13
			c-0.01-0.03-0.03-0.05-0.06-0.07c-0.03-0.02-0.06-0.03-0.1-0.03c-0.06,0-0.12,0.02-0.16,0.06c-0.05,0.04-0.07,0.12-0.07,0.23v0.47
			H120.06z"/>
		<path d="M121.03,24.83v-0.75h-0.13v-0.11h0.13v-0.09c0-0.06,0-0.1,0.02-0.13c0.01-0.04,0.04-0.07,0.07-0.09
			c0.04-0.02,0.09-0.04,0.15-0.04c0.04,0,0.09,0,0.14,0.01l-0.02,0.13c-0.03,0-0.06-0.01-0.09-0.01c-0.04,0-0.08,0.01-0.09,0.03
			c-0.02,0.02-0.03,0.05-0.03,0.11v0.08h0.17v0.11h-0.17v0.75H121.03z"/>
		<path d="M121.5,24.13v-0.17h0.17v0.17H121.5z M121.5,24.83v-0.17h0.17v0.17H121.5z"/>
		<path d="M122.43,24.83v-0.17h0.17v0.17H122.43z"/>
		<path d="M122.83,24.56l0.14-0.01c0.01,0.07,0.04,0.11,0.07,0.14c0.03,0.03,0.08,0.04,0.13,0.04c0.05,0,0.08-0.01,0.12-0.03
			s0.06-0.05,0.08-0.08c0.02-0.03,0.04-0.08,0.05-0.14c0.01-0.06,0.02-0.12,0.02-0.18c0-0.01,0-0.02,0-0.03
			c-0.03,0.05-0.07,0.08-0.12,0.11s-0.11,0.04-0.17,0.04c-0.1,0-0.18-0.04-0.25-0.11c-0.07-0.07-0.1-0.17-0.1-0.28
			c0-0.12,0.04-0.22,0.11-0.29c0.07-0.07,0.16-0.11,0.27-0.11c0.08,0,0.15,0.02,0.21,0.06s0.11,0.1,0.15,0.18
			c0.03,0.08,0.05,0.19,0.05,0.34c0,0.15-0.02,0.28-0.05,0.37s-0.08,0.16-0.15,0.21c-0.07,0.05-0.14,0.07-0.23,0.07
			c-0.09,0-0.17-0.03-0.23-0.08S122.84,24.65,122.83,24.56z M123.44,24.03c0-0.08-0.02-0.15-0.07-0.2c-0.04-0.05-0.1-0.08-0.16-0.08
			c-0.07,0-0.12,0.03-0.17,0.08c-0.05,0.05-0.07,0.12-0.07,0.21c0,0.08,0.02,0.14,0.07,0.19c0.05,0.05,0.1,0.07,0.17,0.07
			c0.07,0,0.12-0.02,0.17-0.07C123.41,24.18,123.44,24.11,123.44,24.03z"/>
		<path d="M123.76,24.56l0.14-0.01c0.01,0.07,0.04,0.11,0.07,0.14c0.03,0.03,0.08,0.04,0.13,0.04c0.04,0,0.08-0.01,0.12-0.03
			c0.03-0.02,0.06-0.05,0.08-0.08c0.02-0.03,0.04-0.08,0.06-0.14c0.01-0.06,0.02-0.12,0.02-0.18c0-0.01,0-0.02,0-0.03
			c-0.03,0.05-0.07,0.08-0.12,0.11s-0.11,0.04-0.17,0.04c-0.1,0-0.18-0.04-0.25-0.11c-0.07-0.07-0.1-0.17-0.1-0.28
			c0-0.12,0.04-0.22,0.11-0.29c0.07-0.07,0.16-0.11,0.27-0.11c0.08,0,0.15,0.02,0.21,0.06s0.11,0.1,0.15,0.18
			c0.03,0.08,0.05,0.19,0.05,0.34c0,0.15-0.02,0.28-0.05,0.37s-0.08,0.16-0.15,0.21c-0.07,0.05-0.14,0.07-0.23,0.07
			c-0.09,0-0.17-0.03-0.23-0.08S123.78,24.65,123.76,24.56z M124.37,24.03c0-0.08-0.02-0.15-0.07-0.2c-0.04-0.05-0.1-0.08-0.16-0.08
			c-0.07,0-0.12,0.03-0.17,0.08c-0.05,0.05-0.07,0.12-0.07,0.21c0,0.08,0.02,0.14,0.07,0.19c0.05,0.05,0.1,0.07,0.17,0.07
			c0.07,0,0.12-0.02,0.17-0.07C124.34,24.18,124.37,24.11,124.37,24.03z"/>
	</g>
</g>
<g id="Layer_2">
	<rect x="143.07" y="17.14" width="3.59" height="3.59"/>
	<path class="st8" d="M143.07,17.14v3.59h0.72v-3.59H143.07z M144.51,17.14v3.59h0.72v-3.59H144.51z M145.95,17.14v3.59h0.72v-3.59
		H145.95z M143.07,17.14h3.59v0.72h-3.59V17.14z M143.07,18.58h3.59v0.72h-3.59V18.58z M143.07,20.02h3.59v0.72h-3.59V20.02z"/>
</g>
<g id="pred_o_1_">
	<rect x="132.74" y="6.13" class="st9" width="14.4" height="15.07"/>
	<rect x="132.74" y="21.2" class="st10" width="7.6" height="4.2"/>
	<g class="st7">
		<path d="M133.33,22.94v-1.2h0.15v1.2H133.33z"/>
		<path d="M134.29,22.66l0.15,0.02c-0.02,0.09-0.07,0.16-0.13,0.21c-0.06,0.05-0.15,0.07-0.25,0.07c-0.13,0-0.23-0.04-0.3-0.12
			c-0.07-0.08-0.11-0.19-0.11-0.33c0-0.15,0.04-0.26,0.11-0.34c0.08-0.08,0.17-0.12,0.29-0.12c0.12,0,0.21,0.04,0.29,0.12
			c0.07,0.08,0.11,0.19,0.11,0.33c0,0.01,0,0.02,0,0.04h-0.65c0,0.1,0.03,0.17,0.08,0.22c0.05,0.05,0.11,0.08,0.18,0.08
			c0.05,0,0.1-0.01,0.14-0.04S134.27,22.72,134.29,22.66z M133.81,22.42h0.49c-0.01-0.07-0.03-0.13-0.06-0.16
			c-0.05-0.06-0.11-0.08-0.18-0.08c-0.07,0-0.12,0.02-0.17,0.07C133.84,22.29,133.82,22.35,133.81,22.42z"/>
		<path d="M134.95,22.81l0.02,0.13c-0.04,0.01-0.08,0.01-0.11,0.01c-0.05,0-0.09-0.01-0.12-0.03c-0.03-0.02-0.05-0.04-0.06-0.07
			c-0.01-0.03-0.02-0.09-0.02-0.17v-0.5h-0.11v-0.11h0.11v-0.21l0.15-0.09v0.3h0.15v0.11h-0.15v0.51c0,0.04,0,0.07,0.01,0.08
			c0.01,0.01,0.01,0.02,0.03,0.03s0.03,0.01,0.05,0.01C134.9,22.82,134.93,22.81,134.95,22.81z"/>
		<path d="M135.42,22.81l0.02,0.13c-0.04,0.01-0.08,0.01-0.11,0.01c-0.05,0-0.09-0.01-0.12-0.03c-0.03-0.02-0.05-0.04-0.06-0.07
			c-0.01-0.03-0.02-0.09-0.02-0.17v-0.5h-0.11v-0.11h0.11v-0.21l0.15-0.09v0.3h0.15v0.11h-0.15v0.51c0,0.04,0,0.07,0.01,0.08
			c0,0.01,0.01,0.02,0.03,0.03s0.03,0.01,0.05,0.01C135.37,22.82,135.39,22.81,135.42,22.81z"/>
		<path d="M136.16,22.66l0.15,0.02c-0.02,0.09-0.07,0.16-0.13,0.21c-0.06,0.05-0.15,0.07-0.25,0.07c-0.13,0-0.23-0.04-0.3-0.12
			c-0.07-0.08-0.11-0.19-0.11-0.33c0-0.15,0.04-0.26,0.11-0.34c0.08-0.08,0.17-0.12,0.29-0.12c0.12,0,0.21,0.04,0.29,0.12
			c0.07,0.08,0.11,0.19,0.11,0.33c0,0.01,0,0.02,0,0.04h-0.65c0,0.1,0.03,0.17,0.08,0.22c0.05,0.05,0.11,0.08,0.18,0.08
			c0.05,0,0.1-0.01,0.14-0.04S136.13,22.72,136.16,22.66z M135.67,22.42h0.49c-0.01-0.07-0.03-0.13-0.06-0.16
			c-0.05-0.06-0.11-0.08-0.18-0.08c-0.07,0-0.12,0.02-0.17,0.07C135.7,22.29,135.68,22.35,135.67,22.42z"/>
		<path d="M136.49,22.94v-0.87h0.13v0.13c0.03-0.06,0.07-0.1,0.09-0.12s0.06-0.03,0.09-0.03c0.05,0,0.1,0.02,0.15,0.05l-0.05,0.14
			c-0.04-0.02-0.07-0.03-0.11-0.03c-0.03,0-0.06,0.01-0.09,0.03c-0.03,0.02-0.04,0.05-0.06,0.08c-0.02,0.05-0.02,0.11-0.02,0.17
			v0.45H136.49z"/>
		<path d="M137.09,22.24v-0.17h0.17v0.17H137.09z M137.09,22.94v-0.17h0.17v0.17H137.09z"/>
		<path d="M137.88,22.94l0.46-0.62l-0.41-0.57h0.19l0.22,0.31c0.05,0.06,0.08,0.11,0.1,0.15c0.03-0.04,0.06-0.09,0.09-0.14
			l0.24-0.32h0.17l-0.42,0.56l0.45,0.63h-0.2l-0.3-0.43c-0.02-0.02-0.04-0.05-0.05-0.08c-0.03,0.04-0.05,0.07-0.06,0.09l-0.3,0.42
			H137.88z"/>
	</g>
	<g class="st7">
		<path d="M133.89,24.62l0.15,0.02c-0.02,0.1-0.06,0.18-0.12,0.23c-0.06,0.06-0.14,0.08-0.24,0.08c-0.12,0-0.21-0.04-0.29-0.12
			c-0.07-0.08-0.11-0.19-0.11-0.33c0-0.09,0.02-0.18,0.05-0.25s0.08-0.12,0.14-0.16s0.13-0.05,0.21-0.05c0.09,0,0.17,0.02,0.23,0.07
			c0.06,0.05,0.1,0.12,0.12,0.2l-0.14,0.02c-0.01-0.06-0.04-0.1-0.07-0.13c-0.04-0.03-0.08-0.04-0.13-0.04
			c-0.07,0-0.13,0.03-0.18,0.08c-0.05,0.05-0.07,0.14-0.07,0.25c0,0.12,0.02,0.2,0.07,0.25s0.1,0.08,0.17,0.08
			c0.06,0,0.11-0.02,0.14-0.05C133.86,24.75,133.88,24.7,133.89,24.62z"/>
		<path d="M134.11,24.51c0-0.16,0.04-0.28,0.13-0.36c0.07-0.06,0.17-0.1,0.27-0.1c0.12,0,0.22,0.04,0.29,0.12
			c0.08,0.08,0.11,0.19,0.11,0.32c0,0.11-0.02,0.2-0.05,0.26c-0.03,0.06-0.08,0.11-0.15,0.15c-0.06,0.04-0.13,0.05-0.21,0.05
			c-0.12,0-0.22-0.04-0.29-0.12C134.15,24.77,134.11,24.65,134.11,24.51z M134.26,24.51c0,0.11,0.02,0.2,0.07,0.25
			c0.05,0.06,0.11,0.08,0.18,0.08c0.07,0,0.13-0.03,0.18-0.08c0.05-0.06,0.07-0.14,0.07-0.25c0-0.11-0.02-0.19-0.07-0.24
			c-0.05-0.06-0.11-0.08-0.18-0.08c-0.07,0-0.13,0.03-0.18,0.08S134.26,24.4,134.26,24.51z"/>
		<path d="M135.1,24.94v-0.87h0.13v0.12c0.06-0.09,0.16-0.14,0.28-0.14c0.05,0,0.1,0.01,0.14,0.03c0.04,0.02,0.08,0.04,0.1,0.07
			c0.02,0.03,0.04,0.07,0.04,0.11c0.01,0.03,0.01,0.08,0.01,0.14v0.53h-0.15v-0.53c0-0.06-0.01-0.1-0.02-0.13
			c-0.01-0.03-0.03-0.05-0.06-0.07c-0.03-0.02-0.06-0.03-0.1-0.03c-0.06,0-0.12,0.02-0.16,0.06c-0.05,0.04-0.07,0.12-0.07,0.23v0.47
			H135.1z"/>
		<path d="M136.06,24.94v-0.75h-0.13v-0.11h0.13v-0.09c0-0.06,0-0.1,0.02-0.13c0.01-0.04,0.04-0.07,0.07-0.09
			c0.04-0.02,0.09-0.04,0.15-0.04c0.04,0,0.09,0,0.14,0.01l-0.02,0.13c-0.03,0-0.06-0.01-0.09-0.01c-0.04,0-0.08,0.01-0.09,0.03
			c-0.02,0.02-0.03,0.05-0.03,0.11v0.08h0.17v0.11h-0.17v0.75H136.06z"/>
		<path d="M136.53,24.24v-0.17h0.17v0.17H136.53z M136.53,24.94v-0.17h0.17v0.17H136.53z"/>
		<path d="M137.46,24.94v-0.17h0.17v0.17H137.46z"/>
		<path d="M137.87,24.66l0.14-0.01c0.01,0.07,0.04,0.11,0.07,0.14c0.03,0.03,0.08,0.04,0.13,0.04c0.05,0,0.08-0.01,0.12-0.03
			s0.06-0.05,0.08-0.08c0.02-0.03,0.04-0.08,0.05-0.14c0.01-0.06,0.02-0.12,0.02-0.18c0-0.01,0-0.02,0-0.03
			c-0.03,0.05-0.07,0.08-0.12,0.11s-0.11,0.04-0.17,0.04c-0.1,0-0.18-0.04-0.25-0.11c-0.07-0.07-0.1-0.17-0.1-0.28
			c0-0.12,0.04-0.22,0.11-0.29c0.07-0.07,0.16-0.11,0.27-0.11c0.08,0,0.15,0.02,0.21,0.06s0.11,0.1,0.15,0.18
			c0.03,0.08,0.05,0.19,0.05,0.34c0,0.15-0.02,0.28-0.05,0.37s-0.08,0.16-0.15,0.21c-0.07,0.05-0.14,0.07-0.23,0.07
			c-0.09,0-0.17-0.03-0.23-0.08S137.88,24.76,137.87,24.66z M138.47,24.14c0-0.08-0.02-0.15-0.07-0.2c-0.04-0.05-0.1-0.08-0.16-0.08
			c-0.07,0-0.12,0.03-0.17,0.08c-0.05,0.05-0.07,0.12-0.07,0.21c0,0.08,0.02,0.14,0.07,0.19c0.05,0.05,0.1,0.07,0.17,0.07
			c0.07,0,0.12-0.02,0.17-0.07C138.45,24.29,138.47,24.22,138.47,24.14z"/>
		<path d="M138.8,24.66l0.14-0.01c0.01,0.07,0.04,0.11,0.07,0.14c0.03,0.03,0.08,0.04,0.13,0.04c0.04,0,0.08-0.01,0.12-0.03
			c0.03-0.02,0.06-0.05,0.08-0.08c0.02-0.03,0.04-0.08,0.06-0.14c0.01-0.06,0.02-0.12,0.02-0.18c0-0.01,0-0.02,0-0.03
			c-0.03,0.05-0.07,0.08-0.12,0.11s-0.11,0.04-0.17,0.04c-0.1,0-0.18-0.04-0.25-0.11c-0.07-0.07-0.1-0.17-0.1-0.28
			c0-0.12,0.04-0.22,0.11-0.29c0.07-0.07,0.16-0.11,0.27-0.11c0.08,0,0.15,0.02,0.21,0.06s0.11,0.1,0.15,0.18
			c0.03,0.08,0.05,0.19,0.05,0.34c0,0.15-0.02,0.28-0.05,0.37s-0.08,0.16-0.15,0.21c-0.07,0.05-0.14,0.07-0.23,0.07
			c-0.09,0-0.17-0.03-0.23-0.08S138.81,24.76,138.8,24.66z M139.4,24.14c0-0.08-0.02-0.15-0.07-0.2c-0.04-0.05-0.1-0.08-0.16-0.08
			c-0.07,0-0.12,0.03-0.17,0.08c-0.05,0.05-0.07,0.12-0.07,0.21c0,0.08,0.02,0.14,0.07,0.19c0.05,0.05,0.1,0.07,0.17,0.07
			c0.07,0,0.12-0.02,0.17-0.07C139.38,24.29,139.4,24.22,139.4,24.14z"/>
	</g>
</g>
<g id="pred_o_2_">
	<rect x="148.62" y="6.13" class="st5" width="14.4" height="15.07"/>
	<rect x="148.62" y="21.2" class="st6" width="7.6" height="4.2"/>
	<g class="st7">
		<path d="M149.2,22.94v-1.2h0.15v1.2H149.2z"/>
		<path d="M150.17,22.66l0.15,0.02c-0.02,0.09-0.07,0.16-0.13,0.21c-0.06,0.05-0.15,0.07-0.25,0.07c-0.13,0-0.23-0.04-0.3-0.12
			c-0.07-0.08-0.11-0.19-0.11-0.33c0-0.15,0.04-0.26,0.11-0.34c0.08-0.08,0.17-0.12,0.29-0.12c0.12,0,0.21,0.04,0.29,0.12
			c0.07,0.08,0.11,0.19,0.11,0.33c0,0.01,0,0.02,0,0.04h-0.65c0,0.1,0.03,0.17,0.08,0.22c0.05,0.05,0.11,0.08,0.18,0.08
			c0.05,0,0.1-0.01,0.14-0.04S150.15,22.72,150.17,22.66z M149.69,22.42h0.49c-0.01-0.07-0.03-0.13-0.06-0.16
			c-0.05-0.06-0.11-0.08-0.18-0.08c-0.07,0-0.12,0.02-0.17,0.07C149.72,22.29,149.7,22.35,149.69,22.42z"/>
		<path d="M150.83,22.81l0.02,0.13c-0.04,0.01-0.08,0.01-0.11,0.01c-0.05,0-0.09-0.01-0.12-0.03c-0.03-0.02-0.05-0.04-0.06-0.07
			c-0.01-0.03-0.02-0.09-0.02-0.17v-0.5h-0.11v-0.11h0.11v-0.21l0.15-0.09v0.3h0.15v0.11h-0.15v0.51c0,0.04,0,0.07,0.01,0.08
			c0.01,0.01,0.01,0.02,0.03,0.03s0.03,0.01,0.05,0.01C150.78,22.82,150.8,22.81,150.83,22.81z"/>
		<path d="M151.3,22.81l0.02,0.13c-0.04,0.01-0.08,0.01-0.11,0.01c-0.05,0-0.09-0.01-0.12-0.03c-0.03-0.02-0.05-0.04-0.06-0.07
			c-0.01-0.03-0.02-0.09-0.02-0.17v-0.5h-0.11v-0.11H151v-0.21l0.15-0.09v0.3h0.15v0.11h-0.15v0.51c0,0.04,0,0.07,0.01,0.08
			c0,0.01,0.01,0.02,0.03,0.03s0.03,0.01,0.05,0.01C151.25,22.82,151.27,22.81,151.3,22.81z"/>
		<path d="M152.04,22.66l0.15,0.02c-0.02,0.09-0.07,0.16-0.13,0.21c-0.06,0.05-0.15,0.07-0.25,0.07c-0.13,0-0.23-0.04-0.3-0.12
			c-0.07-0.08-0.11-0.19-0.11-0.33c0-0.15,0.04-0.26,0.11-0.34c0.08-0.08,0.17-0.12,0.29-0.12c0.12,0,0.21,0.04,0.29,0.12
			c0.07,0.08,0.11,0.19,0.11,0.33c0,0.01,0,0.02,0,0.04h-0.65c0,0.1,0.03,0.17,0.08,0.22c0.05,0.05,0.11,0.08,0.18,0.08
			c0.05,0,0.1-0.01,0.14-0.04S152.01,22.72,152.04,22.66z M151.55,22.42h0.49c-0.01-0.07-0.03-0.13-0.06-0.16
			c-0.05-0.06-0.11-0.08-0.18-0.08c-0.07,0-0.12,0.02-0.17,0.07C151.58,22.29,151.56,22.35,151.55,22.42z"/>
		<path d="M152.37,22.94v-0.87h0.13v0.13c0.03-0.06,0.07-0.1,0.09-0.12s0.06-0.03,0.09-0.03c0.05,0,0.1,0.02,0.15,0.05l-0.05,0.14
			c-0.04-0.02-0.07-0.03-0.11-0.03c-0.03,0-0.06,0.01-0.09,0.03c-0.03,0.02-0.04,0.05-0.06,0.08c-0.02,0.05-0.02,0.11-0.02,0.17
			v0.45H152.37z"/>
		<path d="M152.97,22.24v-0.17h0.17v0.17H152.97z M152.97,22.94v-0.17h0.17v0.17H152.97z"/>
		<path d="M153.81,22.51c0-0.16,0.04-0.28,0.13-0.36c0.07-0.06,0.17-0.1,0.27-0.1c0.12,0,0.22,0.04,0.29,0.12
			c0.08,0.08,0.11,0.19,0.11,0.32c0,0.11-0.02,0.2-0.05,0.26c-0.03,0.06-0.08,0.11-0.15,0.15c-0.06,0.04-0.13,0.05-0.21,0.05
			c-0.12,0-0.22-0.04-0.29-0.12C153.84,22.77,153.81,22.65,153.81,22.51z M153.96,22.51c0,0.11,0.02,0.2,0.07,0.25
			c0.05,0.06,0.11,0.08,0.18,0.08c0.07,0,0.13-0.03,0.18-0.08c0.05-0.06,0.07-0.14,0.07-0.25c0-0.11-0.02-0.19-0.07-0.24
			c-0.05-0.06-0.11-0.08-0.18-0.08c-0.07,0-0.13,0.03-0.18,0.08S153.96,22.4,153.96,22.51z"/>
	</g>
	<g class="st7">
		<path d="M149.77,24.62l0.15,0.02c-0.02,0.1-0.06,0.18-0.12,0.23c-0.06,0.06-0.14,0.08-0.24,0.08c-0.12,0-0.21-0.04-0.29-0.12
			c-0.07-0.08-0.11-0.19-0.11-0.33c0-0.09,0.02-0.18,0.05-0.25s0.08-0.12,0.14-0.16s0.13-0.05,0.21-0.05c0.09,0,0.17,0.02,0.23,0.07
			c0.06,0.05,0.1,0.12,0.12,0.2l-0.14,0.02c-0.01-0.06-0.04-0.1-0.07-0.13c-0.04-0.03-0.08-0.04-0.13-0.04
			c-0.07,0-0.13,0.03-0.18,0.08c-0.05,0.05-0.07,0.14-0.07,0.25c0,0.12,0.02,0.2,0.07,0.25s0.1,0.08,0.17,0.08
			c0.06,0,0.11-0.02,0.14-0.05C149.74,24.75,149.76,24.7,149.77,24.62z"/>
		<path d="M149.99,24.51c0-0.16,0.04-0.28,0.13-0.36c0.07-0.06,0.17-0.1,0.27-0.1c0.12,0,0.22,0.04,0.29,0.12
			c0.08,0.08,0.11,0.19,0.11,0.32c0,0.11-0.02,0.2-0.05,0.26c-0.03,0.06-0.08,0.11-0.15,0.15c-0.06,0.04-0.13,0.05-0.21,0.05
			c-0.12,0-0.22-0.04-0.29-0.12C150.03,24.77,149.99,24.65,149.99,24.51z M150.14,24.51c0,0.11,0.02,0.2,0.07,0.25
			c0.05,0.06,0.11,0.08,0.18,0.08c0.07,0,0.13-0.03,0.18-0.08c0.05-0.06,0.07-0.14,0.07-0.25c0-0.11-0.02-0.19-0.07-0.24
			c-0.05-0.06-0.11-0.08-0.18-0.08c-0.07,0-0.13,0.03-0.18,0.08S150.14,24.4,150.14,24.51z"/>
		<path d="M150.98,24.94v-0.87h0.13v0.12c0.06-0.09,0.16-0.14,0.28-0.14c0.05,0,0.1,0.01,0.14,0.03c0.04,0.02,0.08,0.04,0.1,0.07
			c0.02,0.03,0.04,0.07,0.04,0.11c0.01,0.03,0.01,0.08,0.01,0.14v0.53h-0.15v-0.53c0-0.06-0.01-0.1-0.02-0.13
			c-0.01-0.03-0.03-0.05-0.06-0.07c-0.03-0.02-0.06-0.03-0.1-0.03c-0.06,0-0.12,0.02-0.16,0.06c-0.05,0.04-0.07,0.12-0.07,0.23v0.47
			H150.98z"/>
		<path d="M151.94,24.94v-0.75h-0.13v-0.11h0.13v-0.09c0-0.06,0-0.1,0.02-0.13c0.01-0.04,0.04-0.07,0.07-0.09
			c0.04-0.02,0.09-0.04,0.15-0.04c0.04,0,0.09,0,0.14,0.01l-0.02,0.13c-0.03,0-0.06-0.01-0.09-0.01c-0.04,0-0.08,0.01-0.09,0.03
			c-0.02,0.02-0.03,0.05-0.03,0.11v0.08h0.17v0.11h-0.17v0.75H151.94z"/>
		<path d="M152.41,24.24v-0.17h0.17v0.17H152.41z M152.41,24.94v-0.17h0.17v0.17H152.41z"/>
		<path d="M153.34,24.94v-0.17h0.17v0.17H153.34z"/>
		<path d="M153.95,24.29c-0.06-0.02-0.11-0.05-0.14-0.1c-0.03-0.04-0.04-0.09-0.04-0.15c0-0.09,0.03-0.16,0.09-0.22
			c0.06-0.06,0.15-0.09,0.25-0.09s0.19,0.03,0.25,0.09c0.06,0.06,0.1,0.13,0.1,0.22c0,0.06-0.01,0.1-0.04,0.15
			c-0.03,0.04-0.07,0.07-0.13,0.09c0.07,0.02,0.13,0.06,0.17,0.12c0.04,0.05,0.06,0.12,0.06,0.19c0,0.1-0.04,0.19-0.11,0.26
			c-0.07,0.07-0.17,0.1-0.29,0.1s-0.21-0.04-0.29-0.11c-0.07-0.07-0.11-0.16-0.11-0.26c0-0.08,0.02-0.14,0.06-0.2
			C153.82,24.35,153.88,24.31,153.95,24.29z M153.88,24.6c0,0.04,0.01,0.08,0.03,0.12c0.02,0.04,0.05,0.07,0.09,0.09
			s0.08,0.03,0.13,0.03c0.07,0,0.13-0.02,0.17-0.07c0.05-0.05,0.07-0.1,0.07-0.17c0-0.07-0.02-0.13-0.07-0.18
			c-0.05-0.05-0.11-0.07-0.18-0.07c-0.07,0-0.13,0.02-0.17,0.07C153.9,24.47,153.88,24.53,153.88,24.6z M153.92,24.04
			c0,0.06,0.02,0.1,0.05,0.14c0.04,0.04,0.08,0.05,0.14,0.05c0.06,0,0.1-0.02,0.14-0.05c0.04-0.04,0.05-0.08,0.05-0.13
			c0-0.05-0.02-0.1-0.06-0.14s-0.08-0.05-0.14-0.05s-0.1,0.02-0.14,0.05S153.92,23.99,153.92,24.04z"/>
		<path d="M155.43,24.8v0.14h-0.79c0-0.04,0-0.07,0.02-0.1c0.02-0.05,0.05-0.11,0.1-0.16c0.04-0.05,0.11-0.11,0.19-0.18
			c0.13-0.11,0.22-0.19,0.26-0.25s0.07-0.12,0.07-0.18c0-0.06-0.02-0.11-0.06-0.15c-0.04-0.04-0.1-0.06-0.16-0.06
			c-0.07,0-0.13,0.02-0.17,0.06c-0.04,0.04-0.06,0.1-0.06,0.18l-0.15-0.02c0.01-0.11,0.05-0.2,0.12-0.26
			c0.07-0.06,0.16-0.09,0.27-0.09s0.21,0.03,0.27,0.1c0.07,0.06,0.1,0.14,0.1,0.24c0,0.05-0.01,0.1-0.03,0.14
			c-0.02,0.05-0.05,0.1-0.1,0.15c-0.05,0.05-0.12,0.12-0.23,0.21c-0.09,0.07-0.15,0.12-0.17,0.15c-0.03,0.03-0.05,0.05-0.06,0.08
			H155.43z"/>
	</g>
</g>
<g>
	<path d="M31.26,15.86c-0.12,0.06-0.24,0.11-0.37,0.16c-0.04-0.05-0.07-0.11-0.11-0.16c-0.1-0.15-0.19-0.29-0.29-0.44
		c-0.09-0.13-0.17-0.27-0.26-0.39c-0.09-0.14-0.19-0.29-0.29-0.44c-0.09-0.12-0.16-0.25-0.25-0.38c-0.05-0.08-0.1-0.16-0.16-0.24
		c-0.01-0.01-0.02-0.01-0.04-0.01c-0.09,0.02-0.18,0.05-0.27,0.07c-0.06,0.01-0.12,0.02-0.18,0.02c-0.06,0.01-0.11,0.01-0.17,0.02
		c-0.09,0.01-0.19,0.02-0.29,0.03s-0.18,0.01-0.27,0.01c-0.21,0-0.42,0-0.63,0c-0.13,0-0.27-0.02-0.39-0.04
		c-0.09-0.01-0.19-0.01-0.28-0.03c-0.07-0.01-0.14-0.02-0.21-0.04C26.74,14,26.69,14,26.64,13.98c-0.06-0.01-0.11-0.02-0.17-0.04
		c-0.04-0.01-0.09-0.02-0.13-0.03c-0.01,0-0.01,0-0.02,0c-0.09-0.02-0.09-0.02-0.14,0.06c-0.09,0.13-0.18,0.25-0.27,0.38
		c-0.09,0.12-0.17,0.24-0.26,0.37s-0.17,0.24-0.26,0.37c-0.09,0.13-0.18,0.26-0.27,0.38c-0.09,0.12-0.17,0.24-0.26,0.37
		c-0.01,0.01-0.01,0.01-0.03,0.02c-0.11-0.06-0.21-0.11-0.32-0.16c-0.02-0.01-0.01-0.03-0.01-0.04c0.06-0.11,0.13-0.24,0.19-0.35
		c0.13-0.24,0.26-0.49,0.39-0.73c0.11-0.21,0.22-0.41,0.33-0.62c0.09-0.18,0.19-0.36,0.29-0.54c0.03-0.05-0.01-0.07-0.03-0.1
		c-0.06-0.12-0.11-0.25-0.16-0.39c-0.05-0.16-0.06-0.32-0.06-0.49c0-0.06,0.02-0.11,0.03-0.17c-0.01,0-0.03-0.01-0.04-0.01
		c-0.15-0.01-0.29,0.05-0.41,0.14c-0.14,0.1-0.25,0.24-0.36,0.37c-0.11,0.15-0.23,0.31-0.38,0.44c-0.12,0.1-0.24,0.19-0.39,0.26
		c-0.14,0.06-0.28,0.11-0.44,0.09c-0.03-0.01-0.06-0.03-0.08-0.05c-0.02-0.04,0.01-0.06,0.04-0.08c0.06-0.04,0.13-0.07,0.18-0.12
		c0.05-0.05,0.11-0.1,0.15-0.16c0.14-0.19,0.23-0.39,0.32-0.6c0.08-0.17,0.16-0.34,0.27-0.49c0.1-0.14,0.23-0.27,0.39-0.34
		c0.13-0.06,0.27-0.08,0.41-0.05c0.11,0.01,0.21,0.04,0.32,0.09c0.07,0.04,0.14,0.07,0.21,0.11c0.03,0.02,0.04,0.02,0.07-0.01
		c0.1-0.09,0.21-0.18,0.34-0.23c0.08-0.03,0.16-0.06,0.24-0.07c0.09-0.02,0.19-0.03,0.29-0.04c0.14-0.02,0.28-0.01,0.42,0
		c0.13,0.01,0.26,0.02,0.39,0.03c0.14,0.01,0.29,0.03,0.43,0.04c0.1,0.01,0.2,0,0.3-0.01c0.09-0.01,0.19-0.02,0.27-0.05
		c0.12-0.04,0.23-0.11,0.32-0.21c0.11-0.13,0.2-0.28,0.27-0.44c0.09-0.19,0.16-0.39,0.24-0.59c0.09-0.21,0.19-0.43,0.32-0.62
		c0.12-0.19,0.26-0.37,0.44-0.52c0.11-0.09,0.23-0.16,0.37-0.21c0.14-0.05,0.29-0.08,0.44-0.08c0.02,0,0.04-0.02,0.06-0.04
		c0.11-0.12,0.22-0.25,0.34-0.38c0.01,0,0.01,0,0.01,0c0.02,0.06,0.04,0.14,0.06,0.21c0.07-0.06,0.13-0.11,0.19-0.17
		c0,0.02,0,0.04,0,0.05c0,0.15-0.01,0.29-0.01,0.44c0,0.01,0.01,0.04,0.02,0.05c0.29,0.29,0.57,0.58,0.85,0.87
		c0.04,0.04,0.09,0.09,0.13,0.14c0.01,0.02,0.03,0.05,0.03,0.07c0,0.13-0.01,0.27-0.02,0.39c0,0.05-0.04,0.06-0.08,0.07
		c-0.13,0.05-0.27,0.1-0.39,0.15c-0.02,0.01-0.04,0.01-0.06,0.02c-0.04,0.01-0.08,0-0.1-0.04c-0.02-0.04-0.04-0.07-0.06-0.1
		c-0.03-0.05-0.08-0.07-0.13-0.09c-0.04-0.01-0.09-0.02-0.14-0.02c-0.06,0-0.12,0.02-0.18,0.03c-0.11,0.02-0.21,0.06-0.32,0.04
		c-0.08-0.01-0.16-0.04-0.22-0.11c0,0.02,0,0.04,0,0.05c-0.01,0.22-0.02,0.44-0.03,0.67c-0.01,0.17-0.01,0.35-0.03,0.52
		c-0.01,0.16-0.02,0.34-0.03,0.5c0,0.04-0.01,0.09-0.01,0.13c-0.01,0.11-0.02,0.24-0.04,0.35c-0.04,0.19-0.09,0.37-0.2,0.54
		c-0.08,0.13-0.18,0.24-0.27,0.37c-0.02,0.03-0.03,0.04-0.01,0.08c0.11,0.21,0.21,0.44,0.32,0.66c0.13,0.26,0.26,0.52,0.39,0.77
		c0.09,0.19,0.19,0.39,0.29,0.59C31.19,15.74,31.22,15.79,31.26,15.86z"/>
	<path d="M23.66,15.94c0.04-0.06,0.08-0.11,0.12-0.16c0.03-0.04,0.06-0.08,0.09-0.12c0.01-0.02,0.02-0.02,0.04-0.01
		c0.17,0.11,0.34,0.22,0.52,0.32c0.17,0.1,0.34,0.2,0.52,0.29c0.15,0.08,0.31,0.14,0.46,0.21c0.1,0.04,0.2,0.08,0.3,0.11
		c0.1,0.04,0.2,0.06,0.3,0.09c0.1,0.03,0.19,0.05,0.29,0.07c0.09,0.02,0.18,0.03,0.27,0.04c0.06,0.01,0.13,0.02,0.19,0.03
		c0.07,0.01,0.14,0.02,0.21,0.03c0.49,0.05,0.99,0.05,1.48,0.04c0.16,0,0.31-0.02,0.47-0.04c0.09-0.01,0.18-0.01,0.27-0.02
		c0.07-0.01,0.14-0.02,0.21-0.04c0.04-0.01,0.09-0.01,0.14-0.02c0.11-0.02,0.23-0.04,0.34-0.06c0.09-0.02,0.17-0.05,0.26-0.07
		c0.11-0.04,0.22-0.06,0.33-0.11c0.12-0.04,0.24-0.09,0.37-0.15c0.14-0.06,0.28-0.13,0.41-0.2c0.17-0.09,0.34-0.19,0.5-0.29
		c0.07-0.04,0.14-0.09,0.21-0.14c0.01-0.01,0.03,0,0.04,0.01c0.07,0.09,0.14,0.19,0.21,0.29c0.01,0.01,0,0.03-0.01,0.04
		c-0.19,0.14-0.39,0.27-0.59,0.4c-0.19,0.11-0.39,0.23-0.59,0.33c-0.15,0.08-0.31,0.14-0.46,0.21c-0.11,0.05-0.22,0.09-0.34,0.14
		c-0.09,0.04-0.18,0.06-0.27,0.09c-0.08,0.02-0.16,0.05-0.24,0.07c-0.09,0.02-0.18,0.04-0.27,0.06c-0.08,0.02-0.15,0.04-0.22,0.05
		c-0.04,0.01-0.08,0.02-0.12,0.02c-0.16,0.02-0.32,0.04-0.47,0.06c-0.21,0.03-0.42,0.04-0.64,0.04c-0.14,0-0.29-0.01-0.42-0.02
		c-0.09-0.01-0.19-0.01-0.28-0.02c-0.07-0.01-0.14-0.02-0.21-0.04c-0.05-0.01-0.11-0.01-0.16-0.02c-0.06-0.01-0.11-0.02-0.17-0.04
		c-0.07-0.01-0.14-0.03-0.21-0.04c-0.06-0.01-0.13-0.03-0.19-0.05c-0.06-0.01-0.12-0.04-0.18-0.05c-0.08-0.02-0.15-0.05-0.23-0.07
		c-0.06-0.02-0.13-0.04-0.19-0.06c-0.08-0.03-0.16-0.06-0.24-0.09c-0.11-0.05-0.23-0.09-0.34-0.15c-0.14-0.06-0.29-0.14-0.42-0.21
		c-0.17-0.09-0.34-0.19-0.51-0.3c-0.12-0.08-0.24-0.16-0.37-0.25c-0.07-0.05-0.14-0.11-0.21-0.16
		C23.67,15.95,23.67,15.95,23.66,15.94z"/>
</g>
</svg>
