<?xml version="1.0" encoding="utf-8"?>
<!-- Generator: Adobe Illustrator 24.2.0, SVG Export Plug-In . SVG Version: 6.00 Build 0)  -->
<svg version="1.1" xmlns="http://www.w3.org/2000/svg" xmlns:xlink="http://www.w3.org/1999/xlink" x="0px" y="0px"
	 viewBox="0 0 199.7 40.2" style="enable-background:new 0 0 199.7 40.2;" xml:space="preserve">
<style type="text/css">
	.st0{fill:none;stroke:#17D400;stroke-miterlimit:10;}
	.st1{fill:#17D400;stroke:#17D400;stroke-miterlimit:10;}
	.st2{fill:none;stroke:#DC3545;stroke-miterlimit:10;}
	.st3{fill:#DC3545;stroke:#DC3545;stroke-miterlimit:10;}
	.st4{fill-rule:evenodd;clip-rule:evenodd;}
	.st5{fill-rule:evenodd;clip-rule:evenodd;fill:#FFFFFF;}
	.st6{fill:#EE4C2C;}
</style>
<g id="Layer_1">
	<g>
		<path d="M42.99,2.25h14.6v1.7h-6.4v16.4h-1.8V3.95h-6.4V2.25z"/>
		<path d="M58.29,7.05l1.8-0.4v2.9c0.4-0.9,1-1.6,1.7-2.1s1.4-0.8,2.3-0.8c0.8,0,1.6,0.2,2.3,0.6l-0.5,1.7c-0.6-0.4-1.3-0.6-2-0.6
			c-1.5,0-2.8,1.1-3.8,3.4v8.5h-1.8C58.29,20.35,58.29,7.05,58.29,7.05z"/>
		<path d="M69.59,8.65c1.3-1.3,2.8-1.9,4.7-1.9c1.9,0,3.4,0.6,4.6,1.9s1.8,3,1.8,5.1s-0.6,3.8-1.9,5.1c-1.2,1.3-2.8,2-4.7,2
			s-3.4-0.6-4.6-1.9s-1.8-3-1.8-5.1C67.69,11.65,68.29,9.95,69.59,8.65z M70.79,17.55c0.9,1,2,1.5,3.4,1.5s2.5-0.5,3.4-1.5
			c0.8-1,1.3-2.3,1.3-3.9s-0.4-2.9-1.3-3.9s-2-1.5-3.4-1.5s-2.5,0.5-3.4,1.5s-1.3,2.3-1.3,3.9C69.49,15.35,69.89,16.65,70.79,17.55z
			"/>
		<path d="M84.49,7.05l1.8-0.4v14.7c0,1.7-0.2,3-0.7,4s-1.3,1.7-2.4,2.4l-1.2-1.3c1-0.6,1.6-1.2,2-2c0.4-0.7,0.6-1.8,0.6-3.2
			 M84.49,1.75c0.2-0.2,0.5-0.4,0.9-0.4s0.7,0.1,0.9,0.4c0.2,0.2,0.3,0.5,0.3,0.9s-0.1,0.7-0.3,0.9c-0.2,0.3-0.5,0.5-0.9,0.5
			s-0.7-0.1-0.9-0.4c-0.2-0.3-0.3-0.6-0.3-0.9S84.29,2.05,84.49,1.75z"/>
		<path d="M97.89,12.35v-0.8c0-1.1-0.3-1.9-0.8-2.4s-1.3-0.8-2.4-0.8c-0.7,0-1.4,0.2-2.2,0.5s-1.5,0.7-2.1,1.1l-0.4-1.7
			c0.6-0.4,1.4-0.8,2.3-1.1c0.9-0.3,1.8-0.5,2.6-0.5c1.6,0,2.8,0.4,3.6,1.2s1.2,2,1.2,3.6v6.4c0,0.5,0.1,0.9,0.3,1.1
			c0.2,0.2,0.5,0.3,1,0.3h0.1l-0.1,1.5c-0.1,0-0.3,0-0.4,0c-1.5,0-2.3-0.6-2.5-1.9h-0.1c-0.5,0.6-1.1,1.1-1.7,1.4s-1.4,0.5-2.2,0.5
			c-1.2,0-2.2-0.4-3-1c-0.8-0.7-1.2-1.6-1.2-2.6C89.79,14.15,92.49,12.65,97.89,12.35z M92.49,18.55c0.5,0.4,1.2,0.6,1.9,0.6
			c0.7,0,1.3-0.2,1.9-0.5s1.1-0.7,1.6-1.3v-3.9c-2.2,0.3-3.8,0.6-4.8,1.2c-0.9,0.5-1.4,1.2-1.4,2.1
			C91.69,17.55,91.99,18.05,92.49,18.55z"/>
		<path d="M104.19,7.05l1.8-0.4v2.2c0.7-0.7,1.4-1.2,2.3-1.6c0.8-0.4,1.6-0.6,2.3-0.6c1.3,0,2.4,0.4,3.1,1.2
			c0.8,0.8,1.1,1.9,1.1,3.4v9.1h-1.8v-8.6c0-1.2-0.2-2-0.7-2.6c-0.5-0.5-1.2-0.8-2.2-0.8c-0.7,0-1.4,0.2-2.1,0.5s-1.3,0.8-1.9,1.4
			v10.1h-1.8V7.05H104.19z"/>
		<path d="M117.89,18.95l10.8-15.1h-10.4v-1.6h12.7v1.4l-10.8,15h10.8v1.7h-13.1V18.95L117.89,18.95z"/>
		<path d="M135.29,8.65c1.3-1.3,2.8-1.9,4.7-1.9s3.4,0.6,4.6,1.9c1.2,1.3,1.8,3,1.8,5.1s-0.6,3.8-1.9,5.1c-1.2,1.3-2.8,2-4.7,2
			s-3.4-0.6-4.6-1.9c-1.2-1.3-1.8-3-1.8-5.1C133.39,11.65,134.09,9.95,135.29,8.65z M136.49,17.55c0.9,1,2,1.5,3.4,1.5
			s2.5-0.5,3.4-1.5s1.3-2.3,1.3-3.9s-0.4-2.9-1.3-3.9c-0.9-1-2-1.5-3.4-1.5s-2.5,0.5-3.4,1.5s-1.3,2.3-1.3,3.9
			C135.19,15.35,135.69,16.65,136.49,17.55z"/>
		<path d="M151.19,8.65c1.3-1.3,2.8-1.9,4.7-1.9s3.4,0.6,4.6,1.9c1.2,1.3,1.8,3,1.8,5.1s-0.6,3.8-1.9,5.1c-1.2,1.3-2.8,2-4.7,2
			s-3.4-0.6-4.6-1.9c-1.2-1.3-1.8-3-1.8-5.1C149.29,11.65,149.89,9.95,151.19,8.65z M152.39,17.55c0.9,1,2,1.5,3.4,1.5
			s2.5-0.5,3.4-1.5s1.3-2.3,1.3-3.9s-0.4-2.9-1.3-3.9c-0.9-1-2-1.5-3.4-1.5s-2.5,0.5-3.4,1.5s-1.3,2.3-1.3,3.9
			C151.09,15.35,151.59,16.65,152.39,17.55z"/>
	</g>
	<g id="pred_T_1_">
		<rect x="42.49" y="1.75" class="st0" width="15.3" height="19.1"/>
		<rect x="42.49" y="20.85" class="st1" width="7.7" height="4.3"/>
	</g>
	<g id="pred_r_1_">
		<rect x="57.79" y="6.15" class="st0" width="9.1" height="14.7"/>
		<rect x="57.79" y="20.85" class="st1" width="7.6" height="4.2"/>
	</g>
	<g id="pred_o_5_">
		<rect x="66.89" y="6.15" class="st0" width="14.4" height="15.1"/>
		<rect x="66.89" y="21.25" class="st1" width="7.6" height="4.3"/>
	</g>
	<g id="pred_j_1_">
		<rect x="81.29" y="0.85" class="st0" width="7.6" height="27.3"/>
		<rect x="81.29" y="28.25" class="st1" width="7.6" height="4.3"/>
	</g>
	<g id="pred_a_1_">
		<rect x="88.89" y="6.15" class="st0" width="13.6" height="15.1"/>
		<rect x="88.89" y="21.25" class="st1" width="7.9" height="4.2"/>
	</g>
	<g id="pred_n_1_">
		<rect x="102.49" y="6.15" class="st0" width="13.9" height="15.1"/>
		<rect x="102.49" y="21.25" class="st1" width="7.6" height="4.2"/>
	</g>
	<g id="pred_Z_1_">
		<rect x="116.39" y="1.65" class="st0" width="15.1" height="19.6"/>
		<rect x="116.39" y="21.25" class="st1" width="7.6" height="4.2"/>
	</g>
	<g id="pred_o_4_">
		<rect x="132.69" y="6.25" class="st2" width="14.4" height="15"/>
		<rect x="132.69" y="21.25" class="st3" width="7.6" height="4.2"/>
	</g>
	<g id="pred_o_3_">
		<rect x="148.59" y="6.25" class="st0" width="14.4" height="15"/>
		<rect x="148.59" y="21.25" class="st1" width="7.6" height="4.2"/>
	</g>
	<g>
		<rect x="143.39" y="17.45" class="st4" width="3.2" height="3.2"/>
		<path class="st5" d="M143.39,17.45v3.2h0.6v-3.2H143.39z M144.69,17.45v3.2h0.6v-3.2H144.69z M145.99,17.45v3.2h0.6v-3.2H145.99z
			 M143.39,17.45h3.2v0.6h-3.2V17.45z M143.39,18.75h3.2v0.6h-3.2V18.75z M143.39,20.05h3.2v0.6h-3.2V20.05z"/>
	</g>
	<g>
		<path class="st6" d="M34.06,6.83l-1.59,1.59c2.54,2.54,2.54,6.56,0,9.11s-6.56,2.54-9.11,0c-2.54-2.54-2.54-6.56,0-9.11l0,0
			l4.02-4.02l0.53-0.53l0,0V0.8l-6.03,6.03c-3.39,3.39-3.39,8.68,0,12.07s8.68,3.39,12.07,0C37.35,15.62,37.35,10.22,34.06,6.83z"/>
		<circle class="st6" cx="30.99" cy="5.35" r="1.16"/>
	</g>
	<g>
		<path d="M31.26,15.86c-0.12,0.06-0.24,0.11-0.37,0.16c-0.04-0.05-0.07-0.11-0.11-0.16c-0.1-0.15-0.19-0.29-0.29-0.44
			c-0.09-0.13-0.17-0.27-0.26-0.39c-0.09-0.14-0.19-0.29-0.29-0.44c-0.09-0.12-0.16-0.25-0.25-0.38c-0.05-0.08-0.1-0.16-0.16-0.24
			c-0.01-0.01-0.02-0.01-0.04-0.01c-0.09,0.02-0.18,0.05-0.27,0.07c-0.06,0.01-0.12,0.02-0.18,0.02c-0.06,0.01-0.11,0.01-0.17,0.02
			c-0.09,0.01-0.19,0.02-0.29,0.03s-0.18,0.01-0.27,0.01c-0.21,0-0.42,0-0.63,0c-0.13,0-0.27-0.02-0.39-0.04
			c-0.09-0.01-0.19-0.01-0.28-0.03c-0.07-0.01-0.14-0.02-0.21-0.04c-0.06,0-0.11,0-0.16-0.02c-0.06-0.01-0.11-0.02-0.17-0.04
			c-0.04-0.01-0.09-0.02-0.13-0.03c-0.01,0-0.01,0-0.02,0c-0.09-0.02-0.09-0.02-0.14,0.06c-0.09,0.13-0.18,0.25-0.27,0.38
			c-0.09,0.12-0.17,0.24-0.26,0.37s-0.17,0.24-0.26,0.37s-0.18,0.26-0.27,0.38s-0.17,0.24-0.26,0.37c-0.01,0.01-0.01,0.01-0.03,0.02
			c-0.11-0.06-0.21-0.11-0.32-0.16c-0.02-0.01-0.01-0.03-0.01-0.04c0.06-0.11,0.13-0.24,0.19-0.35c0.13-0.24,0.26-0.49,0.39-0.73
			c0.11-0.21,0.22-0.41,0.33-0.62c0.09-0.18,0.19-0.36,0.29-0.54c0.03-0.05-0.01-0.07-0.03-0.1c-0.06-0.12-0.11-0.25-0.16-0.39
			c-0.05-0.16-0.06-0.32-0.06-0.49c0-0.06,0.02-0.11,0.03-0.17c-0.01,0-0.03-0.01-0.04-0.01c-0.15-0.01-0.29,0.05-0.41,0.14
			c-0.14,0.1-0.25,0.24-0.36,0.37c-0.11,0.15-0.23,0.31-0.38,0.44c-0.12,0.1-0.24,0.19-0.39,0.26c-0.14,0.06-0.28,0.11-0.44,0.09
			c-0.03-0.01-0.06-0.03-0.08-0.05c-0.02-0.04,0.01-0.06,0.04-0.08c0.06-0.04,0.13-0.07,0.18-0.12c0.05-0.05,0.11-0.1,0.15-0.16
			c0.14-0.19,0.23-0.39,0.32-0.6c0.08-0.17,0.16-0.34,0.27-0.49c0.1-0.14,0.23-0.27,0.39-0.34c0.13-0.06,0.27-0.08,0.41-0.05
			c0.11,0.01,0.21,0.04,0.32,0.09c0.07,0.04,0.14,0.07,0.21,0.11c0.03,0.02,0.04,0.02,0.07-0.01c0.1-0.09,0.21-0.18,0.34-0.23
			c0.08-0.03,0.16-0.06,0.24-0.07c0.09-0.02,0.19-0.03,0.29-0.04c0.14-0.02,0.28-0.01,0.42,0c0.13,0.01,0.26,0.02,0.39,0.03
			c0.14,0.01,0.29,0.03,0.43,0.04c0.1,0.01,0.2,0,0.3-0.01c0.09-0.01,0.19-0.02,0.27-0.05c0.12-0.04,0.23-0.11,0.32-0.21
			c0.11-0.13,0.2-0.28,0.27-0.44c0.09-0.19,0.16-0.39,0.24-0.59c0.09-0.21,0.19-0.43,0.32-0.62c0.12-0.19,0.26-0.37,0.44-0.52
			c0.11-0.09,0.23-0.16,0.37-0.21c0.14-0.05,0.29-0.08,0.44-0.08c0.02,0,0.04-0.02,0.06-0.04c0.11-0.12,0.22-0.25,0.34-0.38
			c0.01,0,0.01,0,0.01,0c0.02,0.06,0.04,0.14,0.06,0.21c0.07-0.06,0.13-0.11,0.19-0.17c0,0.02,0,0.04,0,0.05
			c0,0.15-0.01,0.29-0.01,0.44c0,0.01,0.01,0.04,0.02,0.05c0.29,0.29,0.57,0.58,0.85,0.87c0.04,0.04,0.09,0.09,0.13,0.14
			c0.01,0.02,0.03,0.05,0.03,0.07c0,0.13-0.01,0.27-0.02,0.39c0,0.05-0.04,0.06-0.08,0.07c-0.13,0.05-0.27,0.1-0.39,0.15
			c-0.02,0.01-0.04,0.01-0.06,0.02c-0.04,0.01-0.08,0-0.1-0.04s-0.04-0.07-0.06-0.1c-0.03-0.05-0.08-0.07-0.13-0.09
			c-0.04-0.01-0.09-0.02-0.14-0.02c-0.06,0-0.12,0.02-0.18,0.03c-0.11,0.02-0.21,0.06-0.32,0.04c-0.08-0.01-0.16-0.04-0.22-0.11
			c0,0.02,0,0.04,0,0.05c-0.01,0.22-0.02,0.44-0.03,0.67c-0.01,0.17-0.01,0.35-0.03,0.52c-0.01,0.16-0.02,0.34-0.03,0.5
			c0,0.04-0.01,0.09-0.01,0.13c-0.01,0.11-0.02,0.24-0.04,0.35c-0.04,0.19-0.09,0.37-0.2,0.54c-0.08,0.13-0.18,0.24-0.27,0.37
			c-0.02,0.03-0.03,0.04-0.01,0.08c0.11,0.21,0.21,0.44,0.32,0.66c0.13,0.26,0.26,0.52,0.39,0.77c0.09,0.19,0.19,0.39,0.29,0.59
			C31.19,15.74,31.22,15.79,31.26,15.86z"/>
		<path d="M23.66,15.94c0.04-0.06,0.08-0.11,0.12-0.16c0.03-0.04,0.06-0.08,0.09-0.12c0.01-0.02,0.02-0.02,0.04-0.01
			c0.17,0.11,0.34,0.22,0.52,0.32c0.17,0.1,0.34,0.2,0.52,0.29c0.15,0.08,0.31,0.14,0.46,0.21c0.1,0.04,0.2,0.08,0.3,0.11
			c0.1,0.04,0.2,0.06,0.3,0.09c0.1,0.03,0.19,0.05,0.29,0.07c0.09,0.02,0.18,0.03,0.27,0.04c0.06,0.01,0.13,0.02,0.19,0.03
			c0.07,0.01,0.14,0.02,0.21,0.03c0.49,0.05,0.99,0.05,1.48,0.04c0.16,0,0.31-0.02,0.47-0.04c0.09-0.01,0.18-0.01,0.27-0.02
			c0.07-0.01,0.14-0.02,0.21-0.04c0.04-0.01,0.09-0.01,0.14-0.02c0.11-0.02,0.23-0.04,0.34-0.06c0.09-0.02,0.17-0.05,0.26-0.07
			c0.11-0.04,0.22-0.06,0.33-0.11c0.12-0.04,0.24-0.09,0.37-0.15c0.14-0.06,0.28-0.13,0.41-0.2c0.17-0.09,0.34-0.19,0.5-0.29
			c0.07-0.04,0.14-0.09,0.21-0.14c0.01-0.01,0.03,0,0.04,0.01c0.07,0.09,0.14,0.19,0.21,0.29c0.01,0.01,0,0.03-0.01,0.04
			c-0.19,0.14-0.39,0.27-0.59,0.4c-0.19,0.11-0.39,0.23-0.59,0.33c-0.15,0.08-0.31,0.14-0.46,0.21c-0.11,0.05-0.22,0.09-0.34,0.14
			c-0.09,0.04-0.18,0.06-0.27,0.09c-0.08,0.02-0.16,0.05-0.24,0.07c-0.09,0.02-0.18,0.04-0.27,0.06c-0.08,0.02-0.15,0.04-0.22,0.05
			c-0.04,0.01-0.08,0.02-0.12,0.02c-0.16,0.02-0.32,0.04-0.47,0.06c-0.21,0.03-0.42,0.04-0.64,0.04c-0.14,0-0.29-0.01-0.42-0.02
			c-0.09-0.01-0.19-0.01-0.28-0.02c-0.07-0.01-0.14-0.02-0.21-0.04c-0.05-0.01-0.11-0.01-0.16-0.02c-0.06-0.01-0.11-0.02-0.17-0.04
			c-0.07-0.01-0.14-0.03-0.21-0.04c-0.06-0.01-0.13-0.03-0.19-0.05c-0.06-0.01-0.12-0.04-0.18-0.05c-0.08-0.02-0.15-0.05-0.23-0.07
			c-0.06-0.02-0.13-0.04-0.19-0.06c-0.08-0.03-0.16-0.06-0.24-0.09c-0.11-0.05-0.23-0.09-0.34-0.15c-0.14-0.06-0.29-0.14-0.42-0.21
			c-0.17-0.09-0.34-0.19-0.51-0.3c-0.12-0.08-0.24-0.16-0.37-0.25c-0.07-0.05-0.14-0.11-0.21-0.16
			C23.67,15.95,23.67,15.95,23.66,15.94z"/>
	</g>
	<g>
		<path d="M43.11,21.84l0.1-0.02v1.14h-0.1V21.84z"/>
		<path d="M43.5,22.29c0.07-0.08,0.15-0.11,0.26-0.11c0.08,0,0.15,0.03,0.2,0.08c0.05,0.05,0.08,0.12,0.08,0.2
			c0,0.04-0.01,0.08-0.02,0.12l-0.51,0v0.01c0,0.09,0.03,0.16,0.08,0.21c0.05,0.06,0.11,0.08,0.19,0.08c0.08,0,0.16-0.02,0.22-0.06
			l0.02,0.09c-0.07,0.04-0.15,0.06-0.24,0.06c-0.11,0-0.2-0.04-0.26-0.11c-0.07-0.07-0.1-0.17-0.1-0.28
			C43.4,22.46,43.43,22.37,43.5,22.29z M43.93,22.5c0,0,0-0.02,0-0.03c0-0.06-0.02-0.11-0.05-0.14c-0.03-0.04-0.08-0.05-0.14-0.05
			c-0.07,0-0.12,0.02-0.16,0.07c-0.04,0.04-0.07,0.1-0.08,0.17L43.93,22.5z"/>
		<path d="M44.14,22.22l0.11-0.03l0-0.17h0.1l0,0.18h0.25l0,0.09h-0.25l-0.01,0.45c0,0,0,0.01,0,0.01c0,0.09,0.04,0.13,0.11,0.13
			c0.04,0,0.09-0.01,0.15-0.04l0.02,0.09c-0.06,0.03-0.11,0.04-0.17,0.04c-0.07,0-0.12-0.02-0.16-0.06
			c-0.03-0.04-0.05-0.09-0.05-0.16c0-0.01,0-0.01,0-0.02l0.01-0.45l-0.12-0.01L44.14,22.22z"/>
		<path d="M44.69,22.22l0.11-0.03l0-0.17h0.1l0,0.18h0.25l0,0.09H44.9l-0.01,0.45c0,0,0,0.01,0,0.01c0,0.09,0.04,0.13,0.11,0.13
			c0.04,0,0.09-0.01,0.15-0.04l0.02,0.09c-0.06,0.03-0.11,0.04-0.17,0.04c-0.07,0-0.12-0.02-0.16-0.06
			c-0.03-0.04-0.05-0.09-0.05-0.16c0-0.01,0-0.01,0-0.02l0.01-0.45l-0.12-0.01L44.69,22.22z"/>
		<path d="M45.38,22.29c0.07-0.08,0.15-0.11,0.26-0.11c0.08,0,0.15,0.03,0.2,0.08c0.05,0.05,0.08,0.12,0.08,0.2
			c0,0.04-0.01,0.08-0.02,0.12l-0.51,0v0.01c0,0.09,0.03,0.16,0.08,0.21c0.05,0.06,0.11,0.08,0.19,0.08c0.08,0,0.16-0.02,0.22-0.06
			l0.02,0.09c-0.07,0.04-0.15,0.06-0.24,0.06c-0.11,0-0.2-0.04-0.26-0.11c-0.07-0.07-0.1-0.17-0.1-0.28
			C45.27,22.46,45.31,22.37,45.38,22.29z M45.81,22.5c0,0,0-0.02,0-0.03c0-0.06-0.02-0.11-0.05-0.14c-0.03-0.04-0.08-0.05-0.14-0.05
			c-0.07,0-0.12,0.02-0.16,0.07c-0.04,0.04-0.07,0.1-0.08,0.17L45.81,22.5z"/>
		<path d="M46.11,22.2l0.1-0.02v0.16c0.03-0.05,0.06-0.09,0.1-0.12s0.08-0.04,0.13-0.04c0.05,0,0.09,0.01,0.13,0.03l-0.03,0.1
			c-0.04-0.02-0.07-0.03-0.12-0.03c-0.08,0-0.16,0.07-0.21,0.2v0.49h-0.1V22.2z"/>
		<path d="M46.68,22.3c0.02-0.02,0.04-0.02,0.06-0.02s0.04,0.01,0.06,0.02c0.02,0.02,0.02,0.04,0.02,0.06
			c0,0.02-0.01,0.04-0.02,0.06c-0.02,0.02-0.04,0.03-0.06,0.03s-0.04-0.01-0.06-0.03c-0.02-0.02-0.02-0.04-0.02-0.06
			C46.66,22.34,46.67,22.32,46.68,22.3z M46.68,22.83c0.02-0.02,0.04-0.02,0.06-0.02s0.04,0.01,0.06,0.02
			c0.02,0.02,0.02,0.04,0.02,0.06s-0.01,0.04-0.02,0.06c-0.02,0.02-0.04,0.03-0.06,0.03s-0.04-0.01-0.06-0.03
			c-0.02-0.02-0.02-0.04-0.02-0.06S46.67,22.85,46.68,22.83z"/>
		<path d="M47.31,21.92h0.83v0.1h-0.36v0.94h-0.11v-0.94h-0.36V21.92z"/>
		<path d="M43.16,24.29c0.07-0.08,0.16-0.11,0.27-0.11c0.09,0,0.17,0.02,0.24,0.06l-0.03,0.09c-0.06-0.04-0.13-0.06-0.21-0.06
			c-0.08,0-0.15,0.03-0.19,0.08c-0.05,0.06-0.07,0.13-0.07,0.22s0.02,0.17,0.07,0.22s0.11,0.08,0.19,0.08
			c0.08,0,0.15-0.02,0.21-0.06l0.02,0.09c-0.07,0.04-0.15,0.06-0.24,0.06c-0.11,0-0.2-0.04-0.27-0.11c-0.07-0.07-0.1-0.17-0.1-0.29
			C43.06,24.46,43.09,24.36,43.16,24.29z"/>
		<path d="M43.91,24.29c0.07-0.07,0.16-0.11,0.27-0.11c0.11,0,0.19,0.04,0.26,0.11c0.07,0.07,0.1,0.17,0.1,0.29
			c0,0.12-0.04,0.22-0.11,0.29c-0.07,0.08-0.16,0.11-0.27,0.11c-0.11,0-0.19-0.04-0.26-0.11c-0.07-0.07-0.1-0.17-0.1-0.29
			C43.8,24.46,43.84,24.36,43.91,24.29z M43.98,24.8c0.05,0.06,0.11,0.09,0.19,0.09s0.14-0.03,0.19-0.09
			c0.05-0.06,0.07-0.13,0.07-0.22c0-0.09-0.02-0.17-0.07-0.22c-0.05-0.06-0.11-0.08-0.19-0.08s-0.14,0.03-0.19,0.09
			c-0.05,0.06-0.07,0.13-0.07,0.22C43.9,24.67,43.93,24.74,43.98,24.8z"/>
		<path d="M44.74,24.2l0.1-0.02v0.12c0.04-0.04,0.08-0.07,0.13-0.09c0.05-0.02,0.09-0.03,0.13-0.03c0.08,0,0.13,0.02,0.18,0.07
			c0.04,0.05,0.06,0.11,0.06,0.19v0.52h-0.1v-0.49c0-0.07-0.01-0.11-0.04-0.15c-0.03-0.03-0.07-0.05-0.13-0.05
			c-0.04,0-0.08,0.01-0.12,0.03s-0.08,0.04-0.11,0.08v0.58h-0.1V24.2z"/>
		<path d="M45.49,24.22l0.11-0.03l0-0.12c0-0.18,0.08-0.27,0.23-0.27c0.05,0,0.09,0.01,0.14,0.03c0,0,0,0.01-0.01,0.02
			c0,0.01-0.01,0.03-0.01,0.05c0,0.02-0.01,0.02-0.01,0.02c-0.04-0.02-0.08-0.03-0.12-0.03c-0.04,0-0.07,0.01-0.09,0.04
			c-0.02,0.03-0.03,0.07-0.03,0.13v0.13h0.24l0,0.09H45.7v0.66h-0.1v-0.66l-0.12-0.01L45.49,24.22z"/>
		<path d="M46.07,24.3c0.02-0.02,0.04-0.02,0.06-0.02s0.04,0.01,0.06,0.02c0.02,0.02,0.02,0.04,0.02,0.06
			c0,0.02-0.01,0.04-0.02,0.06c-0.02,0.02-0.04,0.03-0.06,0.03s-0.04-0.01-0.06-0.03c-0.02-0.02-0.02-0.04-0.02-0.06
			C46.05,24.34,46.06,24.32,46.07,24.3z M46.07,24.83c0.02-0.02,0.04-0.02,0.06-0.02s0.04,0.01,0.06,0.02
			c0.02,0.02,0.02,0.04,0.02,0.06s-0.01,0.04-0.02,0.06c-0.02,0.02-0.04,0.03-0.06,0.03s-0.04-0.01-0.06-0.03
			c-0.02-0.02-0.02-0.04-0.02-0.06S46.06,24.85,46.07,24.83z"/>
		<path d="M46.76,24.83c0.02-0.02,0.04-0.02,0.06-0.02s0.04,0.01,0.06,0.02c0.02,0.02,0.02,0.04,0.02,0.06s-0.01,0.04-0.02,0.06
			c-0.02,0.02-0.04,0.03-0.06,0.03s-0.04-0.01-0.06-0.03c-0.02-0.02-0.02-0.04-0.02-0.06S46.75,24.85,46.76,24.83z"/>
		<path d="M47.14,23.99c0.06-0.06,0.14-0.09,0.24-0.09c0.07,0,0.14,0.02,0.19,0.06s0.09,0.09,0.12,0.15
			c0.03,0.06,0.04,0.13,0.04,0.21c0,0.06-0.01,0.11-0.02,0.17c-0.01,0.05-0.04,0.11-0.07,0.16c-0.03,0.05-0.07,0.1-0.11,0.15
			c-0.04,0.04-0.1,0.08-0.16,0.12c-0.06,0.03-0.13,0.06-0.21,0.08l-0.02-0.09c0.14-0.03,0.25-0.09,0.33-0.17
			c0.08-0.08,0.14-0.18,0.16-0.29l0,0c-0.04,0.03-0.08,0.06-0.13,0.08c-0.05,0.02-0.1,0.03-0.15,0.03c-0.05,0-0.1-0.01-0.15-0.04
			s-0.08-0.06-0.11-0.11c-0.03-0.05-0.04-0.1-0.04-0.17C47.04,24.14,47.08,24.06,47.14,23.99z M47.21,24.39
			c0.04,0.04,0.09,0.06,0.16,0.06c0.1,0,0.19-0.04,0.26-0.11c0-0.02,0-0.03,0-0.05c0-0.08-0.02-0.16-0.07-0.22
			c-0.04-0.06-0.11-0.09-0.18-0.09c-0.07,0-0.13,0.02-0.17,0.07c-0.04,0.05-0.06,0.1-0.06,0.18C47.14,24.3,47.16,24.36,47.21,24.39z
			"/>
		<path d="M48.11,24.43c-0.03-0.01-0.06-0.03-0.08-0.04s-0.04-0.03-0.06-0.05s-0.04-0.04-0.05-0.07c-0.01-0.03-0.02-0.05-0.02-0.08
			c0-0.09,0.03-0.16,0.09-0.21s0.14-0.08,0.23-0.08s0.17,0.02,0.23,0.08s0.08,0.12,0.08,0.2c0,0.1-0.07,0.19-0.2,0.26
			c0.03,0.01,0.06,0.03,0.08,0.04s0.05,0.03,0.07,0.05c0.02,0.02,0.04,0.04,0.05,0.07c0.01,0.03,0.02,0.05,0.02,0.08
			c0,0.04-0.01,0.08-0.02,0.11c-0.01,0.03-0.04,0.07-0.06,0.09c-0.03,0.03-0.06,0.05-0.11,0.06c-0.04,0.02-0.09,0.02-0.14,0.02
			c-0.11,0-0.2-0.03-0.25-0.08c-0.06-0.05-0.08-0.12-0.08-0.2C47.89,24.59,47.96,24.5,48.11,24.43z M48.05,24.83
			c0.04,0.04,0.1,0.05,0.18,0.05c0.08,0,0.13-0.02,0.17-0.05c0.04-0.03,0.06-0.08,0.06-0.14c0-0.03-0.01-0.06-0.02-0.08
			c-0.01-0.02-0.04-0.05-0.06-0.07c-0.03-0.02-0.06-0.03-0.08-0.05c-0.03-0.01-0.06-0.03-0.1-0.04c-0.06,0.02-0.11,0.05-0.14,0.09
			s-0.06,0.08-0.06,0.13C47.99,24.75,48.01,24.8,48.05,24.83z M48.27,24.4c0.05-0.02,0.09-0.05,0.12-0.09
			c0.03-0.04,0.05-0.08,0.05-0.13c0-0.06-0.02-0.11-0.06-0.14s-0.09-0.05-0.16-0.05c-0.07,0-0.12,0.02-0.16,0.05
			c-0.04,0.04-0.06,0.08-0.06,0.13C48.01,24.27,48.1,24.35,48.27,24.4z"/>
	</g>
	<g>
		<path d="M58.15,21.84l0.1-0.02v1.14h-0.1V21.84z"/>
		<path d="M58.54,22.29c0.07-0.08,0.15-0.11,0.26-0.11c0.08,0,0.15,0.03,0.2,0.08c0.05,0.05,0.08,0.12,0.08,0.2
			c0,0.04-0.01,0.08-0.02,0.12l-0.51,0v0.01c0,0.09,0.03,0.16,0.08,0.21c0.05,0.06,0.11,0.08,0.19,0.08c0.08,0,0.16-0.02,0.22-0.06
			l0.02,0.09c-0.07,0.04-0.15,0.06-0.24,0.06c-0.11,0-0.2-0.04-0.26-0.11c-0.07-0.07-0.1-0.17-0.1-0.28
			C58.44,22.46,58.47,22.37,58.54,22.29z M58.97,22.5c0,0,0-0.02,0-0.03c0-0.06-0.02-0.11-0.05-0.14c-0.03-0.04-0.08-0.05-0.14-0.05
			c-0.07,0-0.12,0.02-0.16,0.07c-0.04,0.04-0.07,0.1-0.08,0.17L58.97,22.5z"/>
		<path d="M59.18,22.22l0.11-0.03l0-0.17h0.1l0,0.18h0.25l0,0.09h-0.25l-0.01,0.45c0,0,0,0.01,0,0.01c0,0.09,0.04,0.13,0.11,0.13
			c0.04,0,0.09-0.01,0.15-0.04l0.02,0.09c-0.06,0.03-0.11,0.04-0.17,0.04c-0.07,0-0.12-0.02-0.16-0.06
			c-0.03-0.04-0.05-0.09-0.05-0.16c0-0.01,0-0.01,0-0.02l0.01-0.45l-0.12-0.01L59.18,22.22z"/>
		<path d="M59.73,22.22l0.11-0.03l0-0.17h0.1l0,0.18h0.25l0,0.09h-0.25l-0.01,0.45c0,0,0,0.01,0,0.01c0,0.09,0.04,0.13,0.11,0.13
			c0.04,0,0.09-0.01,0.15-0.04l0.02,0.09c-0.06,0.03-0.11,0.04-0.17,0.04c-0.07,0-0.12-0.02-0.16-0.06
			c-0.03-0.04-0.05-0.09-0.05-0.16c0-0.01,0-0.01,0-0.02l0.01-0.45l-0.12-0.01L59.73,22.22z"/>
		<path d="M60.42,22.29c0.07-0.08,0.15-0.11,0.26-0.11c0.08,0,0.15,0.03,0.2,0.08c0.05,0.05,0.08,0.12,0.08,0.2
			c0,0.04-0.01,0.08-0.02,0.12l-0.51,0v0.01c0,0.09,0.03,0.16,0.08,0.21c0.05,0.06,0.11,0.08,0.19,0.08c0.08,0,0.16-0.02,0.22-0.06
			l0.02,0.09c-0.07,0.04-0.15,0.06-0.24,0.06c-0.11,0-0.2-0.04-0.26-0.11c-0.07-0.07-0.1-0.17-0.1-0.28
			C60.31,22.46,60.35,22.37,60.42,22.29z M60.85,22.5c0,0,0-0.02,0-0.03c0-0.06-0.02-0.11-0.05-0.14c-0.03-0.04-0.08-0.05-0.14-0.05
			c-0.07,0-0.12,0.02-0.16,0.07c-0.04,0.04-0.07,0.1-0.08,0.17L60.85,22.5z"/>
		<path d="M61.15,22.2l0.1-0.02v0.16c0.03-0.05,0.06-0.09,0.1-0.12s0.08-0.04,0.13-0.04c0.05,0,0.09,0.01,0.13,0.03l-0.03,0.1
			c-0.04-0.02-0.07-0.03-0.12-0.03c-0.08,0-0.16,0.07-0.21,0.2v0.49h-0.1V22.2z"/>
		<path d="M61.72,22.3c0.02-0.02,0.04-0.02,0.06-0.02s0.04,0.01,0.06,0.02c0.02,0.02,0.02,0.04,0.02,0.06
			c0,0.02-0.01,0.04-0.02,0.06c-0.02,0.02-0.04,0.03-0.06,0.03s-0.04-0.01-0.06-0.03c-0.02-0.02-0.02-0.04-0.02-0.06
			C61.7,22.34,61.71,22.32,61.72,22.3z M61.72,22.83c0.02-0.02,0.04-0.02,0.06-0.02s0.04,0.01,0.06,0.02
			c0.02,0.02,0.02,0.04,0.02,0.06s-0.01,0.04-0.02,0.06c-0.02,0.02-0.04,0.03-0.06,0.03s-0.04-0.01-0.06-0.03
			c-0.02-0.02-0.02-0.04-0.02-0.06S61.71,22.85,61.72,22.83z"/>
		<path d="M62.43,22.2l0.1-0.02v0.16c0.03-0.05,0.06-0.09,0.1-0.12s0.08-0.04,0.13-0.04c0.05,0,0.09,0.01,0.13,0.03l-0.03,0.1
			c-0.04-0.02-0.07-0.03-0.12-0.03c-0.08,0-0.16,0.07-0.21,0.2v0.49h-0.1V22.2z"/>
		<path d="M58.2,24.29c0.07-0.08,0.16-0.11,0.27-0.11c0.09,0,0.17,0.02,0.24,0.06l-0.03,0.09c-0.06-0.04-0.13-0.06-0.21-0.06
			c-0.08,0-0.15,0.03-0.19,0.08c-0.05,0.06-0.07,0.13-0.07,0.22s0.02,0.17,0.07,0.22s0.11,0.08,0.19,0.08
			c0.08,0,0.15-0.02,0.21-0.06l0.02,0.09c-0.07,0.04-0.15,0.06-0.24,0.06c-0.11,0-0.2-0.04-0.27-0.11c-0.07-0.07-0.1-0.17-0.1-0.29
			C58.1,24.46,58.13,24.36,58.2,24.29z"/>
		<path d="M58.95,24.29c0.07-0.07,0.16-0.11,0.27-0.11c0.11,0,0.19,0.04,0.26,0.11c0.07,0.07,0.1,0.17,0.1,0.29
			c0,0.12-0.04,0.22-0.11,0.29c-0.07,0.08-0.16,0.11-0.27,0.11c-0.11,0-0.19-0.04-0.26-0.11c-0.07-0.07-0.1-0.17-0.1-0.29
			C58.84,24.46,58.88,24.36,58.95,24.29z M59.02,24.8c0.05,0.06,0.11,0.09,0.19,0.09s0.14-0.03,0.19-0.09
			c0.05-0.06,0.07-0.13,0.07-0.22c0-0.09-0.02-0.17-0.07-0.22c-0.05-0.06-0.11-0.08-0.19-0.08s-0.14,0.03-0.19,0.09
			c-0.05,0.06-0.07,0.13-0.07,0.22C58.94,24.67,58.97,24.74,59.02,24.8z"/>
		<path d="M59.78,24.2l0.1-0.02v0.12c0.04-0.04,0.08-0.07,0.13-0.09c0.05-0.02,0.09-0.03,0.13-0.03c0.08,0,0.13,0.02,0.18,0.07
			c0.04,0.05,0.06,0.11,0.06,0.19v0.52h-0.1v-0.49c0-0.07-0.01-0.11-0.04-0.15c-0.03-0.03-0.07-0.05-0.13-0.05
			c-0.04,0-0.08,0.01-0.12,0.03s-0.08,0.04-0.11,0.08v0.58h-0.1V24.2z"/>
		<path d="M60.53,24.22l0.11-0.03l0-0.12c0-0.18,0.08-0.27,0.23-0.27c0.05,0,0.09,0.01,0.14,0.03c0,0,0,0.01-0.01,0.02
			c0,0.01-0.01,0.03-0.01,0.05c0,0.02-0.01,0.02-0.01,0.02c-0.04-0.02-0.08-0.03-0.12-0.03c-0.04,0-0.07,0.01-0.09,0.04
			c-0.02,0.03-0.03,0.07-0.03,0.13v0.13h0.24l0,0.09h-0.23v0.66h-0.1v-0.66l-0.12-0.01L60.53,24.22z"/>
		<path d="M61.11,24.3c0.02-0.02,0.04-0.02,0.06-0.02s0.04,0.01,0.06,0.02c0.02,0.02,0.02,0.04,0.02,0.06
			c0,0.02-0.01,0.04-0.02,0.06c-0.02,0.02-0.04,0.03-0.06,0.03s-0.04-0.01-0.06-0.03c-0.02-0.02-0.02-0.04-0.02-0.06
			C61.09,24.34,61.1,24.32,61.11,24.3z M61.11,24.83c0.02-0.02,0.04-0.02,0.06-0.02s0.04,0.01,0.06,0.02
			c0.02,0.02,0.02,0.04,0.02,0.06s-0.01,0.04-0.02,0.06c-0.02,0.02-0.04,0.03-0.06,0.03s-0.04-0.01-0.06-0.03
			c-0.02-0.02-0.02-0.04-0.02-0.06S61.1,24.85,61.11,24.83z"/>
		<path d="M61.8,24.83c0.02-0.02,0.04-0.02,0.06-0.02s0.04,0.01,0.06,0.02c0.02,0.02,0.02,0.04,0.02,0.06s-0.01,0.04-0.02,0.06
			c-0.02,0.02-0.04,0.03-0.06,0.03s-0.04-0.01-0.06-0.03c-0.02-0.02-0.02-0.04-0.02-0.06S61.79,24.85,61.8,24.83z"/>
		<path d="M62.18,23.99c0.06-0.06,0.14-0.09,0.24-0.09c0.07,0,0.14,0.02,0.19,0.06s0.09,0.09,0.12,0.15
			c0.03,0.06,0.04,0.13,0.04,0.21c0,0.06-0.01,0.11-0.02,0.17c-0.01,0.05-0.04,0.11-0.07,0.16c-0.03,0.05-0.07,0.1-0.11,0.15
			c-0.04,0.04-0.1,0.08-0.16,0.12c-0.06,0.03-0.13,0.06-0.21,0.08l-0.02-0.09c0.14-0.03,0.25-0.09,0.33-0.17
			c0.08-0.08,0.14-0.18,0.16-0.29l0,0c-0.04,0.03-0.08,0.06-0.13,0.08c-0.05,0.02-0.1,0.03-0.15,0.03c-0.05,0-0.1-0.01-0.15-0.04
			s-0.08-0.06-0.11-0.11c-0.03-0.05-0.04-0.1-0.04-0.17C62.08,24.14,62.12,24.06,62.18,23.99z M62.25,24.39
			c0.04,0.04,0.09,0.06,0.16,0.06c0.1,0,0.19-0.04,0.26-0.11c0-0.02,0-0.03,0-0.05c0-0.08-0.02-0.16-0.07-0.22
			c-0.04-0.06-0.11-0.09-0.18-0.09c-0.07,0-0.13,0.02-0.17,0.07c-0.04,0.05-0.06,0.1-0.06,0.18C62.18,24.3,62.2,24.36,62.25,24.39z"
			/>
		<path d="M62.97,24.82c0.08,0.04,0.16,0.07,0.25,0.07c0.07,0,0.13-0.02,0.18-0.06c0.05-0.04,0.07-0.09,0.07-0.15
			c0-0.06-0.02-0.1-0.07-0.14s-0.11-0.05-0.18-0.05c-0.04,0-0.09,0-0.14,0.01v-0.09c0.12-0.03,0.21-0.07,0.27-0.11
			c0.06-0.04,0.09-0.09,0.09-0.15c0-0.05-0.02-0.09-0.06-0.12c-0.04-0.03-0.09-0.04-0.15-0.04c-0.04,0-0.09,0.01-0.13,0.03
			c-0.05,0.02-0.09,0.04-0.12,0.07l-0.04-0.09c0.04-0.03,0.08-0.06,0.14-0.08c0.05-0.02,0.1-0.03,0.16-0.03
			c0.09,0,0.17,0.02,0.22,0.07c0.06,0.05,0.08,0.11,0.08,0.18c0,0.12-0.09,0.21-0.27,0.26c0.1,0,0.17,0.02,0.23,0.07
			c0.05,0.05,0.08,0.11,0.08,0.18c0,0.09-0.03,0.17-0.1,0.23c-0.07,0.06-0.16,0.08-0.26,0.08c-0.05,0-0.1-0.01-0.15-0.02
			c-0.05-0.01-0.09-0.03-0.13-0.05L62.97,24.82z"/>
	</g>
	<g>
		<path d="M67.01,21.84l0.1-0.02v1.14h-0.1V21.84z"/>
		<path d="M67.4,22.29c0.07-0.08,0.15-0.11,0.26-0.11c0.08,0,0.15,0.03,0.2,0.08c0.05,0.05,0.08,0.12,0.08,0.2
			c0,0.04-0.01,0.08-0.02,0.12l-0.51,0v0.01c0,0.09,0.03,0.16,0.08,0.21c0.05,0.06,0.11,0.08,0.19,0.08c0.08,0,0.16-0.02,0.22-0.06
			l0.02,0.09c-0.07,0.04-0.15,0.06-0.24,0.06c-0.11,0-0.2-0.04-0.26-0.11c-0.07-0.07-0.1-0.17-0.1-0.28
			C67.3,22.46,67.33,22.37,67.4,22.29z M67.83,22.5c0,0,0-0.02,0-0.03c0-0.06-0.02-0.11-0.05-0.14c-0.03-0.04-0.08-0.05-0.14-0.05
			c-0.07,0-0.12,0.02-0.16,0.07c-0.04,0.04-0.07,0.1-0.08,0.17L67.83,22.5z"/>
		<path d="M68.04,22.22l0.11-0.03l0-0.17h0.1l0,0.18h0.25l0,0.09h-0.25l-0.01,0.45c0,0,0,0.01,0,0.01c0,0.09,0.04,0.13,0.11,0.13
			c0.04,0,0.09-0.01,0.15-0.04l0.02,0.09c-0.06,0.03-0.11,0.04-0.17,0.04c-0.07,0-0.12-0.02-0.16-0.06
			c-0.03-0.04-0.05-0.09-0.05-0.16c0-0.01,0-0.01,0-0.02l0.01-0.45l-0.12-0.01L68.04,22.22z"/>
		<path d="M68.59,22.22l0.11-0.03l0-0.17h0.1l0,0.18h0.25l0,0.09H68.8l-0.01,0.45c0,0,0,0.01,0,0.01c0,0.09,0.04,0.13,0.11,0.13
			c0.04,0,0.09-0.01,0.15-0.04l0.02,0.09c-0.06,0.03-0.11,0.04-0.17,0.04c-0.07,0-0.12-0.02-0.16-0.06
			c-0.03-0.04-0.05-0.09-0.05-0.16c0-0.01,0-0.01,0-0.02l0.01-0.45l-0.12-0.01L68.59,22.22z"/>
		<path d="M69.28,22.29c0.07-0.08,0.15-0.11,0.26-0.11c0.08,0,0.15,0.03,0.2,0.08c0.05,0.05,0.08,0.12,0.08,0.2
			c0,0.04-0.01,0.08-0.02,0.12l-0.51,0v0.01c0,0.09,0.03,0.16,0.08,0.21c0.05,0.06,0.11,0.08,0.19,0.08c0.08,0,0.16-0.02,0.22-0.06
			l0.02,0.09c-0.07,0.04-0.15,0.06-0.24,0.06c-0.11,0-0.2-0.04-0.26-0.11c-0.07-0.07-0.1-0.17-0.1-0.28
			C69.17,22.46,69.21,22.37,69.28,22.29z M69.71,22.5c0,0,0-0.02,0-0.03c0-0.06-0.02-0.11-0.05-0.14c-0.03-0.04-0.08-0.05-0.14-0.05
			c-0.07,0-0.12,0.02-0.16,0.07c-0.04,0.04-0.07,0.1-0.08,0.17L69.71,22.5z"/>
		<path d="M70.01,22.2l0.1-0.02v0.16c0.03-0.05,0.06-0.09,0.1-0.12s0.08-0.04,0.13-0.04c0.05,0,0.09,0.01,0.13,0.03l-0.03,0.1
			c-0.04-0.02-0.07-0.03-0.12-0.03c-0.08,0-0.16,0.07-0.21,0.2v0.49h-0.1V22.2z"/>
		<path d="M70.58,22.3c0.02-0.02,0.04-0.02,0.06-0.02s0.04,0.01,0.06,0.02c0.02,0.02,0.02,0.04,0.02,0.06
			c0,0.02-0.01,0.04-0.02,0.06c-0.02,0.02-0.04,0.03-0.06,0.03s-0.04-0.01-0.06-0.03c-0.02-0.02-0.02-0.04-0.02-0.06
			C70.56,22.34,70.56,22.32,70.58,22.3z M70.58,22.83c0.02-0.02,0.04-0.02,0.06-0.02s0.04,0.01,0.06,0.02
			c0.02,0.02,0.02,0.04,0.02,0.06s-0.01,0.04-0.02,0.06c-0.02,0.02-0.04,0.03-0.06,0.03s-0.04-0.01-0.06-0.03
			c-0.02-0.02-0.02-0.04-0.02-0.06S70.56,22.85,70.58,22.83z"/>
		<path d="M71.35,22.29c0.07-0.07,0.16-0.11,0.27-0.11c0.11,0,0.19,0.04,0.26,0.11c0.07,0.07,0.1,0.17,0.1,0.29
			c0,0.12-0.04,0.22-0.11,0.29c-0.07,0.08-0.16,0.11-0.27,0.11c-0.11,0-0.19-0.04-0.26-0.11c-0.07-0.07-0.1-0.17-0.1-0.29
			C71.24,22.46,71.28,22.36,71.35,22.29z M71.42,22.8c0.05,0.06,0.11,0.09,0.19,0.09s0.14-0.03,0.19-0.09
			c0.05-0.06,0.07-0.13,0.07-0.22c0-0.09-0.02-0.17-0.07-0.22c-0.05-0.06-0.11-0.08-0.19-0.08s-0.14,0.03-0.19,0.09
			c-0.05,0.06-0.07,0.13-0.07,0.22C71.35,22.67,71.37,22.74,71.42,22.8z"/>
		<path d="M67.06,24.29c0.07-0.08,0.16-0.11,0.27-0.11c0.09,0,0.17,0.02,0.24,0.06l-0.03,0.09c-0.06-0.04-0.13-0.06-0.21-0.06
			c-0.08,0-0.15,0.03-0.19,0.08c-0.05,0.06-0.07,0.13-0.07,0.22s0.02,0.17,0.07,0.22s0.11,0.08,0.19,0.08
			c0.08,0,0.15-0.02,0.21-0.06l0.02,0.09c-0.07,0.04-0.15,0.06-0.24,0.06c-0.11,0-0.2-0.04-0.27-0.11c-0.07-0.07-0.1-0.17-0.1-0.29
			C66.96,24.46,66.99,24.36,67.06,24.29z"/>
		<path d="M67.81,24.29c0.07-0.07,0.16-0.11,0.27-0.11c0.11,0,0.19,0.04,0.26,0.11c0.07,0.07,0.1,0.17,0.1,0.29
			c0,0.12-0.04,0.22-0.11,0.29c-0.07,0.08-0.16,0.11-0.27,0.11c-0.11,0-0.19-0.04-0.26-0.11c-0.07-0.07-0.1-0.17-0.1-0.29
			C67.7,24.46,67.74,24.36,67.81,24.29z M67.88,24.8c0.05,0.06,0.11,0.09,0.19,0.09s0.14-0.03,0.19-0.09
			c0.05-0.06,0.07-0.13,0.07-0.22c0-0.09-0.02-0.17-0.07-0.22c-0.05-0.06-0.11-0.08-0.19-0.08s-0.14,0.03-0.19,0.09
			c-0.05,0.06-0.07,0.13-0.07,0.22C67.8,24.67,67.83,24.74,67.88,24.8z"/>
		<path d="M68.64,24.2l0.1-0.02v0.12c0.04-0.04,0.08-0.07,0.13-0.09c0.05-0.02,0.09-0.03,0.13-0.03c0.08,0,0.13,0.02,0.18,0.07
			c0.04,0.05,0.06,0.11,0.06,0.19v0.52h-0.1v-0.49c0-0.07-0.01-0.11-0.04-0.15c-0.03-0.03-0.07-0.05-0.13-0.05
			c-0.04,0-0.08,0.01-0.12,0.03s-0.08,0.04-0.11,0.08v0.58h-0.1V24.2z"/>
		<path d="M69.39,24.22l0.11-0.03l0-0.12c0-0.18,0.08-0.27,0.23-0.27c0.05,0,0.09,0.01,0.14,0.03c0,0,0,0.01-0.01,0.02
			c0,0.01-0.01,0.03-0.01,0.05c0,0.02-0.01,0.02-0.01,0.02c-0.04-0.02-0.08-0.03-0.12-0.03c-0.04,0-0.07,0.01-0.09,0.04
			c-0.02,0.03-0.03,0.07-0.03,0.13v0.13h0.24l0,0.09H69.6v0.66h-0.1v-0.66l-0.12-0.01L69.39,24.22z"/>
		<path d="M69.97,24.3c0.02-0.02,0.04-0.02,0.06-0.02s0.04,0.01,0.06,0.02c0.02,0.02,0.02,0.04,0.02,0.06
			c0,0.02-0.01,0.04-0.02,0.06c-0.02,0.02-0.04,0.03-0.06,0.03s-0.04-0.01-0.06-0.03c-0.02-0.02-0.02-0.04-0.02-0.06
			C69.95,24.34,69.96,24.32,69.97,24.3z M69.97,24.83c0.02-0.02,0.04-0.02,0.06-0.02s0.04,0.01,0.06,0.02
			c0.02,0.02,0.02,0.04,0.02,0.06s-0.01,0.04-0.02,0.06c-0.02,0.02-0.04,0.03-0.06,0.03s-0.04-0.01-0.06-0.03
			c-0.02-0.02-0.02-0.04-0.02-0.06S69.96,24.85,69.97,24.83z"/>
		<path d="M70.66,24.83c0.02-0.02,0.04-0.02,0.06-0.02s0.04,0.01,0.06,0.02c0.02,0.02,0.02,0.04,0.02,0.06s-0.01,0.04-0.02,0.06
			c-0.02,0.02-0.04,0.03-0.06,0.03s-0.04-0.01-0.06-0.03c-0.02-0.02-0.02-0.04-0.02-0.06S70.65,24.85,70.66,24.83z"/>
		<path d="M71.18,24.43c-0.03-0.01-0.06-0.03-0.08-0.04s-0.04-0.03-0.06-0.05S71,24.3,70.99,24.27c-0.01-0.03-0.02-0.05-0.02-0.08
			c0-0.09,0.03-0.16,0.09-0.21s0.14-0.08,0.23-0.08s0.17,0.02,0.23,0.08s0.08,0.12,0.08,0.2c0,0.1-0.07,0.19-0.2,0.26
			c0.03,0.01,0.06,0.03,0.08,0.04s0.05,0.03,0.07,0.05c0.02,0.02,0.04,0.04,0.05,0.07c0.01,0.03,0.02,0.05,0.02,0.08
			c0,0.04-0.01,0.08-0.02,0.11c-0.01,0.03-0.04,0.07-0.06,0.09c-0.03,0.03-0.06,0.05-0.11,0.06c-0.04,0.02-0.09,0.02-0.14,0.02
			c-0.11,0-0.2-0.03-0.25-0.08c-0.06-0.05-0.08-0.12-0.08-0.2C70.95,24.59,71.03,24.5,71.18,24.43z M71.12,24.83
			c0.04,0.04,0.1,0.05,0.18,0.05c0.08,0,0.13-0.02,0.17-0.05c0.04-0.03,0.06-0.08,0.06-0.14c0-0.03-0.01-0.06-0.02-0.08
			c-0.01-0.02-0.04-0.05-0.06-0.07c-0.03-0.02-0.06-0.03-0.08-0.05c-0.03-0.01-0.06-0.03-0.1-0.04c-0.06,0.02-0.11,0.05-0.14,0.09
			s-0.06,0.08-0.06,0.13C71.06,24.75,71.08,24.8,71.12,24.83z M71.34,24.4c0.05-0.02,0.09-0.05,0.12-0.09
			c0.03-0.04,0.05-0.08,0.05-0.13c0-0.06-0.02-0.11-0.06-0.14s-0.09-0.05-0.16-0.05c-0.07,0-0.12,0.02-0.16,0.05
			c-0.04,0.04-0.06,0.08-0.06,0.13C71.07,24.27,71.16,24.35,71.34,24.4z"/>
		<path d="M71.91,24.74c0.05-0.04,0.08-0.08,0.11-0.1c0.02-0.02,0.05-0.05,0.09-0.09c0.03-0.03,0.06-0.06,0.08-0.08
			c0.02-0.02,0.04-0.04,0.06-0.07s0.04-0.05,0.04-0.07c0.01-0.02,0.02-0.04,0.02-0.06c0.01-0.02,0.01-0.04,0.01-0.07
			c0-0.06-0.02-0.11-0.06-0.15c-0.04-0.04-0.09-0.06-0.16-0.06c-0.04,0-0.09,0.01-0.13,0.03c-0.05,0.02-0.08,0.05-0.12,0.08
			l-0.04-0.09c0.04-0.04,0.08-0.06,0.13-0.09c0.05-0.02,0.11-0.04,0.17-0.04c0.09,0,0.17,0.03,0.23,0.08s0.09,0.13,0.09,0.22
			c0,0.03,0,0.06-0.01,0.08s-0.02,0.05-0.04,0.08c-0.02,0.03-0.04,0.06-0.05,0.08c-0.02,0.02-0.05,0.05-0.08,0.09
			c-0.04,0.04-0.07,0.07-0.1,0.1c-0.03,0.03-0.07,0.07-0.13,0.12c-0.05,0.04-0.08,0.08-0.11,0.1h0.54l0,0.09h-0.65l-0.01-0.1
			C71.82,24.82,71.86,24.79,71.91,24.74z"/>
	</g>
	<g>
		<path d="M81.41,29.08l0.1-0.02v1.14h-0.1V29.08z"/>
		<path d="M81.8,29.53c0.07-0.08,0.15-0.11,0.26-0.11c0.08,0,0.15,0.03,0.2,0.08c0.05,0.05,0.08,0.12,0.08,0.2
			c0,0.04-0.01,0.08-0.02,0.12l-0.51,0v0.01c0,0.09,0.03,0.16,0.08,0.21c0.05,0.06,0.11,0.08,0.19,0.08c0.08,0,0.16-0.02,0.22-0.06
			l0.02,0.09c-0.07,0.04-0.15,0.06-0.24,0.06c-0.11,0-0.2-0.04-0.26-0.11c-0.07-0.07-0.1-0.17-0.1-0.28
			C81.7,29.71,81.73,29.61,81.8,29.53z M82.23,29.74c0,0,0-0.02,0-0.03c0-0.06-0.02-0.11-0.05-0.14c-0.03-0.04-0.08-0.05-0.14-0.05
			c-0.07,0-0.12,0.02-0.16,0.07c-0.04,0.04-0.07,0.1-0.08,0.17L82.23,29.74z"/>
		<path d="M82.44,29.47l0.11-0.03l0-0.17h0.1l0,0.18h0.25l0,0.09h-0.25l-0.01,0.45c0,0,0,0.01,0,0.01c0,0.09,0.04,0.13,0.11,0.13
			c0.04,0,0.09-0.01,0.15-0.04l0.02,0.09c-0.06,0.03-0.11,0.04-0.17,0.04c-0.07,0-0.12-0.02-0.16-0.06
			c-0.03-0.04-0.05-0.09-0.05-0.16c0-0.01,0-0.01,0-0.02l0.01-0.45l-0.12-0.01L82.44,29.47z"/>
		<path d="M82.99,29.47l0.11-0.03l0-0.17h0.1l0,0.18h0.25l0,0.09H83.2l-0.01,0.45c0,0,0,0.01,0,0.01c0,0.09,0.04,0.13,0.11,0.13
			c0.04,0,0.09-0.01,0.15-0.04l0.02,0.09c-0.06,0.03-0.11,0.04-0.17,0.04c-0.07,0-0.12-0.02-0.16-0.06
			c-0.03-0.04-0.05-0.09-0.05-0.16c0-0.01,0-0.01,0-0.02l0.01-0.45l-0.12-0.01L82.99,29.47z"/>
		<path d="M83.68,29.53c0.07-0.08,0.15-0.11,0.26-0.11c0.08,0,0.15,0.03,0.2,0.08c0.05,0.05,0.08,0.12,0.08,0.2
			c0,0.04-0.01,0.08-0.02,0.12l-0.51,0v0.01c0,0.09,0.03,0.16,0.08,0.21c0.05,0.06,0.11,0.08,0.19,0.08c0.08,0,0.16-0.02,0.22-0.06
			l0.02,0.09c-0.07,0.04-0.15,0.06-0.24,0.06c-0.11,0-0.2-0.04-0.26-0.11c-0.07-0.07-0.1-0.17-0.1-0.28
			C83.57,29.71,83.61,29.61,83.68,29.53z M84.11,29.74c0,0,0-0.02,0-0.03c0-0.06-0.02-0.11-0.05-0.14
			c-0.03-0.04-0.08-0.05-0.14-0.05c-0.07,0-0.12,0.02-0.16,0.07c-0.04,0.04-0.07,0.1-0.08,0.17L84.11,29.74z"/>
		<path d="M84.41,29.44l0.1-0.02v0.16c0.03-0.05,0.06-0.09,0.1-0.12s0.08-0.04,0.13-0.04c0.05,0,0.09,0.01,0.13,0.03l-0.03,0.1
			c-0.04-0.02-0.07-0.03-0.12-0.03c-0.08,0-0.16,0.07-0.21,0.2v0.49h-0.1V29.44z"/>
		<path d="M84.98,29.55c0.02-0.02,0.04-0.02,0.06-0.02s0.04,0.01,0.06,0.02c0.02,0.02,0.02,0.04,0.02,0.06
			c0,0.02-0.01,0.04-0.02,0.06c-0.02,0.02-0.04,0.03-0.06,0.03s-0.04-0.01-0.06-0.03c-0.02-0.02-0.02-0.04-0.02-0.06
			C84.96,29.59,84.96,29.57,84.98,29.55z M84.98,30.08c0.02-0.02,0.04-0.02,0.06-0.02s0.04,0.01,0.06,0.02
			c0.02,0.02,0.02,0.04,0.02,0.06s-0.01,0.04-0.02,0.06c-0.02,0.02-0.04,0.03-0.06,0.03S85,30.21,84.98,30.2
			c-0.02-0.02-0.02-0.04-0.02-0.06S84.96,30.09,84.98,30.08z"/>
		<path d="M85.67,30.44c0.02-0.04,0.03-0.1,0.03-0.18v0v0v0v0v0v0v0v0v0v0v0v0v0v0v0v0v0v0v0v0v0v0v0v0v0v0v0v0v0v0v0v0v0v0v0v0v0v0
			v0v0v0v0v0v0v0v0v0v0v0v0v0v0v0v0v0v0v0v0v0v0v0v0v0v0v0v0v0v0v0v0v0v0v0v0v0v0v0v0v0v0v0v0v0v0v0v0v0v0v0v0v0v0v0v0v0v0v0v0v0v0
			v0v0v0v0v0v0v0v0v0v0v0v0v0v0v0v0v0v0v0v0v0v0v0v0v0v0v0v0v0v0v0v0v0v0v0v0v0v0v0v0v0v0v0v0v0v0v0v0v0v0v0v0v0v0v0v0v0v0v0v0v0v0
			v0v0v0v0v0v0v0v0v0v0v0v0v0v0v0v0v0v0v0v0v0v0v0v0v0v0v0v0v0v0v0v0v0v0v0v0v0v0v0v0v0v0v0v0v0v0v0v0v0v0v0v0v0v0v0v0v0v0v0v0v0v0
			v0v0v0v0v0v0v0v0v0v0v0v0v0v0v0v0v0v0v0v0v0v0v0v0v0v0v0v0v0v0v0v0v0v0v0v0v0v0v0v0v0v0v0v0v0v0v0v0v0v0v0v0v0v0v0v0v0v0v0v0v0v0
			v0v0v0v0v0v0v0v0v0v0v0v0v0v0v0v0v0v0v0v0v0v0v0v0v0v0v0v0v0v0v0v0v0v0v0v0v0v0v0v0v0v0v0v0v0v0v0v0v0v0v0v0v0v0v0v0v0v0v0v0v0v0
			v0v0v0v0v0v0v0v0v0v0v0v0v0v0v0v0v0v0v0v0v0v0v0v0v0v0v0v0v0v0v0v0v0v0v0v0v0v0v0v0v0v0v0v0v0v0v0v0v0v0v0v0v0v0v0v0v0v0v0v0v0v0
			v0v0v0v0v0v0v0v0v0v0v0v0v0v0v0v0v0v0v0v0v0v0v0v0v0v0v0v0v0v0v0v0v0v0v0v0v0v0v0v0v0v0v0v0v0v0v0v0v0v0v0v0v0v0v0v0v0v0v0v0v0v0
			v0v0v0v0v0v0v0v0v0v0v0v0v0v0v0v0v0v0v0v0v0v0v0v0v0v0v0v0v0v0v0v0v0v0v0v0v0v0v0v0v0v0v0v0v0v0v0v0v0v0v0v0v0v0v0v0v0v0v0v0v0v0
			v0v0v0v0v0v0v0v0v0v0v0v0v0v0v0v0v0v0v0v0v0v0v0v0v0v0v0v0v0v0v0v0v0v0v0v0v0v0v0v0v0v0v0v0v0v0v0v0v0v0v0v0v0v0v0v0v0v0v0v0v0v0
			v0v0v0v0v0v0v0v0v0v0v0v0v0v0v0v0v0v0v0v0v0v0v0v0v0v0v0v0v0v0v0v0v0v0v0v0v0v0v0v0v0v0v0v0v-0.01l0.1-0.02v0v0v0v0v0v0v0v0v0v0v0
			v0v0v0v0v0v0v0v0v0v0v0v0v0v0v0v0v0v0v0v0v0v0v0v0v0v0v0v0v0v0v0v0v0v0v0v0v0v0v0v0v0v0v0v0v0v0v0v0v0v0v0v0v0v0v0v0v0v0v0v0v0v0
			v0v0v0v0v0v0v0v0v0v0v0v0v0v0v0v0v0v0v0v0v0v0v0v0v0v0v0v0v0v0v0v0v0v0v0v0v0v0v0v0v0v0v0v0v0v0v0v0v0v0v0v0v0v0v0v0v0v0v0v0v0v0
			v0v0v0v0v0v0v0v0v0v0v0v0v0v0v0v0v0v0v0v0v0v0v0v0v0v0v0v0v0v0v0v0v0v0v0v0v0v0v0v0v0v0v0v0v0v0v0v0v0v0v0v0v0v0v0v0v0v0v0v0v0v0
			v0v0v0v0v0v0v0v0v0v0v0v0v0v0v0v0v0v0v0v0v0v0v0v0v0v0v0v0v0v0v0v0v0v0v0v0v0v0v0v0v0v0v0v0v0v0v0v0v0v0v0v0v0v0v0v0v0v0v0v0v0v0
			v0v0v0v0v0v0v0v0v0v0v0v0v0v0v0v0v0v0v0v0v0v0v0v0v0v0v0v0v0v0v0v0v0v0v0v0v0v0v0v0v0v0v0v0v0v0v0v0v0v0v0v0v0v0v0v0v0v0v0v0v0v0
			v0v0v0v0v0v0v0v0v0v0v0v0v0v0v0v0v0v0v0v0v0v0v0v0v0v0v0v0v0v0v0v0v0v0v0v0v0v0v0v0v0v0v0v0v0v0v0v0v0v0v0v0v0v0v0v0v0v0v0v0v0v0
			v0v0v0v0v0v0v0v0v0v0v0v0v0v0v0v0v0v0v0v0v0v0v0v0v0v0v0v0v0v0v0v0v0v0v0v0v0v0v0v0v0v0v0v0v0v0v0v0v0v0v0v0v0v0v0v0v0v0v0v0v0v0
			v0v0v0v0v0v0v0v0v0v0v0v0v0v0v0v0v0v0v0v0v0v0v0v0v0v0v0v0v0v0v0v0v0v0v0v0v0v0v0v0v0v0v0v0v0v0v0v0v0v0v0v0v0v0v0v0v0v0v0v0v0v0
			v0v0v0v0v0v0v0v0v0v0v0v0v0v0v0v0v0v0v0v0v0v0v0v0v0v0v0v0v0v0v0v0v0v0v0v0v0v0v0v0v0v0v0v0v0v0v0v0v0v0v0v0v0v0v0v0v0v0v0v0v0v0
			v0v0v0v0v0v0v0v0v0v0v0v0v0v0v0v0v0v0v0v0v0v0v0v0v0v0v0v0v0v0v0v0v0v0v0v0v0v0v0v0v0v0v0v0v0v0v0v0v0v0v0v0v0v0v0v0v0v0v0v0v0v0
			v0v0v0v0v0v0v0v0v0v0v0v0v0v0v0v0v0v0v0v0v0v0v0.01c0,0.1-0.01,0.17-0.04,0.23c-0.03,0.05-0.07,0.1-0.14,0.13l-0.07-0.07
			C85.6,30.51,85.64,30.48,85.67,30.44z M85.7,29.14c0.01-0.01,0.03-0.02,0.05-0.02c0.02,0,0.04,0.01,0.05,0.02
			c0.01,0.01,0.02,0.03,0.02,0.05s-0.01,0.04-0.02,0.05c-0.01,0.02-0.03,0.02-0.05,0.02c-0.02,0-0.04-0.01-0.05-0.02
			c-0.01-0.01-0.02-0.03-0.02-0.05S85.68,29.15,85.7,29.14z"/>
		<path d="M81.46,31.53c0.07-0.08,0.16-0.11,0.27-0.11c0.09,0,0.17,0.02,0.24,0.06l-0.03,0.09c-0.06-0.04-0.13-0.06-0.21-0.06
			c-0.08,0-0.15,0.03-0.19,0.08c-0.05,0.06-0.07,0.13-0.07,0.22s0.02,0.17,0.07,0.22s0.11,0.08,0.19,0.08
			c0.08,0,0.15-0.02,0.21-0.06l0.02,0.09c-0.07,0.04-0.15,0.06-0.24,0.06c-0.11,0-0.2-0.04-0.27-0.11c-0.07-0.07-0.1-0.17-0.1-0.29
			C81.36,31.7,81.39,31.61,81.46,31.53z"/>
		<path d="M82.21,31.53c0.07-0.07,0.16-0.11,0.27-0.11c0.11,0,0.19,0.04,0.26,0.11c0.07,0.07,0.1,0.17,0.1,0.29
			c0,0.12-0.04,0.22-0.11,0.29c-0.07,0.08-0.16,0.11-0.27,0.11c-0.11,0-0.19-0.04-0.26-0.11c-0.07-0.07-0.1-0.17-0.1-0.29
			C82.1,31.7,82.14,31.61,82.21,31.53z M82.28,32.04c0.05,0.06,0.11,0.09,0.19,0.09s0.14-0.03,0.19-0.09
			c0.05-0.06,0.07-0.13,0.07-0.22c0-0.09-0.02-0.17-0.07-0.22c-0.05-0.06-0.11-0.08-0.19-0.08s-0.14,0.03-0.19,0.09
			c-0.05,0.06-0.07,0.13-0.07,0.22C82.2,31.91,82.23,31.99,82.28,32.04z"/>
		<path d="M83.04,31.44l0.1-0.02v0.12c0.04-0.04,0.08-0.07,0.13-0.09c0.05-0.02,0.09-0.03,0.13-0.03c0.08,0,0.13,0.02,0.18,0.07
			c0.04,0.05,0.06,0.11,0.06,0.19v0.52h-0.1v-0.49c0-0.07-0.01-0.11-0.04-0.15c-0.03-0.03-0.07-0.05-0.13-0.05
			c-0.04,0-0.08,0.01-0.12,0.03s-0.08,0.04-0.11,0.08v0.58h-0.1V31.44z"/>
		<path d="M83.79,31.47l0.11-0.03l0-0.12c0-0.18,0.08-0.27,0.23-0.27c0.05,0,0.09,0.01,0.14,0.03c0,0,0,0.01-0.01,0.02
			c0,0.01-0.01,0.03-0.01,0.05c0,0.02-0.01,0.02-0.01,0.02c-0.04-0.02-0.08-0.03-0.12-0.03c-0.04,0-0.07,0.01-0.09,0.04
			C84.01,31.21,84,31.26,84,31.32v0.13h0.24l0,0.09H84v0.66h-0.1v-0.66l-0.12-0.01L83.79,31.47z"/>
		<path d="M84.37,31.55c0.02-0.02,0.04-0.02,0.06-0.02s0.04,0.01,0.06,0.02c0.02,0.02,0.02,0.04,0.02,0.06
			c0,0.02-0.01,0.04-0.02,0.06c-0.02,0.02-0.04,0.03-0.06,0.03s-0.04-0.01-0.06-0.03c-0.02-0.02-0.02-0.04-0.02-0.06
			C84.35,31.59,84.36,31.57,84.37,31.55z M84.37,32.08c0.02-0.02,0.04-0.02,0.06-0.02s0.04,0.01,0.06,0.02
			c0.02,0.02,0.02,0.04,0.02,0.06s-0.01,0.04-0.02,0.06c-0.02,0.02-0.04,0.03-0.06,0.03s-0.04-0.01-0.06-0.03
			c-0.02-0.02-0.02-0.04-0.02-0.06S84.36,32.09,84.37,32.08z"/>
		<path d="M85.06,32.08c0.02-0.02,0.04-0.02,0.06-0.02s0.04,0.01,0.06,0.02c0.02,0.02,0.02,0.04,0.02,0.06s-0.01,0.04-0.02,0.06
			c-0.02,0.02-0.04,0.03-0.06,0.03s-0.04-0.01-0.06-0.03c-0.02-0.02-0.02-0.04-0.02-0.06S85.05,32.09,85.06,32.08z"/>
		<path d="M85.58,31.67c-0.03-0.01-0.06-0.03-0.08-0.04s-0.04-0.03-0.06-0.05s-0.04-0.04-0.05-0.07c-0.01-0.03-0.02-0.05-0.02-0.08
			c0-0.09,0.03-0.16,0.09-0.21s0.14-0.08,0.23-0.08s0.17,0.02,0.23,0.08s0.08,0.12,0.08,0.2c0,0.1-0.07,0.19-0.2,0.26
			c0.03,0.01,0.06,0.03,0.08,0.04s0.05,0.03,0.07,0.05c0.02,0.02,0.04,0.04,0.05,0.07c0.01,0.03,0.02,0.05,0.02,0.08
			c0,0.04-0.01,0.08-0.02,0.11c-0.01,0.03-0.04,0.07-0.06,0.09c-0.03,0.03-0.06,0.05-0.11,0.06c-0.04,0.02-0.09,0.02-0.14,0.02
			c-0.11,0-0.2-0.03-0.25-0.08c-0.06-0.05-0.08-0.12-0.08-0.2C85.35,31.83,85.43,31.74,85.58,31.67z M85.52,32.08
			c0.04,0.04,0.1,0.05,0.18,0.05c0.08,0,0.13-0.02,0.17-0.05c0.04-0.03,0.06-0.08,0.06-0.14c0-0.03-0.01-0.06-0.02-0.08
			c-0.01-0.02-0.04-0.05-0.06-0.07c-0.03-0.02-0.06-0.03-0.08-0.05c-0.03-0.01-0.06-0.03-0.1-0.04c-0.06,0.02-0.11,0.05-0.14,0.09
			s-0.06,0.08-0.06,0.13C85.46,31.99,85.48,32.04,85.52,32.08z M85.74,31.64c0.05-0.02,0.09-0.05,0.12-0.09
			c0.03-0.04,0.05-0.08,0.05-0.13c0-0.06-0.02-0.11-0.06-0.14s-0.09-0.05-0.16-0.05c-0.07,0-0.12,0.02-0.16,0.05
			c-0.04,0.04-0.06,0.08-0.06,0.13C85.47,31.52,85.56,31.59,85.74,31.64z"/>
		<path d="M86.18,31.17h0.65l0.02,0.08L86.4,32.2h-0.1l0.45-0.94h-0.56L86.18,31.17z"/>
	</g>
	<g>
		<path d="M89.15,21.94l0.1-0.02v1.14h-0.1V21.94z"/>
		<path d="M89.55,22.39c0.07-0.08,0.15-0.11,0.26-0.11c0.08,0,0.15,0.03,0.2,0.08c0.05,0.05,0.08,0.12,0.08,0.2
			c0,0.04-0.01,0.08-0.02,0.12l-0.51,0v0.01c0,0.09,0.03,0.16,0.08,0.21c0.05,0.06,0.11,0.08,0.19,0.08c0.08,0,0.16-0.02,0.22-0.06
			l0.02,0.09c-0.07,0.04-0.15,0.06-0.24,0.06c-0.11,0-0.2-0.04-0.26-0.11c-0.07-0.07-0.1-0.17-0.1-0.28
			C89.44,22.56,89.48,22.47,89.55,22.39z M89.98,22.6c0,0,0-0.02,0-0.03c0-0.06-0.02-0.11-0.05-0.14c-0.03-0.04-0.08-0.05-0.14-0.05
			c-0.07,0-0.12,0.02-0.16,0.07c-0.04,0.04-0.07,0.1-0.08,0.17L89.98,22.6z"/>
		<path d="M90.18,22.32l0.11-0.03l0-0.17h0.1l0,0.18h0.25l0,0.09h-0.25l-0.01,0.45c0,0,0,0.01,0,0.01c0,0.09,0.04,0.13,0.11,0.13
			c0.04,0,0.09-0.01,0.15-0.04l0.02,0.09c-0.06,0.03-0.11,0.04-0.17,0.04c-0.07,0-0.12-0.02-0.16-0.06
			c-0.03-0.04-0.05-0.09-0.05-0.16c0-0.01,0-0.01,0-0.02l0.01-0.45l-0.12-0.01L90.18,22.32z"/>
		<path d="M90.73,22.32l0.11-0.03l0-0.17h0.1l0,0.18h0.25l0,0.09h-0.25l-0.01,0.45c0,0,0,0.01,0,0.01c0,0.09,0.04,0.13,0.11,0.13
			c0.04,0,0.09-0.01,0.15-0.04l0.02,0.09c-0.06,0.03-0.11,0.04-0.17,0.04c-0.07,0-0.12-0.02-0.16-0.06
			c-0.03-0.04-0.05-0.09-0.05-0.16c0-0.01,0-0.01,0-0.02l0.01-0.45l-0.12-0.01L90.73,22.32z"/>
		<path d="M91.42,22.39c0.07-0.08,0.15-0.11,0.26-0.11c0.08,0,0.15,0.03,0.2,0.08c0.05,0.05,0.08,0.12,0.08,0.2
			c0,0.04-0.01,0.08-0.02,0.12l-0.51,0v0.01c0,0.09,0.03,0.16,0.08,0.21c0.05,0.06,0.11,0.08,0.19,0.08c0.08,0,0.16-0.02,0.22-0.06
			l0.02,0.09c-0.07,0.04-0.15,0.06-0.24,0.06c-0.11,0-0.2-0.04-0.26-0.11c-0.07-0.07-0.1-0.17-0.1-0.28
			C91.32,22.56,91.35,22.47,91.42,22.39z M91.85,22.6c0,0,0-0.02,0-0.03c0-0.06-0.02-0.11-0.05-0.14c-0.03-0.04-0.08-0.05-0.14-0.05
			c-0.07,0-0.12,0.02-0.16,0.07c-0.04,0.04-0.07,0.1-0.08,0.17L91.85,22.6z"/>
		<path d="M92.15,22.3l0.1-0.02v0.16c0.03-0.05,0.06-0.09,0.1-0.12s0.08-0.04,0.13-0.04c0.05,0,0.09,0.01,0.13,0.03l-0.03,0.1
			c-0.04-0.02-0.07-0.03-0.12-0.03c-0.08,0-0.16,0.07-0.21,0.2v0.49h-0.1V22.3z"/>
		<path d="M92.72,22.41c0.02-0.02,0.04-0.02,0.06-0.02s0.04,0.01,0.06,0.02c0.02,0.02,0.02,0.04,0.02,0.06
			c0,0.02-0.01,0.04-0.02,0.06c-0.02,0.02-0.04,0.03-0.06,0.03s-0.04-0.01-0.06-0.03c-0.02-0.02-0.02-0.04-0.02-0.06
			C92.7,22.44,92.71,22.42,92.72,22.41z M92.72,22.93c0.02-0.02,0.04-0.02,0.06-0.02s0.04,0.01,0.06,0.02
			c0.02,0.02,0.02,0.04,0.02,0.06s-0.01,0.04-0.02,0.06c-0.02,0.02-0.04,0.03-0.06,0.03s-0.04-0.01-0.06-0.03
			c-0.02-0.02-0.02-0.04-0.02-0.06S92.71,22.95,92.72,22.93z"/>
		<path d="M93.83,22.6v-0.04c0-0.06-0.01-0.11-0.04-0.14s-0.07-0.04-0.14-0.04c-0.04,0-0.08,0.01-0.13,0.03
			c-0.05,0.02-0.09,0.04-0.12,0.06l-0.02-0.1c0.04-0.02,0.08-0.05,0.13-0.06c0.05-0.02,0.1-0.03,0.15-0.03
			c0.09,0,0.16,0.02,0.2,0.07c0.05,0.04,0.07,0.11,0.07,0.21v0.37c0,0.03,0,0.05,0.01,0.06c0.01,0.01,0.03,0.01,0.06,0.01
			c0,0,0,0,0,0l-0.01,0.08c-0.01,0-0.01,0-0.02,0c-0.08,0-0.13-0.04-0.14-0.11h0c-0.03,0.03-0.06,0.06-0.1,0.08
			c-0.04,0.02-0.08,0.03-0.12,0.03c-0.07,0-0.13-0.02-0.17-0.06c-0.05-0.04-0.07-0.09-0.07-0.15C93.37,22.71,93.53,22.62,93.83,22.6
			z M93.52,22.95c0.03,0.02,0.07,0.04,0.11,0.04c0.04,0,0.07-0.01,0.11-0.03c0.03-0.02,0.06-0.04,0.09-0.07v-0.22
			c-0.13,0.01-0.22,0.04-0.27,0.07c-0.05,0.03-0.08,0.07-0.08,0.12C93.48,22.89,93.5,22.93,93.52,22.95z"/>
		<path d="M89.21,24.39c0.07-0.08,0.16-0.11,0.27-0.11c0.09,0,0.17,0.02,0.24,0.06l-0.03,0.09c-0.06-0.04-0.13-0.06-0.21-0.06
			c-0.08,0-0.15,0.03-0.19,0.08c-0.05,0.06-0.07,0.13-0.07,0.22s0.02,0.17,0.07,0.22s0.11,0.08,0.19,0.08
			c0.08,0,0.15-0.02,0.21-0.06l0.02,0.09c-0.07,0.04-0.15,0.06-0.24,0.06c-0.11,0-0.2-0.04-0.27-0.11c-0.07-0.07-0.1-0.17-0.1-0.29
			C89.1,24.56,89.14,24.46,89.21,24.39z"/>
		<path d="M89.95,24.39c0.07-0.07,0.16-0.11,0.27-0.11c0.11,0,0.19,0.04,0.26,0.11c0.07,0.07,0.1,0.17,0.1,0.29
			c0,0.12-0.04,0.22-0.11,0.29c-0.07,0.08-0.16,0.11-0.27,0.11c-0.11,0-0.19-0.04-0.26-0.11c-0.07-0.07-0.1-0.17-0.1-0.29
			C89.85,24.56,89.88,24.46,89.95,24.39z M90.02,24.9c0.05,0.06,0.11,0.09,0.19,0.09s0.14-0.03,0.19-0.09
			c0.05-0.06,0.07-0.13,0.07-0.22c0-0.09-0.02-0.17-0.07-0.22c-0.05-0.06-0.11-0.08-0.19-0.08s-0.14,0.03-0.19,0.09
			c-0.05,0.06-0.07,0.13-0.07,0.22C89.95,24.77,89.97,24.84,90.02,24.9z"/>
		<path d="M90.78,24.3l0.1-0.02v0.12c0.04-0.04,0.08-0.07,0.13-0.09c0.05-0.02,0.09-0.03,0.13-0.03c0.08,0,0.13,0.02,0.18,0.07
			c0.04,0.05,0.06,0.11,0.06,0.19v0.52h-0.1v-0.49c0-0.07-0.01-0.11-0.04-0.15c-0.03-0.03-0.07-0.05-0.13-0.05
			c-0.04,0-0.08,0.01-0.12,0.03s-0.08,0.04-0.11,0.08v0.58h-0.1V24.3z"/>
		<path d="M91.53,24.32l0.11-0.03l0-0.12c0-0.18,0.08-0.27,0.23-0.27c0.05,0,0.09,0.01,0.14,0.03c0,0,0,0.01-0.01,0.02
			c0,0.01-0.01,0.03-0.01,0.05c0,0.02-0.01,0.02-0.01,0.02C91.94,24.01,91.9,24,91.87,24c-0.04,0-0.07,0.01-0.09,0.04
			c-0.02,0.03-0.03,0.07-0.03,0.13v0.13h0.24l0,0.09h-0.23v0.66h-0.1v-0.66l-0.12-0.01L91.53,24.32z"/>
		<path d="M92.12,24.41c0.02-0.02,0.04-0.02,0.06-0.02s0.04,0.01,0.06,0.02c0.02,0.02,0.02,0.04,0.02,0.06
			c0,0.02-0.01,0.04-0.02,0.06c-0.02,0.02-0.04,0.03-0.06,0.03s-0.04-0.01-0.06-0.03c-0.02-0.02-0.02-0.04-0.02-0.06
			C92.09,24.44,92.1,24.42,92.12,24.41z M92.12,24.93c0.02-0.02,0.04-0.02,0.06-0.02s0.04,0.01,0.06,0.02
			c0.02,0.02,0.02,0.04,0.02,0.06s-0.01,0.04-0.02,0.06c-0.02,0.02-0.04,0.03-0.06,0.03s-0.04-0.01-0.06-0.03
			c-0.02-0.02-0.02-0.04-0.02-0.06S92.1,24.95,92.12,24.93z"/>
		<path d="M92.81,24.93c0.02-0.02,0.04-0.02,0.06-0.02s0.04,0.01,0.06,0.02c0.02,0.02,0.02,0.04,0.02,0.06s-0.01,0.04-0.02,0.06
			c-0.02,0.02-0.04,0.03-0.06,0.03s-0.04-0.01-0.06-0.03c-0.02-0.02-0.02-0.04-0.02-0.06S92.79,24.95,92.81,24.93z"/>
		<path d="M93.18,24.09c0.06-0.06,0.14-0.09,0.24-0.09c0.07,0,0.14,0.02,0.19,0.06s0.09,0.09,0.12,0.15
			c0.03,0.06,0.04,0.13,0.04,0.21c0,0.06-0.01,0.11-0.02,0.17c-0.01,0.05-0.04,0.11-0.07,0.16c-0.03,0.05-0.07,0.1-0.11,0.15
			c-0.04,0.04-0.1,0.08-0.16,0.12c-0.06,0.03-0.13,0.06-0.21,0.08l-0.02-0.09c0.14-0.03,0.25-0.09,0.33-0.17
			c0.08-0.08,0.14-0.18,0.16-0.29l0,0c-0.04,0.03-0.08,0.06-0.13,0.08c-0.05,0.02-0.1,0.03-0.15,0.03c-0.05,0-0.1-0.01-0.15-0.04
			s-0.08-0.06-0.11-0.11c-0.03-0.05-0.04-0.1-0.04-0.17C93.09,24.24,93.12,24.16,93.18,24.09z M93.25,24.5
			c0.04,0.04,0.09,0.06,0.16,0.06c0.1,0,0.19-0.04,0.26-0.11c0-0.02,0-0.03,0-0.05c0-0.08-0.02-0.16-0.07-0.22
			c-0.04-0.06-0.11-0.09-0.18-0.09c-0.07,0-0.13,0.02-0.17,0.07c-0.04,0.05-0.06,0.1-0.06,0.18C93.19,24.4,93.21,24.46,93.25,24.5z"
			/>
		<path d="M94.02,24.09c0.06-0.06,0.14-0.09,0.24-0.09c0.07,0,0.14,0.02,0.19,0.06s0.09,0.09,0.12,0.15
			c0.03,0.06,0.04,0.13,0.04,0.21c0,0.06-0.01,0.11-0.02,0.17c-0.01,0.05-0.04,0.11-0.07,0.16c-0.03,0.05-0.07,0.1-0.11,0.15
			c-0.04,0.04-0.1,0.08-0.16,0.12c-0.06,0.03-0.13,0.06-0.21,0.08l-0.02-0.09c0.14-0.03,0.25-0.09,0.33-0.17
			c0.08-0.08,0.14-0.18,0.16-0.29l0,0c-0.04,0.03-0.08,0.06-0.13,0.08c-0.05,0.02-0.1,0.03-0.15,0.03c-0.05,0-0.1-0.01-0.15-0.04
			s-0.08-0.06-0.11-0.11c-0.03-0.05-0.04-0.1-0.04-0.17C93.92,24.24,93.95,24.16,94.02,24.09z M94.08,24.5
			c0.04,0.04,0.09,0.06,0.16,0.06c0.1,0,0.19-0.04,0.26-0.11c0-0.02,0-0.03,0-0.05c0-0.08-0.02-0.16-0.07-0.22
			c-0.04-0.06-0.11-0.09-0.18-0.09c-0.07,0-0.13,0.02-0.17,0.07c-0.04,0.05-0.06,0.1-0.06,0.18C94.02,24.4,94.04,24.46,94.08,24.5z"
			/>
	</g>
	<g>
		<path d="M102.61,21.94l0.1-0.02v1.14h-0.1V21.94z"/>
		<path d="M103,22.39c0.07-0.08,0.15-0.11,0.26-0.11c0.08,0,0.15,0.03,0.2,0.08s0.08,0.12,0.08,0.2c0,0.04-0.01,0.08-0.02,0.12
			l-0.51,0v0.01c0,0.09,0.03,0.16,0.08,0.21c0.05,0.06,0.11,0.08,0.19,0.08c0.08,0,0.16-0.02,0.22-0.06l0.02,0.09
			c-0.07,0.04-0.15,0.06-0.24,0.06c-0.11,0-0.2-0.04-0.26-0.11s-0.1-0.17-0.1-0.28C102.9,22.56,102.93,22.46,103,22.39z
			 M103.43,22.59c0,0,0-0.02,0-0.03c0-0.06-0.02-0.11-0.05-0.14c-0.03-0.04-0.08-0.05-0.14-0.05c-0.07,0-0.12,0.02-0.16,0.07
			c-0.04,0.04-0.07,0.1-0.08,0.17L103.43,22.59z"/>
		<path d="M103.64,22.32l0.11-0.03l0-0.17h0.1l0,0.18h0.25l0,0.09h-0.25l-0.01,0.45c0,0,0,0.01,0,0.01c0,0.09,0.04,0.13,0.11,0.13
			c0.04,0,0.09-0.01,0.15-0.04l0.02,0.09c-0.06,0.03-0.11,0.04-0.17,0.04c-0.07,0-0.12-0.02-0.16-0.06
			c-0.03-0.04-0.05-0.09-0.05-0.16c0-0.01,0-0.01,0-0.02l0.01-0.45l-0.12-0.01L103.64,22.32z"/>
		<path d="M104.19,22.32l0.11-0.03l0-0.17h0.1l0,0.18h0.25l0,0.09h-0.25l-0.01,0.45c0,0,0,0.01,0,0.01c0,0.09,0.04,0.13,0.11,0.13
			c0.04,0,0.09-0.01,0.15-0.04l0.02,0.09c-0.06,0.03-0.11,0.04-0.17,0.04c-0.07,0-0.12-0.02-0.16-0.06
			c-0.03-0.04-0.05-0.09-0.05-0.16c0-0.01,0-0.01,0-0.02l0.01-0.45l-0.12-0.01L104.19,22.32z"/>
		<path d="M104.88,22.39c0.07-0.08,0.15-0.11,0.26-0.11c0.08,0,0.15,0.03,0.2,0.08s0.08,0.12,0.08,0.2c0,0.04-0.01,0.08-0.02,0.12
			l-0.51,0v0.01c0,0.09,0.03,0.16,0.08,0.21c0.05,0.06,0.11,0.08,0.19,0.08c0.08,0,0.16-0.02,0.22-0.06l0.02,0.09
			c-0.07,0.04-0.15,0.06-0.24,0.06c-0.11,0-0.2-0.04-0.26-0.11s-0.1-0.17-0.1-0.28C104.77,22.56,104.81,22.46,104.88,22.39z
			 M105.31,22.59c0,0,0-0.02,0-0.03c0-0.06-0.02-0.11-0.05-0.14c-0.03-0.04-0.08-0.05-0.14-0.05c-0.07,0-0.12,0.02-0.16,0.07
			c-0.04,0.04-0.07,0.1-0.08,0.17L105.31,22.59z"/>
		<path d="M105.61,22.3l0.1-0.02v0.16c0.03-0.05,0.06-0.09,0.09-0.12s0.08-0.04,0.13-0.04c0.05,0,0.09,0.01,0.13,0.03l-0.03,0.1
			c-0.04-0.02-0.08-0.03-0.12-0.03c-0.08,0-0.16,0.07-0.21,0.2v0.49h-0.1V22.3z"/>
		<path d="M106.18,22.4c0.02-0.02,0.04-0.02,0.06-0.02s0.04,0.01,0.06,0.02c0.02,0.02,0.02,0.04,0.02,0.06
			c0,0.02-0.01,0.04-0.02,0.06s-0.04,0.03-0.06,0.03s-0.04-0.01-0.06-0.03c-0.02-0.02-0.02-0.04-0.02-0.06
			C106.16,22.44,106.17,22.42,106.18,22.4z M106.18,22.93c0.02-0.02,0.04-0.02,0.06-0.02s0.04,0.01,0.06,0.02
			c0.02,0.02,0.02,0.04,0.02,0.06s-0.01,0.04-0.02,0.06c-0.02,0.02-0.04,0.03-0.06,0.03s-0.04-0.01-0.06-0.03
			c-0.02-0.02-0.02-0.04-0.02-0.06S106.17,22.95,106.18,22.93z"/>
		<path d="M106.89,22.3l0.1-0.02v0.12c0.04-0.04,0.08-0.07,0.13-0.09c0.05-0.02,0.09-0.03,0.13-0.03c0.08,0,0.13,0.02,0.18,0.07
			c0.04,0.05,0.06,0.11,0.06,0.19v0.52h-0.1v-0.49c0-0.07-0.01-0.11-0.04-0.15c-0.03-0.03-0.07-0.05-0.13-0.05
			c-0.04,0-0.08,0.01-0.12,0.03c-0.04,0.02-0.08,0.04-0.11,0.08v0.58h-0.1V22.3z"/>
		<path d="M102.66,24.39c0.07-0.08,0.16-0.11,0.27-0.11c0.09,0,0.17,0.02,0.24,0.06l-0.03,0.09c-0.06-0.04-0.13-0.06-0.21-0.06
			c-0.08,0-0.15,0.03-0.19,0.08s-0.07,0.13-0.07,0.22s0.02,0.17,0.07,0.22c0.05,0.06,0.11,0.08,0.2,0.08c0.08,0,0.15-0.02,0.21-0.06
			l0.02,0.09c-0.07,0.04-0.15,0.06-0.24,0.06c-0.11,0-0.2-0.04-0.27-0.11s-0.1-0.17-0.1-0.29
			C102.56,24.56,102.59,24.46,102.66,24.39z"/>
		<path d="M103.41,24.38c0.07-0.07,0.16-0.11,0.27-0.11c0.11,0,0.2,0.04,0.26,0.11c0.07,0.07,0.1,0.17,0.1,0.29
			c0,0.12-0.04,0.22-0.11,0.29c-0.07,0.08-0.16,0.11-0.27,0.11s-0.19-0.04-0.26-0.11s-0.1-0.17-0.1-0.29
			C103.3,24.56,103.34,24.46,103.41,24.38z M103.48,24.9c0.05,0.06,0.11,0.09,0.19,0.09s0.14-0.03,0.19-0.09
			c0.05-0.06,0.07-0.13,0.07-0.22c0-0.09-0.02-0.17-0.07-0.22c-0.05-0.06-0.11-0.08-0.19-0.08s-0.14,0.03-0.19,0.09
			c-0.05,0.06-0.07,0.13-0.07,0.22C103.4,24.77,103.43,24.84,103.48,24.9z"/>
		<path d="M104.24,24.3l0.1-0.02v0.12c0.04-0.04,0.08-0.07,0.13-0.09c0.05-0.02,0.09-0.03,0.13-0.03c0.08,0,0.13,0.02,0.18,0.07
			c0.04,0.05,0.06,0.11,0.06,0.19v0.52h-0.1v-0.49c0-0.07-0.01-0.11-0.04-0.15c-0.03-0.03-0.07-0.05-0.13-0.05
			c-0.04,0-0.08,0.01-0.12,0.03c-0.04,0.02-0.08,0.04-0.11,0.08v0.58h-0.1V24.3z"/>
		<path d="M104.99,24.32l0.11-0.03l0-0.12c0-0.18,0.08-0.27,0.23-0.27c0.05,0,0.09,0.01,0.14,0.03c0,0,0,0.01-0.01,0.02
			c0,0.01-0.01,0.03-0.01,0.05c0,0.02-0.01,0.02-0.01,0.02c-0.04-0.02-0.08-0.03-0.12-0.03c-0.04,0-0.08,0.01-0.09,0.04
			c-0.02,0.03-0.03,0.07-0.03,0.13v0.13h0.24l0,0.09h-0.23v0.66h-0.1v-0.66l-0.12-0.01L104.99,24.32z"/>
		<path d="M105.57,24.4c0.02-0.02,0.04-0.02,0.06-0.02s0.04,0.01,0.06,0.02c0.02,0.02,0.02,0.04,0.02,0.06
			c0,0.02-0.01,0.04-0.02,0.06s-0.04,0.03-0.06,0.03s-0.04-0.01-0.06-0.03c-0.02-0.02-0.02-0.04-0.02-0.06
			C105.55,24.44,105.56,24.42,105.57,24.4z M105.57,24.93c0.02-0.02,0.04-0.02,0.06-0.02s0.04,0.01,0.06,0.02
			c0.02,0.02,0.02,0.04,0.02,0.06s-0.01,0.04-0.02,0.06c-0.02,0.02-0.04,0.03-0.06,0.03s-0.04-0.01-0.06-0.03
			c-0.02-0.02-0.02-0.04-0.02-0.06S105.56,24.95,105.57,24.93z"/>
		<path d="M106.26,24.93c0.02-0.02,0.04-0.02,0.06-0.02s0.04,0.01,0.06,0.02c0.02,0.02,0.02,0.04,0.02,0.06s-0.01,0.04-0.02,0.06
			c-0.02,0.02-0.04,0.03-0.06,0.03s-0.04-0.01-0.06-0.03c-0.02-0.02-0.02-0.04-0.02-0.06S106.25,24.95,106.26,24.93z"/>
		<path d="M106.78,24.53c-0.03-0.01-0.06-0.03-0.08-0.04c-0.02-0.01-0.04-0.03-0.06-0.05c-0.02-0.02-0.04-0.04-0.05-0.07
			c-0.01-0.03-0.02-0.05-0.02-0.08c0-0.09,0.03-0.16,0.09-0.21c0.06-0.05,0.14-0.08,0.23-0.08c0.1,0,0.17,0.02,0.23,0.08
			s0.08,0.12,0.08,0.2c0,0.1-0.07,0.19-0.2,0.26c0.03,0.01,0.06,0.03,0.08,0.04s0.05,0.03,0.07,0.05c0.02,0.02,0.04,0.04,0.05,0.07
			c0.01,0.03,0.02,0.05,0.02,0.08c0,0.04-0.01,0.08-0.02,0.11c-0.01,0.03-0.04,0.07-0.06,0.09c-0.03,0.03-0.06,0.05-0.11,0.06
			c-0.04,0.02-0.09,0.02-0.14,0.02c-0.11,0-0.2-0.03-0.25-0.08c-0.06-0.05-0.08-0.12-0.08-0.2
			C106.55,24.68,106.63,24.59,106.78,24.53z M106.72,24.93c0.04,0.04,0.1,0.05,0.18,0.05c0.08,0,0.13-0.02,0.17-0.05
			c0.04-0.03,0.06-0.08,0.06-0.14c0-0.03-0.01-0.06-0.02-0.08c-0.01-0.02-0.04-0.05-0.06-0.07s-0.06-0.03-0.08-0.05
			c-0.03-0.01-0.06-0.03-0.1-0.04c-0.06,0.02-0.11,0.05-0.14,0.09s-0.06,0.08-0.06,0.13C106.66,24.85,106.68,24.9,106.72,24.93z
			 M106.94,24.5c0.05-0.02,0.09-0.05,0.13-0.09s0.05-0.08,0.05-0.13c0-0.06-0.02-0.11-0.06-0.14c-0.04-0.04-0.09-0.05-0.16-0.05
			c-0.07,0-0.12,0.02-0.16,0.05s-0.06,0.08-0.06,0.13C106.67,24.37,106.76,24.45,106.94,24.5z"/>
	</g>
	<g>
		<path d="M116.51,21.94l0.1-0.02v1.14h-0.1V21.94z"/>
		<path d="M116.9,22.39c0.07-0.08,0.15-0.11,0.26-0.11c0.08,0,0.15,0.03,0.2,0.08s0.08,0.12,0.08,0.2c0,0.04-0.01,0.08-0.02,0.12
			l-0.51,0v0.01c0,0.09,0.03,0.16,0.08,0.21c0.05,0.06,0.11,0.08,0.19,0.08c0.08,0,0.16-0.02,0.22-0.06l0.02,0.09
			c-0.07,0.04-0.15,0.06-0.24,0.06c-0.11,0-0.2-0.04-0.26-0.11s-0.1-0.17-0.1-0.28C116.8,22.56,116.83,22.46,116.9,22.39z
			 M117.33,22.59c0,0,0-0.02,0-0.03c0-0.06-0.02-0.11-0.05-0.14c-0.03-0.04-0.08-0.05-0.14-0.05c-0.07,0-0.12,0.02-0.16,0.07
			c-0.04,0.04-0.07,0.1-0.08,0.17L117.33,22.59z"/>
		<path d="M117.54,22.32l0.11-0.03l0-0.17h0.1l0,0.18H118l0,0.09h-0.25l-0.01,0.45c0,0,0,0.01,0,0.01c0,0.09,0.04,0.13,0.11,0.13
			c0.04,0,0.09-0.01,0.15-0.04l0.02,0.09c-0.06,0.03-0.11,0.04-0.17,0.04c-0.07,0-0.12-0.02-0.16-0.06
			c-0.03-0.04-0.05-0.09-0.05-0.16c0-0.01,0-0.01,0-0.02l0.01-0.45l-0.12-0.01L117.54,22.32z"/>
		<path d="M118.09,22.32l0.11-0.03l0-0.17h0.1l0,0.18h0.25l0,0.09h-0.25l-0.01,0.45c0,0,0,0.01,0,0.01c0,0.09,0.04,0.13,0.11,0.13
			c0.04,0,0.09-0.01,0.15-0.04l0.02,0.09c-0.06,0.03-0.11,0.04-0.17,0.04c-0.07,0-0.12-0.02-0.16-0.06
			c-0.03-0.04-0.05-0.09-0.05-0.16c0-0.01,0-0.01,0-0.02l0.01-0.45l-0.12-0.01L118.09,22.32z"/>
		<path d="M118.78,22.39c0.07-0.08,0.15-0.11,0.26-0.11c0.08,0,0.15,0.03,0.2,0.08s0.08,0.12,0.08,0.2c0,0.04-0.01,0.08-0.02,0.12
			l-0.51,0v0.01c0,0.09,0.03,0.16,0.08,0.21c0.05,0.06,0.11,0.08,0.19,0.08c0.08,0,0.16-0.02,0.22-0.06l0.02,0.09
			c-0.07,0.04-0.15,0.06-0.24,0.06c-0.11,0-0.2-0.04-0.26-0.11s-0.1-0.17-0.1-0.28C118.67,22.56,118.71,22.46,118.78,22.39z
			 M119.21,22.59c0,0,0-0.02,0-0.03c0-0.06-0.02-0.11-0.05-0.14c-0.03-0.04-0.08-0.05-0.14-0.05c-0.07,0-0.12,0.02-0.16,0.07
			c-0.04,0.04-0.07,0.1-0.08,0.17L119.21,22.59z"/>
		<path d="M119.51,22.3l0.1-0.02v0.16c0.03-0.05,0.06-0.09,0.09-0.12s0.08-0.04,0.13-0.04c0.05,0,0.09,0.01,0.13,0.03l-0.03,0.1
			c-0.04-0.02-0.08-0.03-0.12-0.03c-0.08,0-0.16,0.07-0.21,0.2v0.49h-0.1V22.3z"/>
		<path d="M120.08,22.4c0.02-0.02,0.04-0.02,0.06-0.02s0.04,0.01,0.06,0.02c0.02,0.02,0.02,0.04,0.02,0.06
			c0,0.02-0.01,0.04-0.02,0.06s-0.04,0.03-0.06,0.03s-0.04-0.01-0.06-0.03c-0.02-0.02-0.02-0.04-0.02-0.06
			C120.06,22.44,120.06,22.42,120.08,22.4z M120.08,22.93c0.02-0.02,0.04-0.02,0.06-0.02s0.04,0.01,0.06,0.02
			c0.02,0.02,0.02,0.04,0.02,0.06s-0.01,0.04-0.02,0.06c-0.02,0.02-0.04,0.03-0.06,0.03s-0.04-0.01-0.06-0.03
			c-0.02-0.02-0.02-0.04-0.02-0.06S120.06,22.95,120.08,22.93z"/>
		<path d="M120.71,22.98l0.62-0.86h-0.6v-0.1h0.73v0.08l-0.62,0.86h0.61v0.1h-0.75V22.98z"/>
		<path d="M116.56,24.39c0.07-0.08,0.16-0.11,0.27-0.11c0.09,0,0.17,0.02,0.24,0.06l-0.03,0.09c-0.06-0.04-0.13-0.06-0.21-0.06
			c-0.08,0-0.15,0.03-0.19,0.08s-0.07,0.13-0.07,0.22s0.02,0.17,0.07,0.22c0.05,0.06,0.11,0.08,0.2,0.08c0.08,0,0.15-0.02,0.21-0.06
			l0.02,0.09c-0.07,0.04-0.15,0.06-0.24,0.06c-0.11,0-0.2-0.04-0.27-0.11s-0.1-0.17-0.1-0.29
			C116.46,24.56,116.49,24.46,116.56,24.39z"/>
		<path d="M117.31,24.38c0.07-0.07,0.16-0.11,0.27-0.11c0.11,0,0.2,0.04,0.26,0.11c0.07,0.07,0.1,0.17,0.1,0.29
			c0,0.12-0.04,0.22-0.11,0.29c-0.07,0.08-0.16,0.11-0.27,0.11s-0.19-0.04-0.26-0.11s-0.1-0.17-0.1-0.29
			C117.2,24.56,117.24,24.46,117.31,24.38z M117.38,24.9c0.05,0.06,0.11,0.09,0.19,0.09s0.14-0.03,0.19-0.09
			c0.05-0.06,0.07-0.13,0.07-0.22c0-0.09-0.02-0.17-0.07-0.22c-0.05-0.06-0.11-0.08-0.19-0.08s-0.14,0.03-0.19,0.09
			c-0.05,0.06-0.07,0.13-0.07,0.22C117.3,24.77,117.33,24.84,117.38,24.9z"/>
		<path d="M118.14,24.3l0.1-0.02v0.12c0.04-0.04,0.08-0.07,0.13-0.09c0.05-0.02,0.09-0.03,0.13-0.03c0.08,0,0.13,0.02,0.18,0.07
			c0.04,0.05,0.06,0.11,0.06,0.19v0.52h-0.1v-0.49c0-0.07-0.01-0.11-0.04-0.15c-0.03-0.03-0.07-0.05-0.13-0.05
			c-0.04,0-0.08,0.01-0.12,0.03c-0.04,0.02-0.08,0.04-0.11,0.08v0.58h-0.1V24.3z"/>
		<path d="M118.89,24.32l0.11-0.03l0-0.12c0-0.18,0.08-0.27,0.23-0.27c0.05,0,0.09,0.01,0.14,0.03c0,0,0,0.01-0.01,0.02
			c0,0.01-0.01,0.03-0.01,0.05c0,0.02-0.01,0.02-0.01,0.02c-0.04-0.02-0.08-0.03-0.12-0.03c-0.04,0-0.08,0.01-0.09,0.04
			c-0.02,0.03-0.03,0.07-0.03,0.13v0.13h0.24l0,0.09h-0.23v0.66H119v-0.66l-0.12-0.01L118.89,24.32z"/>
		<path d="M119.47,24.4c0.02-0.02,0.04-0.02,0.06-0.02s0.04,0.01,0.06,0.02c0.02,0.02,0.02,0.04,0.02,0.06
			c0,0.02-0.01,0.04-0.02,0.06s-0.04,0.03-0.06,0.03s-0.04-0.01-0.06-0.03c-0.02-0.02-0.02-0.04-0.02-0.06
			C119.45,24.44,119.46,24.42,119.47,24.4z M119.47,24.93c0.02-0.02,0.04-0.02,0.06-0.02s0.04,0.01,0.06,0.02
			c0.02,0.02,0.02,0.04,0.02,0.06s-0.01,0.04-0.02,0.06c-0.02,0.02-0.04,0.03-0.06,0.03s-0.04-0.01-0.06-0.03
			c-0.02-0.02-0.02-0.04-0.02-0.06S119.46,24.95,119.47,24.93z"/>
		<path d="M120.16,24.93c0.02-0.02,0.04-0.02,0.06-0.02s0.04,0.01,0.06,0.02c0.02,0.02,0.02,0.04,0.02,0.06s-0.01,0.04-0.02,0.06
			c-0.02,0.02-0.04,0.03-0.06,0.03s-0.04-0.01-0.06-0.03c-0.02-0.02-0.02-0.04-0.02-0.06S120.15,24.95,120.16,24.93z"/>
		<path d="M120.54,24.09c0.06-0.06,0.14-0.09,0.24-0.09c0.07,0,0.14,0.02,0.19,0.06c0.05,0.04,0.09,0.09,0.12,0.15
			c0.03,0.06,0.04,0.13,0.04,0.21c0,0.06-0.01,0.11-0.02,0.17c-0.01,0.05-0.04,0.11-0.07,0.16c-0.03,0.05-0.07,0.1-0.11,0.15
			c-0.04,0.04-0.1,0.08-0.16,0.12s-0.13,0.06-0.21,0.08l-0.03-0.09c0.14-0.03,0.25-0.09,0.33-0.17c0.08-0.08,0.14-0.18,0.16-0.29
			l0,0c-0.04,0.03-0.08,0.06-0.13,0.08c-0.05,0.02-0.1,0.03-0.15,0.03c-0.05,0-0.1-0.01-0.15-0.04c-0.04-0.02-0.08-0.06-0.11-0.11
			c-0.03-0.05-0.04-0.1-0.04-0.17C120.44,24.24,120.47,24.16,120.54,24.09z M120.6,24.49c0.04,0.04,0.09,0.06,0.16,0.06
			c0.1,0,0.19-0.04,0.26-0.11c0-0.02,0-0.03,0-0.05c0-0.08-0.02-0.16-0.07-0.22c-0.04-0.06-0.11-0.09-0.18-0.09
			c-0.07,0-0.13,0.02-0.17,0.07c-0.04,0.05-0.06,0.1-0.06,0.18C120.54,24.4,120.56,24.46,120.6,24.49z"/>
		<path d="M121.33,24.91c0.08,0.05,0.16,0.07,0.25,0.07c0.08,0,0.14-0.02,0.18-0.06s0.07-0.1,0.07-0.17c0-0.07-0.02-0.12-0.07-0.16
			c-0.05-0.04-0.11-0.06-0.19-0.06c-0.08,0-0.15,0.01-0.21,0.04l-0.03-0.03l0.07-0.52h0.5l0,0.1h-0.43l-0.05,0.34
			c0.05-0.01,0.1-0.02,0.14-0.02c0.1,0,0.19,0.03,0.25,0.08c0.06,0.05,0.1,0.13,0.1,0.23c0,0.1-0.03,0.18-0.1,0.24
			c-0.07,0.06-0.15,0.09-0.26,0.09c-0.05,0-0.09-0.01-0.14-0.02c-0.05-0.01-0.09-0.03-0.12-0.05L121.33,24.91z"/>
	</g>
	<g>
		<path d="M132.81,21.94l0.1-0.02v1.14h-0.1V21.94z"/>
		<path d="M133.2,22.39c0.07-0.08,0.15-0.11,0.26-0.11c0.08,0,0.15,0.03,0.2,0.08c0.05,0.05,0.08,0.12,0.08,0.2
			c0,0.04-0.01,0.08-0.02,0.12l-0.51,0v0.01c0,0.09,0.03,0.16,0.08,0.21c0.05,0.06,0.11,0.08,0.19,0.08c0.08,0,0.16-0.02,0.22-0.06
			l0.02,0.09c-0.07,0.04-0.15,0.06-0.24,0.06c-0.11,0-0.2-0.04-0.26-0.11c-0.07-0.07-0.1-0.17-0.1-0.28
			C133.1,22.56,133.13,22.47,133.2,22.39z M133.63,22.6c0,0,0-0.02,0-0.03c0-0.06-0.02-0.11-0.05-0.14
			c-0.03-0.04-0.08-0.05-0.13-0.05c-0.07,0-0.12,0.02-0.16,0.07c-0.04,0.04-0.07,0.1-0.08,0.17L133.63,22.6z"/>
		<path d="M133.84,22.32l0.11-0.03l0-0.17h0.1l0,0.18h0.25l0,0.09h-0.25l-0.01,0.45c0,0,0,0.01,0,0.01c0,0.09,0.04,0.13,0.11,0.13
			c0.04,0,0.09-0.01,0.15-0.04l0.02,0.09c-0.06,0.03-0.11,0.04-0.17,0.04c-0.07,0-0.13-0.02-0.16-0.06
			c-0.03-0.04-0.05-0.09-0.05-0.16c0-0.01,0-0.01,0-0.02l0.01-0.45l-0.12-0.01L133.84,22.32z"/>
		<path d="M134.39,22.32l0.11-0.03l0-0.17h0.1l0,0.18h0.25l0,0.09h-0.25l-0.01,0.45c0,0,0,0.01,0,0.01c0,0.09,0.04,0.13,0.11,0.13
			c0.04,0,0.09-0.01,0.15-0.04l0.02,0.09c-0.06,0.03-0.11,0.04-0.17,0.04c-0.07,0-0.13-0.02-0.16-0.06
			c-0.03-0.04-0.05-0.09-0.05-0.16c0-0.01,0-0.01,0-0.02l0.01-0.45l-0.12-0.01L134.39,22.32z"/>
		<path d="M135.08,22.39c0.07-0.08,0.15-0.11,0.26-0.11c0.08,0,0.15,0.03,0.2,0.08c0.05,0.05,0.08,0.12,0.08,0.2
			c0,0.04-0.01,0.08-0.02,0.12l-0.51,0v0.01c0,0.09,0.03,0.16,0.08,0.21c0.05,0.06,0.11,0.08,0.19,0.08c0.08,0,0.16-0.02,0.22-0.06
			l0.02,0.09c-0.07,0.04-0.15,0.06-0.24,0.06c-0.11,0-0.2-0.04-0.26-0.11c-0.07-0.07-0.1-0.17-0.1-0.28
			C134.97,22.56,135.01,22.47,135.08,22.39z M135.51,22.6c0,0,0-0.02,0-0.03c0-0.06-0.02-0.11-0.05-0.14
			c-0.03-0.04-0.08-0.05-0.13-0.05c-0.07,0-0.12,0.02-0.16,0.07c-0.04,0.04-0.07,0.1-0.08,0.17L135.51,22.6z"/>
		<path d="M135.81,22.3l0.1-0.02v0.16c0.03-0.05,0.06-0.09,0.1-0.12s0.08-0.04,0.13-0.04s0.09,0.01,0.13,0.03l-0.03,0.1
			c-0.04-0.02-0.07-0.03-0.12-0.03c-0.08,0-0.16,0.07-0.21,0.2v0.49h-0.1V22.3z"/>
		<path d="M136.38,22.41c0.02-0.02,0.04-0.02,0.06-0.02s0.04,0.01,0.06,0.02c0.01,0.02,0.02,0.04,0.02,0.06
			c0,0.02-0.01,0.04-0.02,0.06c-0.02,0.02-0.04,0.03-0.06,0.03s-0.04-0.01-0.06-0.03c-0.02-0.02-0.02-0.04-0.02-0.06
			C136.36,22.44,136.36,22.42,136.38,22.41z M136.38,22.93c0.01-0.02,0.04-0.02,0.06-0.02s0.04,0.01,0.06,0.02
			c0.01,0.02,0.02,0.04,0.02,0.06s-0.01,0.04-0.02,0.06c-0.02,0.02-0.04,0.03-0.06,0.03s-0.04-0.01-0.06-0.03
			c-0.02-0.02-0.02-0.04-0.02-0.06S136.36,22.95,136.38,22.93z"/>
		<path d="M137.24,22.67L137,22.3h0.11l0.19,0.29l0.19-0.29h0.11l-0.24,0.37l0.26,0.39h-0.12l-0.21-0.32l-0.2,0.32h-0.12
			L137.24,22.67z"/>
		<path d="M132.86,24.39c0.07-0.08,0.16-0.11,0.27-0.11c0.09,0,0.17,0.02,0.24,0.06l-0.03,0.09c-0.06-0.04-0.13-0.06-0.21-0.06
			c-0.08,0-0.15,0.03-0.19,0.08c-0.05,0.06-0.07,0.13-0.07,0.22s0.02,0.17,0.07,0.22c0.05,0.06,0.11,0.08,0.19,0.08
			c0.08,0,0.15-0.02,0.21-0.06l0.02,0.09c-0.07,0.04-0.15,0.06-0.24,0.06c-0.11,0-0.2-0.04-0.27-0.11c-0.07-0.07-0.1-0.17-0.1-0.29
			C132.76,24.56,132.79,24.46,132.86,24.39z"/>
		<path d="M133.61,24.39c0.07-0.07,0.16-0.11,0.27-0.11s0.19,0.04,0.26,0.11c0.07,0.07,0.1,0.17,0.1,0.29
			c0,0.12-0.04,0.22-0.11,0.29c-0.07,0.08-0.16,0.11-0.27,0.11c-0.11,0-0.19-0.04-0.26-0.11c-0.07-0.07-0.1-0.17-0.1-0.29
			C133.5,24.56,133.54,24.46,133.61,24.39z M133.68,24.9c0.05,0.06,0.11,0.09,0.19,0.09s0.14-0.03,0.19-0.09
			c0.05-0.06,0.07-0.13,0.07-0.22c0-0.09-0.02-0.17-0.07-0.22c-0.05-0.06-0.11-0.08-0.19-0.08s-0.14,0.03-0.19,0.09
			s-0.07,0.13-0.07,0.22C133.6,24.77,133.63,24.84,133.68,24.9z"/>
		<path d="M134.44,24.3l0.1-0.02v0.12c0.04-0.04,0.08-0.07,0.13-0.09c0.05-0.02,0.09-0.03,0.13-0.03c0.08,0,0.13,0.02,0.18,0.07
			c0.04,0.05,0.06,0.11,0.06,0.19v0.52h-0.1v-0.49c0-0.07-0.01-0.11-0.04-0.15c-0.03-0.03-0.07-0.05-0.13-0.05
			c-0.04,0-0.08,0.01-0.12,0.03c-0.04,0.02-0.08,0.04-0.11,0.08v0.58h-0.1V24.3z"/>
		<path d="M135.19,24.32l0.11-0.03l0-0.12c0-0.18,0.08-0.27,0.23-0.27c0.04,0,0.09,0.01,0.14,0.03c0,0,0,0.01-0.01,0.02
			c0,0.01-0.01,0.03-0.01,0.05s-0.01,0.02-0.01,0.02c-0.04-0.02-0.08-0.03-0.12-0.03c-0.04,0-0.07,0.01-0.09,0.04
			s-0.03,0.07-0.03,0.13v0.13h0.24l0,0.09h-0.23v0.66h-0.1v-0.66l-0.12-0.01L135.19,24.32z"/>
		<path d="M135.77,24.41c0.02-0.02,0.04-0.02,0.06-0.02s0.04,0.01,0.06,0.02c0.01,0.02,0.02,0.04,0.02,0.06
			c0,0.02-0.01,0.04-0.02,0.06c-0.02,0.02-0.04,0.03-0.06,0.03s-0.04-0.01-0.06-0.03c-0.02-0.02-0.02-0.04-0.02-0.06
			C135.75,24.44,135.76,24.42,135.77,24.41z M135.77,24.93c0.01-0.02,0.04-0.02,0.06-0.02s0.04,0.01,0.06,0.02
			c0.01,0.02,0.02,0.04,0.02,0.06s-0.01,0.04-0.02,0.06c-0.02,0.02-0.04,0.03-0.06,0.03s-0.04-0.01-0.06-0.03
			c-0.02-0.02-0.02-0.04-0.02-0.06S135.76,24.95,135.77,24.93z"/>
		<path d="M136.46,24.93c0.01-0.02,0.04-0.02,0.06-0.02s0.04,0.01,0.06,0.02c0.01,0.02,0.02,0.04,0.02,0.06s-0.01,0.04-0.02,0.06
			c-0.02,0.02-0.04,0.03-0.06,0.03s-0.04-0.01-0.06-0.03c-0.02-0.02-0.02-0.04-0.02-0.06S136.45,24.95,136.46,24.93z"/>
		<path d="M136.84,24.09c0.06-0.06,0.14-0.09,0.24-0.09c0.07,0,0.14,0.02,0.19,0.06c0.05,0.04,0.09,0.09,0.12,0.15
			c0.03,0.06,0.04,0.13,0.04,0.21c0,0.06-0.01,0.11-0.02,0.17c-0.01,0.05-0.04,0.11-0.07,0.16c-0.03,0.05-0.07,0.1-0.11,0.15
			c-0.04,0.04-0.1,0.08-0.16,0.12c-0.06,0.03-0.13,0.06-0.21,0.08l-0.02-0.09c0.14-0.03,0.25-0.09,0.33-0.17
			c0.08-0.08,0.14-0.18,0.16-0.29l0,0c-0.04,0.03-0.08,0.06-0.13,0.08c-0.05,0.02-0.1,0.03-0.15,0.03c-0.05,0-0.1-0.01-0.15-0.04
			c-0.04-0.02-0.08-0.06-0.11-0.11c-0.03-0.05-0.04-0.1-0.04-0.17C136.74,24.24,136.78,24.16,136.84,24.09z M136.91,24.5
			c0.04,0.04,0.09,0.06,0.16,0.06c0.1,0,0.19-0.04,0.26-0.11c0-0.02,0-0.03,0-0.05c0-0.08-0.02-0.16-0.07-0.22
			c-0.04-0.06-0.11-0.09-0.18-0.09c-0.07,0-0.13,0.02-0.17,0.07c-0.04,0.05-0.06,0.1-0.06,0.18
			C136.84,24.4,136.86,24.46,136.91,24.5z"/>
		<path d="M137.67,24.09c0.06-0.06,0.14-0.09,0.24-0.09c0.07,0,0.14,0.02,0.19,0.06c0.05,0.04,0.09,0.09,0.12,0.15
			c0.03,0.06,0.04,0.13,0.04,0.21c0,0.06-0.01,0.11-0.02,0.17c-0.01,0.05-0.04,0.11-0.07,0.16c-0.03,0.05-0.07,0.1-0.11,0.15
			c-0.04,0.04-0.1,0.08-0.16,0.12c-0.06,0.03-0.13,0.06-0.21,0.08l-0.02-0.09c0.14-0.03,0.25-0.09,0.33-0.17
			c0.08-0.08,0.14-0.18,0.16-0.29l0,0c-0.04,0.03-0.08,0.06-0.13,0.08c-0.05,0.02-0.1,0.03-0.15,0.03c-0.05,0-0.1-0.01-0.15-0.04
			c-0.04-0.02-0.08-0.06-0.11-0.11c-0.03-0.05-0.04-0.1-0.04-0.17C137.58,24.24,137.61,24.16,137.67,24.09z M137.74,24.5
			c0.04,0.04,0.09,0.06,0.16,0.06c0.1,0,0.19-0.04,0.26-0.11c0-0.02,0-0.03,0-0.05c0-0.08-0.02-0.16-0.07-0.22
			c-0.04-0.06-0.11-0.09-0.18-0.09c-0.07,0-0.13,0.02-0.17,0.07c-0.04,0.05-0.06,0.1-0.06,0.18C137.68,24.4,137.7,24.46,137.74,24.5
			z"/>
	</g>
	<g>
		<path d="M148.71,21.94l0.1-0.02v1.14h-0.1V21.94z"/>
		<path d="M149.1,22.39c0.07-0.08,0.15-0.11,0.26-0.11c0.08,0,0.15,0.03,0.2,0.08c0.05,0.05,0.08,0.12,0.08,0.2
			c0,0.04-0.01,0.08-0.02,0.12l-0.51,0v0.01c0,0.09,0.03,0.16,0.08,0.21c0.05,0.06,0.11,0.08,0.19,0.08c0.08,0,0.16-0.02,0.22-0.06
			l0.02,0.09c-0.07,0.04-0.15,0.06-0.24,0.06c-0.11,0-0.2-0.04-0.26-0.11c-0.07-0.07-0.1-0.17-0.1-0.28
			C149,22.56,149.03,22.47,149.1,22.39z M149.53,22.6c0,0,0-0.02,0-0.03c0-0.06-0.02-0.11-0.05-0.14c-0.03-0.04-0.08-0.05-0.13-0.05
			c-0.07,0-0.12,0.02-0.16,0.07c-0.04,0.04-0.07,0.1-0.08,0.17L149.53,22.6z"/>
		<path d="M149.74,22.32l0.11-0.03l0-0.17h0.1l0,0.18h0.25l0,0.09h-0.25l-0.01,0.45c0,0,0,0.01,0,0.01c0,0.09,0.04,0.13,0.11,0.13
			c0.04,0,0.09-0.01,0.15-0.04l0.02,0.09c-0.06,0.03-0.11,0.04-0.17,0.04c-0.07,0-0.13-0.02-0.16-0.06
			c-0.03-0.04-0.05-0.09-0.05-0.16c0-0.01,0-0.01,0-0.02l0.01-0.45l-0.12-0.01L149.74,22.32z"/>
		<path d="M150.29,22.32l0.11-0.03l0-0.17h0.1l0,0.18h0.25l0,0.09h-0.25l-0.01,0.45c0,0,0,0.01,0,0.01c0,0.09,0.04,0.13,0.11,0.13
			c0.04,0,0.09-0.01,0.15-0.04l0.02,0.09c-0.06,0.03-0.11,0.04-0.17,0.04c-0.07,0-0.13-0.02-0.16-0.06
			c-0.03-0.04-0.05-0.09-0.05-0.16c0-0.01,0-0.01,0-0.02l0.01-0.45l-0.12-0.01L150.29,22.32z"/>
		<path d="M150.98,22.39c0.07-0.08,0.15-0.11,0.26-0.11c0.08,0,0.15,0.03,0.2,0.08c0.05,0.05,0.08,0.12,0.08,0.2
			c0,0.04-0.01,0.08-0.02,0.12l-0.51,0v0.01c0,0.09,0.03,0.16,0.08,0.21c0.05,0.06,0.11,0.08,0.19,0.08c0.08,0,0.16-0.02,0.22-0.06
			l0.02,0.09c-0.07,0.04-0.15,0.06-0.24,0.06c-0.11,0-0.2-0.04-0.26-0.11c-0.07-0.07-0.1-0.17-0.1-0.28
			C150.87,22.56,150.91,22.47,150.98,22.39z M151.41,22.6c0,0,0-0.02,0-0.03c0-0.06-0.02-0.11-0.05-0.14
			c-0.03-0.04-0.08-0.05-0.13-0.05c-0.07,0-0.12,0.02-0.16,0.07c-0.04,0.04-0.07,0.1-0.08,0.17L151.41,22.6z"/>
		<path d="M151.71,22.3l0.1-0.02v0.16c0.03-0.05,0.06-0.09,0.1-0.12s0.08-0.04,0.13-0.04s0.09,0.01,0.13,0.03l-0.03,0.1
			c-0.04-0.02-0.07-0.03-0.12-0.03c-0.08,0-0.16,0.07-0.21,0.2v0.49h-0.1V22.3z"/>
		<path d="M152.28,22.41c0.02-0.02,0.04-0.02,0.06-0.02s0.04,0.01,0.06,0.02c0.01,0.02,0.02,0.04,0.02,0.06
			c0,0.02-0.01,0.04-0.02,0.06c-0.02,0.02-0.04,0.03-0.06,0.03s-0.04-0.01-0.06-0.03c-0.02-0.02-0.02-0.04-0.02-0.06
			C152.26,22.44,152.26,22.42,152.28,22.41z M152.28,22.93c0.01-0.02,0.04-0.02,0.06-0.02s0.04,0.01,0.06,0.02
			c0.01,0.02,0.02,0.04,0.02,0.06s-0.01,0.04-0.02,0.06c-0.02,0.02-0.04,0.03-0.06,0.03s-0.04-0.01-0.06-0.03
			c-0.02-0.02-0.02-0.04-0.02-0.06S152.26,22.95,152.28,22.93z"/>
		<path d="M153.05,22.39c0.07-0.07,0.16-0.11,0.27-0.11s0.19,0.04,0.26,0.11c0.07,0.07,0.1,0.17,0.1,0.29
			c0,0.12-0.04,0.22-0.11,0.29c-0.07,0.08-0.16,0.11-0.27,0.11c-0.11,0-0.19-0.04-0.26-0.11c-0.07-0.07-0.1-0.17-0.1-0.29
			C152.94,22.56,152.98,22.46,153.05,22.39z M153.12,22.9c0.05,0.06,0.11,0.09,0.19,0.09s0.14-0.03,0.19-0.09
			c0.05-0.06,0.07-0.13,0.07-0.22c0-0.09-0.02-0.17-0.07-0.22c-0.05-0.06-0.11-0.08-0.19-0.08s-0.14,0.03-0.19,0.09
			s-0.07,0.13-0.07,0.22C153.05,22.77,153.07,22.84,153.12,22.9z"/>
		<path d="M148.76,24.39c0.07-0.08,0.16-0.11,0.27-0.11c0.09,0,0.17,0.02,0.24,0.06l-0.03,0.09c-0.06-0.04-0.13-0.06-0.21-0.06
			c-0.08,0-0.15,0.03-0.19,0.08c-0.05,0.06-0.07,0.13-0.07,0.22s0.02,0.17,0.07,0.22c0.05,0.06,0.11,0.08,0.19,0.08
			c0.08,0,0.15-0.02,0.21-0.06l0.02,0.09c-0.07,0.04-0.15,0.06-0.24,0.06c-0.11,0-0.2-0.04-0.27-0.11c-0.07-0.07-0.1-0.17-0.1-0.29
			C148.66,24.56,148.69,24.46,148.76,24.39z"/>
		<path d="M149.51,24.39c0.07-0.07,0.16-0.11,0.27-0.11s0.19,0.04,0.26,0.11c0.07,0.07,0.1,0.17,0.1,0.29
			c0,0.12-0.04,0.22-0.11,0.29c-0.07,0.08-0.16,0.11-0.27,0.11c-0.11,0-0.19-0.04-0.26-0.11c-0.07-0.07-0.1-0.17-0.1-0.29
			C149.4,24.56,149.44,24.46,149.51,24.39z M149.58,24.9c0.05,0.06,0.11,0.09,0.19,0.09s0.14-0.03,0.19-0.09
			c0.05-0.06,0.07-0.13,0.07-0.22c0-0.09-0.02-0.17-0.07-0.22c-0.05-0.06-0.11-0.08-0.19-0.08s-0.14,0.03-0.19,0.09
			s-0.07,0.13-0.07,0.22C149.5,24.77,149.53,24.84,149.58,24.9z"/>
		<path d="M150.34,24.3l0.1-0.02v0.12c0.04-0.04,0.08-0.07,0.13-0.09c0.05-0.02,0.09-0.03,0.13-0.03c0.08,0,0.13,0.02,0.18,0.07
			c0.04,0.05,0.06,0.11,0.06,0.19v0.52h-0.1v-0.49c0-0.07-0.01-0.11-0.04-0.15c-0.03-0.03-0.07-0.05-0.13-0.05
			c-0.04,0-0.08,0.01-0.12,0.03c-0.04,0.02-0.08,0.04-0.11,0.08v0.58h-0.1V24.3z"/>
		<path d="M151.09,24.32l0.11-0.03l0-0.12c0-0.18,0.08-0.27,0.23-0.27c0.04,0,0.09,0.01,0.14,0.03c0,0,0,0.01-0.01,0.02
			c0,0.01-0.01,0.03-0.01,0.05s-0.01,0.02-0.01,0.02c-0.04-0.02-0.08-0.03-0.12-0.03c-0.04,0-0.07,0.01-0.09,0.04
			s-0.03,0.07-0.03,0.13v0.13h0.24l0,0.09h-0.23v0.66h-0.1v-0.66l-0.12-0.01L151.09,24.32z"/>
		<path d="M151.67,24.41c0.02-0.02,0.04-0.02,0.06-0.02s0.04,0.01,0.06,0.02c0.01,0.02,0.02,0.04,0.02,0.06
			c0,0.02-0.01,0.04-0.02,0.06c-0.02,0.02-0.04,0.03-0.06,0.03s-0.04-0.01-0.06-0.03c-0.02-0.02-0.02-0.04-0.02-0.06
			C151.65,24.44,151.66,24.42,151.67,24.41z M151.67,24.93c0.01-0.02,0.04-0.02,0.06-0.02s0.04,0.01,0.06,0.02
			c0.01,0.02,0.02,0.04,0.02,0.06s-0.01,0.04-0.02,0.06c-0.02,0.02-0.04,0.03-0.06,0.03s-0.04-0.01-0.06-0.03
			c-0.02-0.02-0.02-0.04-0.02-0.06S151.66,24.95,151.67,24.93z"/>
		<path d="M152.36,24.93c0.01-0.02,0.04-0.02,0.06-0.02s0.04,0.01,0.06,0.02c0.01,0.02,0.02,0.04,0.02,0.06s-0.01,0.04-0.02,0.06
			c-0.02,0.02-0.04,0.03-0.06,0.03s-0.04-0.01-0.06-0.03c-0.02-0.02-0.02-0.04-0.02-0.06S152.35,24.95,152.36,24.93z"/>
		<path d="M152.74,24.09c0.06-0.06,0.14-0.09,0.24-0.09c0.07,0,0.14,0.02,0.19,0.06c0.05,0.04,0.09,0.09,0.12,0.15
			c0.03,0.06,0.04,0.13,0.04,0.21c0,0.06-0.01,0.11-0.02,0.17c-0.01,0.05-0.04,0.11-0.07,0.16c-0.03,0.05-0.07,0.1-0.11,0.15
			c-0.04,0.04-0.1,0.08-0.16,0.12c-0.06,0.03-0.13,0.06-0.21,0.08l-0.02-0.09c0.14-0.03,0.25-0.09,0.33-0.17
			c0.08-0.08,0.14-0.18,0.16-0.29l0,0c-0.04,0.03-0.08,0.06-0.13,0.08c-0.05,0.02-0.1,0.03-0.15,0.03c-0.05,0-0.1-0.01-0.15-0.04
			c-0.04-0.02-0.08-0.06-0.11-0.11c-0.03-0.05-0.04-0.1-0.04-0.17C152.64,24.24,152.68,24.16,152.74,24.09z M152.81,24.5
			c0.04,0.04,0.09,0.06,0.16,0.06c0.1,0,0.19-0.04,0.26-0.11c0-0.02,0-0.03,0-0.05c0-0.08-0.02-0.16-0.07-0.22
			c-0.04-0.06-0.11-0.09-0.18-0.09c-0.07,0-0.13,0.02-0.17,0.07c-0.04,0.05-0.06,0.1-0.06,0.18
			C152.74,24.4,152.76,24.46,152.81,24.5z"/>
		<path d="M153.53,24.92c0.08,0.04,0.16,0.07,0.25,0.07c0.07,0,0.13-0.02,0.18-0.06c0.05-0.04,0.07-0.09,0.07-0.15
			c0-0.06-0.02-0.1-0.07-0.14c-0.04-0.04-0.11-0.05-0.18-0.05c-0.04,0-0.09,0-0.14,0.01v-0.09c0.12-0.03,0.21-0.07,0.27-0.11
			c0.06-0.04,0.09-0.09,0.09-0.15c0-0.05-0.02-0.09-0.06-0.12c-0.04-0.03-0.09-0.04-0.15-0.04c-0.04,0-0.09,0.01-0.13,0.03
			c-0.05,0.02-0.09,0.04-0.12,0.07l-0.04-0.09c0.04-0.03,0.08-0.06,0.14-0.08c0.05-0.02,0.1-0.03,0.16-0.03
			c0.09,0,0.17,0.02,0.22,0.07c0.06,0.05,0.08,0.11,0.08,0.18c0,0.12-0.09,0.21-0.27,0.26c0.1,0,0.17,0.02,0.23,0.07
			c0.05,0.05,0.08,0.11,0.08,0.18c0,0.09-0.04,0.17-0.1,0.23c-0.07,0.06-0.16,0.08-0.26,0.08c-0.05,0-0.1-0.01-0.15-0.02
			c-0.05-0.01-0.09-0.03-0.13-0.05L153.53,24.92z"/>
	</g>
</g>
<g id="new">
</g>
</svg>
