<?xml version="1.0" encoding="utf-8"?>
<!-- Generator: Adobe Illustrator 24.2.0, SVG Export Plug-In . SVG Version: 6.00 Build 0)  -->
<svg version="1.1" id="Layer_1" xmlns="http://www.w3.org/2000/svg" xmlns:xlink="http://www.w3.org/1999/xlink" x="0px" y="0px"
	 viewBox="0 0 199.7 40.2" style="enable-background:new 0 0 199.7 40.2;" xml:space="preserve">
<style type="text/css">
	.st0{fill:#EE4C2C;}
	.st1{display:none;enable-background:new    ;}
	.st2{display:inline;}
	.st3{display:none;}
	.st4{display:inline;fill:#4285F4;}
	.st5{fill:none;stroke:#17D400;stroke-miterlimit:10;}
	.st6{fill:#17D400;stroke:#17D400;stroke-miterlimit:10;}
	.st7{enable-background:new    ;}
	.st8{fill:none;stroke:#DC3545;stroke-miterlimit:10;}
	.st9{fill:#DC3545;stroke:#DC3545;stroke-miterlimit:10;}
	.st10{fill-rule:evenodd;clip-rule:evenodd;}
	.st11{fill-rule:evenodd;clip-rule:evenodd;fill:#FFFFFF;}
</style>
<g>
	<path class="st0" d="M34.1,6.8l-1.6,1.6c2.5,2.5,2.5,6.6,0,9.1s-6.6,2.5-9.1,0c-2.5-2.5-2.5-6.6,0-9.1l0,0l4-4l0.5-0.5l0,0V0.8
		l-6,6c-3.4,3.4-3.4,8.7,0,12.1s8.7,3.4,12.1,0C37.3,15.6,37.3,10.2,34.1,6.8z"/>
	<circle class="st0" cx="31" cy="5.3" r="1.2"/>
</g>
<g class="st1">
	<path class="st2" d="M43,2.2h14.3v1.7h-6.2v16h-1.8V4h-6.2L43,2.2L43,2.2z"/>
	<path class="st2" d="M58.3,7l1.8-0.4v2.8c0.5-0.9,1-1.6,1.6-2c0.6-0.5,1.4-0.7,2.2-0.7s1.6,0.2,2.3,0.6l-0.5,1.6
		c-0.6-0.4-1.3-0.5-2-0.5c-1.5,0-2.7,1.1-3.7,3.4V20h-1.8V7H58.3z"/>
	<path class="st2" d="M69.1,8.5c1.2-1.3,2.8-1.9,4.6-1.9c1.8,0,3.3,0.6,4.5,1.9c1.1,1.3,1.8,2.9,1.8,5c0,2-0.6,3.7-1.8,5
		c-1.2,1.3-2.7,2-4.5,2s-3.4-0.7-4.6-2c-1.1-1.2-1.8-2.9-1.8-4.9C67.3,11.5,67.9,9.8,69.1,8.5z M70.3,17.3c0.9,1,2,1.5,3.3,1.5
		c1.4,0,2.5-0.5,3.3-1.5s1.2-2.2,1.2-3.8s-0.4-2.8-1.3-3.9c-0.9-0.9-2-1.5-3.3-1.5c-1.4,0-2.5,0.5-3.3,1.5S69,11.9,69,13.4
		C69,15.1,69.4,16.4,70.3,17.3z"/>
	<g class="st2">
		<path d="M83.2,20.9c0,1.4-0.2,2.4-0.5,3.1c-0.4,0.7-1,1.3-2,1.8l1.2,1.2c1.1-0.6,1.9-1.4,2.4-2.3s0.7-2.2,0.7-3.9V6.6L83.2,7V20.9
			z"/>
		<path d="M85,1.8c-0.2-0.2-0.5-0.3-0.9-0.3s-0.7,0.1-0.9,0.3s-0.3,0.5-0.3,0.9s0.1,0.7,0.3,0.9S83.7,4,84.1,4s0.7-0.1,0.9-0.4
			c0.2-0.3,0.3-0.5,0.3-0.9C85.2,2.4,85.2,2.1,85,1.8z"/>
	</g>
	<path class="st2" d="M95.8,12.2v-0.7c0-1-0.3-1.8-0.7-2.3c-0.5-0.5-1.3-0.7-2.3-0.7c-0.7,0-1.4,0.1-2.2,0.5s-1.5,0.7-2.1,1.1
		l-0.4-1.6c0.6-0.4,1.4-0.8,2.3-1.1c0.9-0.3,1.8-0.5,2.6-0.5c1.6,0,2.7,0.4,3.5,1.1s1.1,2,1.1,3.5v6.2c0,0.5,0.1,0.9,0.3,1
		c0.1,0.2,0.5,0.3,1,0.3H99l-0.1,1.4c-0.1,0-0.3,0-0.4,0c-1.5,0-2.3-0.6-2.5-1.8h-0.1c-0.5,0.5-1,1-1.7,1.4s-1.4,0.5-2.1,0.5
		c-1.2,0-2.2-0.3-3-1s-1.2-1.6-1.2-2.7C87.9,14,90.5,12.4,95.8,12.2z M90.5,18.2c0.5,0.4,1.1,0.6,1.9,0.6c0.7,0,1.3-0.1,1.8-0.5
		c0.5-0.3,1.1-0.7,1.6-1.2v-3.8c-2.2,0.3-3.7,0.6-4.7,1.1c-0.9,0.5-1.4,1.2-1.4,2.1C89.7,17.2,90,17.8,90.5,18.2z"/>
	<path class="st2" d="M101.5,7l1.8-0.4v2.2c0.7-0.7,1.4-1.2,2.2-1.6c0.8-0.4,1.6-0.5,2.2-0.5c1.3,0,2.3,0.4,3,1.1
		c0.7,0.8,1.1,1.9,1.1,3.3V20H110v-8.5c0-1.1-0.2-2-0.7-2.5s-1.2-0.8-2.2-0.8c-0.7,0-1.4,0.1-2.1,0.5c-0.7,0.3-1.3,0.7-1.9,1.4V20
		h-1.8V7H101.5z"/>
	<path class="st2" d="M116.4,18.6L127,3.9h-10.2V2.2h12.5v1.4l-10.5,14.7h10.5v1.6h-12.8L116.4,18.6L116.4,18.6z"/>
	<path class="st2" d="M133,8.5c1.2-1.3,2.8-1.9,4.6-1.9s3.3,0.6,4.5,1.9c1.1,1.3,1.8,2.9,1.8,5c0,2-0.6,3.7-1.8,5s-2.7,2-4.5,2
		s-3.3-0.6-4.5-1.9c-1.1-1.2-1.8-2.9-1.8-4.9C131.1,11.5,131.7,9.8,133,8.5z M134.2,17.3c0.9,1,2,1.5,3.3,1.5s2.5-0.5,3.3-1.5
		s1.2-2.2,1.2-3.8s-0.4-2.8-1.3-3.9c-0.9-0.9-2-1.5-3.3-1.5c-1.4,0-2.5,0.5-3.3,1.5s-1.3,2.2-1.3,3.8
		C132.9,15.1,133.3,16.4,134.2,17.3z"/>
	<path class="st2" d="M148,8.5c1.2-1.3,2.8-1.9,4.6-1.9s3.3,0.6,4.5,1.9c1.1,1.3,1.8,2.9,1.8,5c0,2-0.6,3.7-1.8,5s-2.7,2-4.5,2
		s-3.3-0.6-4.5-1.9c-1.1-1.2-1.8-2.9-1.8-4.9C146.2,11.5,146.8,9.8,148,8.5z M149.2,17.3c0.9,1,2,1.5,3.3,1.5c1.4,0,2.5-0.5,3.3-1.5
		s1.2-2.2,1.2-3.8s-0.4-2.8-1.3-3.9c-0.9-0.9-2-1.5-3.3-1.5s-2.5,0.5-3.3,1.5s-1.3,2.2-1.3,3.8C147.9,15.1,148.3,16.4,149.2,17.3z"
		/>
</g>
<g class="st3">
	<path class="st4" d="M31.6,15c-0.1,0.1-0.2,0.1-0.3,0.1C31.2,15,31.2,15,31.2,15c-0.1-0.1-0.2-0.3-0.3-0.4
		c-0.1-0.1-0.1-0.3-0.3-0.3c-0.1-0.1-0.2-0.3-0.3-0.4c-0.1-0.1-0.1-0.2-0.2-0.3S30,13.5,30,13.4l0,0c-0.1,0-0.2,0.1-0.3,0.1
		c-0.1,0-0.1,0-0.2,0s-0.1,0-0.1,0c-0.1,0-0.2,0-0.3,0c-0.1,0-0.2,0-0.3,0c-0.2,0-0.4,0-0.6,0c-0.1,0-0.3,0-0.4,0s-0.2,0-0.3,0
		s-0.1,0-0.2,0s-0.1,0-0.1,0c-0.1,0-0.1,0-0.1,0c-0.1,0-0.1,0-0.1,0l0,0c-0.1,0-0.1,0-0.1,0.1c-0.1,0.1-0.2,0.3-0.3,0.3
		c-0.1,0.1-0.1,0.2-0.3,0.3c-0.1,0.1-0.1,0.2-0.3,0.3c-0.1,0.1-0.1,0.3-0.3,0.3c-0.1,0.1-0.1,0.2-0.3,0.3l0,0
		C25.3,15,25.2,15,25.1,15c0,0,0,0,0-0.1c0.1-0.1,0.1-0.2,0.2-0.3c0.1-0.2,0.3-0.5,0.3-0.7c0.1-0.2,0.2-0.4,0.3-0.6
		c0.1-0.1,0.2-0.3,0.3-0.5c0-0.1,0-0.1,0-0.1c-0.1-0.1-0.1-0.3-0.1-0.3C26,12.3,26,12.1,26,11.9c0-0.1,0-0.1,0-0.1s0,0-0.1,0
		s-0.3,0.1-0.4,0.1s-0.2,0.2-0.3,0.3c-0.1,0.1-0.2,0.3-0.3,0.4c-0.1,0.1-0.2,0.2-0.3,0.3C24.5,13,24.3,13,24.2,13c0,0-0.1,0-0.1-0.1
		c0,0,0-0.1,0.1-0.1c0.1-0.1,0.1-0.1,0.2-0.1c0.1-0.1,0.1-0.1,0.1-0.1c0.1-0.2,0.2-0.3,0.3-0.5c0.1-0.1,0.1-0.3,0.3-0.5
		c0.1-0.1,0.2-0.3,0.3-0.3c0.1-0.1,0.3-0.1,0.4-0.1s0.2,0.1,0.3,0.1s0.1,0.1,0.2,0.1h0.1c0.1-0.1,0.2-0.2,0.3-0.2
		c0.1,0,0.1-0.1,0.2-0.1s0.2,0,0.3-0.1c0.1,0,0.3,0,0.4,0s0.3,0,0.3,0c0.1,0,0.3,0,0.4,0s0.2,0,0.3,0c0.1,0,0.2,0,0.3-0.1
		c0.1-0.1,0.2-0.1,0.3-0.2c0.1-0.1,0.2-0.3,0.3-0.4c0.1-0.2,0.1-0.4,0.2-0.5c0.1-0.2,0.2-0.4,0.3-0.6c0.1-0.2,0.3-0.3,0.4-0.5
		c0.1-0.1,0.2-0.1,0.3-0.2c0.1-0.1,0.3-0.1,0.4-0.1c0,0,0.1,0,0.1-0.1C31.3,8.2,31.4,8,31.5,8l0,0c0,0.1,0.1,0.1,0.1,0.2
		c0.1-0.1,0.1-0.1,0.2-0.1c0,0,0,0,0,0.1s0,0.3,0,0.4v0.1c0.3,0.3,0.5,0.5,0.8,0.8c0.1,0.1,0.1,0.1,0.1,0.1v0.1c0,0.1,0,0.3,0,0.3
		c0,0.1-0.1,0.1-0.1,0.1c-0.1,0.1-0.3,0.1-0.4,0.1h-0.1c-0.1,0-0.1,0-0.1-0.1L31.9,10c0-0.1-0.1-0.1-0.1-0.1c-0.1,0-0.1,0-0.1,0
		c-0.1,0-0.1,0-0.1,0c-0.1,0-0.2,0.1-0.3,0.1c-0.1,0-0.1-0.1-0.2-0.1V10c0,0.2,0,0.4,0,0.6c0,0.1,0,0.3,0,0.5s0,0.3,0,0.5
		c0,0.1,0,0.1,0,0.1c0,0.1,0,0.2-0.1,0.3c0,0.2-0.1,0.3-0.2,0.5c-0.1,0.1-0.1,0.2-0.3,0.3v0.1c0.1,0.2,0.2,0.4,0.3,0.6
		c0.1,0.3,0.3,0.5,0.3,0.7C31.4,14.7,31.5,14.8,31.6,15C31.5,14.9,31.5,14.9,31.6,15z"/>
	<path class="st4" d="M24.4,15.1c0.1-0.1,0.1-0.1,0.1-0.1c0-0.1,0.1-0.1,0.1-0.1s0,0,0.1,0c0.1,0.1,0.3,0.2,0.5,0.3
		c0.1,0.1,0.3,0.2,0.5,0.3c0.1,0.1,0.3,0.1,0.4,0.2c0.1,0.1,0.2,0.1,0.3,0.1c0.1,0,0.2,0.1,0.3,0.1c0.1,0,0.2,0.1,0.3,0.1
		s0.2,0,0.3,0.1c0.1,0,0.1,0,0.2,0s0.1,0,0.2,0C28,16,28.5,16,28.9,16c0.1,0,0.3,0,0.4,0s0.2,0,0.3,0c0.1,0,0.1,0,0.2,0s0.1,0,0.1,0
		c0.1,0,0.2-0.1,0.3-0.1c0.1,0,0.1-0.1,0.3-0.1s0.2-0.1,0.3-0.1c0.1-0.1,0.2-0.1,0.3-0.1c0.1-0.1,0.3-0.1,0.4-0.2
		c0.1-0.1,0.3-0.2,0.5-0.3c0.1-0.1,0.1-0.1,0.2-0.1l0,0c0.1,0.1,0.1,0.2,0.2,0.3c0,0,0,0,0,0.1c-0.2,0.1-0.3,0.3-0.5,0.4
		c-0.2,0.1-0.3,0.2-0.5,0.3c-0.1,0.1-0.3,0.1-0.4,0.2s-0.2,0.1-0.3,0.1c-0.1,0-0.1,0.1-0.3,0.1c-0.1,0-0.1,0.1-0.2,0.1
		s-0.2,0.1-0.3,0.1c-0.1,0-0.1,0.1-0.2,0.1s-0.1,0-0.1,0c-0.1,0-0.3,0.1-0.5,0.1S28.7,17,28.5,17c-0.1,0-0.3,0-0.4,0s-0.2,0-0.3,0
		s-0.1,0-0.2,0s-0.1,0-0.1,0c-0.1,0-0.1,0-0.1,0c-0.1,0-0.1,0-0.2-0.1c-0.1,0-0.1,0-0.2-0.1c-0.1,0-0.1,0-0.1-0.1
		c-0.1,0-0.1-0.1-0.2-0.1s-0.1-0.1-0.2-0.1s-0.1-0.1-0.2-0.1c-0.1-0.1-0.2-0.1-0.3-0.1s-0.3-0.1-0.4-0.2c-0.1-0.1-0.3-0.2-0.5-0.3
		c-0.1-0.1-0.2-0.1-0.3-0.3C24.6,15.1,24.5,15.1,24.4,15.1L24.4,15.1z"/>
</g>
<g>
	<path d="M43,2.2h14.6v1.7h-6.4v16.4h-1.8V3.9H43C43,3.9,43,2.2,43,2.2z"/>
	<path d="M58.3,7l1.8-0.4v2.9c0.4-0.9,1-1.6,1.7-2.1s1.4-0.8,2.3-0.8c0.8,0,1.6,0.2,2.3,0.6l-0.5,1.7c-0.6-0.4-1.3-0.6-2-0.6
		c-1.5,0-2.8,1.1-3.8,3.4v8.5h-1.8C58.3,20.3,58.3,7,58.3,7z"/>
	<path d="M69.6,8.6c1.3-1.3,2.8-1.9,4.7-1.9c1.9,0,3.4,0.6,4.6,1.9c1.2,1.3,1.8,3,1.8,5.1c0,2.1-0.6,3.8-1.9,5.1
		c-1.2,1.3-2.8,2-4.7,2s-3.4-0.6-4.6-1.9c-1.2-1.3-1.8-3-1.8-5.1C67.7,11.6,68.3,9.9,69.6,8.6z M70.8,17.5c0.9,1,2,1.5,3.4,1.5
		s2.5-0.5,3.4-1.5c0.8-1,1.3-2.3,1.3-3.9c0-1.6-0.4-2.9-1.3-3.9c-0.9-1-2-1.5-3.4-1.5s-2.5,0.5-3.4,1.5s-1.3,2.3-1.3,3.9
		C69.5,15.3,69.9,16.6,70.8,17.5z"/>
	<path d="M84.5,7l1.8-0.4v14.7c0,1.7-0.2,3-0.7,4s-1.3,1.7-2.4,2.4l-1.2-1.3c1-0.6,1.6-1.2,2-2c0.4-0.7,0.6-1.8,0.6-3.2 M84.5,1.7
		c0.2-0.2,0.5-0.4,0.9-0.4s0.7,0.1,0.9,0.4c0.2,0.2,0.3,0.5,0.3,0.9c0,0.4-0.1,0.7-0.3,0.9C86.1,3.8,85.8,4,85.4,4
		c-0.4,0-0.7-0.1-0.9-0.4c-0.2-0.3-0.3-0.6-0.3-0.9S84.3,2,84.5,1.7z"/>
	<path d="M97.9,12.3v-0.8c0-1.1-0.3-1.9-0.8-2.4s-1.3-0.8-2.4-0.8c-0.7,0-1.4,0.2-2.2,0.5S91,9.5,90.4,9.9L90,8.2
		c0.6-0.4,1.4-0.8,2.3-1.1c0.9-0.3,1.8-0.5,2.6-0.5c1.6,0,2.8,0.4,3.6,1.2s1.2,2,1.2,3.6v6.4c0,0.5,0.1,0.9,0.3,1.1
		c0.2,0.2,0.5,0.3,1,0.3c0,0,0.1,0,0.1,0l-0.1,1.5c-0.1,0-0.3,0-0.4,0c-1.5,0-2.3-0.6-2.5-1.9h-0.1c-0.5,0.6-1.1,1.1-1.7,1.4
		s-1.4,0.5-2.2,0.5c-1.2,0-2.2-0.4-3-1c-0.8-0.7-1.2-1.6-1.2-2.6C89.8,14.1,92.5,12.6,97.9,12.3z M92.5,18.5
		c0.5,0.4,1.2,0.6,1.9,0.6c0.7,0,1.3-0.2,1.9-0.5c0.6-0.3,1.1-0.7,1.6-1.3v-3.9c-2.2,0.3-3.8,0.6-4.8,1.2c-0.9,0.5-1.4,1.2-1.4,2.1
		C91.7,17.5,92,18,92.5,18.5z"/>
	<path d="M104.2,7l1.8-0.4v2.2c0.7-0.7,1.4-1.2,2.3-1.6c0.8-0.4,1.6-0.6,2.3-0.6c1.3,0,2.4,0.4,3.1,1.2c0.8,0.8,1.1,1.9,1.1,3.4v9.1
		h-1.8v-8.6c0-1.2-0.2-2-0.7-2.6c-0.5-0.5-1.2-0.8-2.2-0.8c-0.7,0-1.4,0.2-2.1,0.5s-1.3,0.8-1.9,1.4v10.1h-1.8V7z"/>
	<path d="M117.9,18.9l10.8-15.1h-10.4V2.2H131v1.4l-10.8,15H131v1.7h-13.1L117.9,18.9L117.9,18.9z"/>
	<path d="M135.3,8.6c1.3-1.3,2.8-1.9,4.7-1.9c1.9,0,3.4,0.6,4.6,1.9c1.2,1.3,1.8,3,1.8,5.1c0,2.1-0.6,3.8-1.9,5.1
		c-1.2,1.3-2.8,2-4.7,2s-3.4-0.6-4.6-1.9c-1.2-1.3-1.8-3-1.8-5.1C133.4,11.6,134.1,9.9,135.3,8.6z M136.5,17.5c0.9,1,2,1.5,3.4,1.5
		s2.5-0.5,3.4-1.5c0.9-1,1.3-2.3,1.3-3.9c0-1.6-0.4-2.9-1.3-3.9c-0.9-1-2-1.5-3.4-1.5s-2.5,0.5-3.4,1.5s-1.3,2.3-1.3,3.9
		C135.2,15.3,135.7,16.6,136.5,17.5z"/>
	<path d="M151.2,8.6c1.3-1.3,2.8-1.9,4.7-1.9c1.9,0,3.4,0.6,4.6,1.9c1.2,1.3,1.8,3,1.8,5.1c0,2.1-0.6,3.8-1.9,5.1
		c-1.2,1.3-2.8,2-4.7,2s-3.4-0.6-4.6-1.9c-1.2-1.3-1.8-3-1.8-5.1C149.3,11.6,149.9,9.9,151.2,8.6z M152.4,17.5c0.9,1,2,1.5,3.4,1.5
		s2.5-0.5,3.4-1.5c0.9-1,1.3-2.3,1.3-3.9c0-1.6-0.4-2.9-1.3-3.9c-0.9-1-2-1.5-3.4-1.5s-2.5,0.5-3.4,1.5s-1.3,2.3-1.3,3.9
		C151.1,15.3,151.6,16.6,152.4,17.5z"/>
</g>
<g id="pred_T">
	<rect x="42.5" y="1.7" class="st5" width="15.3" height="19.1"/>
	<rect x="42.5" y="20.8" class="st6" width="7.7" height="4.3"/>
	<g class="st7">
		<path d="M43.1,22.7v-1.2h0.2v1.2H43.1z"/>
		<path d="M44,22.4l0.2,0c0,0.1-0.1,0.2-0.1,0.2c-0.1,0.1-0.2,0.1-0.3,0.1c-0.1,0-0.2,0-0.3-0.1s-0.1-0.2-0.1-0.3
			c0-0.2,0-0.3,0.1-0.3c0.1-0.1,0.2-0.1,0.3-0.1c0.1,0,0.2,0,0.3,0.1c0.1,0.1,0.1,0.2,0.1,0.3c0,0,0,0,0,0h-0.7c0,0.1,0,0.2,0.1,0.2
			c0.1,0.1,0.1,0.1,0.2,0.1c0.1,0,0.1,0,0.1,0C44,22.5,44,22.5,44,22.4z M43.6,22.2H44c0-0.1,0-0.1-0.1-0.2
			c-0.1-0.1-0.1-0.1-0.2-0.1s-0.1,0-0.2,0.1C43.6,22.1,43.6,22.1,43.6,22.2z"/>
		<path d="M44.7,22.6l0,0.1c0,0-0.1,0-0.1,0c-0.1,0-0.1,0-0.1,0s-0.1,0-0.1-0.1c0,0,0-0.1,0-0.2v-0.5h-0.1v-0.1h0.1v-0.2l0.2-0.1
			v0.3h0.2v0.1h-0.2v0.5c0,0,0,0.1,0,0.1s0,0,0,0C44.6,22.6,44.6,22.6,44.7,22.6C44.7,22.6,44.7,22.6,44.7,22.6z"/>
		<path d="M45.2,22.6l0,0.1c0,0-0.1,0-0.1,0c-0.1,0-0.1,0-0.1,0s-0.1,0-0.1-0.1c0,0,0-0.1,0-0.2v-0.5h-0.1v-0.1h0.1v-0.2l0.2-0.1
			v0.3h0.2v0.1H45v0.5c0,0,0,0.1,0,0.1s0,0,0,0C45.1,22.6,45.1,22.6,45.2,22.6C45.1,22.6,45.1,22.6,45.2,22.6z"/>
		<path d="M45.9,22.4l0.2,0c0,0.1-0.1,0.2-0.1,0.2c-0.1,0.1-0.2,0.1-0.3,0.1c-0.1,0-0.2,0-0.3-0.1c-0.1-0.1-0.1-0.2-0.1-0.3
			c0-0.2,0-0.3,0.1-0.3c0.1-0.1,0.2-0.1,0.3-0.1c0.1,0,0.2,0,0.3,0.1c0.1,0.1,0.1,0.2,0.1,0.3c0,0,0,0,0,0h-0.7c0,0.1,0,0.2,0.1,0.2
			c0.1,0.1,0.1,0.1,0.2,0.1c0.1,0,0.1,0,0.1,0C45.9,22.5,45.9,22.5,45.9,22.4z M45.4,22.2h0.5c0-0.1,0-0.1-0.1-0.2
			c-0.1-0.1-0.1-0.1-0.2-0.1c-0.1,0-0.1,0-0.2,0.1C45.5,22.1,45.4,22.1,45.4,22.2z"/>
		<path d="M46.3,22.7v-0.9h0.1V22c0-0.1,0.1-0.1,0.1-0.1s0.1,0,0.1,0c0.1,0,0.1,0,0.2,0.1L46.7,22c0,0-0.1,0-0.1,0c0,0-0.1,0-0.1,0
			c0,0,0,0.1-0.1,0.1c0,0.1,0,0.1,0,0.2v0.5C46.4,22.7,46.3,22.7,46.3,22.7z"/>
		<path d="M46.9,22v-0.2H47V22H46.9z M46.9,22.7v-0.2H47v0.2H46.9z"/>
		<path d="M48.1,22.7v-1.1h-0.4v-0.1h1v0.1h-0.4v1.1H48.1z"/>
	</g>
	<g class="st7">
		<path d="M43.6,24.4l0.2,0c0,0.1-0.1,0.2-0.1,0.2c-0.1,0.1-0.2,0.1-0.2,0.1c-0.1,0-0.2,0-0.3-0.1c-0.1-0.1-0.1-0.2-0.1-0.3
			c0-0.1,0-0.2,0.1-0.3c0-0.1,0.1-0.1,0.1-0.2c0.1,0,0.1-0.1,0.2-0.1c0.1,0,0.2,0,0.2,0.1c0.1,0.1,0.1,0.1,0.1,0.2l-0.1,0
			c0-0.1,0-0.1-0.1-0.1c0,0-0.1,0-0.1,0c-0.1,0-0.1,0-0.2,0.1c-0.1,0.1-0.1,0.1-0.1,0.3c0,0.1,0,0.2,0.1,0.3
			c0.1,0.1,0.1,0.1,0.2,0.1c0.1,0,0.1,0,0.2-0.1C43.6,24.5,43.6,24.5,43.6,24.4z"/>
		<path d="M43.9,24.3c0-0.2,0-0.3,0.1-0.4c0.1-0.1,0.2-0.1,0.3-0.1c0.1,0,0.2,0,0.3,0.1c0.1,0.1,0.1,0.2,0.1,0.3
			c0,0.1,0,0.2-0.1,0.3c0,0.1-0.1,0.1-0.2,0.2c-0.1,0-0.1,0.1-0.2,0.1c-0.1,0-0.2,0-0.3-0.1C43.9,24.6,43.9,24.4,43.9,24.3z
			 M44,24.3c0,0.1,0,0.2,0.1,0.3c0.1,0.1,0.1,0.1,0.2,0.1s0.1,0,0.2-0.1c0.1-0.1,0.1-0.1,0.1-0.3c0-0.1,0-0.2-0.1-0.2
			C44.4,24,44.3,24,44.3,24s-0.1,0-0.2,0.1C44,24.1,44,24.2,44,24.3z"/>
		<path d="M44.8,24.7v-0.9H45V24c0.1-0.1,0.2-0.1,0.3-0.1c0.1,0,0.1,0,0.1,0s0.1,0,0.1,0.1c0,0,0,0.1,0.1,0.1c0,0,0,0.1,0,0.1v0.5
			h-0.2v-0.5c0-0.1,0-0.1,0-0.1c0,0,0-0.1-0.1-0.1c0,0-0.1,0-0.1,0c-0.1,0-0.1,0-0.2,0.1c-0.1,0-0.1,0.1-0.1,0.2v0.5L44.8,24.7
			C44.8,24.7,44.8,24.7,44.8,24.7z"/>
		<path d="M45.8,24.7V24h-0.1v-0.1h0.1v-0.1c0-0.1,0-0.1,0-0.1c0,0,0-0.1,0.1-0.1s0.1,0,0.2,0c0,0,0.1,0,0.1,0l0,0.1
			c0,0-0.1,0-0.1,0c0,0-0.1,0-0.1,0c0,0,0,0.1,0,0.1v0.1h0.2V24H46v0.8L45.8,24.7L45.8,24.7z"/>
		<path d="M46.3,24v-0.2h0.2V24H46.3z M46.3,24.7v-0.2h0.2v0.2H46.3z"/>
		<path d="M47.2,24.7v-0.2h0.2v0.2H47.2z"/>
		<path d="M47.6,24.5l0.1,0c0,0.1,0,0.1,0.1,0.1s0.1,0,0.1,0s0.1,0,0.1,0c0,0,0.1-0.1,0.1-0.1c0,0,0-0.1,0.1-0.1c0-0.1,0-0.1,0-0.2
			c0,0,0,0,0,0c0,0.1-0.1,0.1-0.1,0.1c-0.1,0-0.1,0-0.2,0c-0.1,0-0.2,0-0.3-0.1s-0.1-0.2-0.1-0.3c0-0.1,0-0.2,0.1-0.3
			c0.1-0.1,0.2-0.1,0.3-0.1c0.1,0,0.2,0,0.2,0.1c0.1,0,0.1,0.1,0.2,0.2c0,0.1,0.1,0.2,0.1,0.3c0,0.2,0,0.3-0.1,0.4
			c0,0.1-0.1,0.2-0.2,0.2c-0.1,0.1-0.1,0.1-0.2,0.1s-0.2,0-0.2-0.1C47.7,24.6,47.7,24.6,47.6,24.5z M48.3,23.9c0-0.1,0-0.2-0.1-0.2
			c0-0.1-0.1-0.1-0.2-0.1c-0.1,0-0.1,0-0.2,0.1s-0.1,0.1-0.1,0.2c0,0.1,0,0.1,0.1,0.2c0.1,0.1,0.1,0.1,0.2,0.1s0.1,0,0.2-0.1
			C48.2,24.1,48.3,24,48.3,23.9z"/>
		<path d="M48.8,24.1c-0.1,0-0.1-0.1-0.1-0.1c0,0,0-0.1,0-0.2c0-0.1,0-0.2,0.1-0.2c0.1-0.1,0.2-0.1,0.3-0.1c0.1,0,0.2,0,0.3,0.1
			c0.1,0.1,0.1,0.1,0.1,0.2c0,0.1,0,0.1,0,0.2c0,0-0.1,0.1-0.1,0.1c0.1,0,0.1,0.1,0.2,0.1c0,0.1,0.1,0.1,0.1,0.2
			c0,0.1,0,0.2-0.1,0.3s-0.2,0.1-0.3,0.1c-0.1,0-0.2,0-0.3-0.1c-0.1-0.1-0.1-0.2-0.1-0.3c0-0.1,0-0.1,0.1-0.2
			C48.7,24.1,48.7,24.1,48.8,24.1z M48.7,24.4c0,0,0,0.1,0,0.1c0,0,0.1,0.1,0.1,0.1s0.1,0,0.1,0c0.1,0,0.1,0,0.2-0.1
			c0.1-0.1,0.1-0.1,0.1-0.2s0-0.1-0.1-0.2c-0.1-0.1-0.1-0.1-0.2-0.1c-0.1,0-0.1,0-0.2,0.1C48.7,24.3,48.7,24.3,48.7,24.4z
			 M48.8,23.8c0,0.1,0,0.1,0.1,0.1c0,0,0.1,0.1,0.1,0.1s0.1,0,0.1-0.1c0,0,0.1-0.1,0.1-0.1s0-0.1-0.1-0.1c0,0-0.1-0.1-0.1-0.1
			s-0.1,0-0.1,0.1S48.8,23.8,48.8,23.8z"/>
	</g>
</g>
<g id="pred_r">
	<rect x="57.8" y="6.1" class="st5" width="9.1" height="14.7"/>
	<rect x="57.8" y="20.8" class="st6" width="7.6" height="4.2"/>
	<g class="st7">
		<path d="M58.4,22.6v-1.2h0.2v1.2H58.4z"/>
		<path d="M59.3,22.3l0.2,0c0,0.1-0.1,0.2-0.1,0.2c-0.1,0.1-0.2,0.1-0.3,0.1c-0.1,0-0.2,0-0.3-0.1c-0.1-0.1-0.1-0.2-0.1-0.3
			c0-0.2,0-0.3,0.1-0.3c0.1-0.1,0.2-0.1,0.3-0.1c0.1,0,0.2,0,0.3,0.1c0.1,0.1,0.1,0.2,0.1,0.3c0,0,0,0,0,0h-0.7c0,0.1,0,0.2,0.1,0.2
			c0.1,0.1,0.1,0.1,0.2,0.1c0,0,0.1,0,0.1,0C59.3,22.4,59.3,22.4,59.3,22.3z M58.9,22.1h0.5c0-0.1,0-0.1-0.1-0.2
			c0-0.1-0.1-0.1-0.2-0.1s-0.1,0-0.2,0.1C58.9,21.9,58.9,22,58.9,22.1z"/>
		<path d="M60,22.5l0,0.1c0,0-0.1,0-0.1,0c0,0-0.1,0-0.1,0s0,0-0.1-0.1c0,0,0-0.1,0-0.2v-0.5h-0.1v-0.1h0.1v-0.2l0.2-0.1v0.3H60v0.1
			h-0.2v0.5c0,0,0,0.1,0,0.1c0,0,0,0,0,0S59.9,22.5,60,22.5C60,22.5,60,22.5,60,22.5z"/>
		<path d="M60.5,22.5l0,0.1c0,0-0.1,0-0.1,0c0,0-0.1,0-0.1,0s0,0-0.1-0.1c0,0,0-0.1,0-0.2v-0.5h-0.1v-0.1h0.1v-0.2l0.2-0.1v0.3h0.2
			v0.1h-0.2v0.5c0,0,0,0.1,0,0.1s0,0,0,0S60.4,22.5,60.5,22.5C60.4,22.5,60.5,22.5,60.5,22.5z"/>
		<path d="M61.2,22.3l0.2,0c0,0.1-0.1,0.2-0.1,0.2c-0.1,0.1-0.2,0.1-0.3,0.1c-0.1,0-0.2,0-0.3-0.1c-0.1-0.1-0.1-0.2-0.1-0.3
			c0-0.2,0-0.3,0.1-0.3c0.1-0.1,0.2-0.1,0.3-0.1c0.1,0,0.2,0,0.3,0.1c0.1,0.1,0.1,0.2,0.1,0.3c0,0,0,0,0,0h-0.7c0,0.1,0,0.2,0.1,0.2
			c0.1,0.1,0.1,0.1,0.2,0.1c0,0,0.1,0,0.1,0C61.2,22.4,61.2,22.4,61.2,22.3z M60.7,22.1h0.5c0-0.1,0-0.1-0.1-0.2
			c0-0.1-0.1-0.1-0.2-0.1s-0.1,0-0.2,0.1C60.8,21.9,60.7,22,60.7,22.1z"/>
		<path d="M61.5,22.6v-0.9h0.1v0.1c0-0.1,0.1-0.1,0.1-0.1c0,0,0.1,0,0.1,0c0,0,0.1,0,0.2,0.1l0,0.1c0,0-0.1,0-0.1,0c0,0-0.1,0-0.1,0
			s0,0.1,0,0.1c0,0.1,0,0.1,0,0.2v0.5C61.7,22.6,61.5,22.6,61.5,22.6z"/>
		<path d="M62.2,21.9v-0.2h0.2v0.2H62.2z M62.2,22.6v-0.2h0.2v0.2H62.2z"/>
		<path d="M63,22.6v-0.9h0.1v0.1c0-0.1,0.1-0.1,0.1-0.1c0,0,0.1,0,0.1,0c0,0,0.1,0,0.2,0.1l0,0.1c0,0-0.1,0-0.1,0c0,0-0.1,0-0.1,0
			s0,0.1-0.1,0.1c0,0.1,0,0.1,0,0.2v0.5C63.2,22.6,63,22.6,63,22.6z"/>
	</g>
	<g class="st7">
		<path d="M59,24.3l0.1,0c0,0.1-0.1,0.2-0.1,0.2c-0.1,0.1-0.2,0.1-0.2,0.1c-0.1,0-0.2,0-0.3-0.1c-0.1-0.1-0.1-0.2-0.1-0.3
			c0-0.1,0-0.2,0-0.3s0.1-0.1,0.1-0.2c0.1,0,0.1-0.1,0.2-0.1c0.1,0,0.2,0,0.2,0.1c0.1,0.1,0.1,0.1,0.1,0.2l-0.1,0
			c0-0.1,0-0.1-0.1-0.1s-0.1,0-0.1,0c-0.1,0-0.1,0-0.2,0.1s-0.1,0.1-0.1,0.3c0,0.1,0,0.2,0.1,0.3c0,0.1,0.1,0.1,0.2,0.1
			c0.1,0,0.1,0,0.2-0.1C58.9,24.4,58.9,24.4,59,24.3z"/>
		<path d="M59.2,24.2c0-0.2,0-0.3,0.1-0.4c0.1-0.1,0.2-0.1,0.3-0.1c0.1,0,0.2,0,0.3,0.1c0.1,0.1,0.1,0.2,0.1,0.3c0,0.1,0,0.2,0,0.3
			c0,0.1-0.1,0.1-0.2,0.2c-0.1,0-0.1,0.1-0.2,0.1c-0.1,0-0.2,0-0.3-0.1C59.2,24.4,59.2,24.3,59.2,24.2z M59.3,24.2
			c0,0.1,0,0.2,0.1,0.3c0,0.1,0.1,0.1,0.2,0.1s0.1,0,0.2-0.1c0-0.1,0.1-0.1,0.1-0.3s0-0.2-0.1-0.2c0-0.1-0.1-0.1-0.2-0.1
			s-0.1,0-0.2,0.1S59.3,24.1,59.3,24.2z"/>
		<path d="M60.2,24.6v-0.9h0.1v0.1c0.1-0.1,0.2-0.1,0.3-0.1c0,0,0.1,0,0.1,0c0,0,0.1,0,0.1,0.1c0,0,0,0.1,0,0.1c0,0,0,0.1,0,0.1v0.5
			h-0.2v-0.5c0-0.1,0-0.1,0-0.1c0,0,0-0.1-0.1-0.1c0,0-0.1,0-0.1,0c-0.1,0-0.1,0-0.2,0.1c0,0-0.1,0.1-0.1,0.2v0.5L60.2,24.6
			C60.2,24.6,60.2,24.6,60.2,24.6z"/>
		<path d="M61.1,24.6v-0.8H61v-0.1h0.1v-0.1c0-0.1,0-0.1,0-0.1c0,0,0-0.1,0.1-0.1s0.1,0,0.2,0c0,0,0.1,0,0.1,0l0,0.1
			c0,0-0.1,0-0.1,0c0,0-0.1,0-0.1,0c0,0,0,0.1,0,0.1v0.1h0.2v0.1h-0.2v0.8H61.1z"/>
		<path d="M61.6,23.9v-0.2h0.2v0.2H61.6z M61.6,24.6v-0.2h0.2v0.2H61.6z"/>
		<path d="M62.5,24.6v-0.2h0.2v0.2H62.5z"/>
		<path d="M62.9,24.3l0.1,0c0,0.1,0,0.1,0.1,0.1c0,0,0.1,0,0.1,0c0,0,0.1,0,0.1,0c0,0,0.1-0.1,0.1-0.1c0,0,0-0.1,0.1-0.1
			c0-0.1,0-0.1,0-0.2c0,0,0,0,0,0c0,0.1-0.1,0.1-0.1,0.1s-0.1,0-0.2,0c-0.1,0-0.2,0-0.3-0.1c-0.1-0.1-0.1-0.2-0.1-0.3
			c0-0.1,0-0.2,0.1-0.3s0.2-0.1,0.3-0.1c0.1,0,0.2,0,0.2,0.1s0.1,0.1,0.2,0.2c0,0.1,0,0.2,0,0.3c0,0.2,0,0.3,0,0.4s-0.1,0.2-0.2,0.2
			c-0.1,0.1-0.1,0.1-0.2,0.1s-0.2,0-0.2-0.1C63,24.5,62.9,24.4,62.9,24.3z M63.5,23.8c0-0.1,0-0.2-0.1-0.2c0-0.1-0.1-0.1-0.2-0.1
			c-0.1,0-0.1,0-0.2,0.1c0,0.1-0.1,0.1-0.1,0.2c0,0.1,0,0.1,0.1,0.2s0.1,0.1,0.2,0.1s0.1,0,0.2-0.1C63.5,24,63.5,23.9,63.5,23.8z"/>
		<path d="M63.8,24.3l0.2,0c0,0.1,0,0.1,0.1,0.2s0.1,0.1,0.2,0.1c0.1,0,0.1,0,0.2-0.1c0.1-0.1,0.1-0.1,0.1-0.2s0-0.1-0.1-0.2
			C64.4,24,64.3,24,64.2,24c0,0-0.1,0-0.1,0l0-0.1c0,0,0,0,0,0c0.1,0,0.1,0,0.2-0.1c0.1,0,0.1-0.1,0.1-0.2c0-0.1,0-0.1-0.1-0.1
			c0,0-0.1-0.1-0.1-0.1s-0.1,0-0.1,0.1S64,23.7,64,23.7l-0.2,0c0-0.1,0.1-0.2,0.1-0.2c0.1-0.1,0.1-0.1,0.2-0.1c0.1,0,0.1,0,0.2,0
			c0.1,0,0.1,0.1,0.1,0.1c0,0.1,0,0.1,0,0.2c0,0.1,0,0.1,0,0.1s-0.1,0.1-0.1,0.1c0.1,0,0.1,0.1,0.2,0.1c0,0.1,0.1,0.1,0.1,0.2
			c0,0.1,0,0.2-0.1,0.3c-0.1,0.1-0.2,0.1-0.3,0.1c-0.1,0-0.2,0-0.3-0.1C63.9,24.5,63.8,24.4,63.8,24.3z"/>
	</g>
</g>
<g id="pred_o">
	<rect x="66.9" y="6.1" class="st5" width="14.4" height="15.1"/>
	<rect x="66.9" y="21.2" class="st6" width="7.6" height="4.3"/>
	<g class="st7">
		<path d="M67.5,23.1v-1.2h0.2v1.2H67.5z"/>
		<path d="M68.4,22.8l0.2,0c0,0.1-0.1,0.2-0.1,0.2s-0.2,0.1-0.3,0.1c-0.1,0-0.2,0-0.3-0.1c-0.1-0.1-0.1-0.2-0.1-0.3
			c0-0.2,0-0.3,0.1-0.3c0.1-0.1,0.2-0.1,0.3-0.1s0.2,0,0.3,0.1s0.1,0.2,0.1,0.3c0,0,0,0,0,0h-0.7c0,0.1,0,0.2,0.1,0.2
			c0.1,0.1,0.1,0.1,0.2,0.1c0.1,0,0.1,0,0.1,0C68.4,22.9,68.4,22.8,68.4,22.8z M68,22.5h0.5c0-0.1,0-0.1-0.1-0.2
			c-0.1-0.1-0.1-0.1-0.2-0.1s-0.1,0-0.2,0.1C68,22.4,68,22.5,68,22.5z"/>
		<path d="M69.1,22.9l0,0.1c0,0-0.1,0-0.1,0c-0.1,0-0.1,0-0.1,0c0,0-0.1,0-0.1-0.1c0,0,0-0.1,0-0.2v-0.5h-0.1v-0.1h0.1V22l0.2-0.1
			v0.3h0.2v0.1H69v0.5c0,0,0,0.1,0,0.1c0,0,0,0,0,0S69,22.9,69.1,22.9C69.1,22.9,69.1,22.9,69.1,22.9z"/>
		<path d="M69.6,22.9l0,0.1c0,0-0.1,0-0.1,0c-0.1,0-0.1,0-0.1,0c0,0-0.1,0-0.1-0.1c0,0,0-0.1,0-0.2v-0.5h-0.1v-0.1h0.1V22l0.2-0.1
			v0.3h0.2v0.1h-0.2v0.5c0,0,0,0.1,0,0.1C69.5,22.9,69.5,22.9,69.6,22.9C69.5,22.9,69.5,22.9,69.6,22.9
			C69.5,22.9,69.6,22.9,69.6,22.9z"/>
		<path d="M70.3,22.8l0.2,0c0,0.1-0.1,0.2-0.1,0.2s-0.2,0.1-0.3,0.1c-0.1,0-0.2,0-0.3-0.1c-0.1-0.1-0.1-0.2-0.1-0.3
			c0-0.2,0-0.3,0.1-0.3c0.1-0.1,0.2-0.1,0.3-0.1s0.2,0,0.3,0.1s0.1,0.2,0.1,0.3c0,0,0,0,0,0h-0.7c0,0.1,0,0.2,0.1,0.2
			c0.1,0.1,0.1,0.1,0.2,0.1c0.1,0,0.1,0,0.1,0C70.3,22.9,70.3,22.8,70.3,22.8z M69.8,22.5h0.5c0-0.1,0-0.1-0.1-0.2
			c-0.1-0.1-0.1-0.1-0.2-0.1s-0.1,0-0.2,0.1C69.9,22.4,69.8,22.5,69.8,22.5z"/>
		<path d="M70.7,23.1v-0.9h0.1v0.1c0-0.1,0.1-0.1,0.1-0.1c0,0,0.1,0,0.1,0c0.1,0,0.1,0,0.2,0.1l-0.1,0.1c0,0-0.1,0-0.1,0
			c0,0-0.1,0-0.1,0s0,0.1-0.1,0.1c0,0.1,0,0.1,0,0.2v0.5C70.8,23.1,70.7,23.1,70.7,23.1z"/>
		<path d="M71.3,22.3v-0.2h0.2v0.2H71.3z M71.3,23.1v-0.2h0.2v0.2H71.3z"/>
		<path d="M72.1,22.6c0-0.2,0-0.3,0.1-0.4c0.1-0.1,0.2-0.1,0.3-0.1c0.1,0,0.2,0,0.3,0.1s0.1,0.2,0.1,0.3c0,0.1,0,0.2-0.1,0.3
			c0,0.1-0.1,0.1-0.2,0.2c-0.1,0-0.1,0.1-0.2,0.1c-0.1,0-0.2,0-0.3-0.1C72.1,22.9,72.1,22.8,72.1,22.6z M72.2,22.6
			c0,0.1,0,0.2,0.1,0.3c0.1,0.1,0.1,0.1,0.2,0.1s0.1,0,0.2-0.1c0.1-0.1,0.1-0.1,0.1-0.3c0-0.1,0-0.2-0.1-0.2
			c-0.1-0.1-0.1-0.1-0.2-0.1s-0.1,0-0.2,0.1C72.3,22.4,72.2,22.5,72.2,22.6z"/>
	</g>
	<g class="st7">
		<path d="M68.1,24.8l0.2,0c0,0.1-0.1,0.2-0.1,0.2c-0.1,0.1-0.2,0.1-0.2,0.1c-0.1,0-0.2,0-0.3-0.1c-0.1-0.1-0.1-0.2-0.1-0.3
			c0-0.1,0-0.2,0.1-0.3c0-0.1,0.1-0.1,0.1-0.2s0.1-0.1,0.2-0.1c0.1,0,0.2,0,0.2,0.1s0.1,0.1,0.1,0.2l-0.1,0c0-0.1,0-0.1-0.1-0.1
			c0,0-0.1,0-0.1,0c-0.1,0-0.1,0-0.2,0.1s-0.1,0.1-0.1,0.3c0,0.1,0,0.2,0.1,0.3s0.1,0.1,0.2,0.1c0.1,0,0.1,0,0.2-0.1
			C68,24.9,68,24.8,68.1,24.8z"/>
		<path d="M68.3,24.6c0-0.2,0-0.3,0.1-0.4c0.1-0.1,0.2-0.1,0.3-0.1c0.1,0,0.2,0,0.3,0.1s0.1,0.2,0.1,0.3c0,0.1,0,0.2-0.1,0.3
			c0,0.1-0.1,0.1-0.2,0.2c-0.1,0-0.1,0.1-0.2,0.1c-0.1,0-0.2,0-0.3-0.1C68.3,24.9,68.3,24.8,68.3,24.6z M68.4,24.6
			c0,0.1,0,0.2,0.1,0.3c0.1,0.1,0.1,0.1,0.2,0.1s0.1,0,0.2-0.1c0.1-0.1,0.1-0.1,0.1-0.3c0-0.1,0-0.2-0.1-0.2
			c-0.1-0.1-0.1-0.1-0.2-0.1s-0.1,0-0.2,0.1C68.4,24.4,68.4,24.5,68.4,24.6z"/>
		<path d="M69.3,25.1v-0.9h0.1v0.1c0.1-0.1,0.2-0.1,0.3-0.1c0.1,0,0.1,0,0.1,0c0,0,0.1,0,0.1,0.1c0,0,0,0.1,0.1,0.1c0,0,0,0.1,0,0.1
			v0.5h-0.2v-0.5c0-0.1,0-0.1,0-0.1c0,0,0-0.1-0.1-0.1c0,0-0.1,0-0.1,0c-0.1,0-0.1,0-0.2,0.1c-0.1,0-0.1,0.1-0.1,0.2v0.5L69.3,25.1
			L69.3,25.1z"/>
		<path d="M70.2,25.1v-0.8h-0.1v-0.1h0.1v-0.1c0-0.1,0-0.1,0-0.1c0,0,0-0.1,0.1-0.1c0,0,0.1,0,0.2,0c0,0,0.1,0,0.1,0l0,0.1
			c0,0-0.1,0-0.1,0c0,0-0.1,0-0.1,0c0,0,0,0.1,0,0.1v0.1h0.2v0.1h-0.2v0.8H70.2z"/>
		<path d="M70.7,24.4v-0.2h0.2v0.2H70.7z M70.7,25.1v-0.2h0.2v0.2H70.7z"/>
		<path d="M71.6,25.1v-0.2h0.2v0.2H71.6z"/>
		<path d="M72.2,24.4c-0.1,0-0.1-0.1-0.1-0.1c0,0,0-0.1,0-0.2c0-0.1,0-0.2,0.1-0.2c0.1-0.1,0.2-0.1,0.3-0.1s0.2,0,0.3,0.1
			c0.1,0.1,0.1,0.1,0.1,0.2c0,0.1,0,0.1,0,0.2c0,0-0.1,0.1-0.1,0.1c0.1,0,0.1,0.1,0.2,0.1c0,0.1,0.1,0.1,0.1,0.2
			c0,0.1,0,0.2-0.1,0.3s-0.2,0.1-0.3,0.1s-0.2,0-0.3-0.1C72,24.9,72,24.8,72,24.7c0-0.1,0-0.1,0.1-0.2
			C72.1,24.5,72.2,24.4,72.2,24.4z M72.2,24.7c0,0,0,0.1,0,0.1c0,0,0.1,0.1,0.1,0.1c0,0,0.1,0,0.1,0c0.1,0,0.1,0,0.2-0.1
			c0.1-0.1,0.1-0.1,0.1-0.2s0-0.1-0.1-0.2c-0.1-0.1-0.1-0.1-0.2-0.1s-0.1,0-0.2,0.1C72.2,24.6,72.2,24.7,72.2,24.7z M72.2,24.2
			c0,0.1,0,0.1,0.1,0.1c0,0,0.1,0.1,0.1,0.1s0.1,0,0.1-0.1c0,0,0.1-0.1,0.1-0.1s0-0.1-0.1-0.1c0,0-0.1-0.1-0.1-0.1s-0.1,0-0.1,0.1
			S72.2,24.1,72.2,24.2z"/>
		<path d="M73.7,24.9v0.1h-0.8c0,0,0-0.1,0-0.1c0-0.1,0.1-0.1,0.1-0.2c0-0.1,0.1-0.1,0.2-0.2c0.1-0.1,0.2-0.2,0.3-0.3
			c0.1-0.1,0.1-0.1,0.1-0.2c0-0.1,0-0.1-0.1-0.2c0,0-0.1-0.1-0.2-0.1c-0.1,0-0.1,0-0.2,0.1c0,0-0.1,0.1-0.1,0.2l-0.2,0
			c0-0.1,0.1-0.2,0.1-0.3c0.1-0.1,0.2-0.1,0.3-0.1c0.1,0,0.2,0,0.3,0.1c0.1,0.1,0.1,0.1,0.1,0.2c0,0.1,0,0.1,0,0.1
			c0,0.1-0.1,0.1-0.1,0.2c-0.1,0.1-0.1,0.1-0.2,0.2c-0.1,0.1-0.2,0.1-0.2,0.2c0,0-0.1,0.1-0.1,0.1C73.1,24.9,73.7,24.9,73.7,24.9z"
			/>
	</g>
</g>
<g id="pred_j">
	<rect x="81.3" y="0.8" class="st5" width="7.6" height="27.3"/>
	<rect x="81.3" y="28.2" class="st6" width="7.6" height="4.3"/>
	<g class="st7">
		<path d="M81.9,30v-1.2H82V30H81.9z"/>
		<path d="M82.8,29.7l0.2,0c0,0.1-0.1,0.2-0.1,0.2C82.8,30,82.7,30,82.6,30c-0.1,0-0.2,0-0.3-0.1c-0.1-0.1-0.1-0.2-0.1-0.3
			c0-0.2,0-0.3,0.1-0.3c0.1-0.1,0.2-0.1,0.3-0.1s0.2,0,0.3,0.1c0.1,0.1,0.1,0.2,0.1,0.3c0,0,0,0,0,0h-0.7c0,0.1,0,0.2,0.1,0.2
			s0.1,0.1,0.2,0.1c0.1,0,0.1,0,0.1,0C82.8,29.8,82.8,29.7,82.8,29.7z M82.4,29.4h0.5c0-0.1,0-0.1-0.1-0.2c-0.1-0.1-0.1-0.1-0.2-0.1
			s-0.1,0-0.2,0.1C82.4,29.3,82.4,29.4,82.4,29.4z"/>
		<path d="M83.5,29.8l0,0.1c0,0-0.1,0-0.1,0c-0.1,0-0.1,0-0.1,0c0,0-0.1,0-0.1-0.1c0,0,0-0.1,0-0.2v-0.5h-0.1v-0.1h0.1v-0.2l0.2-0.1
			v0.3h0.2v0.1h-0.2v0.5c0,0,0,0.1,0,0.1c0,0,0,0,0,0C83.4,29.8,83.4,29.8,83.5,29.8C83.5,29.8,83.5,29.8,83.5,29.8z"/>
		<path d="M84,29.8l0,0.1c0,0-0.1,0-0.1,0c-0.1,0-0.1,0-0.1,0c0,0-0.1,0-0.1-0.1c0,0,0-0.1,0-0.2v-0.5h-0.1v-0.1h0.1v-0.2l0.2-0.1
			v0.3H84v0.1h-0.2v0.5c0,0,0,0.1,0,0.1C83.8,29.8,83.9,29.8,84,29.8C83.9,29.8,83.9,29.8,84,29.8C83.9,29.8,83.9,29.8,84,29.8z"/>
		<path d="M84.7,29.7l0.2,0c0,0.1-0.1,0.2-0.1,0.2S84.6,30,84.5,30c-0.1,0-0.2,0-0.3-0.1c-0.1-0.1-0.1-0.2-0.1-0.3
			c0-0.2,0-0.3,0.1-0.3c0.1-0.1,0.2-0.1,0.3-0.1s0.2,0,0.3,0.1c0.1,0.1,0.1,0.2,0.1,0.3c0,0,0,0,0,0h-0.7c0,0.1,0,0.2,0.1,0.2
			c0.1,0.1,0.1,0.1,0.2,0.1c0.1,0,0.1,0,0.1,0S84.7,29.7,84.7,29.7z M84.2,29.4h0.5c0-0.1,0-0.1-0.1-0.2c-0.1-0.1-0.1-0.1-0.2-0.1
			s-0.1,0-0.2,0.1C84.3,29.3,84.2,29.4,84.2,29.4z"/>
		<path d="M85.1,30v-0.9h0.1v0.1c0-0.1,0.1-0.1,0.1-0.1s0.1,0,0.1,0c0.1,0,0.1,0,0.2,0.1l-0.1,0.1c0,0-0.1,0-0.1,0c0,0-0.1,0-0.1,0
			s0,0.1-0.1,0.1c0,0.1,0,0.1,0,0.2V30C85.2,30,85.1,30,85.1,30z"/>
		<path d="M85.7,29.2v-0.2h0.2v0.2H85.7z M85.7,30v-0.2h0.2V30H85.7z"/>
		<path d="M86.3,30.3l0-0.1c0,0,0.1,0,0.1,0c0,0,0.1,0,0.1,0c0,0,0-0.1,0-0.2v-0.9h0.2V30c0,0.1,0,0.2,0,0.2c0,0.1-0.1,0.1-0.2,0.1
			C86.4,30.3,86.4,30.3,86.3,30.3z M86.5,28.9v-0.2h0.2v0.2H86.5z"/>
	</g>
	<g class="st7">
		<path d="M82.4,31.7l0.1,0c0,0.1-0.1,0.2-0.1,0.2C82.4,32,82.3,32,82.2,32c-0.1,0-0.2,0-0.3-0.1c-0.1-0.1-0.1-0.2-0.1-0.3
			c0-0.1,0-0.2,0.1-0.3s0.1-0.1,0.1-0.2c0.1,0,0.1-0.1,0.2-0.1c0.1,0,0.2,0,0.2,0.1c0.1,0.1,0.1,0.1,0.1,0.2l-0.1,0
			c0-0.1,0-0.1-0.1-0.1c0,0-0.1,0-0.1,0c-0.1,0-0.1,0-0.2,0.1S82,31.4,82,31.6c0,0.1,0,0.2,0.1,0.3c0.1,0.1,0.1,0.1,0.2,0.1
			c0.1,0,0.1,0,0.1-0.1C82.4,31.8,82.4,31.8,82.4,31.7z"/>
		<path d="M82.7,31.6c0-0.2,0-0.3,0.1-0.4c0.1-0.1,0.2-0.1,0.3-0.1c0.1,0,0.2,0,0.3,0.1c0.1,0.1,0.1,0.2,0.1,0.3
			c0,0.1,0,0.2-0.1,0.3c0,0.1-0.1,0.1-0.2,0.2c-0.1,0-0.1,0.1-0.2,0.1c-0.1,0-0.2,0-0.3-0.1C82.7,31.8,82.7,31.7,82.7,31.6z
			 M82.8,31.6c0,0.1,0,0.2,0.1,0.3c0.1,0.1,0.1,0.1,0.2,0.1s0.1,0,0.2-0.1c0.1-0.1,0.1-0.1,0.1-0.3s0-0.2-0.1-0.2
			c-0.1-0.1-0.1-0.1-0.2-0.1s-0.1,0-0.2,0.1C82.8,31.4,82.8,31.4,82.8,31.6z"/>
		<path d="M83.7,32v-0.9h0.1v0.1c0.1-0.1,0.2-0.1,0.3-0.1c0.1,0,0.1,0,0.1,0c0,0,0.1,0,0.1,0.1s0,0.1,0,0.1c0,0,0,0.1,0,0.1V32h-0.2
			v-0.5c0-0.1,0-0.1,0-0.1c0,0,0-0.1-0.1-0.1c0,0-0.1,0-0.1,0c-0.1,0-0.1,0-0.2,0.1c-0.1,0-0.1,0.1-0.1,0.2V32L83.7,32L83.7,32z"/>
		<path d="M84.6,32v-0.8h-0.1v-0.1h0.1V31c0-0.1,0-0.1,0-0.1c0,0,0-0.1,0.1-0.1c0,0,0.1,0,0.2,0c0,0,0.1,0,0.1,0l0,0.1
			c0,0-0.1,0-0.1,0c0,0-0.1,0-0.1,0c0,0,0,0.1,0,0.1v0.1h0.2v0.1h-0.2V32H84.6z"/>
		<path d="M85.1,31.3v-0.2h0.2v0.2H85.1z M85.1,32v-0.2h0.2V32H85.1z"/>
		<path d="M86,32v-0.2h0.2V32H86z"/>
		<path d="M86.6,31.3c-0.1,0-0.1-0.1-0.1-0.1c0,0,0-0.1,0-0.2c0-0.1,0-0.2,0.1-0.2s0.2-0.1,0.3-0.1s0.2,0,0.3,0.1s0.1,0.1,0.1,0.2
			c0,0.1,0,0.1,0,0.2c0,0-0.1,0.1-0.1,0.1c0.1,0,0.1,0.1,0.2,0.1c0,0.1,0.1,0.1,0.1,0.2c0,0.1,0,0.2-0.1,0.3S86.9,32,86.8,32
			s-0.2,0-0.3-0.1c-0.1-0.1-0.1-0.2-0.1-0.3c0-0.1,0-0.1,0.1-0.2C86.5,31.4,86.6,31.4,86.6,31.3z M86.6,31.7c0,0,0,0.1,0,0.1
			c0,0,0.1,0.1,0.1,0.1s0.1,0,0.1,0c0.1,0,0.1,0,0.2-0.1c0.1-0.1,0.1-0.1,0.1-0.2s0-0.1-0.1-0.2c-0.1-0.1-0.1-0.1-0.2-0.1
			s-0.1,0-0.2,0.1C86.6,31.5,86.6,31.6,86.6,31.7z M86.6,31.1c0,0.1,0,0.1,0.1,0.1c0,0,0.1,0.1,0.1,0.1s0.1,0,0.1-0.1
			c0,0,0.1-0.1,0.1-0.1c0-0.1,0-0.1-0.1-0.1c0,0-0.1-0.1-0.1-0.1s-0.1,0-0.1,0.1C86.6,31,86.6,31,86.6,31.1z"/>
		<path d="M87.3,30.9v-0.1h0.8v0.1C88,31,88,31.1,87.9,31.2c-0.1,0.1-0.1,0.3-0.2,0.4c0,0.1-0.1,0.2-0.1,0.3h-0.2
			c0-0.1,0-0.2,0.1-0.3c0-0.1,0.1-0.3,0.2-0.4c0.1-0.1,0.1-0.2,0.2-0.3C87.9,30.9,87.3,30.9,87.3,30.9z"/>
	</g>
</g>
<g id="pred_a">
	<rect x="88.9" y="6.1" class="st5" width="13.6" height="15.1"/>
	<rect x="88.9" y="21.2" class="st6" width="7.9" height="4.2"/>
	<g class="st7">
		<path d="M89.5,23.2V22h0.2v1.2H89.5z"/>
		<path d="M90.5,22.9l0.2,0c0,0.1-0.1,0.2-0.1,0.2c-0.1,0-0.2,0.1-0.3,0.1c-0.1,0-0.2,0-0.3-0.1c-0.1-0.1-0.1-0.2-0.1-0.3
			c0-0.1,0-0.3,0.1-0.3c0.1-0.1,0.2-0.1,0.3-0.1s0.2,0,0.3,0.1c0.1,0.1,0.1,0.2,0.1,0.3c0,0,0,0,0,0H90c0,0.1,0,0.2,0.1,0.2
			c0.1,0,0.1,0.1,0.2,0.1c0.1,0,0.1,0,0.1,0C90.5,23,90.5,23,90.5,22.9z M90,22.7h0.5c0-0.1,0-0.1-0.1-0.2c-0.1-0.1-0.1-0.1-0.2-0.1
			c-0.1,0-0.1,0-0.2,0.1C90,22.5,90,22.6,90,22.7z"/>
		<path d="M91.2,23.1l0,0.1c0,0-0.1,0-0.1,0c-0.1,0-0.1,0-0.1,0s-0.1,0-0.1-0.1c0,0,0-0.1,0-0.2v-0.5h-0.1v-0.1h0.1v-0.2l0.2-0.1
			v0.3h0.2v0.1h-0.2v0.5c0,0,0,0.1,0,0.1s0,0,0,0S91.1,23.1,91.2,23.1C91.2,23.1,91.2,23.1,91.2,23.1z"/>
		<path d="M91.7,23.1l0,0.1c0,0-0.1,0-0.1,0c-0.1,0-0.1,0-0.1,0s-0.1,0-0.1-0.1c0,0,0-0.1,0-0.2v-0.5h-0.1v-0.1h0.1v-0.2l0.2-0.1
			v0.3h0.2v0.1h-0.2v0.5c0,0,0,0.1,0,0.1s0,0,0,0S91.6,23.1,91.7,23.1C91.6,23.1,91.7,23.1,91.7,23.1z"/>
		<path d="M92.5,22.9l0.2,0c0,0.1-0.1,0.2-0.1,0.2c-0.1,0-0.2,0.1-0.3,0.1c-0.1,0-0.2,0-0.3-0.1c-0.1-0.1-0.1-0.2-0.1-0.3
			c0-0.1,0-0.3,0.1-0.3c0.1-0.1,0.2-0.1,0.3-0.1s0.2,0,0.3,0.1s0.1,0.2,0.1,0.3c0,0,0,0,0,0h-0.7c0,0.1,0,0.2,0.1,0.2
			s0.1,0.1,0.2,0.1c0.1,0,0.1,0,0.1,0C92.4,23,92.4,23,92.5,22.9z M92,22.7h0.5c0-0.1,0-0.1-0.1-0.2c-0.1-0.1-0.1-0.1-0.2-0.1
			c-0.1,0-0.1,0-0.2,0.1C92,22.5,92,22.6,92,22.7z"/>
		<path d="M92.8,23.2v-0.9H93v0.1c0-0.1,0.1-0.1,0.1-0.1c0,0,0.1,0,0.1,0c0.1,0,0.1,0,0.2,0l-0.1,0.1c0,0-0.1,0-0.1,0
			c0,0-0.1,0-0.1,0c0,0,0,0-0.1,0.1c0,0,0,0.1,0,0.2v0.5C93,23.2,92.8,23.2,92.8,23.2z"/>
		<path d="M93.4,22.5v-0.2h0.2v0.2H93.4z M93.4,23.2V23h0.2v0.2H93.4z"/>
		<path d="M95,23.1c-0.1,0-0.1,0.1-0.2,0.1c-0.1,0-0.1,0-0.2,0c-0.1,0-0.2,0-0.2-0.1S94.3,23,94.3,23c0,0,0-0.1,0-0.1s0-0.1,0.1-0.1
			c0,0,0.1,0,0.1,0c0,0,0.1,0,0.1,0c0.1,0,0.2,0,0.3,0c0,0,0,0,0,0c0-0.1,0-0.1,0-0.1c0,0-0.1,0-0.2,0c-0.1,0-0.1,0-0.2,0
			c0,0-0.1,0.1-0.1,0.1l-0.1,0c0-0.1,0-0.1,0.1-0.1s0.1-0.1,0.1-0.1c0.1,0,0.1,0,0.2,0c0.1,0,0.1,0,0.2,0c0.1,0,0.1,0,0.1,0.1
			c0,0,0,0.1,0.1,0.1c0,0,0,0.1,0,0.1v0.2c0,0.1,0,0.2,0,0.3s0,0.1,0,0.1H95C95,23.2,95,23.1,95,23.1z M95,22.7
			c-0.1,0-0.1,0-0.3,0.1c-0.1,0-0.1,0-0.1,0s0,0-0.1,0c0,0,0,0,0,0.1c0,0,0,0.1,0,0.1c0,0,0.1,0,0.1,0c0.1,0,0.1,0,0.2,0
			c0,0,0.1-0.1,0.1-0.1C94.9,22.9,94.9,22.9,95,22.7L95,22.7L95,22.7z"/>
	</g>
	<g class="st7">
		<path d="M90.1,24.9l0.2,0c0,0.1-0.1,0.2-0.1,0.2c-0.1,0.1-0.2,0.1-0.3,0.1c-0.1,0-0.2,0-0.3-0.1c-0.1-0.1-0.1-0.2-0.1-0.3
			c0-0.1,0-0.2,0.1-0.3c0-0.1,0.1-0.1,0.1-0.2c0.1,0,0.1,0,0.2,0c0.1,0,0.2,0,0.2,0.1c0.1,0,0.1,0.1,0.1,0.2l-0.1,0
			c0-0.1,0-0.1-0.1-0.1s-0.1,0-0.1,0c-0.1,0-0.1,0-0.2,0.1s-0.1,0.1-0.1,0.3c0,0.1,0,0.2,0.1,0.3s0.1,0.1,0.2,0.1c0.1,0,0.1,0,0.2,0
			C90.1,25,90.1,24.9,90.1,24.9z"/>
		<path d="M90.3,24.8c0-0.2,0-0.3,0.1-0.4c0.1-0.1,0.2-0.1,0.3-0.1c0.1,0,0.2,0,0.3,0.1c0.1,0.1,0.1,0.2,0.1,0.3
			c0,0.1,0,0.2-0.1,0.3c0,0.1-0.1,0.1-0.2,0.1c-0.1,0-0.1,0-0.2,0c-0.1,0-0.2,0-0.3-0.1C90.4,25,90.3,24.9,90.3,24.8z M90.5,24.8
			c0,0.1,0,0.2,0.1,0.3c0.1,0.1,0.1,0.1,0.2,0.1c0.1,0,0.1,0,0.2-0.1s0.1-0.1,0.1-0.3s0-0.2-0.1-0.2c-0.1-0.1-0.1-0.1-0.2-0.1
			c-0.1,0-0.1,0-0.2,0.1C90.5,24.6,90.5,24.6,90.5,24.8z"/>
		<path d="M91.4,25.2v-0.9h0.1v0.1c0.1-0.1,0.2-0.1,0.3-0.1c0.1,0,0.1,0,0.1,0c0,0,0.1,0,0.1,0.1c0,0,0,0.1,0.1,0.1c0,0,0,0.1,0,0.1
			v0.5h-0.2v-0.5c0-0.1,0-0.1,0-0.1c0,0,0,0-0.1-0.1s-0.1,0-0.1,0c-0.1,0-0.1,0-0.2,0.1c-0.1,0-0.1,0.1-0.1,0.2v0.5L91.4,25.2
			L91.4,25.2z"/>
		<path d="M92.4,25.2v-0.8h-0.1v-0.1h0.1v-0.1c0-0.1,0-0.1,0-0.1c0,0,0-0.1,0.1-0.1s0.1,0,0.2,0c0,0,0.1,0,0.1,0l0,0.1
			c0,0-0.1,0-0.1,0c0,0-0.1,0-0.1,0c0,0,0,0,0,0.1v0.1h0.2v0.1h-0.2v0.8H92.4z"/>
		<path d="M92.9,24.5v-0.2H93v0.2H92.9z M92.9,25.2V25H93v0.2H92.9z"/>
		<path d="M93.8,25.2V25H94v0.2H93.8z"/>
		<path d="M94.3,24.9l0.1,0c0,0.1,0,0.1,0.1,0.1c0,0,0.1,0,0.1,0s0.1,0,0.1,0c0,0,0.1,0,0.1-0.1c0,0,0-0.1,0.1-0.1
			c0-0.1,0-0.1,0-0.2c0,0,0,0,0,0c0,0-0.1,0.1-0.1,0.1c-0.1,0-0.1,0-0.2,0c-0.1,0-0.2,0-0.3-0.1c-0.1-0.1-0.1-0.2-0.1-0.3
			c0-0.1,0-0.2,0.1-0.3c0.1-0.1,0.2-0.1,0.3-0.1c0.1,0,0.2,0,0.2,0.1s0.1,0.1,0.2,0.2c0,0.1,0.1,0.2,0.1,0.3s0,0.3-0.1,0.4
			s-0.1,0.2-0.2,0.2c-0.1,0-0.1,0.1-0.2,0.1c-0.1,0-0.2,0-0.2-0.1S94.3,25,94.3,24.9z M94.9,24.4c0-0.1,0-0.1-0.1-0.2
			c0,0-0.1-0.1-0.2-0.1c-0.1,0-0.1,0-0.2,0.1s-0.1,0.1-0.1,0.2c0,0.1,0,0.1,0.1,0.2c0.1,0,0.1,0.1,0.2,0.1c0.1,0,0.1,0,0.2-0.1
			C94.9,24.5,94.9,24.5,94.9,24.4z"/>
		<path d="M95.2,24.9l0.1,0c0,0.1,0,0.1,0.1,0.1s0.1,0,0.1,0c0.1,0,0.1,0,0.1,0c0,0,0.1,0,0.1-0.1c0,0,0-0.1,0.1-0.1
			c0-0.1,0-0.1,0-0.2c0,0,0,0,0,0c0,0-0.1,0.1-0.1,0.1c-0.1,0-0.1,0-0.2,0c-0.1,0-0.2,0-0.3-0.1c-0.1-0.1-0.1-0.2-0.1-0.3
			c0-0.1,0-0.2,0.1-0.3c0.1-0.1,0.2-0.1,0.3-0.1c0.1,0,0.2,0,0.2,0.1c0.1,0,0.1,0.1,0.2,0.2c0,0.1,0.1,0.2,0.1,0.3s0,0.3-0.1,0.4
			s-0.1,0.2-0.2,0.2c-0.1,0-0.1,0.1-0.2,0.1c-0.1,0-0.2,0-0.2-0.1C95.3,25.1,95.2,25,95.2,24.9z M95.9,24.4c0-0.1,0-0.1-0.1-0.2
			c0,0-0.1-0.1-0.2-0.1c-0.1,0-0.1,0-0.2,0.1s-0.1,0.1-0.1,0.2c0,0.1,0,0.1,0.1,0.2c0.1,0,0.1,0.1,0.2,0.1c0.1,0,0.1,0,0.2-0.1
			C95.8,24.5,95.9,24.5,95.9,24.4z"/>
	</g>
</g>
<g id="pred_n">
	<rect x="102.5" y="6.1" class="st5" width="13.9" height="15.1"/>
	<rect x="102.5" y="21.2" class="st6" width="7.6" height="4.2"/>
	<g class="st7">
		<path d="M103.1,23v-1.2h0.2V23H103.1z"/>
		<path d="M104.1,22.7l0.2,0c0,0.1-0.1,0.2-0.1,0.2c-0.1,0-0.2,0.1-0.3,0.1c-0.1,0-0.2,0-0.3-0.1s-0.1-0.2-0.1-0.3
			c0-0.1,0-0.3,0.1-0.3c0.1-0.1,0.2-0.1,0.3-0.1s0.2,0,0.3,0.1s0.1,0.2,0.1,0.3c0,0,0,0,0,0h-0.7c0,0.1,0,0.2,0.1,0.2
			s0.1,0.1,0.2,0.1c0.1,0,0.1,0,0.1,0C104,22.8,104,22.7,104.1,22.7z M103.6,22.4h0.5c0-0.1,0-0.1-0.1-0.2c-0.1-0.1-0.1-0.1-0.2-0.1
			s-0.1,0-0.2,0.1C103.6,22.3,103.6,22.4,103.6,22.4z"/>
		<path d="M104.7,22.8l0,0.1c0,0-0.1,0-0.1,0c-0.1,0-0.1,0-0.1,0c0,0-0.1,0-0.1-0.1c0,0,0-0.1,0-0.2v-0.5h-0.1v-0.1h0.1v-0.2
			l0.2-0.1v0.3h0.2v0.1h-0.2v0.5c0,0,0,0.1,0,0.1C104.6,22.8,104.6,22.8,104.7,22.8C104.6,22.8,104.7,22.8,104.7,22.8
			C104.7,22.8,104.7,22.8,104.7,22.8z"/>
		<path d="M105.2,22.8l0,0.1c0,0-0.1,0-0.1,0c-0.1,0-0.1,0-0.1,0c0,0-0.1,0-0.1-0.1c0,0,0-0.1,0-0.2v-0.5h-0.1v-0.1h0.1v-0.2
			l0.2-0.1v0.3h0.2v0.1h-0.2v0.5c0,0,0,0.1,0,0.1S105.1,22.8,105.2,22.8C105.1,22.8,105.1,22.8,105.2,22.8
			C105.1,22.8,105.2,22.8,105.2,22.8z"/>
		<path d="M105.9,22.7l0.2,0c0,0.1-0.1,0.2-0.1,0.2c-0.1,0-0.2,0.1-0.3,0.1c-0.1,0-0.2,0-0.3-0.1s-0.1-0.2-0.1-0.3
			c0-0.1,0-0.3,0.1-0.3c0.1-0.1,0.2-0.1,0.3-0.1s0.2,0,0.3,0.1s0.1,0.2,0.1,0.3c0,0,0,0,0,0h-0.7c0,0.1,0,0.2,0.1,0.2
			s0.1,0.1,0.2,0.1c0.1,0,0.1,0,0.1,0C105.9,22.8,105.9,22.7,105.9,22.7z M105.4,22.4h0.5c0-0.1,0-0.1-0.1-0.2
			c-0.1-0.1-0.1-0.1-0.2-0.1s-0.1,0-0.2,0.1C105.5,22.3,105.5,22.4,105.4,22.4z"/>
		<path d="M106.3,23v-0.9h0.1v0.1c0-0.1,0.1-0.1,0.1-0.1s0.1,0,0.1,0c0.1,0,0.1,0,0.2,0l-0.1,0.1c0,0-0.1,0-0.1,0c0,0-0.1,0-0.1,0
			s0,0-0.1,0.1c0,0,0,0.1,0,0.2V23C106.4,23,106.3,23,106.3,23z"/>
		<path d="M106.9,22.3v-0.2h0.2v0.2H106.9z M106.9,23v-0.2h0.2V23H106.9z"/>
		<path d="M108.3,22.9c-0.1,0-0.1,0.1-0.2,0.1s-0.1,0-0.2,0c-0.1,0-0.2,0-0.2-0.1s-0.1-0.1-0.1-0.2c0,0,0-0.1,0-0.1s0-0.1,0.1-0.1
			c0,0,0.1,0,0.1,0c0,0,0.1,0,0.1,0c0.1,0,0.2,0,0.3,0c0,0,0,0,0,0c0-0.1,0-0.1,0-0.1c0,0-0.1,0-0.2,0c-0.1,0-0.1,0-0.2,0
			c0,0-0.1,0.1-0.1,0.1l-0.1,0c0-0.1,0-0.1,0.1-0.1c0,0,0.1-0.1,0.1-0.1s0.1,0,0.2,0s0.1,0,0.2,0s0.1,0,0.1,0.1s0,0.1,0.1,0.1
			c0,0,0,0.1,0,0.1v0.2c0,0.1,0,0.2,0,0.3s0,0.1,0,0.1h-0.2C108.3,22.9,108.3,22.9,108.3,22.9z M108.3,22.5c-0.1,0-0.1,0-0.2,0.1
			c-0.1,0-0.1,0-0.1,0c0,0,0,0-0.1,0c0,0,0,0,0,0.1c0,0,0,0.1,0,0.1s0.1,0,0.1,0s0.1,0,0.2,0s0.1-0.1,0.1-0.1
			C108.3,22.7,108.3,22.7,108.3,22.5L108.3,22.5L108.3,22.5z"/>
	</g>
	<g class="st7">
		<path d="M103.7,24.6l0.1,0c0,0.1-0.1,0.2-0.1,0.2c-0.1,0.1-0.2,0.1-0.2,0.1c-0.1,0-0.2,0-0.3-0.1c-0.1-0.1-0.1-0.2-0.1-0.3
			c0-0.1,0-0.2,0.1-0.3c0-0.1,0.1-0.1,0.1-0.2s0.1,0,0.2,0c0.1,0,0.2,0,0.2,0.1c0.1,0,0.1,0.1,0.1,0.2l-0.1,0c0-0.1,0-0.1-0.1-0.1
			c0,0-0.1,0-0.1,0c-0.1,0-0.1,0-0.2,0.1s-0.1,0.1-0.1,0.3c0,0.1,0,0.2,0.1,0.3s0.1,0.1,0.2,0.1c0.1,0,0.1,0,0.2,0
			C103.6,24.8,103.7,24.7,103.7,24.6z"/>
		<path d="M103.9,24.5c0-0.2,0-0.3,0.1-0.4c0.1-0.1,0.2-0.1,0.3-0.1c0.1,0,0.2,0,0.3,0.1c0.1,0.1,0.1,0.2,0.1,0.3
			c0,0.1,0,0.2-0.1,0.3c0,0.1-0.1,0.1-0.2,0.1c-0.1,0-0.1,0-0.2,0c-0.1,0-0.2,0-0.3-0.1C103.9,24.8,103.9,24.7,103.9,24.5z
			 M104,24.5c0,0.1,0,0.2,0.1,0.3c0.1,0.1,0.1,0.1,0.2,0.1s0.1,0,0.2-0.1c0.1-0.1,0.1-0.1,0.1-0.3s0-0.2-0.1-0.2
			c-0.1-0.1-0.1-0.1-0.2-0.1s-0.1,0-0.2,0.1S104,24.4,104,24.5z"/>
		<path d="M104.9,25v-0.9h0.1v0.1c0.1-0.1,0.2-0.1,0.3-0.1c0.1,0,0.1,0,0.1,0s0.1,0,0.1,0.1c0,0,0,0.1,0.1,0.1c0,0,0,0.1,0,0.1V25
			h-0.2v-0.5c0-0.1,0-0.1,0-0.1c0,0,0,0-0.1-0.1s-0.1,0-0.1,0c-0.1,0-0.1,0-0.2,0.1c0,0-0.1,0.1-0.1,0.2V25L104.9,25L104.9,25z"/>
		<path d="M105.8,25v-0.8h-0.1v-0.1h0.1V24c0-0.1,0-0.1,0-0.1c0,0,0-0.1,0.1-0.1s0.1,0,0.2,0c0,0,0.1,0,0.1,0l0,0.1c0,0-0.1,0-0.1,0
			c0,0-0.1,0-0.1,0c0,0,0,0,0,0.1v0.1h0.2v0.1H106V25L105.8,25L105.8,25z"/>
		<path d="M106.3,24.3v-0.2h0.2v0.2H106.3z M106.3,25v-0.2h0.2V25H106.3z"/>
		<path d="M107.2,25v-0.2h0.2V25H107.2z"/>
		<path d="M107.8,24.3c-0.1,0-0.1,0-0.1-0.1c0,0,0-0.1,0-0.1c0-0.1,0-0.2,0.1-0.2s0.2-0.1,0.3-0.1s0.2,0,0.3,0.1s0.1,0.1,0.1,0.2
			c0,0.1,0,0.1,0,0.1s-0.1,0.1-0.1,0.1c0.1,0,0.1,0.1,0.2,0.1c0,0,0.1,0.1,0.1,0.2c0,0.1,0,0.2-0.1,0.3S108.1,25,108,25
			s-0.2,0-0.3-0.1c-0.1-0.1-0.1-0.2-0.1-0.3c0-0.1,0-0.1,0.1-0.2C107.7,24.4,107.8,24.3,107.8,24.3z M107.8,24.6c0,0,0,0.1,0,0.1
			s0.1,0.1,0.1,0.1c0,0,0.1,0,0.1,0c0.1,0,0.1,0,0.2-0.1s0.1-0.1,0.1-0.2s0-0.1-0.1-0.2c-0.1,0-0.1-0.1-0.2-0.1s-0.1,0-0.2,0.1
			S107.8,24.5,107.8,24.6z M107.8,24.1c0,0.1,0,0.1,0.1,0.1c0,0,0.1,0,0.1,0s0.1,0,0.1,0c0,0,0.1-0.1,0.1-0.1s0-0.1-0.1-0.1
			c0,0-0.1,0-0.1,0s-0.1,0-0.1,0S107.8,24,107.8,24.1z"/>
	</g>
</g>
<g id="pred_Z">
	<rect x="116.4" y="1.6" class="st5" width="15.1" height="19.6"/>
	<rect x="116.4" y="21.2" class="st6" width="7.6" height="4.2"/>
	<g class="st7">
		<path d="M117,22.9v-1.2h0.2v1.2H117z"/>
		<path d="M118,22.7l0.2,0c0,0.1-0.1,0.2-0.1,0.2s-0.2,0.1-0.3,0.1c-0.1,0-0.2,0-0.3-0.1s-0.1-0.2-0.1-0.3c0-0.1,0-0.3,0.1-0.3
			c0.1-0.1,0.2-0.1,0.3-0.1s0.2,0,0.3,0.1c0.1,0.1,0.1,0.2,0.1,0.3c0,0,0,0,0,0h-0.7c0,0.1,0,0.2,0.1,0.2s0.1,0.1,0.2,0.1
			c0.1,0,0.1,0,0.1,0S117.9,22.7,118,22.7z M117.5,22.4h0.5c0-0.1,0-0.1-0.1-0.2c-0.1-0.1-0.1-0.1-0.2-0.1s-0.1,0-0.2,0.1
			C117.5,22.3,117.5,22.3,117.5,22.4z"/>
		<path d="M118.6,22.8l0,0.1c0,0-0.1,0-0.1,0c-0.1,0-0.1,0-0.1,0c0,0-0.1,0-0.1-0.1c0,0,0-0.1,0-0.2v-0.5h-0.1v-0.1h0.1v-0.2
			l0.2-0.1v0.3h0.2v0.1h-0.2v0.5c0,0,0,0.1,0,0.1S118.5,22.8,118.6,22.8C118.5,22.8,118.5,22.8,118.6,22.8
			C118.6,22.8,118.6,22.8,118.6,22.8z"/>
		<path d="M119.1,22.8l0,0.1c0,0-0.1,0-0.1,0c-0.1,0-0.1,0-0.1,0c0,0-0.1,0-0.1-0.1c0,0,0-0.1,0-0.2v-0.5h-0.1v-0.1h0.1v-0.2
			l0.2-0.1v0.3h0.2v0.1h-0.2v0.5c0,0,0,0.1,0,0.1C118.9,22.8,119,22.8,119.1,22.8C119,22.8,119,22.8,119.1,22.8
			C119,22.8,119,22.8,119.1,22.8z"/>
		<path d="M119.8,22.7l0.2,0c0,0.1-0.1,0.2-0.1,0.2s-0.2,0.1-0.3,0.1c-0.1,0-0.2,0-0.3-0.1s-0.1-0.2-0.1-0.3c0-0.1,0-0.3,0.1-0.3
			c0.1-0.1,0.2-0.1,0.3-0.1s0.2,0,0.3,0.1c0.1,0.1,0.1,0.2,0.1,0.3c0,0,0,0,0,0h-0.7c0,0.1,0,0.2,0.1,0.2s0.1,0.1,0.2,0.1
			c0.1,0,0.1,0,0.1,0S119.8,22.7,119.8,22.7z M119.3,22.4h0.5c0-0.1,0-0.1-0.1-0.2c-0.1-0.1-0.1-0.1-0.2-0.1s-0.1,0-0.2,0.1
			C119.4,22.3,119.3,22.3,119.3,22.4z"/>
		<path d="M120.2,22.9v-0.9h0.1v0.1c0-0.1,0.1-0.1,0.1-0.1s0.1,0,0.1,0c0.1,0,0.1,0,0.2,0l-0.1,0.1c0,0-0.1,0-0.1,0c0,0-0.1,0-0.1,0
			s0,0-0.1,0.1c0,0,0,0.1,0,0.2v0.5C120.3,22.9,120.2,22.9,120.2,22.9z"/>
		<path d="M120.7,22.2v-0.2h0.2v0.2H120.7z M120.7,22.9v-0.2h0.2v0.2H120.7z"/>
		<path d="M121.6,22.9v-0.1l0.6-0.8c0,0,0.1-0.1,0.1-0.1h-0.7v-0.1h0.9v0.1l-0.7,0.8l-0.1,0.1h0.8v0.1L121.6,22.9
			C121.6,22.9,121.6,22.9,121.6,22.9z"/>
	</g>
	<g class="st7">
		<path d="M117.6,24.6l0.2,0c0,0.1-0.1,0.2-0.1,0.2c-0.1,0.1-0.1,0.1-0.2,0.1c-0.1,0-0.2,0-0.3-0.1c-0.1-0.1-0.1-0.2-0.1-0.3
			c0-0.1,0-0.2,0.1-0.3s0.1-0.1,0.1-0.2s0.1,0,0.2,0c0.1,0,0.2,0,0.2,0.1c0.1,0,0.1,0.1,0.1,0.2l-0.1,0c0-0.1,0-0.1-0.1-0.1
			c0,0-0.1,0-0.1,0c-0.1,0-0.1,0-0.2,0.1s-0.1,0.1-0.1,0.3c0,0.1,0,0.2,0.1,0.3s0.1,0.1,0.2,0.1c0.1,0,0.1,0,0.1,0
			C117.5,24.7,117.5,24.7,117.6,24.6z"/>
		<path d="M117.8,24.5c0-0.2,0-0.3,0.1-0.4c0.1-0.1,0.2-0.1,0.3-0.1c0.1,0,0.2,0,0.3,0.1c0.1,0.1,0.1,0.2,0.1,0.3
			c0,0.1,0,0.2-0.1,0.3c0,0.1-0.1,0.1-0.2,0.1c-0.1,0-0.1,0-0.2,0c-0.1,0-0.2,0-0.3-0.1C117.8,24.8,117.8,24.7,117.8,24.5z
			 M117.9,24.5c0,0.1,0,0.2,0.1,0.3c0.1,0.1,0.1,0.1,0.2,0.1s0.1,0,0.2-0.1c0.1-0.1,0.1-0.1,0.1-0.3s0-0.2-0.1-0.2
			c-0.1-0.1-0.1-0.1-0.2-0.1s-0.1,0-0.2,0.1S117.9,24.4,117.9,24.5z"/>
		<path d="M118.8,24.9v-0.9h0.1v0.1c0.1-0.1,0.2-0.1,0.3-0.1c0.1,0,0.1,0,0.1,0s0.1,0,0.1,0.1c0,0,0,0.1,0,0.1c0,0,0,0.1,0,0.1v0.5
			h-0.2v-0.5c0-0.1,0-0.1,0-0.1c0,0,0,0-0.1-0.1s-0.1,0-0.1,0c-0.1,0-0.1,0-0.2,0.1c-0.1,0-0.1,0.1-0.1,0.2v0.5L118.8,24.9
			L118.8,24.9z"/>
		<path d="M119.7,24.9v-0.8h-0.1v-0.1h0.1V24c0-0.1,0-0.1,0-0.1c0,0,0-0.1,0.1-0.1c0,0,0.1,0,0.2,0c0,0,0.1,0,0.1,0l0,0.1
			c0,0-0.1,0-0.1,0c0,0-0.1,0-0.1,0c0,0,0,0,0,0.1v0.1h0.2v0.1h-0.2v0.8H119.7z"/>
		<path d="M120.2,24.2v-0.2h0.2v0.2H120.2z M120.2,24.9v-0.2h0.2v0.2H120.2z"/>
		<path d="M121.1,24.9v-0.2h0.2v0.2H121.1z"/>
		<path d="M121.5,24.7l0.1,0c0,0.1,0,0.1,0.1,0.1c0,0,0.1,0,0.1,0c0.1,0,0.1,0,0.1,0s0.1,0,0.1-0.1c0,0,0-0.1,0.1-0.1s0-0.1,0-0.2
			c0,0,0,0,0,0c0,0-0.1,0.1-0.1,0.1s-0.1,0-0.2,0c-0.1,0-0.2,0-0.3-0.1s-0.1-0.2-0.1-0.3c0-0.1,0-0.2,0.1-0.3
			c0.1-0.1,0.2-0.1,0.3-0.1c0.1,0,0.2,0,0.2,0.1s0.1,0.1,0.2,0.2c0,0.1,0.1,0.2,0.1,0.3s0,0.3-0.1,0.4s-0.1,0.2-0.2,0.2
			s-0.1,0.1-0.2,0.1c-0.1,0-0.2,0-0.2-0.1S121.5,24.8,121.5,24.7z M122.1,24.1c0-0.1,0-0.1-0.1-0.2c0,0-0.1-0.1-0.2-0.1
			c-0.1,0-0.1,0-0.2,0.1c-0.1,0-0.1,0.1-0.1,0.2c0,0.1,0,0.1,0.1,0.2c0.1,0,0.1,0.1,0.2,0.1s0.1,0,0.2-0.1
			C122.1,24.3,122.1,24.2,122.1,24.1z"/>
		<path d="M122.5,24.7l0.1,0c0,0.1,0,0.1,0.1,0.1c0,0,0.1,0,0.1,0c0,0,0.1,0,0.1,0c0,0,0.1,0,0.1-0.1c0,0,0-0.1,0.1-0.1
			c0-0.1,0-0.1,0-0.2c0,0,0,0,0,0c0,0-0.1,0.1-0.1,0.1s-0.1,0-0.2,0c-0.1,0-0.2,0-0.3-0.1s-0.1-0.2-0.1-0.3c0-0.1,0-0.2,0.1-0.3
			c0.1-0.1,0.2-0.1,0.3-0.1c0.1,0,0.2,0,0.2,0.1s0.1,0.1,0.2,0.2c0,0.1,0.1,0.2,0.1,0.3s0,0.3-0.1,0.4s-0.1,0.2-0.2,0.2
			s-0.1,0.1-0.2,0.1c-0.1,0-0.2,0-0.2-0.1S122.5,24.8,122.5,24.7z M123.1,24.1c0-0.1,0-0.1-0.1-0.2c0,0-0.1-0.1-0.2-0.1
			c-0.1,0-0.1,0-0.2,0.1c-0.1,0-0.1,0.1-0.1,0.2c0,0.1,0,0.1,0.1,0.2c0.1,0,0.1,0.1,0.2,0.1s0.1,0,0.2-0.1
			C123,24.3,123.1,24.2,123.1,24.1z"/>
	</g>
</g>
<g id="pred_o_1_">
	<rect x="132.7" y="6.2" class="st8" width="14.4" height="15"/>
	<rect x="132.7" y="21.2" class="st9" width="7.6" height="4.2"/>
	<g class="st7">
		<path d="M133.3,23v-1.2h0.1V23H133.3z"/>
		<path d="M134.3,22.7l0.1,0c0,0.1-0.1,0.2-0.1,0.2c-0.1,0.1-0.1,0.1-0.3,0.1c-0.1,0-0.2,0-0.3-0.1c-0.1-0.1-0.1-0.2-0.1-0.3
			c0-0.2,0-0.3,0.1-0.3c0.1-0.1,0.2-0.1,0.3-0.1s0.2,0,0.3,0.1c0.1,0.1,0.1,0.2,0.1,0.3c0,0,0,0,0,0h-0.6c0,0.1,0,0.2,0.1,0.2
			c0.1,0.1,0.1,0.1,0.2,0.1c0.1,0,0.1,0,0.1,0C134.2,22.8,134.3,22.8,134.3,22.7z M133.8,22.5h0.5c0-0.1,0-0.1-0.1-0.2
			c-0.1-0.1-0.1-0.1-0.2-0.1c-0.1,0-0.1,0-0.2,0.1C133.8,22.3,133.8,22.4,133.8,22.5z"/>
		<path d="M134.9,22.9l0,0.1c0,0-0.1,0-0.1,0c-0.1,0-0.1,0-0.1,0s-0.1,0-0.1-0.1c0,0,0-0.1,0-0.2v-0.5h-0.1v-0.1h0.1v-0.2l0.1-0.1
			v0.3h0.1v0.1h-0.1v0.5c0,0,0,0.1,0,0.1c0,0,0,0,0,0C134.9,22.9,134.9,22.9,134.9,22.9C134.9,22.9,134.9,22.9,134.9,22.9z"/>
		<path d="M135.4,22.9l0,0.1c0,0-0.1,0-0.1,0c-0.1,0-0.1,0-0.1,0s-0.1,0-0.1-0.1c0,0,0-0.1,0-0.2v-0.5H135v-0.1h0.1v-0.2l0.1-0.1
			v0.3h0.1v0.1h-0.1v0.5c0,0,0,0.1,0,0.1c0,0,0,0,0,0C135.3,22.9,135.3,22.9,135.4,22.9C135.4,22.9,135.4,22.9,135.4,22.9z"/>
		<path d="M136.2,22.7l0.1,0c0,0.1-0.1,0.2-0.1,0.2c-0.1,0.1-0.1,0.1-0.3,0.1c-0.1,0-0.2,0-0.3-0.1c-0.1-0.1-0.1-0.2-0.1-0.3
			c0-0.2,0-0.3,0.1-0.3c0.1-0.1,0.2-0.1,0.3-0.1s0.2,0,0.3,0.1c0.1,0.1,0.1,0.2,0.1,0.3c0,0,0,0,0,0h-0.6c0,0.1,0,0.2,0.1,0.2
			c0.1,0.1,0.1,0.1,0.2,0.1c0.1,0,0.1,0,0.1,0C136.1,22.8,136.1,22.8,136.2,22.7z M135.7,22.5h0.5c0-0.1,0-0.1-0.1-0.2
			c-0.1-0.1-0.1-0.1-0.2-0.1c-0.1,0-0.1,0-0.2,0.1C135.7,22.3,135.7,22.4,135.7,22.5z"/>
		<path d="M136.5,23v-0.9h0.1v0.1c0-0.1,0.1-0.1,0.1-0.1c0,0,0.1,0,0.1,0c0.1,0,0.1,0,0.1,0.1l-0.1,0.1c0,0-0.1,0-0.1,0
			c0,0-0.1,0-0.1,0s0,0.1-0.1,0.1c0,0.1,0,0.1,0,0.2V23C136.6,23,136.5,23,136.5,23z"/>
		<path d="M137.1,22.3v-0.2h0.2v0.2H137.1z M137.1,23v-0.2h0.2V23H137.1z"/>
		<path d="M137.9,23l0.5-0.6l-0.4-0.6h0.2l0.2,0.3c0.1,0.1,0.1,0.1,0.1,0.2c0,0,0.1-0.1,0.1-0.1l0.2-0.3h0.2l-0.4,0.6L139,23h-0.2
			l-0.3-0.4c0,0,0-0.1-0.1-0.1c0,0-0.1,0.1-0.1,0.1l-0.3,0.4C138.1,23,137.9,23,137.9,23z"/>
	</g>
	<g class="st7">
		<path d="M133.9,24.7l0.1,0c0,0.1-0.1,0.2-0.1,0.2c-0.1,0.1-0.1,0.1-0.2,0.1c-0.1,0-0.2,0-0.3-0.1c-0.1-0.1-0.1-0.2-0.1-0.3
			c0-0.1,0-0.2,0.1-0.3s0.1-0.1,0.1-0.2s0.1-0.1,0.2-0.1c0.1,0,0.2,0,0.2,0.1c0.1,0.1,0.1,0.1,0.1,0.2l-0.1,0c0-0.1,0-0.1-0.1-0.1
			c0,0-0.1,0-0.1,0c-0.1,0-0.1,0-0.2,0.1c-0.1,0.1-0.1,0.1-0.1,0.3c0,0.1,0,0.2,0.1,0.3s0.1,0.1,0.2,0.1c0.1,0,0.1,0,0.1-0.1
			C133.9,24.8,133.9,24.8,133.9,24.7z"/>
		<path d="M134.1,24.6c0-0.2,0-0.3,0.1-0.4c0.1-0.1,0.2-0.1,0.3-0.1c0.1,0,0.2,0,0.3,0.1c0.1,0.1,0.1,0.2,0.1,0.3
			c0,0.1,0,0.2-0.1,0.3c0,0.1-0.1,0.1-0.1,0.2c-0.1,0-0.1,0.1-0.2,0.1c-0.1,0-0.2,0-0.3-0.1C134.1,24.8,134.1,24.7,134.1,24.6z
			 M134.3,24.6c0,0.1,0,0.2,0.1,0.3c0.1,0.1,0.1,0.1,0.2,0.1c0.1,0,0.1,0,0.2-0.1c0.1-0.1,0.1-0.1,0.1-0.3s0-0.2-0.1-0.2
			c-0.1-0.1-0.1-0.1-0.2-0.1c-0.1,0-0.1,0-0.2,0.1C134.3,24.4,134.3,24.5,134.3,24.6z"/>
		<path d="M135.1,25v-0.9h0.1v0.1c0.1-0.1,0.2-0.1,0.3-0.1c0.1,0,0.1,0,0.1,0s0.1,0,0.1,0.1c0,0,0,0.1,0,0.1c0,0,0,0.1,0,0.1V25
			h-0.1v-0.5c0-0.1,0-0.1,0-0.1c0,0,0-0.1-0.1-0.1c0,0-0.1,0-0.1,0c-0.1,0-0.1,0-0.2,0.1c-0.1,0-0.1,0.1-0.1,0.2V25L135.1,25
			L135.1,25L135.1,25z"/>
		<path d="M136.1,25v-0.8h-0.1v-0.1h0.1V24c0-0.1,0-0.1,0-0.1c0,0,0-0.1,0.1-0.1c0,0,0.1,0,0.1,0c0,0,0.1,0,0.1,0l0,0.1
			c0,0-0.1,0-0.1,0c0,0-0.1,0-0.1,0c0,0,0,0.1,0,0.1v0.1h0.2v0.1h-0.2V25H136.1z"/>
		<path d="M136.5,24.3v-0.2h0.2v0.2H136.5z M136.5,25v-0.2h0.2V25H136.5z"/>
		<path d="M137.5,25v-0.2h0.2V25H137.5z"/>
		<path d="M137.9,24.7l0.1,0c0,0.1,0,0.1,0.1,0.1c0,0,0.1,0,0.1,0s0.1,0,0.1,0s0.1-0.1,0.1-0.1s0-0.1,0.1-0.1c0-0.1,0-0.1,0-0.2
			c0,0,0,0,0,0c0,0.1-0.1,0.1-0.1,0.1c0,0-0.1,0-0.2,0c-0.1,0-0.2,0-0.3-0.1c-0.1-0.1-0.1-0.2-0.1-0.3c0-0.1,0-0.2,0.1-0.3
			s0.2-0.1,0.3-0.1c0.1,0,0.1,0,0.2,0.1s0.1,0.1,0.1,0.2c0,0.1,0.1,0.2,0.1,0.3s0,0.3-0.1,0.4s-0.1,0.2-0.1,0.2
			c-0.1,0.1-0.1,0.1-0.2,0.1s-0.2,0-0.2-0.1C137.9,24.9,137.9,24.8,137.9,24.7z M138.5,24.2c0-0.1,0-0.2-0.1-0.2
			c0-0.1-0.1-0.1-0.2-0.1c-0.1,0-0.1,0-0.2,0.1c-0.1,0.1-0.1,0.1-0.1,0.2c0,0.1,0,0.1,0.1,0.2c0.1,0.1,0.1,0.1,0.2,0.1
			c0.1,0,0.1,0,0.2-0.1C138.4,24.3,138.5,24.3,138.5,24.2z"/>
		<path d="M138.8,24.7l0.1,0c0,0.1,0,0.1,0.1,0.1c0,0,0.1,0,0.1,0c0,0,0.1,0,0.1,0c0,0,0.1-0.1,0.1-0.1s0-0.1,0.1-0.1
			c0-0.1,0-0.1,0-0.2c0,0,0,0,0,0c0,0.1-0.1,0.1-0.1,0.1c0,0-0.1,0-0.2,0c-0.1,0-0.2,0-0.3-0.1c-0.1-0.1-0.1-0.2-0.1-0.3
			c0-0.1,0-0.2,0.1-0.3s0.2-0.1,0.3-0.1c0.1,0,0.1,0,0.2,0.1s0.1,0.1,0.1,0.2c0,0.1,0.1,0.2,0.1,0.3s0,0.3-0.1,0.4s-0.1,0.2-0.1,0.2
			c-0.1,0.1-0.1,0.1-0.2,0.1s-0.2,0-0.2-0.1C138.9,24.9,138.8,24.8,138.8,24.7z M139.4,24.2c0-0.1,0-0.2-0.1-0.2
			c0-0.1-0.1-0.1-0.2-0.1c-0.1,0-0.1,0-0.2,0.1c-0.1,0.1-0.1,0.1-0.1,0.2c0,0.1,0,0.1,0.1,0.2c0.1,0.1,0.1,0.1,0.2,0.1
			c0.1,0,0.1,0,0.2-0.1C139.4,24.3,139.4,24.3,139.4,24.2z"/>
	</g>
</g>
<g id="pred_o_2_">
	<rect x="148.6" y="6.2" class="st5" width="14.4" height="15"/>
	<rect x="148.6" y="21.2" class="st6" width="7.6" height="4.2"/>
	<g class="st7">
		<path d="M149.2,23v-1.2h0.1V23H149.2z"/>
		<path d="M150.2,22.8l0.1,0c0,0.1-0.1,0.2-0.1,0.2s-0.1,0.1-0.3,0.1c-0.1,0-0.2,0-0.3-0.1s-0.1-0.2-0.1-0.3c0-0.2,0-0.3,0.1-0.3
			c0.1-0.1,0.2-0.1,0.3-0.1s0.2,0,0.3,0.1c0.1,0.1,0.1,0.2,0.1,0.3c0,0,0,0,0,0h-0.6c0,0.1,0,0.2,0.1,0.2s0.1,0.1,0.2,0.1
			c0.1,0,0.1,0,0.1,0S150.1,22.8,150.2,22.8z M149.7,22.5h0.5c0-0.1,0-0.1-0.1-0.2c-0.1-0.1-0.1-0.1-0.2-0.1c-0.1,0-0.1,0-0.2,0.1
			C149.7,22.4,149.7,22.5,149.7,22.5z"/>
		<path d="M150.8,22.9l0,0.1c0,0-0.1,0-0.1,0c-0.1,0-0.1,0-0.1,0s-0.1,0-0.1-0.1c0,0,0-0.1,0-0.2v-0.5h-0.1v-0.1h0.1V22l0.1-0.1v0.3
			h0.1v0.1h-0.1v0.5c0,0,0,0.1,0,0.1s0,0,0,0S150.8,22.9,150.8,22.9C150.8,22.9,150.8,22.9,150.8,22.9z"/>
		<path d="M151.3,22.9l0,0.1c0,0-0.1,0-0.1,0c-0.1,0-0.1,0-0.1,0S151,23,151,23c0,0,0-0.1,0-0.2v-0.5h-0.1v-0.1h0.1V22l0.1-0.1v0.3
			h0.1v0.1h-0.1v0.5c0,0,0,0.1,0,0.1c0,0,0,0,0,0S151.2,22.9,151.3,22.9C151.2,22.9,151.3,22.9,151.3,22.9z"/>
		<path d="M152,22.8l0.1,0c0,0.1-0.1,0.2-0.1,0.2s-0.1,0.1-0.3,0.1c-0.1,0-0.2,0-0.3-0.1s-0.1-0.2-0.1-0.3c0-0.2,0-0.3,0.1-0.3
			c0.1-0.1,0.2-0.1,0.3-0.1s0.2,0,0.3,0.1c0.1,0.1,0.1,0.2,0.1,0.3c0,0,0,0,0,0h-0.6c0,0.1,0,0.2,0.1,0.2s0.1,0.1,0.2,0.1
			c0.1,0,0.1,0,0.1,0S152,22.8,152,22.8z M151.5,22.5h0.5c0-0.1,0-0.1-0.1-0.2c-0.1-0.1-0.1-0.1-0.2-0.1c-0.1,0-0.1,0-0.2,0.1
			C151.6,22.4,151.6,22.5,151.5,22.5z"/>
		<path d="M152.4,23v-0.9h0.1v0.1c0-0.1,0.1-0.1,0.1-0.1c0,0,0.1,0,0.1,0c0.1,0,0.1,0,0.1,0.1l-0.1,0.1c0,0-0.1,0-0.1,0
			c0,0-0.1,0-0.1,0s0,0.1-0.1,0.1c0,0.1,0,0.1,0,0.2V23C152.5,23,152.4,23,152.4,23z"/>
		<path d="M153,22.3v-0.2h0.2v0.2H153z M153,23v-0.2h0.2V23H153z"/>
		<path d="M153.8,22.6c0-0.2,0-0.3,0.1-0.4c0.1-0.1,0.2-0.1,0.3-0.1c0.1,0,0.2,0,0.3,0.1c0.1,0.1,0.1,0.2,0.1,0.3
			c0,0.1,0,0.2-0.1,0.3s-0.1,0.1-0.1,0.2c-0.1,0-0.1,0.1-0.2,0.1c-0.1,0-0.2,0-0.3-0.1C153.8,22.9,153.8,22.8,153.8,22.6z M154,22.6
			c0,0.1,0,0.2,0.1,0.3c0.1,0.1,0.1,0.1,0.2,0.1c0.1,0,0.1,0,0.2-0.1c0.1-0.1,0.1-0.1,0.1-0.3s0-0.2-0.1-0.2
			c-0.1-0.1-0.1-0.1-0.2-0.1c-0.1,0-0.1,0-0.2,0.1S154,22.5,154,22.6z"/>
	</g>
	<g class="st7">
		<path d="M149.8,24.7l0.1,0c0,0.1-0.1,0.2-0.1,0.2c-0.1,0.1-0.1,0.1-0.2,0.1c-0.1,0-0.2,0-0.3-0.1c-0.1-0.1-0.1-0.2-0.1-0.3
			c0-0.1,0-0.2,0.1-0.3s0.1-0.1,0.1-0.2s0.1-0.1,0.2-0.1c0.1,0,0.2,0,0.2,0.1s0.1,0.1,0.1,0.2l-0.1,0c0-0.1,0-0.1-0.1-0.1
			c0,0-0.1,0-0.1,0c-0.1,0-0.1,0-0.2,0.1c-0.1,0.1-0.1,0.1-0.1,0.3c0,0.1,0,0.2,0.1,0.3s0.1,0.1,0.2,0.1c0.1,0,0.1,0,0.1-0.1
			C149.7,24.9,149.8,24.8,149.8,24.7z"/>
		<path d="M150,24.6c0-0.2,0-0.3,0.1-0.4c0.1-0.1,0.2-0.1,0.3-0.1c0.1,0,0.2,0,0.3,0.1c0.1,0.1,0.1,0.2,0.1,0.3c0,0.1,0,0.2-0.1,0.3
			s-0.1,0.1-0.1,0.2c-0.1,0-0.1,0.1-0.2,0.1c-0.1,0-0.2,0-0.3-0.1C150,24.9,150,24.8,150,24.6z M150.1,24.6c0,0.1,0,0.2,0.1,0.3
			c0.1,0.1,0.1,0.1,0.2,0.1c0.1,0,0.1,0,0.2-0.1c0.1-0.1,0.1-0.1,0.1-0.3s0-0.2-0.1-0.2c-0.1-0.1-0.1-0.1-0.2-0.1
			c-0.1,0-0.1,0-0.2,0.1S150.1,24.5,150.1,24.6z"/>
		<path d="M151,25.1v-0.9h0.1v0.1c0.1-0.1,0.2-0.1,0.3-0.1c0.1,0,0.1,0,0.1,0s0.1,0,0.1,0.1c0,0,0,0.1,0,0.1c0,0,0,0.1,0,0.1V25
			h-0.1v-0.5c0-0.1,0-0.1,0-0.1c0,0,0-0.1-0.1-0.1s-0.1,0-0.1,0c-0.1,0-0.1,0-0.2,0.1c-0.1,0-0.1,0.1-0.1,0.2V25L151,25.1L151,25.1
			L151,25.1z"/>
		<path d="M151.9,25.1v-0.8h-0.1v-0.1h0.1v-0.1c0-0.1,0-0.1,0-0.1c0,0,0-0.1,0.1-0.1c0,0,0.1,0,0.1,0c0,0,0.1,0,0.1,0l0,0.1
			c0,0-0.1,0-0.1,0c0,0-0.1,0-0.1,0c0,0,0,0.1,0,0.1v0.1h0.2v0.1h-0.2v0.8H151.9z"/>
		<path d="M152.4,24.4v-0.2h0.2v0.2H152.4z M152.4,25.1v-0.2h0.2v0.2H152.4z"/>
		<path d="M153.3,25.1v-0.2h0.2v0.2H153.3z"/>
		<path d="M153.9,24.4c-0.1,0-0.1-0.1-0.1-0.1c0,0,0-0.1,0-0.2c0-0.1,0-0.2,0.1-0.2s0.1-0.1,0.3-0.1s0.2,0,0.3,0.1s0.1,0.1,0.1,0.2
			c0,0.1,0,0.1,0,0.2c0,0-0.1,0.1-0.1,0.1c0.1,0,0.1,0.1,0.2,0.1c0,0.1,0.1,0.1,0.1,0.2c0,0.1,0,0.2-0.1,0.3s-0.2,0.1-0.3,0.1
			s-0.2,0-0.3-0.1c-0.1-0.1-0.1-0.2-0.1-0.3c0-0.1,0-0.1,0.1-0.2C153.8,24.5,153.9,24.4,153.9,24.4z M153.9,24.7c0,0,0,0.1,0,0.1
			s0.1,0.1,0.1,0.1s0.1,0,0.1,0c0.1,0,0.1,0,0.2-0.1c0.1-0.1,0.1-0.1,0.1-0.2s0-0.1-0.1-0.2c-0.1-0.1-0.1-0.1-0.2-0.1
			c-0.1,0-0.1,0-0.2,0.1C153.9,24.6,153.9,24.6,153.9,24.7z M153.9,24.1c0,0.1,0,0.1,0.1,0.1c0,0,0.1,0.1,0.1,0.1s0.1,0,0.1-0.1
			c0,0,0.1-0.1,0.1-0.1s0-0.1-0.1-0.1s-0.1-0.1-0.1-0.1S154,24,154,24S153.9,24.1,153.9,24.1z"/>
		<path d="M155.4,24.9v0.1h-0.8c0,0,0-0.1,0-0.1c0-0.1,0.1-0.1,0.1-0.2c0-0.1,0.1-0.1,0.2-0.2c0.1-0.1,0.2-0.2,0.3-0.3
			s0.1-0.1,0.1-0.2s0-0.1-0.1-0.2c0,0-0.1-0.1-0.2-0.1c-0.1,0-0.1,0-0.2,0.1c0,0-0.1,0.1-0.1,0.2l-0.1,0c0-0.1,0.1-0.2,0.1-0.3
			c0.1-0.1,0.2-0.1,0.3-0.1s0.2,0,0.3,0.1c0.1,0.1,0.1,0.1,0.1,0.2c0,0.1,0,0.1,0,0.1c0,0.1-0.1,0.1-0.1,0.2s-0.1,0.1-0.2,0.2
			c-0.1,0.1-0.1,0.1-0.2,0.2c0,0-0.1,0.1-0.1,0.1C154.8,24.9,155.4,24.9,155.4,24.9z"/>
	</g>
</g>
<g>
	<path d="M31.3,15.9C31.1,15.9,31,16,30.9,16c0,0-0.1-0.1-0.1-0.2c-0.1-0.1-0.2-0.3-0.3-0.4c-0.1-0.1-0.2-0.3-0.3-0.4
		c-0.1-0.1-0.2-0.3-0.3-0.4c-0.1-0.1-0.2-0.3-0.3-0.4c0-0.1-0.1-0.2-0.2-0.2c0,0,0,0,0,0c-0.1,0-0.2,0.1-0.3,0.1c-0.1,0-0.1,0-0.2,0
		c-0.1,0-0.1,0-0.2,0c-0.1,0-0.2,0-0.3,0s-0.2,0-0.3,0c-0.2,0-0.4,0-0.6,0c-0.1,0-0.3,0-0.4,0c-0.1,0-0.2,0-0.3,0
		c-0.1,0-0.1,0-0.2,0c-0.1,0-0.1,0-0.2,0c-0.1,0-0.1,0-0.2,0c0,0-0.1,0-0.1,0c0,0,0,0,0,0c-0.1,0-0.1,0-0.1,0.1
		c-0.1,0.1-0.2,0.3-0.3,0.4c-0.1,0.1-0.2,0.2-0.3,0.4s-0.2,0.2-0.3,0.4s-0.2,0.3-0.3,0.4s-0.2,0.2-0.3,0.4c0,0,0,0,0,0
		c-0.1-0.1-0.2-0.1-0.3-0.2c0,0,0,0,0,0c0.1-0.1,0.1-0.2,0.2-0.4c0.1-0.2,0.3-0.5,0.4-0.7c0.1-0.2,0.2-0.4,0.3-0.6
		c0.1-0.2,0.2-0.4,0.3-0.5c0-0.1,0-0.1,0-0.1c-0.1-0.1-0.1-0.3-0.2-0.4c0-0.2-0.1-0.3-0.1-0.5c0-0.1,0-0.1,0-0.2c0,0,0,0,0,0
		c-0.1,0-0.3,0.1-0.4,0.1c-0.1,0.1-0.3,0.2-0.4,0.4c-0.1,0.1-0.2,0.3-0.4,0.4c-0.1,0.1-0.2,0.2-0.4,0.3c-0.1,0.1-0.3,0.1-0.4,0.1
		c0,0-0.1,0-0.1-0.1c0,0,0-0.1,0-0.1c0.1,0,0.1-0.1,0.2-0.1c0-0.1,0.1-0.1,0.1-0.2c0.1-0.2,0.2-0.4,0.3-0.6c0.1-0.2,0.2-0.3,0.3-0.5
		c0.1-0.1,0.2-0.3,0.4-0.3c0.1-0.1,0.3-0.1,0.4-0.1c0.1,0,0.2,0,0.3,0.1c0.1,0,0.1,0.1,0.2,0.1c0,0,0,0,0.1,0
		c0.1-0.1,0.2-0.2,0.3-0.2c0.1,0,0.2-0.1,0.2-0.1c0.1,0,0.2,0,0.3,0c0.1,0,0.3,0,0.4,0c0.1,0,0.3,0,0.4,0c0.1,0,0.3,0,0.4,0
		c0.1,0,0.2,0,0.3,0c0.1,0,0.2,0,0.3-0.1c0.1,0,0.2-0.1,0.3-0.2c0.1-0.1,0.2-0.3,0.3-0.4c0.1-0.2,0.2-0.4,0.2-0.6
		c0.1-0.2,0.2-0.4,0.3-0.6c0.1-0.2,0.3-0.4,0.4-0.5c0.1-0.1,0.2-0.2,0.4-0.2c0.1-0.1,0.3-0.1,0.4-0.1c0,0,0,0,0.1,0
		c0.1-0.1,0.2-0.3,0.3-0.4c0,0,0,0,0,0c0,0.1,0,0.1,0.1,0.2c0.1-0.1,0.1-0.1,0.2-0.2c0,0,0,0,0,0.1c0,0.1,0,0.3,0,0.4c0,0,0,0,0,0.1
		c0.3,0.3,0.6,0.6,0.9,0.9c0,0,0.1,0.1,0.1,0.1c0,0,0,0.1,0,0.1c0,0.1,0,0.3,0,0.4c0,0.1,0,0.1-0.1,0.1c-0.1,0.1-0.3,0.1-0.4,0.1
		c0,0,0,0-0.1,0c0,0-0.1,0-0.1,0s0-0.1-0.1-0.1c0-0.1-0.1-0.1-0.1-0.1c0,0-0.1,0-0.1,0c-0.1,0-0.1,0-0.2,0c-0.1,0-0.2,0.1-0.3,0
		c-0.1,0-0.2,0-0.2-0.1c0,0,0,0,0,0.1c0,0.2,0,0.4,0,0.7c0,0.2,0,0.4,0,0.5c0,0.2,0,0.3,0,0.5c0,0,0,0.1,0,0.1c0,0.1,0,0.2,0,0.4
		c0,0.2-0.1,0.4-0.2,0.5c-0.1,0.1-0.2,0.2-0.3,0.4c0,0,0,0,0,0.1c0.1,0.2,0.2,0.4,0.3,0.7c0.1,0.3,0.3,0.5,0.4,0.8
		c0.1,0.2,0.2,0.4,0.3,0.6C31.2,15.7,31.2,15.8,31.3,15.9z"/>
	<path d="M23.7,15.9c0-0.1,0.1-0.1,0.1-0.2c0,0,0.1-0.1,0.1-0.1c0,0,0,0,0,0c0.2,0.1,0.3,0.2,0.5,0.3c0.2,0.1,0.3,0.2,0.5,0.3
		c0.1,0.1,0.3,0.1,0.5,0.2c0.1,0,0.2,0.1,0.3,0.1c0.1,0,0.2,0.1,0.3,0.1c0.1,0,0.2,0,0.3,0.1c0.1,0,0.2,0,0.3,0c0.1,0,0.1,0,0.2,0
		c0.1,0,0.1,0,0.2,0c0.5,0,1,0,1.5,0c0.2,0,0.3,0,0.5,0c0.1,0,0.2,0,0.3,0c0.1,0,0.1,0,0.2,0c0,0,0.1,0,0.1,0c0.1,0,0.2,0,0.3-0.1
		c0.1,0,0.2,0,0.3-0.1c0.1,0,0.2-0.1,0.3-0.1c0.1,0,0.2-0.1,0.4-0.1c0.1-0.1,0.3-0.1,0.4-0.2c0.2-0.1,0.3-0.2,0.5-0.3
		c0.1,0,0.1-0.1,0.2-0.1c0,0,0,0,0,0c0.1,0.1,0.1,0.2,0.2,0.3c0,0,0,0,0,0c-0.2,0.1-0.4,0.3-0.6,0.4c-0.2,0.1-0.4,0.2-0.6,0.3
		c-0.1,0.1-0.3,0.1-0.5,0.2c-0.1,0-0.2,0.1-0.3,0.1c-0.1,0-0.2,0.1-0.3,0.1c-0.1,0-0.2,0-0.2,0.1c-0.1,0-0.2,0-0.3,0.1
		c-0.1,0-0.1,0-0.2,0c0,0-0.1,0-0.1,0c-0.2,0-0.3,0-0.5,0.1c-0.2,0-0.4,0-0.6,0c-0.1,0-0.3,0-0.4,0c-0.1,0-0.2,0-0.3,0
		c-0.1,0-0.1,0-0.2,0c0,0-0.1,0-0.2,0c-0.1,0-0.1,0-0.2,0c-0.1,0-0.1,0-0.2,0c-0.1,0-0.1,0-0.2,0c-0.1,0-0.1,0-0.2,0
		c-0.1,0-0.1,0-0.2-0.1c-0.1,0-0.1,0-0.2-0.1c-0.1,0-0.2-0.1-0.2-0.1c-0.1,0-0.2-0.1-0.3-0.1c-0.1-0.1-0.3-0.1-0.4-0.2
		c-0.2-0.1-0.3-0.2-0.5-0.3c-0.1-0.1-0.2-0.2-0.4-0.3C23.8,16.1,23.7,16,23.7,15.9C23.7,15.9,23.7,15.9,23.7,15.9z"/>
</g>
<g>
	<rect x="143.4" y="17.4" class="st10" width="3.2" height="3.2"/>
	<path class="st11" d="M143.4,17.4v3.2h0.6v-3.2H143.4z M144.7,17.4v3.2h0.6v-3.2H144.7z M146,17.4v3.2h0.6v-3.2H146z M143.4,17.4
		h3.2v0.6h-3.2V17.4z M143.4,18.7h3.2v0.6h-3.2V18.7z M143.4,20h3.2v0.6h-3.2V20z"/>
</g>
</svg>
