<?xml version="1.0" encoding="utf-8"?>
<!-- Generator: Adobe Illustrator 24.2.0, SVG Export Plug-In . SVG Version: 6.00 Build 0)  -->
<svg version="1.1" id="Layer_1" xmlns="http://www.w3.org/2000/svg" xmlns:xlink="http://www.w3.org/1999/xlink" x="0px" y="0px"
	 viewBox="0 0 199.7 40.2" enable-background="new 0 0 199.7 40.2" xml:space="preserve">
<g>
	<path fill="#EE4C2C" d="M40.8,9.3l-2.1,2.1c3.5,3.5,3.5,9.2,0,12.7s-9.2,3.5-12.7,0s-3.5-9.2,0-12.7l0,0l5.6-5.6L32.3,5l0,0V0.8
		l-8.5,8.5c-4.7,4.7-4.7,12.2,0,16.9s12.2,4.7,16.9,0C45.5,21.5,45.5,13.9,40.8,9.3z"/>
	<circle fill="#EE4C2C" cx="36.6" cy="7.1" r="1.6"/>
</g>
<g enable-background="new    ">
	<path d="M53.9,2.9h21.2v2.5h-9.2v23.7h-2.7V5.5h-9.2V2.9z"/>
	<path d="M72.1,10l2.6-0.6v4.1c0.7-1.3,1.5-2.3,2.4-3s2.1-1.1,3.3-1.1c1.2,0,2.4,0.3,3.4,0.9L83,12.7c-0.9-0.6-1.9-0.8-2.9-0.8
		c-2.2,0-4,1.7-5.4,5v12.3h-2.6V10z"/>
	<path d="M85.1,12.2c1.8-1.9,4.1-2.8,6.8-2.8s4.9,0.9,6.7,2.8c1.7,1.9,2.6,4.3,2.6,7.4c0,3-0.9,5.5-2.7,7.4c-1.8,1.9-4,2.9-6.7,2.9
		S86.7,28.8,85,27c-1.7-1.8-2.6-4.3-2.6-7.3C82.4,16.6,83.3,14.1,85.1,12.2z M86.9,25.2c1.3,1.5,2.9,2.2,4.9,2.2s3.7-0.7,4.9-2.2
		c1.2-1.5,1.8-3.3,1.8-5.6c0-2.4-0.6-4.2-1.9-5.7c-1.3-1.4-2.9-2.2-4.9-2.2s-3.7,0.7-4.9,2.2S85,17.3,85,19.5
		C85,21.9,85.6,23.8,86.9,25.2z"/>
	<g>
		<path d="M103,30.6c0,2.1-0.3,3.6-0.8,4.6c-0.6,1-1.5,1.9-2.9,2.7l1.8,1.8c1.7-0.9,2.8-2,3.5-3.4s1-3.3,1-5.7V9.4L103,10V30.6z"/>
		<path d="M105.6,2.3c-0.3-0.3-0.8-0.5-1.3-0.5s-1,0.2-1.3,0.5s-0.5,0.8-0.5,1.3c0,0.5,0.2,1,0.5,1.4c0.3,0.4,0.7,0.6,1.3,0.6
			s1-0.2,1.3-0.6c0.3-0.4,0.5-0.8,0.5-1.4C106,3.1,105.9,2.7,105.6,2.3z"/>
	</g>
	<path d="M118.7,17.6v-1.1c0-1.5-0.4-2.7-1.1-3.4s-1.9-1.1-3.4-1.1c-1,0-2.1,0.2-3.2,0.7s-2.2,1-3.1,1.6l-0.6-2.4
		c0.9-0.6,2-1.2,3.4-1.6c1.3-0.5,2.6-0.7,3.8-0.7c2.3,0,4,0.6,5.2,1.7s1.7,2.9,1.7,5.2v9.2c0,0.8,0.1,1.3,0.4,1.5
		c0.2,0.3,0.7,0.4,1.5,0.4c0,0,0.1,0,0.1,0l-0.2,2.1c-0.2,0-0.4,0-0.6,0c-2.2,0-3.4-0.9-3.7-2.7h-0.1c-0.7,0.8-1.5,1.5-2.5,2.1
		s-2,0.8-3.1,0.8c-1.8,0-3.2-0.5-4.4-1.5S107,26,107,24.4C107,20.3,110.9,18,118.7,17.6z M110.8,26.6c0.7,0.6,1.7,0.9,2.8,0.9
		c1,0,1.9-0.2,2.7-0.7s1.6-1.1,2.3-1.8v-5.6c-3.2,0.4-5.5,0.9-6.9,1.7c-1.4,0.8-2.1,1.8-2.1,3.1C109.7,25.1,110.1,25.9,110.8,26.6z"
		/>
	<path d="M124.1,10l2.6-0.6v3.2c1-1,2.1-1.8,3.3-2.3c1.2-0.6,2.3-0.8,3.3-0.8c1.9,0,3.4,0.6,4.5,1.7c1.1,1.2,1.6,2.8,1.6,4.9v13.2
		h-2.6V16.8c0-1.7-0.3-2.9-1-3.7c-0.7-0.8-1.8-1.2-3.2-1.2c-1,0-2,0.2-3.1,0.7s-1.9,1.1-2.8,2v14.6h-2.6V10z"/>
	<path d="M140.3,27.2l15.6-21.8h-15.1V2.9h18.5v2l-15.6,21.8h15.5v2.4h-18.9V27.2z"/>
	<path d="M161.8,12.2c1.8-1.9,4.1-2.8,6.8-2.8s4.9,0.9,6.7,2.8c1.7,1.9,2.6,4.3,2.6,7.4c0,3-0.9,5.5-2.7,7.4c-1.8,1.9-4,2.9-6.7,2.9
		s-4.9-0.9-6.7-2.8c-1.7-1.8-2.6-4.3-2.6-7.3C159.1,16.6,160,14.1,161.8,12.2z M163.6,25.2c1.3,1.5,2.9,2.2,4.9,2.2s3.7-0.7,4.9-2.2
		c1.2-1.5,1.8-3.3,1.8-5.6c0-2.4-0.6-4.2-1.9-5.7c-1.3-1.4-2.9-2.2-4.9-2.2s-3.7,0.7-4.9,2.2s-1.9,3.3-1.9,5.6
		C161.7,21.9,162.3,23.8,163.6,25.2z"/>
	<path d="M181.1,12.2c1.8-1.9,4.1-2.8,6.8-2.8s4.9,0.9,6.7,2.8c1.7,1.9,2.6,4.3,2.6,7.4c0,3-0.9,5.5-2.7,7.4c-1.8,1.9-4,2.9-6.7,2.9
		s-4.9-0.9-6.7-2.8c-1.7-1.8-2.6-4.3-2.6-7.3C178.4,16.6,179.3,14.1,181.1,12.2z M182.9,25.2c1.3,1.5,2.9,2.2,4.9,2.2
		s3.7-0.7,4.9-2.2c1.2-1.5,1.8-3.3,1.8-5.6c0-2.4-0.6-4.2-1.9-5.7c-1.3-1.4-2.9-2.2-4.9-2.2s-3.7,0.7-4.9,2.2s-1.9,3.3-1.9,5.6
		C181,21.9,181.6,23.8,182.9,25.2z"/>
</g>
<g>
	<path fill="#4285F4" d="M37,21.8c-0.2,0.1-0.3,0.2-0.5,0.2c-0.1-0.1-0.1-0.1-0.1-0.2c-0.1-0.2-0.3-0.4-0.4-0.6
		c-0.1-0.2-0.2-0.4-0.4-0.5c-0.1-0.2-0.3-0.4-0.4-0.6c-0.1-0.2-0.2-0.3-0.3-0.5c-0.1-0.1-0.1-0.2-0.2-0.3l0,0
		c-0.1,0-0.3,0.1-0.4,0.1c-0.1,0-0.2,0-0.3,0s-0.2,0-0.2,0c-0.1,0-0.3,0-0.4,0c-0.1,0-0.3,0-0.4,0c-0.3,0-0.6,0-0.9,0
		c-0.2,0-0.4,0-0.6,0c-0.1,0-0.3,0-0.4,0s-0.2,0-0.3,0c-0.1,0-0.2,0-0.2,0c-0.1,0-0.2,0-0.2,0c-0.1,0-0.1,0-0.2,0l0,0
		c-0.1,0-0.1,0-0.2,0.1c-0.1,0.2-0.3,0.4-0.4,0.5c-0.1,0.2-0.2,0.3-0.4,0.5c-0.1,0.2-0.2,0.3-0.4,0.5c-0.1,0.2-0.2,0.4-0.4,0.5
		c-0.1,0.2-0.2,0.3-0.4,0.5l0,0c-0.2-0.1-0.3-0.1-0.5-0.2c0,0,0,0,0-0.1c0.1-0.2,0.2-0.3,0.3-0.5c0.2-0.3,0.4-0.7,0.5-1
		c0.2-0.3,0.3-0.6,0.5-0.9c0.1-0.2,0.3-0.5,0.4-0.7c0-0.1,0-0.1,0-0.1C29.1,18.3,29,18.1,29,18c-0.1-0.2-0.1-0.5-0.1-0.7
		c0-0.1,0-0.2,0-0.2s0,0-0.1,0c-0.2,0-0.4,0.1-0.6,0.2s-0.3,0.3-0.5,0.5s-0.3,0.4-0.5,0.6c-0.2,0.1-0.3,0.3-0.5,0.4
		s-0.4,0.2-0.6,0.1c0,0-0.1,0-0.1-0.1c0,0,0-0.1,0.1-0.1c0.1-0.1,0.2-0.1,0.3-0.2s0.1-0.1,0.2-0.2c0.2-0.3,0.3-0.5,0.5-0.8
		c0.1-0.2,0.2-0.5,0.4-0.7c0.1-0.2,0.3-0.4,0.5-0.5s0.4-0.1,0.6-0.1s0.3,0.1,0.4,0.1s0.2,0.1,0.3,0.2h0.1c0.1-0.1,0.3-0.3,0.5-0.3
		c0.1,0,0.2-0.1,0.3-0.1c0.1,0,0.3,0,0.4-0.1c0.2,0,0.4,0,0.6,0s0.4,0,0.5,0c0.2,0,0.4,0,0.6,0c0.1,0,0.3,0,0.4,0
		c0.1,0,0.3,0,0.4-0.1c0.2-0.1,0.3-0.2,0.4-0.3c0.2-0.2,0.3-0.4,0.4-0.6c0.1-0.3,0.2-0.6,0.3-0.8c0.1-0.3,0.3-0.6,0.4-0.9
		c0.2-0.3,0.4-0.5,0.6-0.7c0.2-0.1,0.3-0.2,0.5-0.3s0.4-0.1,0.6-0.1c0,0,0.1,0,0.1-0.1c0.2-0.2,0.3-0.4,0.5-0.5l0,0
		c0,0.1,0.1,0.2,0.1,0.3c0.1-0.1,0.2-0.2,0.3-0.2c0,0,0,0,0,0.1c0,0.2,0,0.4,0,0.6v0.1c0.4,0.4,0.8,0.8,1.2,1.2
		c0.1,0.1,0.1,0.1,0.2,0.2V14c0,0.2,0,0.4,0,0.5s-0.1,0.1-0.1,0.1c-0.2,0.1-0.4,0.1-0.6,0.2h-0.1c-0.1,0-0.1,0-0.1-0.1l-0.1-0.1
		c0-0.1-0.1-0.1-0.2-0.1c-0.1,0-0.1,0-0.2,0c-0.1,0-0.2,0-0.2,0c-0.1,0-0.3,0.1-0.4,0.1c-0.1,0-0.2-0.1-0.3-0.1v0.1
		c0,0.3,0,0.6,0,0.9c0,0.2,0,0.5,0,0.7c0,0.2,0,0.5,0,0.7c0,0.1,0,0.1,0,0.2c0,0.2,0,0.3-0.1,0.5c0,0.3-0.1,0.5-0.3,0.8
		c-0.1,0.2-0.2,0.3-0.4,0.5V19c0.2,0.3,0.3,0.6,0.5,0.9c0.2,0.4,0.4,0.7,0.5,1.1C36.7,21.3,36.9,21.5,37,21.8
		C36.9,21.6,36.9,21.7,37,21.8z"/>
	<path fill="#4285F4" d="M26.4,21.9c0.1-0.1,0.1-0.2,0.2-0.2c0-0.1,0.1-0.1,0.1-0.2c0,0,0,0,0.1,0c0.2,0.2,0.5,0.3,0.7,0.5
		c0.2,0.1,0.5,0.3,0.7,0.4s0.4,0.2,0.6,0.3c0.1,0.1,0.3,0.1,0.4,0.2c0.1,0,0.3,0.1,0.4,0.1s0.3,0.1,0.4,0.1s0.3,0,0.4,0.1
		c0.1,0,0.2,0,0.3,0c0.1,0,0.2,0,0.3,0c0.7,0.1,1.4,0.1,2.1,0.1c0.2,0,0.4,0,0.6,0c0.1,0,0.3,0,0.4,0c0.1,0,0.2,0,0.3,0s0.1,0,0.2,0
		c0.2,0,0.3-0.1,0.5-0.1c0.1,0,0.2-0.1,0.4-0.1S35.8,23,36,23c0.2-0.1,0.3-0.1,0.5-0.2s0.4-0.2,0.6-0.3c0.2-0.1,0.5-0.3,0.7-0.4
		c0.1-0.1,0.2-0.1,0.3-0.2l0,0c0.1,0.1,0.2,0.3,0.3,0.4c0,0,0,0,0,0.1c-0.3,0.2-0.5,0.4-0.8,0.6s-0.5,0.3-0.8,0.5
		c-0.2,0.1-0.4,0.2-0.6,0.3c-0.2,0.1-0.3,0.1-0.5,0.2c-0.1,0-0.2,0.1-0.4,0.1c-0.1,0-0.2,0.1-0.3,0.1s-0.3,0.1-0.4,0.1
		c-0.1,0-0.2,0.1-0.3,0.1s-0.1,0-0.2,0c-0.2,0-0.4,0.1-0.7,0.1s-0.6,0.1-0.9,0.1c-0.2,0-0.4,0-0.6,0c-0.1,0-0.3,0-0.4,0
		s-0.2,0-0.3,0c-0.1,0-0.1,0-0.2,0s-0.2,0-0.2,0c-0.1,0-0.2,0-0.3-0.1c-0.1,0-0.2,0-0.3-0.1c-0.1,0-0.2,0-0.2-0.1
		c-0.1,0-0.2-0.1-0.3-0.1c-0.1,0-0.2-0.1-0.3-0.1c-0.1,0-0.2-0.1-0.3-0.1c-0.2-0.1-0.3-0.1-0.5-0.2s-0.4-0.2-0.6-0.3
		c-0.2-0.1-0.5-0.3-0.7-0.4s-0.3-0.2-0.5-0.4C26.6,22,26.5,22,26.4,21.9L26.4,21.9z"/>
</g>
</svg>
